<?xml version="1.0" encoding="UTF-8" standalone="no"?>
<svg width="94px" height="99px" viewBox="0 0 94 99" version="1.1" xmlns="http://www.w3.org/2000/svg" xmlns:xlink="http://www.w3.org/1999/xlink">
    <!-- Generator: Sketch 47.1 (45422) - http://www.bohemiancoding.com/sketch -->
    <title>additional-document</title>
    <desc>Created with Sketch.</desc>
    <defs>
        <polygon id="path-1" points="94 49.50033 94 99 0 99 0 49.50033 0 0.00066 94 0.00066"></polygon>
    </defs>
    <g id="Design" stroke="none" stroke-width="1" fill="none" fill-rule="evenodd">
        <g id="Desktop---Pricing" transform="translate(-445.000000, -2508.000000)">
            <g id="Group-15" transform="translate(0.000000, 1887.000000)">
                <g id="Group-6" transform="translate(38.000000, 0.000000)">
                    <g id="Group-10" transform="translate(407.000000, 618.000000)">
                        <g id="Group-9">
                            <g id="additional-document" transform="translate(0.000000, 3.000000)">
                                <polyline id="Fill-1" fill="#35447D" points="61 39 16 39 16 36 61 36"></polyline>
                                <polyline id="Fill-2" fill="#35447D" points="36 26 16 26 16 23 36 23"></polyline>
                                <polyline id="Fill-3" fill="#35447D" points="61 53 16 53 16 50 61 50"></polyline>
                                <polyline id="Fill-4" fill="#35447D" points="47 66 16 66 16 63 47 63"></polyline>
                                <polyline id="Fill-5" fill="#35447D" points="42 79 16 79 16 76 42 76"></polyline>
                                <g id="Group-11">
                                    <g id="Group-8">
                                        <mask id="mask-2" fill="white">
                                            <use xlink:href="#path-1"></use>
                                        </mask>
                                        <g id="Clip-7"></g>
                                        <path d="M72.5614035,95.70066 C62.5594737,95.70066 54.4210526,87.55626 54.4210526,77.55066 C54.4210526,67.54341 62.5594737,59.40066 72.5614035,59.40066 C73.0759298,59.40066 73.5838596,59.43531 74.0884912,59.47821 C74.568386,59.52276 75.0647719,59.58546 75.5875439,59.67456 L76.3181053,59.79501 C84.5224912,61.53411 90.7017544,68.83206 90.7017544,77.55066 C90.7017544,87.55626 82.5633333,95.70066 72.5614035,95.70066 L72.5614035,95.70066 Z M61.1461754,95.70066 L3.29824561,95.70066 L3.29824561,3.30066 L51.122807,3.30066 L51.122807,26.40066 L74.2105263,26.40066 L74.2105263,56.17326 C73.6465263,56.12541 73.0990175,56.10066 72.5614035,56.10066 C60.7404912,56.10066 51.122807,65.72346 51.122807,77.55066 C51.122807,78.20736 51.1640351,78.85746 51.2217544,79.50261 C51.2349474,79.65111 51.2497895,79.79961 51.2662807,79.95141 C51.337193,80.58171 51.4278947,81.20541 51.5515789,81.81756 C51.5664211,81.89016 51.5862105,81.96111 51.6010526,82.03371 C51.7197895,82.59141 51.8632632,83.13921 52.0248772,83.68041 C52.0661053,83.81571 52.1040351,83.95266 52.1469123,84.08631 C52.3332632,84.66711 52.5410526,85.23636 52.7735789,85.79736 C52.8181053,85.90296 52.8675789,86.00526 52.9121053,86.10921 C53.1248421,86.59596 53.3557193,87.07281 53.6030877,87.54306 C53.6624561,87.65526 53.7185263,87.76746 53.7795439,87.88131 C54.0681404,88.40271 54.3781754,88.91421 54.7096491,89.40921 C54.7855088,89.52471 54.8646667,89.63196 54.9421754,89.74581 C55.2439649,90.17976 55.5605965,90.60546 55.8920702,91.01466 C55.9547368,91.09386 56.0141053,91.17471 56.0784211,91.25226 C56.4593684,91.71096 56.8617544,92.14986 57.2789825,92.57226 C57.3812281,92.67786 57.4851228,92.77851 57.5906667,92.88081 C57.9947018,93.27351 58.4086316,93.65796 58.8423509,94.01766 C58.8802807,94.05231 58.9165614,94.08531 58.9561404,94.11831 C59.421193,94.49946 59.9076842,94.85751 60.4057193,95.20236 C60.5261053,95.28816 60.6481404,95.36901 60.7701754,95.44986 C60.8971579,95.52906 61.019193,95.61816 61.1461754,95.70066 L61.1461754,95.70066 Z M54.4210526,5.63376 L71.8786667,23.10066 L54.4210526,23.10066 L54.4210526,5.63376 Z M77.5087719,56.69796 L77.5087719,24.06591 L53.4546667,0.00066 L0,0.00066 L0,99.00066 L72.5614035,99.00066 C84.3823158,99.00066 94,89.37786 94,77.55066 C94,67.42791 86.9483509,58.94361 77.5087719,56.69796 L77.5087719,56.69796 Z" id="Fill-6" fill="#35447D" mask="url(#mask-2)"></path>
                                    </g>
                                    <path d="M82.4561404,75.90066 L74.2105263,75.90066 L74.2105263,67.65066 C74.2105263,66.73821 73.4717193,66.00066 72.5614035,66.00066 C71.6510877,66.00066 70.9122807,66.73821 70.9122807,67.65066 L70.9122807,75.90066 L62.6666667,75.90066 C61.7563509,75.90066 61.0175439,76.63821 61.0175439,77.55066 C61.0175439,78.46146 61.7563509,79.20066 62.6666667,79.20066 L70.9122807,79.20066 L70.9122807,87.45066 C70.9122807,88.36146 71.6510877,89.10066 72.5614035,89.10066 C73.4717193,89.10066 74.2105263,88.36146 74.2105263,87.45066 L74.2105263,79.20066 L82.4561404,79.20066 C83.3664561,79.20066 84.1052632,78.46146 84.1052632,77.55066 C84.1052632,76.63821 83.3664561,75.90066 82.4561404,75.90066" id="Fill-9" fill="#35447D"></path>
                                </g>
                            </g>
                        </g>
                    </g>
                </g>
            </g>
        </g>
    </g>
</svg>