<?xml version="1.0" encoding="UTF-8" standalone="no"?>
<svg width="16px" height="22px" viewBox="0 0 16 22" version="1.1" xmlns="http://www.w3.org/2000/svg" xmlns:xlink="http://www.w3.org/1999/xlink">
    <!-- Generator: Sketch 47.1 (45422) - http://www.bohemiancoding.com/sketch -->
    <title>icon53</title>
    <desc>Created with Sketch.</desc>
    <defs>
        <path d="M18.6201356,7.8803535 C18.3357012,7.58596905 17.8622964,7.58596905 17.567912,7.8803535 C17.2834777,8.16478785 17.2834777,8.63819262 17.567912,8.9219745 L22.9033294,14.2573919 L5.29719012,14.2573919 C4.8867483,14.2580443 4.56055614,14.5842773 4.56055614,14.9946783 C4.56055614,15.4051201 4.8867483,15.7419557 5.29719012,15.7419557 L22.9033294,15.7419557 L17.567912,21.0674229 C17.2834777,21.3618074 17.2834777,21.8358646 17.567912,22.1196465 C17.8622964,22.4140309 18.3363945,22.4140309 18.6201356,22.1196465 L25.2186861,15.5211367 C25.5130298,15.2367024 25.5130298,14.7632976 25.2186861,14.4795157 L18.6201356,7.8803535 Z" id="path-1"></path>
    </defs>
    <g id="Symbols" stroke="none" stroke-width="1" fill="none" fill-rule="evenodd">
        <g id="ðŸ¼Icons/ðŸ¼Arrow-up" transform="translate(-7.000000, -4.000000)">
            <mask id="mask-2" fill="white">
                <use xlink:href="#path-1"></use>
            </mask>
            <use id="icon53" fill="#35447D" transform="translate(15.000000, 15.000000) rotate(-90.000000) translate(-15.000000, -15.000000) " xlink:href="#path-1"></use>
        </g>
    </g>
</svg>