<?xml version="1.0" encoding="UTF-8" standalone="no"?>
<svg width="72px" height="100px" viewBox="0 0 72 100" version="1.1" xmlns="http://www.w3.org/2000/svg" xmlns:xlink="http://www.w3.org/1999/xlink">
    <!-- Generator: Sketch 47.1 (45422) - http://www.bohemiancoding.com/sketch -->
    <title>Attachments</title>
    <desc>Created with Sketch.</desc>
    <defs>
        <polygon id="path-1" points="2.03966006e-05 100 71.826017 100 71.826017 0.0114285714 2.03966006e-05 0.0114285714"></polygon>
    </defs>
    <g id="Design" stroke="none" stroke-width="1" fill="none" fill-rule="evenodd">
        <g id="Desktop---Pricing" transform="translate(-1015.000000, -1990.000000)">
            <g id="Group-15" transform="translate(0.000000, 1887.000000)">
                <g id="Group-6" transform="translate(38.000000, 0.000000)">
                    <g id="Attachments" transform="translate(977.000000, 103.000000)">
                        <g id="Group-3">
                            <mask id="mask-2" fill="white">
                                <use xlink:href="#path-1"></use>
                            </mask>
                            <g id="Clip-2"></g>
                            <path d="M12.4915105,96.8758571 L12.4915105,93.7511633 L64.0188306,93.7511633 C64.8814028,93.7511633 65.5803943,93.0519796 65.5803943,92.1889184 L65.5803943,17.1701429 C65.5863093,17.1703469 65.5918164,17.1711633 65.5977314,17.1711633 L68.7033178,17.1885102 L68.7033178,96.8758571 L12.4915105,96.8758571 Z M7.80681926,90.6264694 L7.80681926,87.5017755 L7.80702323,87.5017755 L57.7731875,87.5017755 C58.6355558,87.5017755 59.3345473,86.8025918 59.3345473,85.9395306 L59.3345473,12.5099388 L62.4574708,12.5099388 L62.4574708,90.6264694 L7.80681926,90.6264694 Z M3.12294391,84.3770816 L3.12294391,7.823 L8.77504589,7.823 L8.77504589,19.1338163 C8.77504589,21.9319796 11.0500827,24.2083061 13.8464567,24.2083061 C16.6430346,24.2083061 18.9178674,21.9317755 18.9178674,19.1338163 L18.9178674,12.1097347 C18.9178674,11.2468776 18.2188759,10.5474898 17.3563037,10.5474898 C16.4939354,10.5474898 15.7949439,11.2468776 15.7949439,12.1097347 L15.7949439,19.1338163 C15.7949439,20.2089184 14.9207456,21.0836122 13.8462527,21.0836122 C12.7717598,21.0836122 11.8977654,20.2089184 11.8977654,19.1338163 L11.8977654,7.823 L56.2116238,7.823 L56.2116238,84.3770816 L3.12294391,84.3770816 Z M13.8464567,3.13606122 C14.7883717,3.13606122 15.5760884,3.80830612 15.7561904,4.69830612 L11.9367229,4.69830612 C12.116621,3.80830612 12.9043377,3.13606122 13.8464567,3.13606122 L13.8464567,3.13606122 Z M70.2734482,14.0723878 L65.6152725,14.0462653 L65.606298,14.0462653 C65.5975275,14.0462653 65.5891649,14.0474898 65.5805983,14.0474898 L65.5805983,10.9474898 C65.5805983,10.0846327 64.8816068,9.38504082 64.0192385,9.38504082 L59.3349552,9.38504082 L59.3349552,6.2607551 C59.3349552,5.39789796 58.6359637,4.6985102 57.7735955,4.6985102 L18.9017541,4.6985102 C18.7030912,2.0807551 16.5124963,0.0113673469 13.8464567,0.0113673469 C11.180213,0.0113673469 8.9898221,2.0807551 8.79115921,4.69830612 L1.56138017,4.69830612 C0.699011898,4.69830612 2.03966006e-05,5.39769388 2.03966006e-05,6.26055102 L2.03966006e-05,85.9393265 C2.03966006e-05,86.8023878 0.699011898,87.5015714 1.56138017,87.5015714 L4.68409972,87.5015714 L4.68409972,92.1885102 C4.68409972,93.0515714 5.38309122,93.7507551 6.24545949,93.7507551 L9.368383,93.7507551 L9.368383,98.4376939 C9.368383,99.300551 10.0673745,100.000143 10.9297428,100.000143 L70.2646776,100.000143 C71.1270459,100.000143 71.8260374,99.300551 71.8260374,98.4376939 L71.8260374,15.6346327 C71.8264453,14.7752449 71.1327569,14.0770816 70.2734482,14.0723878 L70.2734482,14.0723878 Z" id="Fill-1" fill="#35447D" mask="url(#mask-2)"></path>
                        </g>
                        <path d="M40.4378062,35 L18.5626021,35 C17.6996604,35 17,35.671478 17,36.500098 C17.0002041,37.328326 17.6996604,38 18.5626021,38 L40.4378062,38 C41.3007478,38 42,37.328522 42,36.500098 C42,35.671674 41.3007478,35 40.4378062,35" id="Fill-4" fill="#35447D"></path>
                        <path d="M40.4378062,41 L18.5626021,41 C17.6996604,41 17,41.671478 17,42.500098 C17.0002041,43.328326 17.6996604,44 18.5626021,44 L40.4378062,44 C41.3007478,44 42,43.328522 42,42.500098 C42,41.671674 41.3007478,41 40.4378062,41" id="Fill-6" fill="#35447D"></path>
                        <path d="M33.5000735,47 L24.4999265,47 C23.671489,47 23,47.671478 23,48.500098 C23,49.328522 23.671489,50 24.4999265,50 L33.5000735,50 C34.328511,50 35,49.328522 35,48.500098 C35,47.671674 34.328707,47 33.5000735,47" id="Fill-8" fill="#35447D"></path>
                    </g>
                </g>
            </g>
        </g>
    </g>
</svg>