<?xml version="1.0" encoding="UTF-8" standalone="no"?>
<svg width="107px" height="103px" viewBox="0 0 107 103" version="1.1" xmlns="http://www.w3.org/2000/svg" xmlns:xlink="http://www.w3.org/1999/xlink">
    <!-- Generator: Sketch 47.1 (45422) - http://www.bohemiancoding.com/sketch -->
    <title>coloured-conference</title>
    <desc>Created with Sketch.</desc>
    <defs>
        <polygon id="path-1" points="100 49.5380964 100 99 0 99 0 49.5380964 0 0.0761928994 100 0.0761928994"></polygon>
        <polygon id="path-3" points="0 99 100 99 100 0 0 0"></polygon>
    </defs>
    <g id="Design" stroke="none" stroke-width="1" fill="none" fill-rule="evenodd">
        <g id="Desktop---Home" transform="translate(-664.000000, -646.000000)">
            <g id="coloured-conference" transform="translate(664.000000, 646.000000)">
                <rect id="Rectangle-2-Copy-4" fill="#8AEBF1" x="0" y="0" width="107" height="73"></rect>
                <g id="conference-2" transform="translate(7.000000, 4.000000)">
                    <g id="Group-3">
                        <mask id="mask-2" fill="white">
                            <use xlink:href="#path-1"></use>
                        </mask>
                        <g id="Clip-2"></g>
                        <path d="M24.9019531,36.9949917 C25.6792969,37.391968 26.5083984,37.6710036 27.3669922,37.8244828 L27.3669922,44.8027136 L30.5302734,44.8027136 L30.5302734,37.8244828 C31.3878906,37.6710036 32.2158203,37.3927491 32.9917969,36.9967491 C34.7425781,37.8781811 41.3929687,41.8565361 42.0496094,51.6399621 L15.8464844,51.6399621 C16.4960937,41.7981515 23.1164062,37.8775953 24.9019531,36.9949917 L24.9019531,36.9949917 Z M28.146875,23.7155183 C29.0175781,24.8531396 30.8564453,26.0770686 34.7349609,26.3389207 L34.7349609,29.0181692 C34.7349609,30.9468142 33.7693359,32.7454118 32.1496094,33.8307018 C31.2039062,34.4670746 30.096875,34.8033231 28.9484375,34.8033231 C27.8,34.8033231 26.6933594,34.4670746 25.7574219,33.8379266 C25.4445312,33.6237195 25.1365234,33.3679207 24.8580078,33.0898615 C23.7642578,32.0135538 23.1619141,30.5676071 23.1619141,29.0183645 L23.1619141,25.8513408 L23.1621094,25.8513408 L28.146875,23.7155183 Z M23.1623047,22.4107491 L23.1623047,15.7662284 C23.6921875,14.9492343 25.4626953,12.7095302 28.9486328,12.7095302 C32.4414062,12.7095302 34.2121094,14.9580213 34.7349609,15.7646663 L34.7349609,23.1687728 C31.6261719,22.9258615 30.6533203,21.9837018 30.5302734,21.5552876 L30.5302734,19.253684 L23.1623047,22.4107491 Z M96.8369141,69.5298675 L3.16328125,69.5298675 L3.16328125,69.5296722 L3.16328125,54.8026899 L87.8925781,54.8026899 L87.8925781,51.6399621 L45.2183594,51.6399621 C44.8246094,44.9526781 41.9810547,40.5906249 39.5667969,38.0560686 C38.1695313,36.5894237 36.7664063,35.5627136 35.6871094,34.8921692 C37.0957031,33.2802462 37.8982422,31.2049562 37.8982422,29.017974 L37.8982422,14.9644651 L37.73125,14.630755 C37.6275391,14.4233822 35.1179688,9.54738817 28.9488281,9.54738817 C22.7794922,9.54738817 20.2699219,14.4229917 20.1662109,14.6305598 L19.9992188,14.9642698 L19.9992188,29.0177787 C19.9992188,31.2145243 20.7847656,33.278684 22.2128906,34.8902166 C21.1332031,35.5609562 19.7289063,36.5878615 18.3304688,38.0558734 C15.9160156,40.5904296 13.0728516,44.9524828 12.6791016,51.6399621 L3.16328125,51.6399621 L3.16328125,3.23872544 L96.8369141,3.23872544 L96.8369141,69.5298675 Z M34.7402344,76.8957018 L34.7402344,72.6922047 L65.2595703,72.6922047 L65.2595703,88.4716722 L34.7402344,88.4716722 L34.7402344,88.4714769 L34.7402344,80.0584296 L60.5255859,80.0584296 L60.5255859,76.8957018 L34.7402344,76.8957018 Z M73.1566406,91.6340095 C73.4404297,91.6340095 73.6804687,91.8736012 73.6804687,92.1573231 L73.6804687,95.8377018 L26.3199219,95.8377018 L26.3199219,92.1573231 C26.3199219,91.8734059 26.5597656,91.6340095 26.8433594,91.6340095 L73.1566406,91.6340095 Z M0,0.0761928994 L0,72.6922047 L31.5771484,72.6922047 L31.5771484,88.4716722 L26.8433594,88.4716722 C24.8105469,88.4716722 23.1568359,90.1249917 23.1568359,92.1573231 L23.1568359,95.8377018 L19.4753906,95.8377018 L19.4753906,99.0000391 L80.5248047,99.0000391 L80.5248047,95.837897 L76.84375,95.837897 L76.84375,92.1575183 C76.84375,90.1249917 75.1898437,88.4718675 73.1570313,88.4718675 L68.4232422,88.4718675 L68.4232422,72.6924 L100,72.6924 L100,72.6922047 L100,0.0761928994 L0,0.0761928994 Z" id="Fill-1" fill="#35447D" mask="url(#mask-2)"></path>
                    </g>
                    <mask id="mask-4" fill="white">
                        <use xlink:href="#path-3"></use>
                    </mask>
                    <g id="Clip-5"></g>
                    <polygon id="Fill-4" fill="#35447D" mask="url(#mask-4)" points="27 50 31 50 31 47 27 47"></polygon>
                    <polygon id="Fill-6" fill="#35447D" mask="url(#mask-4)" points="43 63 58 63 58 60 43 60"></polygon>
                    <polygon id="Fill-7" fill="#35447D" mask="url(#mask-4)" points="60 63 64 63 64 60 60 60"></polygon>
                    <polygon id="Fill-8" fill="#35447D" mask="url(#mask-4)" points="35 63 39 63 39 60 35 60"></polygon>
                    <polygon id="Fill-9" fill="#35447D" mask="url(#mask-4)" points="59.5351995 48 71.0894684 38.8771445 91 38.8771445 91 8 60.0627198 8 60.0627198 11.1992415 87.8488888 11.1992415 87.8488888 35.677903 70.0079644 35.677903 62.6865053 41.4588984 62.6865053 35.677903 51.1513058 35.677903 51.1513058 11.1992415 54.8184566 11.1992415 54.8184566 8 48 8 48 38.8771445 59.5351995 38.8771445"></polygon>
                    <polygon id="Fill-10" fill="#35447D" mask="url(#mask-4)" points="61 18 84 18 84 15 61 15"></polygon>
                    <polygon id="Fill-11" fill="#35447D" mask="url(#mask-4)" points="56 25 83 25 83 22 56 22"></polygon>
                    <polygon id="Fill-12" fill="#35447D" mask="url(#mask-4)" points="56 31 75 31 75 28 56 28"></polygon>
                    <polygon id="Fill-13" fill="#35447D" mask="url(#mask-4)" points="78 31 83 31 83 28 78 28"></polygon>
                </g>
            </g>
        </g>
    </g>
</svg>