<?xml version="1.0" encoding="UTF-8" standalone="no"?>
<svg width="115px" height="107px" viewBox="0 0 115 107" version="1.1" xmlns="http://www.w3.org/2000/svg" xmlns:xlink="http://www.w3.org/1999/xlink">
    <!-- Generator: Sketch 47.1 (45422) - http://www.bohemiancoding.com/sketch -->
    <title>judge-approved-1-col</title>
    <desc>Created with Sketch.</desc>
    <defs>
        <path d="M0.577559622,42.7123252 L47.3368323,42.7123252 L47.3368323,46.7386411 L52.71898,46.7386411 L52.71898,51.7395423 L58.761432,51.7395423 L58.761432,125.806291 L5.96384999,125.806291 L5.96384999,133.462364 C81.0082645,135.721196 118.530472,135.721196 118.530472,133.462364 C118.530472,131.203532 118.530472,86.959244 118.530472,0.729500185 L0.852089777,0.729500185 L0.577559622,42.7123252 Z" id="path-1"></path>
        <polygon id="path-3" points="1.81303116e-05 89 63.8453484 89 63.8453484 0.0101714286 1.81303116e-05 0.0101714286"></polygon>
    </defs>
    <g id="Design" stroke="none" stroke-width="1" fill="none" fill-rule="evenodd">
        <g id="Desktop---Pricing" transform="translate(-445.000000, -1982.000000)">
            <g id="judge-approved-1-col" transform="translate(445.000000, 1962.000000)">
                <path d="M26.3659227,97.5564658 L21.5639152,100.631393 L21.5639152,90.0542266 L23.3735835,89.8151414 L26.2801476,92.0612715 C26.6936395,92.3808361 27.3050202,92.3815421 27.7194445,92.0612715 L30.6260086,89.8151414 L32.4356769,90.0544619 L32.4356769,100.631393 L27.6336694,97.5564658 L27.6339025,97.5564658 C27.24908,97.3098504 26.7512114,97.3098504 26.3659227,97.5564658 M38.1208416,79.6354304 L38.5415592,82.8809648 L35.5450245,84.1333382 C35.2527365,84.2557047 35.0250129,84.4856124 34.904042,84.7804684 L33.6633331,87.805508 L30.4483982,87.3807552 C30.1351326,87.3395742 29.8258294,87.4235835 29.5754966,87.6167813 L26.9999126,89.6071184 L24.4243286,87.6167813 C24.2192142,87.4581755 23.9635205,87.3706365 23.7047966,87.3706365 C23.6537511,87.3706365 23.6027056,87.373931 23.5511939,87.3807552 L20.336259,87.805508 L19.0955501,84.7804684 C18.9743461,84.4853771 18.7468556,84.2554694 18.4548007,84.1333382 L15.4580329,82.8807295 L15.8789836,79.6354304 C15.9202396,79.3196308 15.8370284,79.0064198 15.6451998,78.7536861 L13.674004,76.153164 L15.6451998,73.5531125 C15.8367953,73.3003787 15.9200065,72.987403 15.8789836,72.6713682 L15.4580329,69.4258337 L18.4548007,68.1734603 C18.7468556,68.0513292 18.9745792,67.8214215 19.0957832,67.5263301 L20.3364921,64.5012906 L23.5511939,64.9262786 C23.8642264,64.967695 24.1739958,64.8836857 24.4243286,64.6900173 L26.9999126,62.6996801 L29.5754966,64.6900173 C29.8221001,64.8808619 30.1395612,64.9674597 30.4488644,64.9262786 L33.6635662,64.5012906 L34.9042751,67.5263301 C35.025246,67.8216568 35.2529696,68.0513292 35.5450245,68.1734603 L38.5415592,69.4258337 L38.1208416,72.6716035 C38.0798187,72.9876383 38.1627968,73.300614 38.3546254,73.5533478 L40.3258212,76.1533993 L38.3546254,78.7536861 C38.1627968,79.0061845 38.0798187,79.3193955 38.1208416,79.6354304 M42.7566598,75.4269662 L40.5316349,72.4922896 L41.0068942,68.8274148 C41.0763534,68.2920616 40.7798699,67.7741222 40.2861968,67.5679818 L36.9041403,66.1541788 L35.5037685,62.7396845 C35.2995865,62.2412766 34.7849358,61.943832 34.2565332,62.0118395 L30.6262417,62.4916572 L27.7194445,60.2452918 C27.2954638,59.9181969 26.7038952,59.9181969 26.2806137,60.2455271 L23.3735835,62.4918925 L19.7435251,62.0120749 C19.2116262,61.9417142 18.7000056,62.2412766 18.4960567,62.7399199 L17.0959179,66.1544141 L13.7136283,67.5679818 C13.2197222,67.7743575 12.9232387,68.2925323 12.992931,68.8274148 L13.4679573,72.4925249 L11.2431654,75.4269662 C10.9189449,75.8545428 10.9189449,76.4520204 11.2431654,76.8798323 L13.4679573,79.814509 L12.992931,83.4793838 C12.9232387,84.0145016 13.2197222,84.5324411 13.7136283,84.7388168 L17.0959179,86.1526198 L18.4958236,89.5668787 C18.6263509,89.8852668 18.8808792,90.1257639 19.1962426,90.2370703 L19.1962426,102.804574 C19.1962426,103.240622 19.4314249,103.641843 19.8097211,103.851748 C20.1880173,104.062124 20.6497577,104.04777 21.0143019,103.813862 L27.0001457,99.9809685 L32.9855233,103.814097 C33.1759533,103.935758 33.3950528,104 33.6197463,104 C33.8183343,104 34.0155238,103.948936 34.1901041,103.851984 C34.5684003,103.641843 34.8035826,103.240387 34.8035826,102.804809 L34.8035826,90.2368349 C35.1189459,90.1252932 35.3734743,89.8850314 35.5037685,89.567114 L36.9041403,86.1526198 L40.2864299,84.7390521 C40.780336,84.5324411 41.0765865,84.0145016 41.0068942,83.4796191 L40.5318679,79.814509 L42.7566598,76.8798323 C43.0811134,76.4520204 43.0811134,75.8547781 42.7566598,75.4269662 M21.1923086,70.1958951 C21.4652506,70.1958951 21.7316662,70.0994139 21.9430738,69.9243358 C23.3630248,68.7477354 25.1589411,68.0996639 26.9998427,68.0996639 C27.6527124,68.0996639 28.183679,67.5633695 28.183679,66.9044733 C28.183679,66.2453418 27.6527124,65.7092826 26.9998427,65.7092826 C24.6125909,65.7092826 22.2833772,66.5498459 20.4403779,68.0766026 C20.1963384,68.2792132 20.0443673,68.5655977 20.013367,68.8832798 C19.9825999,69.2011972 20.0760668,69.512055 20.2765195,69.7586704 C20.5021453,70.0365835 20.8359223,70.1958951 21.1923086,70.1958951 M30.4683269,66.3111608 L30.4683269,66.3111608 C29.8534499,66.0904306 29.1749409,66.4161135 28.9560745,67.0366526 C28.7372081,67.6574269 29.059564,68.3422083 29.6746741,68.5631739 C32.8460222,69.7023584 34.977114,72.7525771 34.977114,76.1534228 C34.977114,80.5941479 31.3983342,84.207017 26.9997961,84.207017 C22.6012579,84.207017 19.0227112,80.5941479 19.0227112,76.1534228 C19.0227112,74.5739545 19.4751282,73.0448447 20.3312477,71.7315233 C20.6901979,71.1811097 20.5386929,70.4386749 19.9935082,70.0760466 C19.7296565,69.9004979 19.413827,69.83955 19.1035915,69.9037923 C18.7938222,69.96827 18.5276396,70.1504078 18.3537586,70.4172607 C17.2424116,72.1212134 16.6548055,74.1049616 16.6548055,76.1534228 C16.6548055,81.9121756 21.2955184,86.5976336 26.9997961,86.5976336 C32.7040737,86.5976336 37.3447866,81.9121756 37.3447866,76.1534228 C37.3447866,71.7439953 34.5813365,67.7885002 30.4683269,66.3111608" id="Fill-1" fill="#35447D"></path>
                <g id="Group-34" transform="translate(4.000000, 0.000000)">
                    <mask id="mask-2" fill="white">
                        <use xlink:href="#path-1"></use>
                    </mask>
                    <g id="Mask"></g>
                    <path d="M52.3070323,79.076412 C54.5449339,81.7115438 57.0609399,84.1284397 59.7847075,86.2597163 C61.4864361,87.6384708 63.638097,88.4005571 65.8374516,88.4005571 C68.0324507,88.4005571 70.1810627,87.6410792 71.8871469,86.2627595 C74.6067767,84.1347433 77.1240893,81.7167605 79.3635154,79.080542 C81.3450905,77.0438197 82.6343449,74.3728225 82.9945521,71.5574941 L82.9980366,71.5298886 L82.9980366,71.5022831 C82.9980366,71.0729846 82.9810498,70.6508593 82.9477295,70.2474274 C82.8756445,69.5540289 82.8368798,68.8060714 82.7994217,68.0826764 C82.5687933,63.5127672 83.0195967,58.9572041 84.1392009,54.5311914 C84.1908146,54.2855675 84.2768375,53.9810373 84.3539314,53.7134593 C84.6176623,52.7187911 84.7801258,51.7017342 84.839144,50.6822862 C84.8563486,50.4355755 84.8563486,50.2260343 84.8561308,50.0041033 L84.8561308,49.9491097 C84.8472018,49.112032 84.7642279,48.2753891 84.6091689,47.4572223 L84.5420928,47.10335 L47.131286,47.10335 L47.0642099,47.4572223 C46.909151,48.2758238 46.826177,49.1126841 46.8174658,49.944545 L46.8174658,50.0149717 C46.817248,50.2314685 46.817248,50.4360102 46.8322748,50.6498986 C46.8917286,51.6913006 47.0594188,52.7370499 47.3303364,53.7523679 C47.4043814,54.0082081 47.4860487,54.2988268 47.5478981,54.5824898 C48.6563955,58.9800276 49.1032789,63.4919 48.8787483,68.0063808 L48.8776594,68.029639 C48.8364991,68.8156356 48.7979521,69.5579415 48.7234715,70.2745982 C48.6921113,70.6634665 48.6759956,71.0847224 48.6759956,71.5025005 L48.6759956,71.530106 L48.6794801,71.5574941 C49.0396873,74.3715183 50.3276349,77.0414287 52.3070323,79.076412 L52.3070323,79.076412 Z M53.6298247,85.6886951 C53.6400603,85.7715116 53.6531271,85.8567192 53.6664117,85.9421442 C53.679914,86.0290907 53.6936341,86.1164719 53.7032164,86.2003753 C53.8907245,87.7888883 53.9930808,89.4023984 54.0074543,90.9976497 L54.0091965,91.1952357 L58.2968383,94.8645963 C60.3901343,96.6700408 63.0681682,97.6651438 65.8363627,97.6649264 C68.6056462,97.6649264 71.2845512,96.6691714 73.3793717,94.8613358 L77.6646179,91.1952357 L77.6665779,90.9978671 C77.6811691,89.3969642 77.7837432,87.7799763 77.9714691,86.191246 C77.9808336,86.1092989 77.9941182,86.0260476 78.0069672,85.9423615 C78.0202517,85.8569366 78.0333185,85.7715116 78.0435541,85.6884777 L78.1881597,84.5075265 L77.3148641,85.3174334 C76.0817969,86.4603454 74.8931566,87.4906617 73.681214,88.4666364 C71.4690104,90.2551264 68.6836112,91.2395784 65.8378872,91.2395784 L65.8374516,91.2395784 C62.987372,91.239361 60.1987062,90.2523006 57.9856314,88.4603328 C56.7776088,87.4876186 55.5913642,86.4596933 54.3585147,85.3165639 L53.4830414,84.5051355 L53.6298247,85.6886951 Z M98.8976785,101.682073 L99.0856221,101.643599 C99.6697066,101.524483 100.205444,101.243211 100.635341,100.830215 C101.24643,100.217242 101.580068,99.4121168 101.581592,98.5567804 C101.583117,97.6960098 101.248825,96.8865377 100.64035,96.2768252 C100.031656,95.6671127 99.2215165,95.3306297 98.3591099,95.3291081 C97.574015,95.3291081 96.9357034,94.6922248 96.9357034,93.909054 C96.9357034,93.1261006 97.574015,92.4889999 98.3584565,92.4889999 C100.135755,92.4889999 101.581592,91.0456877 101.581592,89.2719786 C101.581592,87.4980522 100.135755,86.0549573 98.3584565,86.0549573 C97.574015,86.0549573 96.9357034,85.418074 96.9357034,84.6349032 C96.9357034,83.8519498 97.574015,83.2148491 98.3584565,83.2148491 C100.135755,83.2148491 101.581592,81.7715369 101.581592,79.9978278 C101.581592,78.2241187 100.135755,76.7808065 98.3584565,76.7808065 C97.574015,76.7808065 96.9357034,76.1439232 96.9357034,75.3607524 C96.9357034,74.577799 97.574015,73.9409157 98.3584565,73.9409157 C100.135755,73.9409157 101.581592,72.4976034 101.581592,70.7238944 C101.581592,68.9499679 100.135755,67.5066557 98.3584565,67.5066557 C97.574015,67.5066557 96.9357034,66.8697724 96.9357034,66.0868189 C96.9357034,65.3036481 97.574015,64.6667649 98.3584565,64.6667649 C100.135755,64.6667649 101.581592,63.2234526 101.581592,61.4497435 C101.581592,59.6758171 100.135755,58.2325048 98.3584565,58.2325048 L96.5001445,58.2325048 C95.7159207,58.2325048 95.0776092,57.5956216 95.0776092,56.8126681 C95.0776092,56.0294973 95.7159207,55.3926141 96.5001445,55.3926141 C98.2774426,55.3926141 99.7234981,53.9493018 99.7234981,52.1755927 C99.7234981,50.4016663 98.2774426,48.958354 96.5001445,48.958354 L94.6420503,48.958354 C93.8576087,48.958354 93.2192971,48.3214708 93.2192971,47.5385173 C93.2192971,46.7553465 93.8576087,46.1182459 94.6420503,46.1182459 C96.4191306,46.1182459 97.8651861,44.675151 97.8651861,42.9014419 C97.8651861,41.1275155 96.4191306,39.6842032 94.6420503,39.6842032 L91.2037484,39.6842032 C90.6401351,39.6835511 90.1298779,39.3496765 89.904694,38.8334315 L89.732866,38.4397811 L89.7241548,38.4434764 C88.4349005,35.6427115 86.684607,33.1090898 84.517266,30.9076039 C79.6607843,25.8773128 72.8575721,22.9906883 65.8544384,22.9906883 C55.5375727,23.0704617 46.2081189,29.123896 41.9444329,38.4506494 L41.9426907,38.44978 L41.7643293,38.8401699 C41.5380564,39.3520675 41.029977,39.6833338 40.4696305,39.6842032 L37.0319819,39.6842032 C35.2546838,39.6842032 33.8088461,41.1275155 33.8088461,42.9014419 C33.8088461,44.675151 35.2546838,46.1182459 37.0319819,46.1182459 C37.8164235,46.1182459 38.454735,46.7553465 38.454735,47.5385173 C38.454735,48.3214708 37.8164235,48.958354 37.0319819,48.958354 L35.1736699,48.958354 C33.3963718,48.958354 31.950534,50.4016663 31.950534,52.1755927 C31.950534,53.9493018 33.3963718,55.3926141 35.1736699,55.3926141 C35.9581114,55.3926141 36.596423,56.0294973 36.596423,56.8126681 C36.596423,57.5956216 35.9581114,58.2325048 35.1736699,58.2325048 L33.3153578,58.2325048 C31.5380598,58.2325048 30.092222,59.6758171 30.092222,61.4497435 C30.092222,63.2234526 31.5380598,64.6667649 33.3153578,64.6667649 C34.0997994,64.6667649 34.738111,65.3036481 34.738111,66.0868189 C34.738111,66.8697724 34.0997994,67.5066557 33.3153578,67.5066557 C31.5380598,67.5066557 30.092222,68.9499679 30.092222,70.7238944 C30.092222,72.4976034 31.5380598,73.9409157 33.3153578,73.9409157 C34.0997994,73.9409157 34.738111,74.577799 34.738111,75.3607524 C34.738111,76.1439232 34.0997994,76.7808065 33.3153578,76.7808065 C31.5380598,76.7808065 30.092222,78.2241187 30.092222,79.9978278 C30.092222,81.7715369 31.5380598,83.2148491 33.3153578,83.2148491 C34.0997994,83.2148491 34.7378932,83.8521671 34.7378932,84.6353379 C34.7378932,85.4185087 34.0995816,86.055392 33.3151401,86.055392 C31.537842,86.055392 30.0920042,87.4987043 30.0920042,89.2724133 C30.0920042,91.0463398 31.537842,92.4894347 33.3151401,92.4894347 C34.0995816,92.4894347 34.7378932,93.1265353 34.7378932,93.9094887 C34.7378932,94.6926595 34.0995816,95.3295428 33.3151401,95.3295428 C32.4583957,95.3310644 31.6526118,95.6636348 31.0452249,96.2655221 C29.7823219,97.5175521 29.7753529,99.5614474 31.0297625,100.821955 C31.4694592,101.242776 32.0080278,101.523396 32.5945079,101.640774 L32.782016,101.678161 L33.7907704,100.946288 L33.9440871,100.846734 C34.6745194,100.430261 35.4382719,100.056825 36.2140023,99.7359926 C38.894214,98.6382927 41.7236045,98.0737924 44.622249,98.0587942 L44.8014815,98.0579247 L51.1717481,91.6995255 L51.1721836,91.5201983 C51.1763215,89.8579982 51.0765785,88.1777566 50.8757858,86.5262074 C50.6449396,84.5651286 50.3102126,82.5910078 49.8809693,80.6603603 L49.8557069,80.546243 L49.7764352,80.4601659 C47.5106578,78.0006662 46.1096826,74.8138588 45.8302716,71.4846764 C45.8307071,70.9747351 45.8509606,70.4793573 45.8903787,70.0120197 C45.9618104,69.3142739 45.9968729,68.6282658 46.0308464,67.9648638 L46.0328065,67.9257379 C46.2484081,63.6525337 45.8265693,59.3830247 44.7788324,55.2352409 C44.7174186,54.959403 44.6529559,54.735081 44.5904532,54.5181494 L44.583702,54.4951086 C44.2609529,53.2987244 44.0608136,52.0577802 43.9911241,50.8140102 C43.9730484,50.5536054 43.9717418,50.2564656 43.9717418,49.9488923 C43.9717418,48.521013 44.1514098,47.0994374 44.5066081,45.7167703 L44.5375328,45.725465 L44.651867,45.2983402 C44.8136771,44.6931924 45.3648769,44.2675892 45.9922995,44.2628071 L85.6847816,44.2628071 C86.3089375,44.2675892 86.8601373,44.6931924 87.0217296,45.2981228 L87.1358461,45.7256823 L87.1669885,45.7167703 C87.521969,47.0990027 87.7016371,48.5205783 87.7018548,49.9488923 C87.7018548,50.2690729 87.7001126,50.5577353 87.6800769,50.8461804 C87.6110408,52.0669096 87.4159104,53.2793788 87.1005658,54.4553305 L87.0794412,54.5292351 C87.0117118,54.7676859 86.9531291,54.9737492 86.9076132,55.1841598 C85.8563918,59.32151 85.4280196,63.5966705 85.637959,67.8755263 L85.6416613,67.9422577 C85.6780304,68.6513066 85.7124396,69.3207948 85.7808223,69.9833273 C85.8224182,70.4743578 85.843325,70.9679967 85.8437606,71.4844591 C85.5641318,74.813424 84.1631566,77.9995793 81.8978148,80.4586444 L81.8183253,80.5447214 L81.7930629,80.6586214 C81.3646907,82.5842695 81.0301815,84.5551298 80.7986819,86.5168607 C80.5976715,88.1701488 80.4977107,89.8538682 80.501413,91.5201983 L80.5018485,91.6995255 L86.8721151,98.0579247 L87.0515654,98.0587942 C89.9478143,98.0733577 92.7754626,98.6372059 95.4556743,99.7346884 C96.2327114,100.055304 96.9979883,100.429391 97.7297273,100.846517 L97.883044,100.946071 L98.8976785,101.682073 Z M48.911633,97.9718476 L49.1609904,98.2763778 C53.9401604,104.11375 59.8622369,107.32838 65.8365805,107.32838 C71.8113597,107.32838 77.7334362,104.11375 82.5126062,98.2763778 L82.7617459,97.9718476 L78.7711553,93.9892622 L75.2291903,97.0191311 C72.619757,99.2716981 69.2844647,100.511556 65.8363627,100.511556 C62.3891319,100.511556 59.0547107,99.2723502 56.4470196,97.0223916 L52.9024414,93.9892622 L48.911633,97.9718476 Z M73.863931,124.021678 L105.34591,124.021678 C105.588952,124.021678 105.823718,123.98516 106.050209,123.912777 C106.634729,123.726277 107.111666,123.323715 107.393037,122.778995 C107.67419,122.234275 107.726239,121.612824 107.539385,121.029196 L105.080437,113.367903 C104.671229,112.298026 104.163368,111.258798 103.571225,110.278911 C102.756295,108.928196 101.777376,107.678123 100.661256,106.56412 C100.465908,106.368708 100.00182,105.987665 96.2895518,103.3008 L96.2699516,103.286671 L96.248827,103.274499 C95.6497158,102.936059 95.0216399,102.629355 94.3822394,102.363951 C92.1380222,101.450143 89.7746796,100.962591 87.35515,100.913683 L87.0966458,100.908466 L73.863931,124.021678 Z M49.8491735,104.393066 L61.0872463,124.021895 L70.5867858,124.021895 L81.8248587,104.393066 L81.1462579,103.862475 C76.996035,107.805065 71.5554688,110.04459 65.8274338,110.168706 C60.1185634,110.04459 54.678215,107.805065 50.5277743,103.862475 L49.8491735,104.393066 Z M44.3184467,100.914118 C41.8971748,100.963025 39.53209,101.451447 37.2891794,102.365038 C36.6513034,102.630008 36.0251875,102.936059 35.4252051,103.274933 L35.4040805,103.287106 L35.3842626,103.301235 C31.6743897,105.986361 31.2098661,106.366969 31.0136469,106.562599 C29.0423073,108.531938 27.5450736,110.851671 26.5628883,113.457458 L24.1329052,121.033109 C24.0606024,121.260256 24.0244511,121.495012 24.0251044,121.732376 C24.0277177,122.995057 25.0591212,124.022113 26.324202,124.021895 L57.8098834,124.022113 L44.5771686,100.908901 L44.3184467,100.914118 Z M26.3276865,126.862655 C25.7934735,126.862655 25.2688428,126.78136 24.7638123,126.620727 C22.0607338,125.76213 20.5617578,122.868767 21.4219867,120.170816 L23.876361,112.525826 C24.9759295,109.563775 26.750832,106.800398 29.0024537,104.553047 C29.1927929,104.363939 29.3999012,104.184611 29.6174628,104.020717 L30.088302,103.666193 L29.6104939,103.321232 C29.2955848,103.094085 29.0026714,102.835201 28.7400294,102.551973 C26.5300036,100.17116 26.6726491,96.4398499 29.0577696,94.2340166 L29.3929322,93.9242697 L28.9841602,93.5230115 C27.847787,92.3666227 27.2308179,90.8383202 27.2467158,89.2195933 C27.2623959,87.6008664 27.9087653,86.0847365 29.0666986,84.9511712 L29.3837855,84.6409895 L28.984378,84.2488606 C27.847787,83.0922545 27.2308179,81.563952 27.2467158,79.9452252 C27.2623959,78.3262809 27.9087653,76.8103683 29.0666986,75.676803 L29.3837855,75.3666213 L28.984378,74.9744925 C27.847787,73.8178864 27.2308179,72.2898012 27.2467158,70.670857 C27.2623959,69.0521301 27.9087653,67.5362175 29.0666986,66.4024348 L29.3833499,66.0924705 L29.0172627,65.733164 C28.6971269,65.4129834 28.4107469,65.0528074 28.1687939,64.6663301 C26.3945448,61.8305693 27.2621781,58.0825221 30.103111,56.3116388 L30.4953318,56.0673191 L30.2274631,55.691058 C30.1575559,55.5928084 30.0906976,55.4926026 30.0266704,55.3904404 C29.1673127,54.0169027 28.8953062,52.3916548 29.2607401,50.8140102 C29.626174,49.2361482 30.5852747,47.8949981 31.961423,47.0372706 L32.353426,46.7929509 L32.0857751,46.4169072 C31.3520761,45.3861562 30.9639931,44.1734695 30.963122,42.9094845 C30.9607265,39.5670428 33.6834051,36.845834 37.0321997,36.8436603 L39.5837037,36.8436603 L39.7030468,36.5989059 C42.0920874,31.6933831 45.798258,27.5629885 50.4208446,24.6537579 C55.0434311,21.7445273 60.3753253,20.1870977 65.840065,20.149928 L65.8699008,20.149928 C73.6291647,20.149928 81.1680359,23.3476038 86.5535038,28.9232669 C88.7600452,31.1823549 90.5804636,33.7644493 91.9651053,36.5991232 L92.0844484,36.843443 L94.6418325,36.843443 C95.9077844,36.8440951 97.122776,37.2316592 98.1554861,37.9639663 C100.885134,39.9002653 101.527801,43.6917858 99.5880393,46.4164725 L99.3203884,46.7925162 L99.7121736,47.0368359 C99.8145299,47.1007416 99.9147085,47.167473 100.012927,47.2370303 C102.743446,49.173764 103.386331,52.9657193 101.446351,55.6908406 L101.178918,56.0668843 L101.570703,56.3112041 C101.958786,56.5533501 102.319647,56.8396216 102.643049,57.1617584 C103.792054,58.3059747 104.425792,59.8279735 104.427534,61.4477872 C104.429276,63.067601 103.799023,64.590904 102.652632,65.7377287 L102.288504,66.08921 L102.645227,66.4400392 C103.792707,67.5829512 104.42601,69.1045154 104.427534,70.723677 C104.429059,72.3428386 103.798805,73.8659243 102.652632,75.0120968 L102.288069,75.3631434 L102.646534,75.7154942 C103.792707,76.8573194 104.42601,78.3788836 104.427534,79.9980452 C104.429059,81.6172068 103.798805,83.1402925 102.652632,84.286465 L102.288069,84.6375116 L102.646752,84.9900797 C103.792707,86.1316876 104.42601,87.6532517 104.427534,89.2724133 C104.429059,90.891575 103.798805,92.4146607 102.652632,93.5608332 L102.287198,93.9129666 L102.607551,94.2257567 C103.765049,95.3556268 104.428405,96.9304457 104.427534,98.5463468 C104.478059,100.440259 103.594528,102.220924 102.064409,103.321015 L101.585512,103.665541 L102.056352,104.020717 C102.274349,104.185046 102.481675,104.364808 102.67245,104.555004 C104.933436,106.811048 106.650191,109.470308 107.774804,112.45866 L110.250303,120.167773 C110.412331,120.674237 110.494216,121.200698 110.493127,121.732159 C110.490732,124.561398 108.183576,126.862655 105.34983,126.862655 L26.3276865,126.862655 Z" id="Fill-1-Copy-3" fill="#35447D" mask="url(#mask-2)"></path>
                </g>
                <g id="paper-bundle-copy-2" transform="translate(0.000000, 38.000000)">
                    <g id="Group-3">
                        <mask id="mask-4" fill="white">
                            <use xlink:href="#path-3"></use>
                        </mask>
                        <g id="Clip-2"></g>
                        <path d="M11.1035649,86.2195129 L11.1035649,83.4385353 L56.9056272,83.4385353 C57.6723581,83.4385353 58.2936839,82.8162618 58.2936839,82.0481373 L58.2936839,15.2814271 C58.2989416,15.2816088 58.3038368,15.2823353 58.3090946,15.2823353 L61.0696159,15.2977741 L61.0696159,86.2195129 L11.1035649,86.2195129 Z M6.9393949,80.6575578 L6.9393949,77.8765802 L6.9395762,77.8765802 L51.3539445,77.8765802 C52.1204941,77.8765802 52.7418198,77.2543067 52.7418198,76.4861822 L52.7418198,11.1338455 L55.5177518,11.1338455 L55.5177518,80.6575578 L6.9393949,80.6575578 Z M2.77595014,75.0956027 L2.77595014,6.96247 L7.80004079,6.96247 L7.80004079,17.0290965 C7.80004079,19.5194618 9.82229575,21.5453924 12.3079615,21.5453924 C14.7938085,21.5453924 16.8158822,19.5192802 16.8158822,17.0290965 L16.8158822,10.7776639 C16.8158822,10.009721 16.1945564,9.38726592 15.4278255,9.38726592 C14.6612759,9.38726592 14.0399501,10.009721 14.0399501,10.7776639 L14.0399501,17.0290965 C14.0399501,17.9859373 13.262885,18.7644149 12.3077802,18.7644149 C11.3526754,18.7644149 10.5757915,17.9859373 10.5757915,17.0290965 L10.5757915,6.96247 L49.9658878,6.96247 L49.9658878,75.0956027 L2.77595014,75.0956027 Z M12.3079615,2.79109449 C13.1452193,2.79109449 13.8454119,3.38939245 14.0055025,4.18149245 L10.6104204,4.18149245 C10.7703297,3.38939245 11.4705224,2.79109449 12.3079615,2.79109449 L12.3079615,2.79109449 Z M62.4652873,12.5244251 L58.3246867,12.5011761 L58.3167093,12.5011761 C58.3089133,12.5011761 58.3014799,12.5022659 58.2938652,12.5022659 L58.2938652,9.74326592 C58.2938652,8.97532306 57.6725394,8.35268633 56.9059898,8.35268633 L52.7421824,8.35268633 L52.7421824,5.57207204 C52.7421824,4.80412918 52.1208567,4.18167408 51.3543071,4.18167408 L16.8015592,4.18167408 C16.62497,1.85187204 14.6777745,0.0101169388 12.3079615,0.0101169388 C9.93796714,0.0101169388 7.99095297,1.85187204 7.81436374,4.18149245 L1.38789348,4.18149245 C0.621343909,4.18149245 1.81303116e-05,4.80394755 1.81303116e-05,5.57189041 L1.81303116e-05,76.4860006 C1.81303116e-05,77.2541251 0.621343909,77.8763986 1.38789348,77.8763986 L4.16364419,77.8763986 L4.16364419,82.0477741 C4.16364419,82.8158986 4.78496997,83.438172 5.55151955,83.438172 L8.32745156,83.438172 L8.32745156,87.6095476 C8.32745156,88.3774904 8.94877734,89.0001271 9.71532691,89.0001271 L62.4574912,89.0001271 C63.2240408,89.0001271 63.8453666,88.3774904 63.8453666,87.6095476 L63.8453666,13.9148231 C63.8457292,13.149968 63.2291173,12.5286027 62.4652873,12.5244251 L62.4652873,12.5244251 Z" id="Fill-1" fill="#35447D" mask="url(#mask-4)"></path>
                    </g>
                </g>
            </g>
        </g>
    </g>
</svg>