<?xml version="1.0" encoding="UTF-8" standalone="no"?>
<svg width="131px" height="105px" viewBox="0 0 131 105" version="1.1" xmlns="http://www.w3.org/2000/svg" xmlns:xlink="http://www.w3.org/1999/xlink">
    <!-- Generator: Sketch 47.1 (45422) - http://www.bohemiancoding.com/sketch -->
    <title>judge-match</title>
    <desc>Created with Sketch.</desc>
    <defs></defs>
    <g id="Design" stroke="none" stroke-width="1" fill="none" fill-rule="evenodd">
        <g id="Desktop---Home" transform="translate(-1035.000000, -644.000000)">
            <g id="judge-match" transform="translate(1035.000000, 644.000000)">
                <g id="Group-10" transform="translate(89.000000, 51.500000) rotate(-270.000000) translate(-89.000000, -51.500000) translate(38.500000, 10.500000)" fill="#8AEBF1">
                    <circle id="Oval-2" cx="20.0869141" cy="62.1738281" r="19.5732422"></circle>
                    <circle id="Oval-2-Copy" cx="81.3803711" cy="19.4238281" r="19.0949707"></circle>
                    <rect id="Rectangle-2" transform="translate(54.250000, 40.500000) rotate(-35.000000) translate(-54.250000, -40.500000) " x="23.25" y="36.5" width="62" height="8"></rect>
                </g>
                <path d="M64.1069048,59.9034296 L67.1119358,59.9034296 L67.1119358,56.8969915 L64.1069048,56.8969915 L64.1069048,59.9034296 Z M64.1069048,46.8755314 L67.1119358,46.8755314 L67.1119358,43.8690934 L64.1069048,43.8690934 L64.1069048,46.8755314 Z M64.1069048,53.8905535 L67.1119358,53.8905535 L67.1119358,50.8841155 L64.1069048,50.8841155 L64.1069048,53.8905535 Z M45.0750418,47.4726689 L47.1616348,48.8798235 L49.0817498,46.278394 L46.9951567,44.8712394 L45.0750418,47.4726689 Z M53.0884578,40.265518 L51.0018647,38.8583634 L49.0817498,41.4597928 L51.1683428,42.8669474 L53.0884578,40.265518 Z M37.0616258,63.3148762 L34.9750327,61.9077216 L33.0549177,64.509151 L35.1415108,65.9163056 L37.0616258,63.3148762 Z M37.0616258,58.496275 L39.1482188,59.9034296 L41.0683338,57.3020001 L38.9817407,55.8948455 L37.0616258,58.496275 Z M41.0683338,52.483056 L43.1549268,53.8905535 L45.0750418,51.2894669 L42.9884487,49.8819695 L41.0683338,52.483056 Z M121.835786,98.4462688 C125.80624,95.2278617 128.354442,90.3067174 128.354442,84.7946107 C128.354442,75.1191946 120.51724,67.2464267 110.883175,67.2464267 C101.250169,67.2464267 93.4129672,75.1191946 93.4129672,84.7946107 C93.4129672,90.3067174 95.9611689,95.2278617 99.9316226,98.4462688 C100.452268,95.4893307 101.668167,93.3104223 102.884066,91.8096327 C102.238549,91.8489594 101.594091,91.8627769 100.989846,91.8627769 C98.8077895,91.8627769 97.0342073,90.0803235 97.0342073,87.8886606 C97.0342073,86.4835304 97.7664978,85.2229522 98.9125536,84.5161356 C98.8067313,84.1558185 98.7538201,83.7806211 98.7538201,83.3990464 C98.7538201,81.7824027 99.7305602,80.3815241 101.123182,79.7650524 C100.998312,79.3771005 100.931644,78.9721424 100.931644,78.5618699 C100.931644,78.2685144 101.022651,71.373598 108.915938,71.373598 C109.096894,71.373598 109.263036,71.409736 109.421769,71.4586286 C109.871514,71.3682836 110.358297,71.3162024 110.883175,71.3162024 C111.409112,71.3162024 111.895895,71.3682836 112.34564,71.4586286 C112.504373,71.409736 112.670515,71.373598 112.851471,71.373598 C120.744758,71.373598 120.835765,78.2685144 120.835765,78.5618699 C120.835765,78.9721424 120.770156,79.3771005 120.644227,79.7650524 C122.035791,80.3815241 123.013589,81.7824027 123.013589,83.3990464 C123.013589,83.7806211 122.959619,84.1558185 122.854855,84.5161356 C124.000911,85.2229522 124.733202,86.4835304 124.733202,87.8886606 C124.733202,90.0803235 122.959619,91.8627769 120.777563,91.8627769 C120.173318,91.8627769 119.527801,91.8489594 118.883343,91.8096327 C120.098184,93.3104223 121.315141,95.4893307 121.835786,98.4462688 Z M114.864211,79.4631939 L112.962584,79.4631939 L108.804825,79.4631939 L106.903198,79.4631939 L106.903198,80.2040228 L106.903198,82.5806272 L106.903198,84.7691015 C106.903198,85.8341094 107.313788,86.8268413 108.058777,87.5697959 C108.06301,87.5740475 108.065127,87.578299 108.06936,87.5814876 C108.261956,87.7738693 108.473601,87.9513706 108.68842,88.0991112 C109.332878,88.53383 110.093741,88.7666012 110.883175,88.7666012 C111.67261,88.7666012 112.434531,88.53383 113.085338,88.0948597 C113.313914,87.9396789 113.51921,87.7600518 113.707573,87.568733 C114.439864,86.8247156 114.864211,85.8277321 114.864211,84.7691015 L114.864211,82.9186237 L114.864211,80.7269608 L114.864211,79.4631939 Z M101.14223,84.4651172 C101.33271,84.7446552 101.373981,85.1007207 101.253344,85.4174596 C101.133764,85.7341985 100.864976,85.9722841 100.536926,86.0530631 C99.5580698,86.2954003 98.9210194,87.2636859 99.1411298,88.299996 C99.3294936,89.1896283 100.176072,89.7912196 101.08297,89.7890938 C103.974036,89.7827165 105.261893,89.4309025 105.707405,89.1864396 C105.760316,89.1577418 105.799471,89.1301069 105.829101,89.1056606 C105.838625,89.0971575 105.851324,89.0886545 105.857673,89.0801514 C105.873546,89.074837 105.882012,89.0684597 105.895769,89.0610196 C106.015348,88.9813034 106.13916,88.8952099 106.249216,88.8261226 C106.129636,88.6890108 106.016406,88.5476475 105.908468,88.4020326 C105.144431,87.3604081 104.727491,86.1008928 104.727491,84.7691015 L104.727491,79.4631939 L104.727491,77.7647083 C104.727491,77.3831336 105.035434,77.0738349 105.414277,77.0738349 L106.134928,77.0738349 L106.903198,77.0738349 L107.070397,77.0738349 L109.251395,77.0738349 L112.514956,77.0738349 L114.697012,77.0738349 L114.864211,77.0738349 L115.818729,77.0738349 L116.352073,77.0738349 C116.731975,77.0738349 117.040977,77.3831336 117.040977,77.7647083 L117.040977,79.4631939 L117.040977,84.7691015 C117.040977,86.0934526 116.615571,87.3582824 115.858941,88.4009698 C115.752061,88.5476475 115.638831,88.6900737 115.519252,88.8271855 C115.620841,88.8920213 115.707615,88.9472912 115.904445,89.0365733 C116.136196,89.2693445 117.362677,89.7890938 120.777563,89.7890938 C122.082352,89.7890938 123.083432,88.4573025 122.499292,87.0755557 C122.269658,86.5302972 121.73843,86.2103697 121.175455,86.0371199 C120.872803,85.9446491 120.627295,85.7161295 120.514065,85.4174596 C120.393428,85.1007207 120.434699,84.7446552 120.624121,84.4651172 C121.04741,83.8369539 121.074924,83.0015285 120.607189,82.2638883 C120.274907,81.7430761 119.66537,81.5251852 119.049484,81.5018018 C118.660058,81.4858586 118.310845,81.2509617 118.149995,80.8927704 C117.982795,80.5271389 118.045231,80.0956088 118.305553,79.7905616 C118.518256,79.5429101 118.771172,79.1273232 118.771172,78.5618699 C118.771172,78.2004899 118.682281,75.9121047 116.747849,74.5218549 C116.081168,74.0414322 115.190144,73.6736749 114.009167,73.5259343 C113.820803,73.5025509 113.637731,73.474916 113.434552,73.4621614 C112.772104,73.3633134 112.039813,73.3250496 111.342444,73.3186723 C111.028152,73.3165465 110.721267,73.3197352 110.431314,73.3282382 C109.246104,73.3611876 108.332857,73.4621614 108.332857,73.4621614 C107.966712,73.4844819 107.631255,73.5301859 107.31273,73.5875815 C106.346572,73.7650828 105.600525,74.1030793 105.018502,74.5218549 C103.085128,75.9131676 102.995179,78.2004899 102.995179,78.5618699 C102.995179,79.1273232 103.249153,79.5429101 103.461855,79.7905616 C103.722178,80.0956088 103.783555,80.5271389 103.617414,80.8927704 C103.456564,81.2509617 103.107351,81.4858586 102.718983,81.5018018 C102.103097,81.5251852 101.491444,81.7430761 101.16022,82.2638883 C100.692485,83.0015285 100.719999,83.8369539 101.14223,84.4651172 Z M101.929548,99.8365186 C104.552884,101.417024 107.609033,102.342795 110.883175,102.342795 C114.157318,102.342795 117.213467,101.417024 119.834686,99.8365186 C119.17118,93.4943009 114.834581,90.8732336 113.665244,90.2812082 C113.130842,90.5554318 112.561518,90.7478135 111.972087,90.8530388 L111.972087,95.6753351 L109.795322,95.6753351 L109.795322,90.8530388 C109.204833,90.7478135 108.634451,90.554369 108.100048,90.2801454 C106.907431,90.8721707 102.587763,93.4571001 101.929548,99.8365186 Z M48.0289452,20.2053893 C48.0289452,29.8808054 55.8661469,37.7525104 65.5002116,37.7525104 C75.1332182,37.7525104 82.9704198,29.8808054 82.9704198,20.2053893 C82.9704198,10.5289104 75.1332182,2.65720533 65.5002116,2.65720533 C55.8661469,2.65720533 48.0289452,10.5289104 48.0289452,20.2053893 Z M110.883175,64.5892214 C121.97653,64.5892214 131,73.6534802 131,84.7946107 C131,95.9368041 121.97653,105 110.883175,105 C99.7908789,105 90.767409,95.9368041 90.767409,84.7946107 C90.767409,78.4630218 93.6849306,72.8095518 98.2374071,69.1022189 L75.9766222,37.4208912 C73.2760363,39.0843017 70.1627434,40.1227376 66.8229907,40.3427542 L66.8229907,40.6754363 L64.1774325,40.6754363 L64.1774325,40.3427542 C60.8366216,40.1227376 57.7233287,39.0843017 55.0216847,37.4208912 L54.8312045,37.692989 L52.6692543,36.160313 L52.8533852,35.8977811 C48.3019668,32.1904482 45.383387,26.5369782 45.383387,20.2053893 C45.383387,9.06319593 54.406857,0 65.5002116,0 C76.5925081,0 85.615978,9.06319593 85.615978,20.2053893 C85.615978,26.5369782 82.6984564,32.1904482 78.1459799,35.8977811 L100.406765,67.5791088 C103.462914,65.6967445 107.042883,64.5892214 110.883175,64.5892214 Z M76.4520819,98.4462688 C75.931436,95.4893307 74.7144792,93.3104223 73.4996389,91.8096327 C74.1430387,91.8489594 74.7896131,91.8627769 75.3938586,91.8627769 C77.575915,91.8627769 79.3494972,90.0803235 79.3494972,87.8886606 C79.3494972,86.4835304 78.6172067,85.2229522 77.4711509,84.5161356 C77.575915,84.1558185 77.6298844,83.7806211 77.6298844,83.3990464 C77.6298844,81.7824027 76.6520861,80.3815241 75.2605225,79.7650524 C75.386451,79.3771005 75.4520609,78.9721424 75.4520609,78.5618699 C75.4520609,78.2685144 75.3610537,71.373598 67.4677662,71.373598 C67.28681,71.373598 67.120669,71.409736 66.9619355,71.4586286 C66.5121906,71.3682836 66.0254079,71.3162024 65.4994709,71.3162024 C64.9735339,71.3162024 64.4867512,71.3682836 64.0380645,71.4586286 C63.879331,71.409736 63.71319,71.373598 63.5322338,71.373598 C55.6389463,71.373598 55.5479391,78.2685144 55.5479391,78.5618699 C55.5479391,78.9721424 55.613549,79.3771005 55.7394775,79.7650524 C54.3468557,80.3815241 53.3701156,81.7824027 53.3701156,83.3990464 C53.3701156,83.7806211 53.4230268,84.1558185 53.5288491,84.5161356 C52.3827933,85.2229522 51.6505028,86.4835304 51.6505028,87.8886606 C51.6505028,90.0803235 53.424085,91.8627769 55.6061414,91.8627769 C56.2103869,91.8627769 56.8548449,91.8489594 57.5003611,91.8096327 C56.2834043,93.3104223 55.068564,95.4893307 54.5479181,98.4462688 C50.5774644,95.2278617 48.0292627,90.3067174 48.0292627,84.7946107 C48.0292627,75.1191946 55.8664643,67.2464267 65.4994709,67.2464267 C75.1335357,67.2464267 82.9707373,75.1191946 82.9707373,84.7946107 C82.9707373,90.3067174 80.4225356,95.2278617 76.4520819,98.4462688 L76.4520819,98.4462688 Z M69.4805069,79.4631939 L69.4805069,80.7269608 L69.4805069,82.9186237 L69.4805069,84.7691015 C69.4805069,85.8277321 69.0561593,86.8247156 68.3238688,87.568733 C68.1355051,87.7600518 67.9302098,87.9396789 67.7016335,88.0948597 C67.0508262,88.53383 66.2889055,88.7666012 65.4994709,88.7666012 C64.7089781,88.7666012 63.9491738,88.53383 63.3047158,88.0991112 C63.0898965,87.9513706 62.8771936,87.7738693 62.6856552,87.5814876 C62.6814223,87.578299 62.6782476,87.5740475 62.6750729,87.5697959 C61.9300838,86.8268413 61.5194931,85.8341094 61.5194931,84.7691015 L61.5194931,82.5806272 L61.5194931,80.2040228 L61.5194931,79.4631939 L63.4211204,79.4631939 L67.5788796,79.4631939 L69.4805069,79.4631939 Z M55.7585256,84.4651172 C55.3362945,83.8369539 55.3087807,83.0015285 55.7765154,82.2638883 C56.1077392,81.7430761 56.7183341,81.5251852 57.33422,81.5018018 C57.7236462,81.4858586 58.0728599,81.2509617 58.2337098,80.8927704 C58.3998509,80.5271389 58.3384739,80.0956088 58.078151,79.7905616 C57.8654481,79.5429101 57.6114745,79.1273232 57.6114745,78.5618699 C57.6114745,78.2004899 57.7014235,75.9131676 59.6347975,74.5218549 C60.2168203,74.1030793 60.9628677,73.7650828 61.9290255,73.5875815 C62.2464925,73.5301859 62.5830075,73.4844819 62.9491528,73.4621614 C62.9491528,73.4621614 63.8623995,73.3611876 65.0465513,73.3282382 C65.3375627,73.3197352 65.6444475,73.3165465 65.9576816,73.3186723 C66.6561089,73.3250496 67.3883994,73.3633134 68.0508472,73.4621614 C68.2540261,73.474916 68.4370987,73.5025509 68.6254625,73.5259343 C69.8064397,73.6736749 70.6974637,74.0414322 71.3641443,74.5218549 C73.2985765,75.9121047 73.3874672,78.2004899 73.3874672,78.5618699 C73.3874672,79.1273232 73.1345519,79.5429101 72.921849,79.7905616 C72.6615261,80.0956088 72.5990909,80.5271389 72.7662902,80.8927704 C72.9271401,81.2509617 73.2763538,81.4858586 73.66578,81.5018018 C74.2806077,81.5251852 74.8912025,81.7430761 75.2234846,82.2638883 C75.6912193,83.0015285 75.6637055,83.8369539 75.2404162,84.4651172 C75.0509942,84.7446552 75.0097235,85.1007207 75.130361,85.4174596 C75.2435909,85.7161295 75.4890987,85.9446491 75.7917505,86.0371199 C76.3547253,86.2103697 76.8859534,86.5302972 77.1155879,87.0755557 C77.6997271,88.4573025 76.6986479,89.7890938 75.3938586,89.7890938 C71.9789721,89.7890938 70.7524913,89.2693445 70.5207404,89.0365733 C70.3239108,88.9472912 70.2371365,88.8920213 70.1344889,88.8271855 C70.2551263,88.6900737 70.3683562,88.5476475 70.4752368,88.4009698 C71.2308082,87.3582824 71.656214,86.0934526 71.656214,84.7691015 L71.656214,79.4631939 L71.656214,77.7647083 C71.656214,77.3831336 71.348271,77.0738349 70.9683688,77.0738349 L70.4339661,77.0738349 L69.4805069,77.0738349 L69.3133076,77.0738349 L67.1312512,77.0738349 L63.8676906,77.0738349 L61.6866924,77.0738349 L61.5194931,77.0738349 L60.7501648,77.0738349 L60.030573,77.0738349 C59.651729,77.0738349 59.343786,77.3831336 59.343786,77.7647083 L59.343786,79.4631939 L59.343786,84.7691015 C59.343786,86.1008928 59.760726,87.3604081 60.5247632,88.4020326 C60.632702,88.5476475 60.7459319,88.6890108 60.8655111,88.8261226 C60.7554559,88.8952099 60.6316438,88.9813034 60.5120646,89.0610196 C60.4983077,89.0684597 60.4887836,89.074837 60.4739685,89.0801514 C60.4676192,89.0886545 60.4549205,89.0971575 60.4443383,89.1056606 C60.4157662,89.1301069 60.3755537,89.1577418 60.3237008,89.1864396 C59.8781888,89.4309025 58.5892728,89.7827165 55.6992651,89.7890938 C54.7923677,89.7912196 53.9457891,89.1896283 53.7574253,88.299996 C53.5373149,87.2636859 54.1743653,86.2954003 55.1532218,86.0530631 C55.4812711,85.9722841 55.7490016,85.7341985 55.869639,85.4174596 C55.9902765,85.1007207 55.9490058,84.7446552 55.7585256,84.4651172 L55.7585256,84.4651172 Z M56.5458437,99.8354557 C57.2040586,93.4571001 61.523726,90.8721707 62.7163437,90.2801454 C63.2507464,90.554369 63.8211288,90.7478135 64.4116174,90.8530388 L64.4116174,95.6753351 L66.5883826,95.6753351 L66.5883826,90.8530388 C67.177813,90.7478135 67.7471371,90.5554318 68.2804817,90.2812082 C69.4508766,90.8732336 73.7874756,93.4943009 74.4509816,99.8365186 C71.8297626,101.417024 68.7736137,102.342795 65.4994709,102.342795 C62.225328,102.342795 59.1691792,101.415961 56.5458437,99.8354557 L56.5458437,99.8354557 Z M66.82225,64.6572458 L66.82225,64.3235008 L64.1766918,64.3235008 L64.1766918,64.6572458 C53.7013395,65.3459934 45.3837045,74.1020164 45.3837045,84.7946107 C45.3837045,95.9368041 54.4071744,105 65.4994709,105 C76.5928256,105 85.6162955,95.9368041 85.6162955,84.7946107 C85.6162955,74.1020164 77.2986605,65.3459934 66.82225,64.6572458 L66.82225,64.6572458 Z M31.0683774,98.4462688 C30.5477315,95.4893307 29.3307747,93.3104223 28.1148762,91.8096327 C28.7593342,91.8489594 29.4059086,91.8627769 30.0101541,91.8627769 C32.1922105,91.8627769 33.9657927,90.0803235 33.9657927,87.8886606 C33.9657927,86.4835304 33.232444,85.2229522 32.0874464,84.5161356 C32.1922105,84.1558185 32.2461799,83.7806211 32.2461799,83.3990464 C32.2461799,81.7824027 31.2683816,80.3815241 29.876818,79.7650524 C30.0016883,79.3771005 30.0683564,78.9721424 30.0683564,78.5618699 C30.0683564,78.2685144 29.9773492,71.373598 22.0840617,71.373598 C21.9031055,71.373598 21.7369645,71.409736 21.578231,71.4586286 C21.1274279,71.3682836 20.6406451,71.3162024 20.1157664,71.3162024 C19.5898294,71.3162024 19.1030467,71.3682836 18.65436,71.4586286 C18.4956265,71.409736 18.3294855,71.373598 18.1485293,71.373598 C10.2552418,71.373598 10.1642346,78.2685144 10.1642346,78.5618699 C10.1642346,78.9721424 10.2298445,79.3771005 10.3557731,79.7650524 C8.96315121,80.3815241 7.98641112,81.7824027 7.98641112,83.3990464 C7.98641112,83.7806211 8.03932228,84.1558185 8.14408639,84.5161356 C6.9990888,85.2229522 6.26679828,86.4835304 6.26679828,87.8886606 C6.26679828,90.0803235 8.03932228,91.8627769 10.2213787,91.8627769 C10.8266824,91.8627769 11.4711404,91.8489594 12.1166566,91.8096327 C10.8996998,93.3104223 9.68485949,95.4893307 9.16421364,98.4462688 C5.19375988,95.2267988 2.64555821,90.3067174 2.64555821,84.7946107 C2.64555821,75.1191946 10.4827598,67.2464267 20.1157664,67.2464267 C29.7498312,67.2464267 37.5870328,75.1191946 37.5870328,84.7946107 C37.5870328,90.3067174 35.0388311,95.2278617 31.0683774,98.4462688 L31.0683774,98.4462688 Z M24.0968024,79.4631939 L24.0968024,80.7269608 L24.0968024,82.9186237 L24.0968024,84.7691015 C24.0968024,85.8277321 23.6713966,86.8247156 22.9401643,87.568733 C22.7518006,87.7600518 22.5465053,87.9396789 22.3168708,88.0948597 C21.6671217,88.53383 20.905201,88.7666012 20.1157664,88.7666012 C19.3252736,88.7666012 18.5644111,88.53383 17.9210113,88.0991112 C17.7051338,87.9513706 17.4934891,87.7738693 17.3019507,87.5814876 C17.2977178,87.578299 17.2945431,87.5740475 17.2903102,87.5697959 C16.5463793,86.8268413 16.1357886,85.8341094 16.1357886,84.7691015 L16.1357886,82.5806272 L16.1357886,80.2040228 L16.1357886,79.4631939 L18.0374159,79.4631939 L22.1951751,79.4631939 L24.0968024,79.4631939 Z M10.3748211,84.4651172 C9.95153176,83.8369539 9.92507618,83.0015285 10.3928109,82.2638883 C10.7240348,81.7430761 11.3346296,81.5251852 11.9505155,81.5018018 C12.3399417,81.4858586 12.6891554,81.2509617 12.8500053,80.8927704 C13.0161464,80.5271389 12.9547694,80.0956088 12.6944465,79.7905616 C12.4817436,79.5429101 12.22777,79.1273232 12.22777,78.5618699 C12.22777,78.2004899 12.317719,75.9131676 14.251093,74.5218549 C14.8331158,74.1030793 15.5791632,73.7650828 16.545321,73.5875815 C16.862788,73.5301859 17.199303,73.4844819 17.5654483,73.4621614 C17.5654483,73.4621614 18.478695,73.3611876 19.6628468,73.3282382 C19.9528,73.3197352 20.2596848,73.3165465 20.5739771,73.3186723 C21.2724044,73.3250496 22.004695,73.3633134 22.6671427,73.4621614 C22.8703216,73.474916 23.052336,73.5025509 23.2406998,73.5259343 C24.4227352,73.6736749 25.3137592,74.0414322 25.9804398,74.5218549 C27.914872,75.9121047 28.0037628,78.2004899 28.0037628,78.5618699 C28.0037628,79.1273232 27.7508474,79.5429101 27.5381445,79.7905616 C27.2778216,80.0956088 27.2153864,80.5271389 27.3825857,80.8927704 C27.5434356,81.2509617 27.8915911,81.4858586 28.2810173,81.5018018 C28.8969032,81.5251852 29.507498,81.7430761 29.8397801,82.2638883 C30.3075148,83.0015285 30.280001,83.8369539 29.8556535,84.4651172 C29.6672898,84.7446552 29.626019,85.1007207 29.7466565,85.4174596 C29.8588282,85.7161295 30.1053942,85.9446491 30.4080461,86.0371199 C30.9710208,86.2103697 31.5022489,86.5302972 31.7318834,87.0755557 C32.3149644,88.4573025 31.3149434,89.7890938 30.0101541,89.7890938 C26.5952676,89.7890938 25.3677286,89.2693445 25.1370359,89.0365733 C24.9402063,88.9472912 24.853432,88.8920213 24.7507844,88.8271855 C24.8714218,88.6900737 24.9835935,88.5476475 25.0915323,88.4009698 C25.8471037,87.3582824 26.2725095,86.0934526 26.2725095,84.7691015 L26.2725095,79.4631939 L26.2725095,77.7647083 C26.2725095,77.3831336 25.9645665,77.0738349 25.5846643,77.0738349 L25.0502616,77.0738349 L24.0968024,77.0738349 L23.9285449,77.0738349 L21.7475467,77.0738349 L18.4829279,77.0738349 L16.3029879,77.0738349 L16.1357886,77.0738349 L15.3664603,77.0738349 L14.6468685,77.0738349 C14.2680245,77.0738349 13.9600816,77.3831336 13.9600816,77.7647083 L13.9600816,79.4631939 L13.9600816,84.7691015 C13.9600816,86.1008928 14.3759633,87.3604081 15.1410587,88.4020326 C15.2479393,88.5476475 15.3611692,88.6890108 15.4818066,88.8261226 C15.3717514,88.8952099 15.2479393,88.9813034 15.1283601,89.0610196 C15.1146032,89.0684597 15.1050791,89.074837 15.090264,89.0801514 C15.0839147,89.0886545 15.071216,89.0971575 15.0606338,89.1056606 C15.0310035,89.1301069 14.9918493,89.1577418 14.9389381,89.1864396 C14.4944843,89.4309025 13.2055684,89.7827165 10.3155606,89.7890938 C9.40760499,89.7912196 8.56208459,89.1896283 8.37372084,88.299996 C8.1536104,87.2636859 8.79066082,86.2954003 9.76951735,86.0530631 C10.0975666,85.9722841 10.3652971,85.7341985 10.4859345,85.4174596 C10.606572,85.1007207 10.5653013,84.7446552 10.3748211,84.4651172 L10.3748211,84.4651172 Z M11.1621392,99.8354557 C11.8203541,93.4571001 16.1400215,90.8721707 17.3326392,90.2801454 C17.8670419,90.554369 18.4374243,90.7478135 19.0279129,90.8530388 L19.0279129,95.6753351 L21.2036199,95.6753351 L21.2036199,90.8530388 C21.7930503,90.7478135 22.3623744,90.5554318 22.8967772,90.2812082 C24.0671721,90.8732336 28.4037712,93.4943009 29.0672772,99.8365186 C26.4460581,101.417024 23.3899092,102.342795 20.1157664,102.342795 C16.8416236,102.342795 13.7854747,101.417024 11.1621392,99.8354557 L11.1621392,99.8354557 Z M32.7625929,69.1022189 L32.9456655,68.839687 L30.7837153,67.307011 L30.5932351,67.5791088 C27.5370863,65.6967445 23.9571169,64.5892214 20.1157664,64.5892214 C9.02346994,64.5892214 0,73.6534802 0,84.7946107 C0,95.9368041 9.02346994,105 20.1157664,105 C31.2091211,105 40.232591,95.9368041 40.232591,84.7946107 C40.232591,78.4630218 37.312953,72.8095518 32.7625929,69.1022189 L32.7625929,69.1022189 Z M63.3431293,13.9222679 C63.9039876,13.3929526 64.6447439,13.1282949 65.56434,13.1282949 C66.4320831,13.1282949 67.1209864,13.380198 67.6321083,13.8840041 C68.1421719,14.3878103 68.3972037,15.0850609 68.3972037,15.9746933 C68.3972037,17.2905414 67.9717979,18.1929283 67.1209864,18.6797283 C66.2701749,19.1665283 65.1050711,19.4099283 63.6246167,19.4099283 L62.3981359,19.4099283 L62.3981359,24.1790805 L65.1548076,24.1790805 L65.1548076,21.3592542 C67.0447943,21.3252419 68.5379474,20.8586367 69.6353249,19.9615642 C70.7337607,19.0644916 71.2829786,17.726323 71.2829786,15.9481212 C71.2829786,14.3070312 70.772915,13.0251954 69.7517295,12.1015508 C68.7294858,11.1789691 67.3686107,10.7166154 65.6659294,10.7166154 C64.4405068,10.7166154 63.3759342,10.9440722 62.4753862,11.3968599 C61.5727218,11.8496477 60.8838184,12.4746224 60.4076179,13.2685954 C59.929301,14.0636312 59.7007248,14.9734583 59.7176563,15.9991396 L62.4997253,15.9991396 C62.4997253,15.1445823 62.7812127,14.4526461 63.3431293,13.9222679 M62.143739,29.6926752 L65.4623273,29.6926752 L65.4623273,26.4615135 L62.143739,26.4615135 L62.143739,29.6926752 Z" id="Fill-1" fill="#35447D"></path>
            </g>
        </g>
    </g>
</svg>