<?xml version="1.0" encoding="UTF-8" standalone="no"?>
<svg width="165px" height="155px" viewBox="0 0 165 155" version="1.1" xmlns="http://www.w3.org/2000/svg" xmlns:xlink="http://www.w3.org/1999/xlink">
    <!-- Generator: Sketch 47.1 (45422) - http://www.bohemiancoding.com/sketch -->
    <title>judge-approved</title>
    <desc>Created with Sketch.</desc>
    <defs>
        <path d="M0.827933933,60.2419369 L67.8575307,60.2419369 L67.8575307,66.0149633 L75.57286,66.0149633 L75.57286,73.1853731 L84.2347382,73.1853731 L84.2347382,179.38402 L8.54920185,179.38402 L8.54920185,190.361478 C116.125658,193.600244 169.913886,193.600244 169.913886,190.361478 C169.913886,187.122711 169.913886,123.68421 169.913886,0.0459745304 L1.22147396,0.0459745304 L0.827933933,60.2419369 Z" id="path-1"></path>
        <polygon id="path-3" points="2.61608572e-05 128.289474 92.124674 128.289474 92.124674 0.0146616541 2.61608573e-05 0.0146616541"></polygon>
    </defs>
    <g id="Design" stroke="none" stroke-width="1" fill="none" fill-rule="evenodd">
        <g id="Desktop---Home" transform="translate(-245.000000, -974.000000)">
            <g id="Group-4" transform="translate(216.000000, 947.000000)">
                <g id="judge-approved" transform="translate(29.000000, 0.000000)">
                    <g id="Group-7" transform="translate(18.000000, 87.000000)" fill="#8AEBF1">
                        <ellipse id="Oval-3" cx="20.5" cy="20.3921569" rx="20.5" ry="20.3921569"></ellipse>
                        <rect id="Rectangle-3" x="7.63807678" y="31.8627451" width="23.1119232" height="33.1372549"></rect>
                    </g>
                    <path d="M89.2445736,179.338317 L90.3226802,74.3848484 L82.7545475,74.2174625 C82.4559082,73.919814 82.2435157,72.0405363 82.1173701,68.5796294 C74.0076877,69.4716504 71.274681,69.0948754 73.91835,67.4493044 C73.9499826,63.6199535 73.9359349,61.6570874 73.876207,61.560706 C72.6752503,59.6472513 50.002134,63.4812036 50.0000009,61.7208254 C49.9978678,57.0605004 53.7969866,53.2697342 58.4728251,53.2654821 L62.0330324,53.2654821 C65.5335119,46.0879012 70.7063716,40.3305289 77.159114,36.2761311 C83.6097234,32.2238595 91.0522419,30.0510255 98.6803434,30 C109.548682,30 120.073585,34.4583493 127.58863,42.226975 C130.668881,45.3756709 133.209448,48.9750916 135.142071,52.9253123 L138.877196,53.2654821 C140.643434,53.2676081 142.339279,53.8076275 143.78128,54.8281367 C147.591065,57.5261077 148.489116,62.8114945 145.782164,66.6086389 L145.408865,67.1316498 L145.954948,67.4739456 C146.097868,67.5611141 146.236522,67.6546608 146.375176,67.7524595 C150.184961,70.4504306 151.083012,75.7358174 148.373926,79.5350879 L148.00276,80.0580988 L148.546711,80.3982685 C149.088528,80.7363121 149.594081,81.1360115 150.046307,81.5846104 C151.650426,83.1791559 152.533546,85.3009644 152.535679,87.5567148 C152.539945,89.8145913 151.656826,91.9385259 150.056972,93.5373235 L149.549286,94.0263175 L150.04844,94.5153114 C151.650426,96.1098569 152.533546,98.2295394 152.535679,100.48529 C152.537812,102.743166 151.656826,104.864975 150.056972,106.463772 L149.549286,106.95064 L150.050573,107.443886 C151.650426,109.03418 152.533546,111.155988 152.535679,113.411739 C152.537812,115.667489 151.656826,117.791424 150.056972,119.388095 L149.549286,119.877089 L150.050573,120.368209 C151.650426,121.960629 152.533546,124.080311 152.535679,126.336062 C152.537812,128.593938 151.656826,130.715747 150.056972,132.314544 L149.547152,132.803538 L149.995111,133.239381 C151.609897,134.816918 152.537812,137.011012 152.535679,139.262511 C152.606072,141.903078 151.373119,144.384191 149.237847,145.917081 L148.568042,146.39757 L149.227182,146.890816 C149.530087,147.120431 149.820194,147.371306 150.084703,147.637064 C153.241747,150.779381 155.639395,154.487231 157.207251,158.652184 L160.662935,169.395169 C160.889047,170.101021 161.002104,170.836638 160.99997,171.576507 C160.997837,175.52035 157.778932,178.726449 153.821961,178.726449 C109.692424,180.18747 88.1666278,180.391426 89.2445736,179.338317 Z" id="Fill-1" fill="#8AEBF1"></path>
                    <g id="Group-35-Copy-2">
                        <path d="M37.5633286,138.642629 L30.6343451,143.038377 L30.6343451,127.917835 L33.2455784,127.576052 L37.4395608,130.786998 C38.0362027,131.24383 38.9183852,131.244839 39.5163724,130.786998 L43.7103548,127.576052 L46.3215881,127.918172 L46.3215881,143.038377 L39.3926045,138.642629 L39.3929408,138.642629 C38.837667,138.29008 38.1192751,138.29008 37.5633286,138.642629 M54.52491,113.023691 L55.131978,117.66333 L50.8081739,119.453655 C50.3864214,119.628584 50.0578311,119.957247 49.883278,120.378757 L48.0930159,124.703189 L43.4540745,124.095986 C43.0020527,124.037116 42.5557484,124.157211 42.1945345,124.433396 L38.4781347,127.278674 L34.761735,124.433396 C34.4657683,124.206662 34.0968189,124.081521 33.7234973,124.081521 C33.649842,124.081521 33.5761866,124.08623 33.5018586,124.095986 L28.8629172,124.703189 L27.0726552,120.378757 C26.8977658,119.956911 26.5695118,119.628247 26.1480956,119.453655 L21.8239552,117.662994 L22.4313595,113.023691 C22.4908892,112.572241 22.3708209,112.124492 22.0940247,111.763197 L19.2497177,108.045632 L22.0940247,104.32874 C22.3704845,103.967446 22.4905528,103.520032 22.4313595,103.068246 L21.8239552,98.4286067 L26.1480956,96.6382818 C26.5695118,96.4636898 26.8981021,96.1350262 27.0729915,95.7131796 L28.8632536,91.3887476 L33.5018586,91.9962874 C33.9535441,92.055494 34.4005211,91.9353989 34.761735,91.658541 L38.4781347,88.8132633 L42.1945345,91.658541 C42.5503672,91.9313621 43.0084429,92.0551576 43.4547472,91.9962874 L48.0933523,91.3887476 L49.8836143,95.7131796 C50.0581674,96.1353626 50.3867577,96.4636898 50.8081739,96.6382818 L55.131978,98.4286067 L54.52491,103.068583 C54.4657167,103.520369 54.5854486,103.967782 54.8622447,104.329076 L57.7065518,108.045969 L54.8622447,111.763197 C54.5854486,112.124155 54.4657167,112.571905 54.52491,113.023691 M61.2140933,107.007499 L58.0035275,102.812245 L58.6892957,97.5731395 C58.7895208,96.8078277 58.3617144,96.0674096 57.6493764,95.7727226 L52.7692895,93.7516267 L50.7486442,88.8704514 C50.4540228,88.1579545 49.7114155,87.732744 48.948965,87.8299638 L43.7106911,88.515885 L39.5163724,85.3046031 C38.9045958,84.8370061 38.051001,84.8370061 37.4402334,85.3049395 L33.2455784,88.5162214 L28.0076408,87.8303002 C27.2401454,87.7297164 26.5019103,88.1579545 26.2076253,88.8707878 L24.1873164,93.7519631 L19.3068931,95.7727226 C18.5942188,96.067746 18.1664124,96.8085005 18.2669738,97.5731395 L18.9524057,102.812582 L15.7421762,107.007499 C15.2743471,107.61874 15.2743471,108.472861 15.7421762,109.084438 L18.9524057,113.279692 L18.2669738,118.518798 C18.1664124,119.283773 18.5942188,120.024191 19.3068931,120.319215 L24.1873164,122.34031 L26.2072889,127.221149 C26.3956314,127.6763 26.7628991,128.020101 27.2179479,128.179219 L27.2179479,146.145039 C27.2179479,146.768389 27.5573006,147.341953 28.1031573,147.642022 C28.6490141,147.942764 29.3152754,147.922244 29.8412889,147.587862 L38.4784711,142.108566 L47.1149806,147.588198 C47.3897587,147.762117 47.705905,147.853955 48.030123,147.853955 C48.3166726,147.853955 48.6012042,147.780956 48.8531122,147.642359 C49.3989689,147.341953 49.7383216,146.768053 49.7383216,146.145375 L49.7383216,128.178882 C50.1933704,128.019428 50.5606381,127.675963 50.7486442,127.221486 L52.7692895,122.34031 L57.6497127,120.319551 C58.3623871,120.024191 58.7898571,119.283773 58.6892957,118.519134 L58.0038638,113.279692 L61.2140933,109.084438 C61.6822588,108.472861 61.6822588,107.619076 61.2140933,107.007499 M30.0981409,99.5294446 C30.4919784,99.5294446 30.8763987,99.3915203 31.1814462,99.1412381 C33.2303428,97.4592342 35.8217329,96.5327865 38.4780338,96.5327865 C39.4200823,96.5327865 40.1862324,95.7661291 40.1862324,94.8242069 C40.1862324,93.8819483 39.4200823,93.1156274 38.4780338,93.1156274 C35.0333853,93.1156274 31.6724818,94.3172509 29.013154,96.4998192 C28.6610209,96.7894603 28.4417365,97.19886 28.3970051,97.6530011 C28.3526101,98.1074785 28.4874768,98.5518639 28.7767169,98.904412 C29.1022803,99.3017013 29.5838988,99.5294446 30.0981409,99.5294446 M43.4828304,93.9760396 L43.4828304,93.9760396 C42.595603,93.6604957 41.6165587,94.1260744 41.3007488,95.0131632 C40.9849389,95.9005885 41.4500774,96.8795148 42.3376411,97.1953951 C46.9136896,98.8239113 49.9887161,103.184338 49.9887161,108.046002 C49.9887161,114.394221 44.8247702,119.558982 38.4779666,119.558982 C32.1311629,119.558982 26.9675534,114.394221 26.9675534,108.046002 C26.9675534,105.78808 27.6203617,103.602148 28.8556862,101.724695 C29.3736279,100.937854 29.1550162,99.8765093 28.3683502,99.3581157 C27.9876294,99.1071607 27.531908,99.0200329 27.0842584,99.1118703 C26.6372814,99.2040441 26.2531974,99.4644183 26.0022984,99.8458968 C24.3986971,102.281775 23.5508198,105.117633 23.5508198,108.046002 C23.5508198,116.278402 30.247066,122.976478 38.4779666,122.976478 C46.7088672,122.976478 53.4051133,116.278402 53.4051133,108.046002 C53.4051133,101.742524 49.417635,96.0879637 43.4828304,93.9760396" id="Fill-1" fill="#35447D"></path>
                        <g id="Group-34" transform="translate(6.413043, 0.000000)">
                            <mask id="mask-2" fill="white">
                                <use xlink:href="#path-1"></use>
                            </mask>
                            <g id="Mask"></g>
                            <path d="M74.9823315,112.38162 C78.1903721,116.159934 81.7970763,119.625336 85.7016075,122.681211 C88.141042,124.658102 91.2254562,125.750799 94.3782395,125.750799 C97.5247791,125.750799 100.604823,124.661842 103.050501,122.685574 C106.949101,119.634375 110.557678,116.167414 113.767904,112.387542 C116.608499,109.467241 118.45665,105.637503 118.973009,101.600819 L118.978004,101.561237 L118.978004,101.521656 C118.978004,100.906118 118.953653,100.300864 118.905888,99.7224143 C118.802554,98.7282032 118.746985,97.6557642 118.693289,96.6185433 C118.362682,90.0661 119.00891,83.5342265 120.613867,77.1881053 C120.687856,76.8359239 120.81117,76.3992814 120.921684,76.0156219 C121.299744,74.5894432 121.532636,73.131163 121.617238,71.6694545 C121.641901,71.3157148 121.641901,71.0152698 121.641589,70.6970599 L121.641589,70.6182087 C121.628789,69.4179871 121.509846,68.2183888 121.287568,67.045282 L121.191414,66.5378915 L67.5628793,66.5378915 L67.4667255,67.045282 C67.2444479,68.2190121 67.1255044,69.4189221 67.1130168,70.6116637 L67.1130168,70.7126432 C67.1127047,71.0230614 67.1127047,71.3163381 67.1342456,71.6230164 C67.2194728,73.1162031 67.4598574,74.615623 67.8482188,76.0714099 C67.9543626,76.4382395 68.071433,76.8549355 68.1600943,77.2616582 C69.7491296,83.5669513 70.3897387,90.0361801 70.0678732,96.5091489 L70.0663122,96.5424971 C70.0073088,97.6694774 69.9520516,98.7338132 69.8452834,99.7613724 C69.8003283,100.318941 69.7772265,100.922948 69.7772265,101.521968 L69.7772265,101.561549 L69.7822215,101.600819 C70.2985799,105.635633 72.1448578,109.463813 74.9823315,112.38162 L74.9823315,112.38162 Z M76.8785595,121.862467 C76.8932323,121.981212 76.9119635,122.103384 76.931007,122.225868 C76.9503626,122.350534 76.9700305,122.475824 76.9837667,122.596126 C77.2525603,124.873774 77.3992885,127.187262 77.4198929,129.474571 L77.4223904,129.757875 L83.5687413,135.01909 C86.5694892,137.607779 90.408461,139.034581 94.3766786,139.034269 C98.346457,139.034269 102.186678,137.606532 105.189611,135.014415 L111.332528,129.757875 L111.335337,129.474883 C111.356254,127.179471 111.503294,124.860995 111.7724,122.583036 C111.785824,122.465539 111.804868,122.346171 111.823287,122.22618 C111.84233,122.103696 111.861061,121.981212 111.875734,121.862156 L112.083027,120.16888 L110.831154,121.330143 C109.063548,122.968878 107.359627,124.446169 105.622303,125.845545 C102.451101,128.409924 98.4582202,129.821454 94.3788639,129.821454 L94.3782395,129.821454 C90.2926394,129.821143 86.2950763,128.405872 83.1226251,125.836507 C81.3909201,124.441806 79.6904338,122.967943 77.9231394,121.328897 L76.668145,120.165452 L76.8785595,121.862467 Z M141.770201,144.794149 L142.039619,144.738984 C142.876907,144.568192 143.644888,144.164897 144.261147,143.572734 C145.137146,142.693839 145.615417,141.539432 145.617602,140.313031 C145.619788,139.078838 145.14058,137.918197 144.268327,137.043977 C143.395763,136.169757 142.234425,135.6873 140.998161,135.685118 C139.872725,135.685118 138.957703,134.77194 138.957703,133.649011 C138.957703,132.526394 139.872725,131.612904 140.997225,131.612904 C143.544988,131.612904 145.617602,129.543449 145.617602,127.000263 C145.617602,124.456766 143.544988,122.387623 140.997225,122.387623 C139.872725,122.387623 138.957703,121.474444 138.957703,120.351516 C138.957703,119.228899 139.872725,118.315409 140.997225,118.315409 C143.544988,118.315409 145.617602,116.245954 145.617602,113.702768 C145.617602,111.159582 143.544988,109.090127 140.997225,109.090127 C139.872725,109.090127 138.957703,108.176949 138.957703,107.05402 C138.957703,105.931403 139.872725,105.018225 140.997225,105.018225 C143.544988,105.018225 145.617602,102.94877 145.617602,100.405584 C145.617602,97.8620864 143.544988,95.7926313 140.997225,95.7926313 C139.872725,95.7926313 138.957703,94.879453 138.957703,93.756836 C138.957703,92.6339073 139.872725,91.720729 140.997225,91.720729 C143.544988,91.720729 145.617602,89.6512739 145.617602,87.1080882 C145.617602,84.5645907 143.544988,82.4951356 140.997225,82.4951356 L138.333327,82.4951356 C137.20914,82.4951356 136.294117,81.5819574 136.294117,80.4593403 C136.294117,79.3364116 137.20914,78.4232334 138.333327,78.4232334 C140.881091,78.4232334 142.954017,76.3537783 142.954017,73.8105925 C142.954017,71.2670951 140.881091,69.19764 138.333327,69.19764 L135.669742,69.19764 C134.545242,69.19764 133.63022,68.2844618 133.63022,67.1618447 C133.63022,66.038916 134.545242,65.1254261 135.669742,65.1254261 C138.217194,65.1254261 140.29012,63.0562827 140.29012,60.5130969 C140.29012,57.9695994 138.217194,55.9001443 135.669742,55.9001443 L130.740923,55.9001443 C129.932981,55.8992093 129.201526,55.420492 128.878724,54.6802878 L128.632408,54.1158626 L128.61992,54.1211609 C126.771769,50.1053584 124.262717,46.472592 121.155825,43.3160497 C114.19404,36.1035 104.441609,31.9645898 94.4025901,31.9645898 C79.6133235,32.0789709 66.2395157,40.7585273 60.1275055,54.1314459 L60.125008,54.1301992 L59.8693263,54.6899494 C59.5449633,55.4239203 58.8166294,55.8988977 58.0133705,55.9001443 L53.0854881,55.9001443 C50.5377245,55.9001443 48.4651105,57.9695994 48.4651105,60.5130969 C48.4651105,63.0562827 50.5377245,65.1254261 53.0854881,65.1254261 C54.2099881,65.1254261 55.1250102,66.038916 55.1250102,67.1618447 C55.1250102,68.2844618 54.2099881,69.19764 53.0854881,69.19764 L50.4215907,69.19764 C47.8738271,69.19764 45.8012131,71.2670951 45.8012131,73.8105925 C45.8012131,76.3537783 47.8738271,78.4232334 50.4215907,78.4232334 C51.5460907,78.4232334 52.4611128,79.3364116 52.4611128,80.4593403 C52.4611128,81.5819574 51.5460907,82.4951356 50.4215907,82.4951356 L47.7576933,82.4951356 C45.2099297,82.4951356 43.1373157,84.5645907 43.1373157,87.1080882 C43.1373157,89.6512739 45.2099297,91.720729 47.7576933,91.720729 C48.8821933,91.720729 49.7972153,92.6339073 49.7972153,93.756836 C49.7972153,94.879453 48.8821933,95.7926313 47.7576933,95.7926313 C45.2099297,95.7926313 43.1373157,97.8620864 43.1373157,100.405584 C43.1373157,102.94877 45.2099297,105.018225 47.7576933,105.018225 C48.8821933,105.018225 49.7972153,105.931403 49.7972153,107.05402 C49.7972153,108.176949 48.8821933,109.090127 47.7576933,109.090127 C45.2099297,109.090127 43.1373157,111.159582 43.1373157,113.702768 C43.1373157,116.245954 45.2099297,118.315409 47.7576933,118.315409 C48.8821933,118.315409 49.7969032,119.22921 49.7969032,120.352139 C49.7969032,121.475068 48.8818811,122.388246 47.7573811,122.388246 C45.2096175,122.388246 43.1370035,124.457701 43.1370035,127.000887 C43.1370035,129.544384 45.2096175,131.613528 47.7573811,131.613528 C48.8818811,131.613528 49.7969032,132.527018 49.7969032,133.649635 C49.7969032,134.772563 48.8818811,135.685742 47.7573811,135.685742 C46.5292348,135.687923 45.3741404,136.164771 44.503449,137.027771 C42.6930726,138.822961 42.6830826,141.753546 44.4812836,143.560891 C45.1115906,144.164274 45.8836307,144.566634 46.7243521,144.734933 L46.9931457,144.788539 L48.439199,143.739163 L48.6589791,143.596421 C49.7060565,142.999271 50.8008987,142.46383 51.9129112,142.003813 C55.7550049,140.429905 59.8109472,139.620511 63.9661651,139.599006 L64.2230956,139.59776 L73.3548972,130.480937 L73.3555216,130.223814 C73.3614531,127.840512 73.2184712,125.431342 72.9306341,123.063312 C72.5997152,120.251471 72.1198828,117.42093 71.5045609,114.652722 L71.4683471,114.489098 L71.3547108,114.365679 C68.1067102,110.83919 66.0984069,106.269871 65.6978701,101.496411 C65.6984945,100.765245 65.727528,100.054961 65.7840339,99.3848812 C65.8864315,98.3844368 65.9366937,97.4008223 65.985395,96.4496209 L65.9882047,96.3935212 C66.2972705,90.2665005 65.6925629,84.1447781 64.190628,78.197588 C64.1025911,77.8020852 64.0101836,77.480447 63.9205857,77.1694054 L63.9109079,77.1363689 C63.4482457,75.4209652 63.1613453,73.6416701 63.0614452,71.8583234 C63.0355336,71.4849489 63.0336605,71.0589029 63.0336605,70.617897 C63.0336605,68.5705702 63.2912153,66.5322816 63.8003934,64.549781 L63.8447241,64.5622476 L64.0086226,63.949826 C64.2405781,63.0821508 65.0307251,62.4719109 65.9301378,62.4650543 L122.829463,62.4650543 C123.724193,62.4719109 124.51434,63.0821508 124.745983,63.9495143 L124.90957,64.5625592 L124.954212,64.549781 C125.463078,66.5316582 125.720633,68.5699468 125.720945,70.617897 C125.720945,71.0769795 125.718448,71.4908705 125.689727,71.9044498 C125.590763,73.6547601 125.311043,75.393227 124.858995,77.0793342 L124.828713,77.1853003 C124.731623,77.5271967 124.647644,77.8226551 124.582397,78.1243467 C123.075467,84.0565769 122.461394,90.1864026 122.762343,96.3215267 L122.76765,96.4172078 C122.819785,97.4338588 122.869111,98.3937867 122.967138,99.3437414 C123.026766,100.047792 123.056736,100.755584 123.05736,101.496099 C122.656511,106.269248 120.648208,110.837632 117.400832,114.363497 L117.286883,114.486917 L117.250669,114.650229 C116.636596,117.411269 116.157076,120.237135 115.82522,123.049911 C115.537071,125.420434 115.393777,127.83459 115.399084,130.223814 L115.399709,130.480937 L124.53151,139.59776 L124.788753,139.599006 C128.940537,139.619888 132.993982,140.428347 136.836075,142.001943 C137.949961,142.461649 139.046988,142.998024 140.095939,143.596109 L140.315719,143.738852 L141.770201,144.794149 Z M70.1150135,139.47434 L70.4724684,139.910983 C77.3234269,148.280744 85.8127463,152.889957 94.3769908,152.889957 C102.94186,152.889957 111.431179,148.280744 118.282137,139.910983 L118.63928,139.47434 L112.918753,133.764016 L107.841333,138.108313 C104.1007,141.338097 99.319546,143.115833 94.3766786,143.115833 C89.4350599,143.115833 84.6551544,141.339032 80.9170192,138.112988 L75.8358526,133.764016 L70.1150135,139.47434 Z M105.884228,176.8252 L151.013766,176.8252 C151.362168,176.8252 151.698706,176.77284 152.023381,176.669056 C152.861293,176.401647 153.544984,175.824444 153.94833,175.043411 C154.351365,174.262379 154.425978,173.371329 154.158121,172.534509 L150.63321,161.549567 C150.046609,160.015552 149.318587,158.525482 148.469749,157.120497 C147.301543,155.183811 145.898259,153.391426 144.298297,151.794143 C144.018265,151.513956 143.352993,150.967608 138.031442,147.115118 L138.003345,147.094859 L137.973063,147.077406 C137.114235,146.592144 136.213885,146.152385 135.297302,145.771842 C132.080208,144.461602 128.692348,143.762538 125.223943,143.692413 L124.853376,143.684933 L105.884228,176.8252 Z M71.4589815,148.681234 L87.568802,176.825512 L101.186428,176.825512 L117.296249,148.681234 L116.323472,147.92046 C110.374112,153.573438 102.575039,156.784522 94.3638789,156.962483 C86.1801912,156.784522 78.3814309,153.573438 72.4317582,147.92046 L71.4589815,148.681234 Z M63.5306633,143.693037 C60.0597607,143.763161 56.6694026,144.463472 53.4541818,145.7734 C52.5397841,146.15332 51.6422445,146.592144 50.7821675,147.07803 L50.7518853,147.095483 L50.7234762,147.115741 C45.4053592,150.965738 44.7394628,151.511463 44.4581818,151.791961 C41.6322589,154.615646 39.4859687,157.941734 38.0780023,161.677973 L34.5946122,172.540119 C34.4909659,172.865809 34.4391427,173.202407 34.4400793,173.542745 C34.4438256,175.353206 35.9223464,176.825823 37.7358446,176.825512 L82.8706897,176.825823 L63.9015423,143.685557 L63.5306633,143.693037 Z M37.7408396,180.89866 C36.9750432,180.89866 36.2229831,180.782098 35.4990199,180.551777 C31.6241465,179.320701 29.4753587,175.172129 30.7085,171.303744 L34.2268551,160.342177 C35.8030907,156.095119 38.3474202,152.132923 41.5751286,148.910619 C41.8479806,148.639471 42.1448711,148.382347 42.4567466,148.147352 L43.1316963,147.639026 L42.4467566,147.144414 C41.9953332,146.818724 41.5754408,146.447531 41.1989424,146.041432 C38.0308619,142.627766 38.2353449,137.277726 41.6544243,134.11495 L42.1348811,133.670828 L41.5489048,133.095494 C39.9199095,131.437437 39.0354819,129.246121 39.0582716,126.925152 C39.0807491,124.604184 40.0073221,122.430321 41.667224,120.804988 L42.1217692,120.360242 L41.549217,119.797999 C39.9199095,118.13963 39.0354819,115.948314 39.0582716,113.627345 C39.0807491,111.306065 40.0073221,109.132513 41.667224,107.507181 L42.1217692,107.062435 L41.549217,106.500191 C39.9199095,104.841822 39.0354819,102.650818 39.0582716,100.329538 C39.0807491,98.0085689 40.0073221,95.8350177 41.667224,94.2093735 L42.1211448,93.7649393 L41.5963574,93.2497572 C41.1374415,92.7906747 40.7269147,92.2742459 40.3800742,91.7201057 C37.8366812,87.6541251 39.0804369,82.2800868 43.1529251,79.7409527 L43.7151751,79.3906413 L43.3311843,78.8511493 C43.230972,78.7102768 43.1351304,78.5665993 43.0433472,78.4201167 C41.8114547,76.4507061 41.4215323,74.1203875 41.9453832,71.8583234 C42.4692341,69.5959478 43.8441086,67.6729752 45.8168225,66.4431454 L46.3787603,66.092834 L45.9950817,65.5536537 C44.9433214,64.0757386 44.387003,62.33696 44.3857542,60.5246285 C44.3823201,55.7321569 48.2852904,51.8304238 53.0858003,51.8273071 L56.7433911,51.8273071 L56.9144699,51.4763724 C60.3391687,44.4427184 65.6519785,38.5204615 72.2784741,34.3491382 C78.9049697,30.1778148 86.5482605,27.9447356 94.3819858,27.8914409 L94.4247555,27.8914409 C105.54769,27.8914409 116.354691,32.4763436 124.07478,40.4708606 C127.237865,43.7099942 129.847442,47.4122618 131.832331,51.4766841 L132.00341,51.8269954 L135.66943,51.8269954 C137.484177,51.8279304 139.225872,52.383629 140.706266,53.4336281 C144.619226,56.2099393 145.540492,61.6463105 142.759836,65.5530304 L142.376158,66.0922107 L142.937783,66.4425221 C143.084512,66.5341515 143.228118,66.6298327 143.368915,66.7295654 C147.283124,69.5064999 148.204702,74.9434945 145.423734,78.8508377 L145.040367,79.390018 L145.601993,79.7403294 C146.158311,80.0875241 146.675606,80.4979868 147.139205,80.9598742 C148.786307,82.6004784 149.694773,84.7827562 149.697271,87.1052832 C149.699768,89.4278102 148.796297,91.611958 147.152941,93.2563021 L146.630964,93.7602643 L147.142327,94.2632915 C148.787244,95.9020257 149.695086,98.0836801 149.697271,100.405272 C149.699456,102.726864 148.795985,104.9107 147.152941,106.554109 L146.630339,107.057448 L147.1442,107.562657 C148.787244,109.199833 149.695086,111.381487 149.697271,113.703079 C149.699456,116.024671 148.795985,118.208508 147.152941,119.851917 L146.630339,120.355256 L147.144512,120.860776 C148.787244,122.49764 149.695086,124.679295 149.697271,127.000887 C149.699456,129.322479 148.795985,131.506315 147.152941,133.149724 L146.62909,133.654621 L147.088318,134.103107 C148.747596,135.723141 149.69852,137.981154 149.697271,140.298071 C149.769698,143.013607 148.503153,145.566766 146.309722,147.144102 L145.623222,147.638091 L146.298171,148.147352 C146.610671,148.382971 146.907874,148.640717 147.18135,148.913424 C150.422483,152.148194 152.883458,155.961103 154.495595,160.245873 L158.044233,171.299381 C158.2765,172.02556 158.393883,172.780412 158.392322,173.542433 C158.388888,177.599064 155.081572,180.89866 151.019386,180.89866 L37.7408396,180.89866 Z" id="Fill-1-Copy-3" fill="#35447D" mask="url(#mask-2)"></path>
                        </g>
                        <g id="paper-bundle-copy-2" transform="translate(0.000000, 52.881579)">
                            <g id="Group-3">
                                <mask id="mask-4" fill="white">
                                    <use xlink:href="#path-3"></use>
                                </mask>
                                <g id="Clip-2"></g>
                                <path d="M16.02172,124.281527 L16.02172,120.272874 L82.1111088,120.272874 C83.2174515,120.272874 84.113984,119.375895 84.113984,118.268678 L84.113984,22.0274859 C84.1215707,22.0277477 84.1286341,22.028795 84.1362208,22.028795 L88.1194729,22.0510493 L88.1194729,124.281527 L16.02172,124.281527 Z M10.0130943,116.264221 L10.0130943,112.255567 L10.0133559,112.255567 L74.1003927,112.255567 C75.2064738,112.255567 76.1030063,111.358588 76.1030063,110.251372 L76.1030063,16.0489346 L80.1084952,16.0489346 L80.1084952,116.264221 L10.0130943,116.264221 Z M4.00551501,108.246914 L4.00551501,10.0360855 L11.2549502,10.0360855 L11.2549502,24.5466723 C11.2549502,28.1364212 14.1729322,31.0567085 17.7595857,31.0567085 C21.3465008,31.0567085 24.2642213,28.1361594 24.2642213,24.5466723 L24.2642213,15.5355149 C24.2642213,14.42856 23.3676887,13.5313191 22.261346,13.5313191 C21.155265,13.5313191 20.2587324,14.42856 20.2587324,15.5355149 L20.2587324,24.5466723 C20.2587324,25.925915 19.1374781,27.0480552 17.7593241,27.0480552 C16.3811701,27.0480552 15.2601774,25.925915 15.2601774,24.5466723 L15.2601774,10.0360855 L72.0975175,10.0360855 L72.0975175,108.246914 L4.00551501,108.246914 Z M17.7595857,4.02323644 C18.9676941,4.02323644 19.9780264,4.88565588 20.2090268,6.0274322 L15.3101446,6.0274322 C15.5408834,4.88565588 16.5512157,4.02323644 17.7595857,4.02323644 L17.7595857,4.02323644 Z M90.1333357,18.0533922 L84.1587191,18.0198798 L84.1472083,18.0198798 C84.1359592,18.0198798 84.1252332,18.0214507 84.1142456,18.0214507 L84.1142456,14.044477 C84.1142456,12.9375222 83.2177131,12.0400195 82.111632,12.0400195 L76.1035295,12.0400195 L76.1035295,8.03188977 C76.1035295,6.92493488 75.206997,6.02769401 74.1009159,6.02769401 L24.2435542,6.02769401 C23.9887474,2.66938977 21.1790714,0.0145831096 17.7595857,0.0145831096 C14.3398385,0.0145831096 11.530424,2.66938977 11.2756172,6.0274322 L2.00263978,6.0274322 C0.896558739,6.0274322 2.61608572e-05,6.92467307 2.61608572e-05,8.03162795 L2.61608572e-05,110.25111 C2.61608572e-05,111.358326 0.896558739,112.255305 2.00263978,112.255305 L6.00786703,112.255305 L6.00786703,118.268155 C6.00786703,119.375371 6.90439961,120.27235 8.01048065,120.27235 L12.0159695,120.27235 L12.0159695,126.285199 C12.0159695,127.392154 12.9125021,128.289657 14.0185831,128.289657 L90.1220865,128.289657 C91.2281676,128.289657 92.1247001,127.392154 92.1247001,126.285199 L92.1247001,20.0575879 C92.1252234,18.9550839 91.2354926,18.0594139 90.1333357,18.0533922 L90.1333357,18.0533922 Z" id="Fill-1" fill="#35447D" mask="url(#mask-4)"></path>
                            </g>
                        </g>
                    </g>
                </g>
            </g>
        </g>
    </g>
</svg>