<?xml version="1.0" encoding="UTF-8" standalone="no"?>
<svg width="170px" height="158px" viewBox="0 0 170 158" version="1.1" xmlns="http://www.w3.org/2000/svg" xmlns:xlink="http://www.w3.org/1999/xlink">
    <!-- Generator: Sketch 47.1 (45422) - http://www.bohemiancoding.com/sketch -->
    <title>judge-approved-reverse</title>
    <desc>Created with Sketch.</desc>
    <defs>
        <path d="M0.851321898,62.0257225 L69.7744101,62.0257225 L69.7744101,67.9668991 L77.7076866,67.9668991 L77.7076866,75.3461604 L86.6142506,75.3461604 L86.6142506,184.638041 L8.79070472,184.638041 L8.79070472,195.935237 C119.406044,199.268339 174.713713,199.268339 174.713713,195.935237 C174.713713,192.602136 174.713713,127.31587 174.713713,0.0764404887 L1.25597888,0.0764404887 L0.851321898,62.0257225 Z" id="path-1"></path>
        <polygon id="path-3" points="2.68998645e-05 132.026144 94.7270659 132.026144 94.7270659 0.0150887021 2.68998645e-05 0.0150887021"></polygon>
    </defs>
    <g id="Design" stroke="none" stroke-width="1" fill="none" fill-rule="evenodd">
        <g id="Desktop---How-it-works" transform="translate(-159.000000, -1763.000000)">
            <g id="Group-12" transform="translate(38.000000, 1651.000000)">
                <g id="Group-8-Copy" transform="translate(121.000000, 83.000000)">
                    <g id="judge-approved-reverse">
                        <g id="Group-35-Copy-2" transform="translate(0.000000, 0.397110)">
                            <path d="M38.6244396,142.70998 L31.4997221,147.233764 L31.4997221,131.672808 L34.184719,131.321069 L38.4971755,134.62554 C39.1106717,135.095678 40.0177746,135.096716 40.6326541,134.62554 L44.9451106,131.321069 L47.6301075,131.673154 L47.6301075,147.233764 L40.50539,142.70998 L40.5057358,142.70998 C39.9347762,142.347164 39.1960908,142.347164 38.6244396,142.70998 M56.0651617,116.344843 L56.6893785,121.119621 L52.243433,122.962093 C51.8097666,123.142116 51.4718941,123.480353 51.2924102,123.91414 L49.4515757,128.364529 L44.6815908,127.73964 C44.2168,127.679055 43.7578882,127.802648 43.3864705,128.086878 L39.5650877,131.015029 L35.7437049,128.086878 C35.4393776,127.853539 35.0600059,127.724753 34.6761385,127.724753 C34.6004025,127.724753 34.5246665,127.7296 34.4482388,127.73964 L29.6782539,128.364529 L27.8374194,123.91414 C27.6575896,123.480006 27.320063,123.14177 26.8867424,122.962093 L22.4404511,121.119275 L23.0650137,116.344843 C23.126225,115.880244 23.0027649,115.419453 22.7181497,115.047635 L19.793495,111.221789 L22.7181497,107.396636 C23.0024191,107.024818 23.1258792,106.564373 23.0650137,106.099428 L22.4404511,101.32465 L26.8867424,99.4821788 C27.320063,99.3025014 27.6579355,98.9642649 27.8377653,98.5301313 L29.6785997,94.0797421 L34.4482388,94.7049777 C34.9126838,94.7659087 35.3722872,94.6423156 35.7437049,94.3573938 L39.5650877,91.429242 L43.3864705,94.3573938 C43.752355,94.6381613 44.2233707,94.7655625 44.6822824,94.7049777 L49.4519215,94.0797421 L51.292756,98.5301313 C51.4722399,98.9646111 51.8101124,99.3025014 52.243433,99.4821788 L56.6893785,101.32465 L56.0651617,106.099774 C56.0042962,106.564719 56.1274105,107.025164 56.4120257,107.396982 L59.3366804,111.222136 L56.4120257,115.047635 C56.1274105,115.419107 56.0042962,115.879898 56.0651617,116.344843 M62.943305,110.153419 L59.6420452,105.83597 L60.3471854,100.444266 C60.4502417,99.6566631 60.0103504,98.8946789 59.2778899,98.5914085 L54.2599474,96.5114445 L52.1822217,91.4880958 C51.8792777,90.7548462 51.1156928,90.3172506 50.3317041,90.4173021 L44.9454564,91.123202 L40.6326541,87.8183856 C40.0035957,87.3371689 39.1258881,87.3371689 38.4978671,87.8187318 L34.184719,91.1235482 L28.7988171,90.4176483 C28.009641,90.3141348 27.2505519,90.7548462 26.9479537,91.488442 L24.8705739,96.5117907 L19.8522855,98.5914085 C19.1194792,98.8950251 18.6795879,99.6573555 18.78299,100.444266 L19.4877844,105.836317 L16.1868705,110.153419 C15.7058258,110.782463 15.7058258,111.661462 16.1868705,112.290852 L19.4877844,116.608301 L18.78299,122.000005 C18.6795879,122.787262 19.1194792,123.549246 19.8522855,123.852863 L24.8705739,125.932827 L26.9476078,130.955829 C27.1412707,131.424237 27.5189132,131.778052 27.9868165,131.941804 L27.9868165,150.430912 C27.9868165,151.072419 28.3357554,151.662689 28.8970318,151.971498 C29.4583082,152.281 30.1433905,152.259882 30.6842632,151.91576 L39.5654335,146.27687 L48.4459122,151.916106 C48.7284525,152.095091 49.0535294,152.189604 49.3869061,152.189604 C49.6815503,152.189604 49.9741195,152.114478 50.2331436,151.971844 C50.79442,151.662689 51.1433589,151.072073 51.1433589,150.431258 L51.1433589,131.941458 C51.6112622,131.77736 51.9889047,131.42389 52.1822217,130.956176 L54.2599474,125.932827 L59.2782357,123.853209 C60.0110421,123.549246 60.4505875,122.787262 60.3471854,122.000352 L59.642391,116.608301 L62.943305,112.290852 C63.4246954,111.661462 63.4246954,110.782809 62.943305,110.153419 M30.9483709,102.457552 C31.3533337,102.457552 31.7486134,102.31561 32.062278,102.058038 C34.1690531,100.327043 36.8336463,99.3736107 39.564984,99.3736107 C40.533644,99.3736107 41.3214368,98.584623 41.3214368,97.6152656 C41.3214368,96.645562 40.533644,95.8569205 39.564984,95.8569205 C36.0230289,95.8569205 32.5671847,97.0935436 29.8327346,99.3396832 C29.4706542,99.6377606 29.2451754,100.059085 29.1991804,100.526454 C29.1535313,100.994169 29.2922078,101.451498 29.5896186,101.814314 C29.9243786,102.223175 30.4196022,102.457552 30.9483709,102.457552 M44.7111589,96.7423939 L44.7111589,96.7423939 C43.7988686,96.4176591 42.7921677,96.8967987 42.4674366,97.8097256 C42.1427055,98.7229988 42.6209836,99.7304381 43.5336197,100.055519 C48.2389351,101.731469 51.4008268,106.218901 51.4008268,111.22217 C51.4008268,117.755293 46.0910067,123.070488 39.5649148,123.070488 C33.0388229,123.070488 27.7293486,117.755293 27.7293486,111.22217 C27.7293486,108.898482 28.4005979,106.64888 29.6708186,104.716743 C30.2033914,103.906984 29.9786042,102.814726 29.169716,102.281233 C28.7782404,102.022968 28.3096455,101.933303 27.8493504,102.027815 C27.389747,102.122674 26.9948132,102.390632 26.7368266,102.783222 C25.0879258,105.290049 24.2160972,108.208507 24.2160972,111.22217 C24.2160972,119.694354 31.1015028,126.587524 39.5649148,126.587524 C48.0283267,126.587524 54.9137324,119.694354 54.9137324,111.22217 C54.9137324,104.735092 50.8136134,98.9158317 44.7111589,96.7423939" id="Fill-1" fill="#35447D"></path>
                            <g id="Group-34" transform="translate(6.594203, 0.000000)">
                                <mask id="mask-2" fill="white">
                                    <use xlink:href="#path-1"></use>
                                </mask>
                                <g id="Mask"></g>
                                <path d="M77.1004765,115.684071 C80.3991396,119.572436 84.1077281,123.138774 88.1225569,126.283657 C90.6309019,128.318128 93.8024465,129.442652 97.0442915,129.442652 C100.279716,129.442652 103.446767,128.321977 105.961532,126.288147 C109.970262,123.148076 113.680776,119.580133 116.981686,115.690165 C119.902525,112.684806 121.802883,108.743519 122.333828,104.589259 L122.338964,104.548525 L122.338964,104.50779 C122.338964,103.874323 122.313926,103.251441 122.264812,102.656142 C122.158559,101.632973 122.10142,100.529297 122.046206,99.4618654 C121.70626,92.7185699 122.370744,85.9964434 124.021039,79.4654796 C124.097117,79.1030403 124.223915,78.6536798 124.337551,78.2588454 C124.72629,76.7911266 124.965761,75.2903713 125.052754,73.7860878 C125.078113,73.4220448 125.078113,73.1128488 125.077792,72.7853705 L125.077792,72.7042226 C125.064631,71.4690422 124.942327,70.2345034 124.713771,69.0272277 L124.614901,68.5050585 L69.4714352,68.5050585 L69.3725652,69.0272277 C69.1440085,70.2351449 69.021705,71.4700045 69.0088648,72.697487 L69.0088648,72.8014076 C69.0085438,73.1208674 69.0085438,73.4226863 69.0306932,73.7382972 C69.118328,75.2749757 69.365503,76.818069 69.7648352,78.3162584 C69.8739774,78.6937726 69.9943548,79.1226056 70.0855207,79.5411749 C71.719444,86.0301214 72.3781494,92.6877786 72.0471916,99.3492847 L72.0455866,99.3836042 C71.9849164,100.54341 71.9280982,101.638746 71.818314,102.696235 C71.772089,103.270044 71.7483345,103.891643 71.7483345,104.508111 L71.7483345,104.548845 L71.7534707,104.589259 C72.2844155,108.741595 74.1828481,112.681278 77.1004765,115.684071 L77.1004765,115.684071 Z M79.0502702,125.441066 C79.0653575,125.563269 79.0846179,125.689 79.1041993,125.815052 C79.1241017,125.943349 79.1443251,126.072287 79.1584494,126.196094 C79.434836,128.540082 79.5857091,130.920955 79.6068955,133.274886 L79.6094636,133.566442 L85.9294402,138.9809 C89.014955,141.644989 92.9623724,143.113349 97.0426864,143.113029 C101.124606,143.113029 105.073307,141.643706 108.161069,138.976089 L114.477514,133.566442 L114.480403,133.275207 C114.501911,130.912937 114.653105,128.526932 114.929813,126.182623 C114.943616,126.061703 114.963197,125.938858 114.982137,125.815372 C115.001718,125.68932 115.020978,125.563269 115.036066,125.440745 L115.249214,123.69815 L113.961978,124.893237 C112.144439,126.579702 110.392385,128.100023 108.605984,129.540158 C105.345199,132.179229 101.239526,133.631873 97.0449335,133.631873 L97.0442915,133.631873 C92.843279,133.631552 88.7327903,132.17506 85.4707219,129.530856 C83.6900986,128.095533 81.941576,126.57874 80.124358,124.891954 L78.8339118,123.694621 L79.0502702,125.441066 Z M145.775009,149.040675 L146.052038,148.983904 C146.912978,148.808137 147.702654,148.393096 148.336321,147.783685 C149.237065,146.87919 149.728847,145.691159 149.731094,144.429036 C149.733341,143.158895 149.240596,141.964449 148.343704,141.064765 C147.44649,140.165082 146.252346,139.668572 144.98116,139.666327 C143.823932,139.666327 142.883062,138.726551 142.883062,137.570915 C142.883062,136.415599 143.823932,135.475502 144.980197,135.475502 C147.599932,135.475502 149.731094,133.345771 149.731094,130.72851 C149.731094,128.110928 147.599932,125.981517 144.980197,125.981517 C143.823932,125.981517 142.883062,125.041741 142.883062,123.886105 C142.883062,122.730789 143.823932,121.790692 144.980197,121.790692 C147.599932,121.790692 149.731094,119.660961 149.731094,117.0437 C149.731094,114.426439 147.599932,112.296707 144.980197,112.296707 C143.823932,112.296707 142.883062,111.356931 142.883062,110.201295 C142.883062,109.045979 143.823932,108.106203 144.980197,108.106203 C147.599932,108.106203 149.731094,105.976471 149.731094,103.359211 C149.731094,100.741629 147.599932,98.6118971 144.980197,98.6118971 C143.823932,98.6118971 142.883062,97.6721209 142.883062,96.5168055 C142.883062,95.3611694 143.823932,94.4213931 144.980197,94.4213931 C147.599932,94.4213931 149.731094,92.2916613 149.731094,89.6744005 C149.731094,87.056819 147.599932,84.9270871 144.980197,84.9270871 L142.241048,84.9270871 C141.085104,84.9270871 140.144234,83.9873109 140.144234,82.8319955 C140.144234,81.6763594 141.085104,80.7365831 142.241048,80.7365831 C144.860783,80.7365831 146.992266,78.6068513 146.992266,75.9895905 C146.992266,73.372009 144.860783,71.2422771 142.241048,71.2422771 L139.502221,71.2422771 C138.345955,71.2422771 137.405085,70.3025009 137.405085,69.1471855 C137.405085,67.9915494 138.345955,67.0514524 139.502221,67.0514524 C142.121634,67.0514524 144.253117,64.9220413 144.253117,62.3047805 C144.253117,59.687199 142.121634,57.5574671 139.502221,57.5574671 L134.43417,57.5574671 C133.603405,57.5565049 132.851286,57.063844 132.519366,56.30208 L132.266091,55.7212149 L132.253251,55.7266675 C130.352892,51.5938972 127.772963,47.8553198 124.578306,44.6068373 C117.41986,37.1842086 107.391937,32.924745 97.06933,32.924745 C81.8622874,33.0424576 68.1106885,41.9748223 61.8260226,55.737252 L61.8234545,55.7359691 L61.5605502,56.312023 C61.2270244,57.0673722 60.4781161,57.5561842 59.6521663,57.5574671 L54.5850782,57.5574671 C51.9653438,57.5574671 49.8341815,59.687199 49.8341815,62.3047805 C49.8341815,64.9220413 51.9653438,67.0514524 54.5850782,67.0514524 C55.7413437,67.0514524 56.6822139,67.9915494 56.6822139,69.1471855 C56.6822139,70.3025009 55.7413437,71.2422771 54.5850782,71.2422771 L51.8459294,71.2422771 C49.2261951,71.2422771 47.0950327,73.372009 47.0950327,75.9895905 C47.0950327,78.6068513 49.2261951,80.7365831 51.8459294,80.7365831 C53.002195,80.7365831 53.9430651,81.6763594 53.9430651,82.8319955 C53.9430651,83.9873109 53.002195,84.9270871 51.8459294,84.9270871 L49.1067807,84.9270871 C46.4870463,84.9270871 44.3558839,87.056819 44.3558839,89.6744005 C44.3558839,92.2916613 46.4870463,94.4213931 49.1067807,94.4213931 C50.2630462,94.4213931 51.2039163,95.3611694 51.2039163,96.5168055 C51.2039163,97.6721209 50.2630462,98.6118971 49.1067807,98.6118971 C46.4870463,98.6118971 44.3558839,100.741629 44.3558839,103.359211 C44.3558839,105.976471 46.4870463,108.106203 49.1067807,108.106203 C50.2630462,108.106203 51.2039163,109.045979 51.2039163,110.201295 C51.2039163,111.356931 50.2630462,112.296707 49.1067807,112.296707 C46.4870463,112.296707 44.3558839,114.426439 44.3558839,117.0437 C44.3558839,119.660961 46.4870463,121.790692 49.1067807,121.790692 C50.2630462,121.790692 51.2035953,122.73111 51.2035953,123.886746 C51.2035953,125.042382 50.2627252,125.982159 49.1064597,125.982159 C46.4867253,125.982159 44.3555629,128.11189 44.3555629,130.729151 C44.3555629,133.346733 46.4867253,135.476144 49.1064597,135.476144 C50.2627252,135.476144 51.2035953,136.416241 51.2035953,137.571556 C51.2035953,138.727192 50.2627252,139.666969 49.1064597,139.666969 C47.8436199,139.669214 46.6558958,140.15995 45.7606085,141.048087 C43.8990916,142.895565 43.8888194,145.911509 45.7378171,147.771496 C46.3859293,148.392454 47.1797784,148.806533 48.044249,148.979734 L48.3206357,149.034902 L49.8075379,147.954961 L50.0335265,147.808061 C51.1101824,147.193518 52.2359524,146.642482 53.3793776,146.169066 C57.330005,144.549315 61.5005219,143.716346 65.7731189,143.694215 L66.0373073,143.692932 L75.4270694,134.310565 L75.4277114,134.045952 C75.4338106,131.593232 75.2867896,129.113891 74.9908215,126.676887 C74.6505546,123.783146 74.1571676,120.870161 73.5244637,118.021324 L73.4872269,117.852934 L73.3703806,117.72592 C70.0306286,114.096715 67.9655935,109.394306 67.5537422,104.48181 C67.5543842,103.729348 67.5842378,102.998375 67.64234,102.308778 C67.7476301,101.279194 67.7993122,100.26693 67.8493892,99.2880228 L67.8522782,99.2302891 C68.1700747,92.9248075 67.5482851,86.6247785 66.0039226,80.5043654 C65.9133988,80.0973429 65.8183808,79.7663363 65.726252,79.4462351 L65.7163008,79.4122363 C65.2405691,77.6468683 64.9455641,75.8157479 64.842842,73.9804579 C64.8161984,73.5962081 64.8142724,73.1577528 64.8142724,72.7039018 C64.8142724,70.5969427 65.0791028,68.4992852 65.6026644,66.4590406 L65.6482474,66.4718703 L65.8167758,65.8416108 C66.0552837,64.948663 66.8677512,64.3206487 67.792571,64.3135923 L126.299222,64.3135923 C127.219227,64.3206487 128.031694,64.948663 128.269881,65.84129 L128.438089,66.472191 L128.483992,66.4590406 C129.007233,68.4986437 129.272063,70.5963012 129.272385,72.7039018 C129.272385,73.1763559 129.269816,73.6023022 129.240284,74.0279279 C129.138525,75.8292191 128.850903,77.6183222 128.386085,79.3535404 L128.354948,79.462593 C128.255115,79.8144478 128.168764,80.1185119 128.101674,80.4289909 C126.552175,86.5340083 125.920755,92.8423766 126.230206,99.1561976 L126.235663,99.2546656 C126.289271,100.300928 126.33999,101.288816 126.440786,102.26644 C126.502098,102.990998 126.532915,103.719405 126.533557,104.481489 C126.121384,109.393665 124.056349,114.095112 120.717239,117.723674 L120.600072,117.850689 L120.562835,118.018758 C119.931415,120.860218 119.438349,123.768392 119.097119,126.663095 C118.80083,129.102665 118.653488,131.587138 118.658945,134.045952 L118.659587,134.310565 L128.04935,143.692932 L128.313859,143.694215 C132.582925,143.715704 136.750874,144.547711 140.701501,146.167141 C141.846852,146.640237 142.974869,147.192235 144.053451,147.80774 L144.27944,147.95464 L145.775009,149.040675 Z M72.0956636,143.565917 L72.4632161,144.015278 C79.5077045,152.628824 88.2368352,157.372289 97.0430074,157.372289 C105.849822,157.372289 114.578952,152.628824 121.623441,144.015278 L121.990672,143.565917 L116.108549,137.689269 L110.887698,142.160102 C107.041398,145.483959 102.125183,147.313476 97.0426864,147.313476 C91.961474,147.313476 87.046543,145.484921 83.2028107,142.164913 L77.9781084,137.689269 L72.0956636,143.565917 Z M108.875308,182.00469 L155.279692,182.00469 C155.637935,182.00469 155.98398,181.950806 156.317827,181.843998 C157.179409,181.568801 157.882413,180.974785 158.297153,180.171004 C158.711573,179.367223 158.788293,178.450219 158.51287,177.589025 L154.888385,166.284126 C154.285214,164.70543 153.536626,163.171959 152.66381,161.726051 C151.462603,159.732956 150.019679,157.888364 148.37452,156.244557 C148.086577,155.95621 147.402513,155.393948 141.930635,151.429247 L141.901745,151.408398 L141.870607,151.390437 C140.987518,150.89104 140.061735,150.438472 139.11926,150.046845 C135.811288,148.698443 132.327725,147.979017 128.761342,147.90685 L128.380307,147.899152 L108.875308,182.00469 Z M73.4775967,153.040979 L90.0424969,182.005011 L104.044802,182.005011 L120.609702,153.040979 L119.609446,152.258046 C113.492024,158.075678 105.472639,161.38029 97.0295252,161.563434 C88.6146599,161.38029 80.5955956,158.075678 74.4778531,152.258046 L73.4775967,153.040979 Z M65.3253148,147.907491 C61.7563642,147.979658 58.2702332,148.700367 54.9641869,150.048449 C54.0239588,150.439434 53.101065,150.89104 52.216692,151.391078 L52.1855543,151.40904 L52.1563427,151.429888 C46.6879964,155.392023 46.0032895,155.953644 45.7140626,156.242312 C42.8083114,159.148242 40.6013915,162.571208 39.1536521,166.416272 L35.5718611,177.594798 C35.465287,177.929974 35.4119999,178.276377 35.4129629,178.626628 C35.416815,180.489822 36.9371019,182.005332 38.8018289,182.005011 L85.2116696,182.005332 L65.7066706,147.899793 L65.3253148,147.907491 Z M38.806965,186.196798 C38.019536,186.196798 37.2462312,186.07684 36.5018171,185.839811 C32.517484,184.572878 30.307996,180.303471 31.5759718,176.322412 L35.1937154,165.041569 C36.8144774,160.670807 39.4306807,156.593205 42.7495672,153.277046 C43.030127,152.997999 43.3354042,152.733387 43.6560897,152.491547 L44.3501058,151.968415 L43.6458175,151.459396 C43.181642,151.12422 42.7498883,150.742216 42.3627544,150.324288 C39.1051801,146.811193 39.3154393,141.305323 42.8311029,138.050425 L43.325132,137.593367 L42.7226027,137.001276 C41.0475906,135.294924 40.1381791,133.039782 40.1616126,130.651211 C40.184725,128.26264 41.1374724,126.025459 42.8442642,124.352785 L43.3116497,123.895086 L42.7229237,123.316466 C41.0475906,121.609793 40.1381791,119.354651 40.1616126,116.96608 C40.184725,114.577188 41.1374724,112.340328 42.8442642,110.667655 L43.3116497,110.209955 L42.7229237,109.631335 C41.0475906,107.924663 40.1381791,105.669841 40.1616126,103.280949 C40.184725,100.892378 41.1374724,98.6555181 42.8442642,96.982524 L43.3110077,96.5251448 L42.7713957,95.9949571 C42.2995161,95.522503 41.8773925,94.9910323 41.5207542,94.4207517 C38.905514,90.2363418 40.184404,84.7057746 44.3719343,82.0926835 L44.950067,81.7321686 L44.555229,81.1769629 C44.4521859,81.0319872 44.3536369,80.8841248 44.259261,80.7333757 C42.9925692,78.7066023 42.591632,76.3084088 43.130281,73.9804579 C43.66893,71.6521864 45.0826427,69.6732036 47.111083,68.4075527 L47.6888948,68.0470379 L47.2943778,67.4921529 C46.2129067,65.9711908 45.6408731,64.1817671 45.6395891,62.316648 C45.636058,57.3845868 49.6492817,53.3692083 54.5853992,53.3660009 L58.3463117,53.3660009 L58.5222233,53.0048446 C62.043665,45.7663223 67.5065542,39.6715686 74.3202389,35.3787477 C81.1339236,31.0859268 88.9931266,28.787805 97.0481435,28.732958 L97.0921214,28.732958 C108.529263,28.732958 119.641546,33.4514046 127.579717,41.6787767 C130.832155,45.0122561 133.515449,48.8223592 135.556408,53.0051653 L135.73232,53.3656802 L139.5019,53.3656802 C141.367911,53.3666424 143.158806,53.9385267 144.681019,55.019109 C148.704515,57.8762854 149.651805,63.4710011 146.7926,67.4915115 L146.398083,68.0463964 L146.975574,68.4069112 C147.126447,68.5012096 147.27411,68.5996776 147.418884,68.7023153 C151.443664,71.5601332 152.391275,77.1554904 149.531749,81.1766422 L149.137553,81.7315271 L149.715044,82.092042 C150.287077,82.4493494 150.818985,82.8717676 151.29568,83.3471084 C152.98931,85.0354982 153.923439,87.2813389 153.926007,89.6715138 C153.928575,92.0616888 152.999582,94.3094539 151.309804,96.0016927 L150.773081,96.5203337 L151.29889,97.0380125 C152.990273,98.7244778 153.92376,100.969677 153.926007,103.35889 C153.928254,105.748102 152.999261,107.995547 151.309804,109.686823 L150.772439,110.204823 L151.300816,110.724747 C152.990273,112.409609 153.92376,114.654808 153.926007,117.044021 C153.928254,119.433233 152.999261,121.680678 151.309804,123.371954 L150.772439,123.889954 L151.301137,124.410198 C152.990273,126.094739 153.92376,128.339939 153.926007,130.729151 C153.928254,133.118364 152.999261,135.365808 151.309804,137.057085 L150.771155,137.576688 L151.243356,138.038237 C152.949505,139.705458 153.927291,142.029239 153.926007,144.413641 C154.000481,147.208272 152.698157,149.835797 150.442765,151.459076 L149.736872,151.967453 L150.430888,152.491547 C150.752216,152.734028 151.057814,152.999282 151.339016,153.279932 C154.671706,156.608921 157.2022,160.532888 158.859878,164.942459 L162.508759,176.317921 C162.747588,177.065252 162.868286,177.842091 162.866681,178.626307 C162.86315,182.801095 159.462407,186.196798 155.28547,186.196798 L38.806965,186.196798 Z" id="Fill-1-Copy-3" fill="#35447D" mask="url(#mask-2)"></path>
                            </g>
                            <g id="paper-bundle-copy-2" transform="translate(0.000000, 54.450980)">
                                <g id="Group-3">
                                    <mask id="mask-4" fill="white">
                                        <use xlink:href="#path-3"></use>
                                    </mask>
                                    <g id="Clip-2"></g>
                                    <path d="M16.4743109,127.901458 L16.4743109,123.776046 L84.4306317,123.776046 C85.5682269,123.776046 86.4900853,122.85294 86.4900853,121.713474 L86.4900853,22.6690775 C86.4978862,22.6693469 86.5051492,22.6704247 86.5129502,22.6704247 L90.6087235,22.6933272 L90.6087235,127.901458 L16.4743109,127.901458 Z M10.29595,119.650633 L10.29595,115.52522 L10.296219,115.52522 L76.1936241,115.52522 C77.3309504,115.52522 78.2528088,114.602115 78.2528088,113.462648 L78.2528088,16.5163898 L82.371447,16.5163898 L82.371447,119.650633 L10.29595,119.650633 Z M4.11866516,111.399807 L4.11866516,10.3284052 L11.5728866,10.3284052 L11.5728866,25.2616399 C11.5728866,28.9559469 14.5732975,31.9612931 18.2612689,31.9612931 C21.9495093,31.9612931 24.9496512,28.9556775 24.9496512,25.2616399 L24.9496512,15.9880157 C24.9496512,14.8488187 24.0277929,13.925444 22.8901976,13.925444 C21.7528713,13.925444 20.831013,14.8488187 20.831013,15.9880157 L20.831013,25.2616399 C20.831013,26.6810556 19.6780848,27.8358802 18.2609999,27.8358802 C16.8439151,27.8358802 15.6912559,26.6810556 15.6912559,25.2616399 L15.6912559,10.3284052 L74.1341705,10.3284052 L74.1341705,111.399807 L4.11866516,111.399807 Z M18.2612689,4.1404207 C19.5035047,4.1404207 20.5423774,5.02795972 20.7799032,6.2029924 L15.7426346,6.2029924 C15.9798914,5.02795972 17.0187642,4.1404207 18.2612689,4.1404207 L18.2612689,4.1404207 Z M92.6794751,18.5792309 L86.536084,18.5447424 L86.5242481,18.5447424 C86.5126812,18.5447424 86.5016522,18.5463591 86.4903543,18.5463591 L86.4903543,14.4535486 C86.4903543,13.3143516 85.5684959,12.3907075 84.4311697,12.3907075 L78.2533468,12.3907075 L78.2533468,8.26583353 C78.2533468,7.12663652 77.3314884,6.20326184 76.1941621,6.20326184 L24.9284003,6.20326184 C24.6663957,2.74714072 21.7773502,0.0150078698 18.2612689,0.0150078698 C14.7449186,0.0150078698 11.8561422,2.74714072 11.5941375,6.2029924 L2.05921153,6.2029924 C0.921885257,6.2029924 2.68998645e-05,7.12636708 2.68998645e-05,8.26556409 L2.68998645e-05,113.462379 C2.68998645e-05,114.601845 0.921885257,115.524951 2.05921153,115.524951 L6.17758079,115.524951 L6.17758079,121.712935 C6.17758079,122.852401 7.09943914,123.775507 8.23676541,123.775507 L12.3554037,123.775507 L12.3554037,129.963491 C12.3554037,131.102688 13.277262,132.026332 14.4145883,132.026332 L92.6679082,132.026332 C93.8052344,132.026332 94.7270928,131.102688 94.7270928,129.963491 L94.7270928,20.6418026 C94.7276308,19.5071861 93.8127664,18.585428 92.6794751,18.5792309 L92.6794751,18.5792309 Z" id="Fill-1" fill="#35447D" mask="url(#mask-4)"></path>
                                </g>
                            </g>
                        </g>
                    </g>
                </g>
            </g>
        </g>
    </g>
</svg>