<?xml version="1.0" encoding="UTF-8" standalone="no"?>
<svg width="18px" height="18px" viewBox="0 0 18 18" version="1.1" xmlns="http://www.w3.org/2000/svg" xmlns:xlink="http://www.w3.org/1999/xlink">
    <!-- Generator: Sketch 47.1 (45422) - http://www.bohemiancoding.com/sketch -->
    <title>icon43</title>
    <desc>Created with Sketch.</desc>
    <defs>
        <path d="M15,23.875 C10.0984728,23.875 6.125,19.9015272 6.125,15 C6.125,10.0984728 10.0984728,6.125 15,6.125 C19.9015272,6.125 23.875,10.0984728 23.875,15 C23.875,19.9015272 19.9015272,23.875 15,23.875 Z M15,22.6916667 C19.2479902,22.6916667 22.6916667,19.2479902 22.6916667,15 C22.6916667,10.7520098 19.2479902,7.30833333 15,7.30833333 C10.7520098,7.30833333 7.30833333,10.7520098 7.30833333,15 C7.30833333,19.2479902 10.7520098,22.6916667 15,22.6916667 Z M18.8423244,17.954865 C19.0876045,18.2001451 19.0876045,18.5970915 18.8423244,18.8423716 C18.7232401,18.961456 18.5636892,19.0262373 18.3985711,19.0262373 C18.233453,19.0262373 18.0739021,18.961456 17.9548178,18.8423716 L15,15.8875539 L12.0451822,18.8423716 C11.9260979,18.961456 11.766547,19.0262373 11.6014289,19.0262373 C11.4363108,19.0262373 11.2767599,18.961456 11.1576756,18.8423716 C10.9123955,18.5970915 10.9123955,18.2001451 11.1576756,17.954865 L14.1124933,15.0000472 L11.1576756,12.0452294 C10.9123955,11.7999493 10.9123955,11.4030029 11.1576756,11.1577228 C11.4029557,10.9124427 11.7999021,10.9124427 12.0451822,11.1577228 L15,14.1125405 L17.9548178,11.1577228 C18.2000979,10.9124427 18.5970443,10.9124427 18.8423244,11.1577228 C19.0876045,11.4030029 19.0876045,11.7999493 18.8423244,12.0452294 L15.8875067,15.0000472 L18.8423244,17.954865 Z" id="path-1"></path>
    </defs>
    <g id="Symbols" stroke="none" stroke-width="1" fill="none" fill-rule="evenodd">
        <g id="ðŸ¼Icons/ðŸ¼Close-3" transform="translate(-6.000000, -6.000000)">
            <mask id="mask-2" fill="white">
                <use xlink:href="#path-1"></use>
            </mask>
            <use id="icon43" fill="#ff6176" fill-rule="nonzero" xlink:href="#path-1"></use>
        </g>
    </g>
</svg>