<?xml version="1.0" encoding="UTF-8" standalone="no"?>
<svg width="72px" height="60px" viewBox="0 0 72 60" version="1.1" xmlns="http://www.w3.org/2000/svg" xmlns:xlink="http://www.w3.org/1999/xlink">
    <!-- Generator: Sketch 47.1 (45422) - http://www.bohemiancoding.com/sketch -->
    <title>brand/Logo-JML-Rose</title>
    <desc>Created with Sketch.</desc>
    <defs></defs>
    <g id="Symbols" stroke="none" stroke-width="1" fill="none" fill-rule="evenodd">
        <g id="brand/Logo-JML-Rose" fill="#37437C">
            <g id="Page-1" transform="translate(0.391602, 0.372599)">
                <path d="M35.4583438,-6.86283441e-05 L19.432596,9.25274786 L19.432596,27.7580377 L35.4583438,37.010511 L51.4844347,27.7580377 L51.4844347,9.25274786 L35.4583438,-6.86283441e-05 Z M20.4167265,9.82099055 L35.4583438,1.13641675 L50.5003042,9.82099055 L45.468474,12.7260284 L45.468474,9.51010415 L35.4583438,3.732627 L25.4482135,9.51010415 L25.4482135,12.7260284 L20.4167265,9.82099055 Z M26.9570077,9.78461753 L35.4583438,4.87837721 L43.9596799,9.78461753 L41.6781306,11.0576733 L35.4583438,7.46635206 L29.2392432,11.0576733 L26.9570077,9.78461753 Z M30.2477368,11.6200826 L35.4583438,8.61210227 L40.6696371,11.6207689 L38.4206863,12.8756381 L35.4590301,11.2055674 L32.4973739,12.8749519 L30.2477368,11.6200826 Z M36.4778178,15.0954219 L38.4186274,14.0128098 L44.4778239,10.6318344 L44.4778239,13.2980456 L38.9628502,16.4820576 L36.4778178,15.0954219 Z M26.4392068,13.2980456 L26.4392068,10.6318344 L28.6840399,11.8839586 L37.9622489,17.0595651 L35.4583438,18.5052212 L26.4392068,13.2980456 Z M21.4012001,27.7580377 L50.5003042,10.9574759 L50.5003042,27.1894519 L35.4583438,35.8740257 L21.4012001,27.7580377 Z M20.4167265,10.9574759 L34.4745565,19.0734639 L20.4167265,27.1894519 L20.4167265,10.9574759 Z M33.5117008,13.4414788 L35.4590301,12.3434253 L37.405673,13.441822 L35.4593732,14.5275224 L33.5117008,13.4414788 Z" id="Fill-1"></path>
                <g id="Group-16" transform="translate(0.000000, 46.497076)">
                    <path d="M2.99741156,7.83684218 L2.99741156,1.42009201 C2.99741156,0.613708967 3.06501047,0.551257174 4.18125049,0.463756035 L4.18125049,0.279145789 L0.496251556,0.279145789 L0.496251556,0.463756035 C1.63548207,0.551257174 1.69312988,0.603757857 1.69312988,1.42009201 L1.69312988,8.23728857 C1.69312988,9.57622756 1.53013756,10.3640809 1.16572105,10.7930081 C0.885374267,11.1261987 0.534340287,11.3272798 6.86283441e-05,11.4607619 L0.044677052,11.6666469 C0.428652637,11.6484604 1.00753272,11.5431159 1.51538247,11.3039461 C1.6571,11.2370335 1.78028787,11.1567383 1.89661292,11.0716392 C1.92646625,11.0496781 1.95769214,11.0284033 1.98617291,11.0050697 C2.85981173,10.2978546 2.99741156,9.0772995 2.99741156,7.83684218" id="Fill-2"></path>
                    <path d="M11.936871,7.70648264 C11.4506392,6.64960614 10.8998967,5.50385594 10.3656251,4.39619446 C9.69958701,3.01093134 9.01021529,1.58003037 8.42824693,0.278836962 L5.89757675,0.278836962 L5.89757675,0.478545443 C7.09445507,0.564330873 7.15381858,0.618547265 7.15381858,1.44963651 L7.15381858,6.8458832 C7.15381858,7.68829613 7.116073,8.39070723 7.04847408,8.81929124 C6.96440435,9.41155385 6.59827214,9.6850378 5.79360481,9.75435243 L5.79360481,9.95200206 L8.94604779,9.95200206 L8.94604779,9.75435243 C7.99657465,9.67199841 7.64348182,9.43282863 7.55769639,8.81929124 C7.50004858,8.36600103 7.46710698,7.64711912 7.46710698,6.8458832 L7.46710698,1.36213537 L7.5676475,1.36213537 L7.57759861,1.38684158 C8.21721478,2.80504631 8.95256748,4.45384227 9.66321398,6.04945127 C10.2945948,7.46937171 10.8930339,8.81139898 11.3679421,9.86312835 L11.5182381,9.86312835 C12.6063405,7.2710358 14.3028332,3.32421973 15.2179922,1.19708421 L15.2293158,1.17100543 L15.3449546,1.17100543 L15.3449546,8.81311469 C15.3449546,9.6143506 15.2855911,9.66685129 14.0887128,9.75435243 L14.0887128,9.95200206 L17.9068507,9.95200206 L17.9068507,9.75435243 C16.7398257,9.66685129 16.6488931,9.63219397 16.6488931,8.81311469 L16.6488931,1.42012632 C16.6488931,0.579085967 16.7446297,0.562615165 17.9068507,0.478545443 L17.9068507,0.278836962 L15.3298564,0.278836962 C14.4280799,2.45847317 12.5486927,6.66642008 12.0439312,7.70648264 L12.0326076,7.73118884 L11.9485378,7.73118884 L11.936871,7.70648264 Z" id="Fill-4"></path>
                    <path d="M22.3205797,8.48795359 L22.3205797,1.41992044 C22.3205797,0.608733412 22.3717078,0.565840697 23.6509401,0.478339558 L23.6509401,0.278974219 L19.8180471,0.278974219 L19.8180471,0.478339558 C20.8780119,0.56240928 21.016298,0.584027208 21.016298,1.41992044 L21.016298,8.8129088 C21.016298,9.62409583 20.9027181,9.63747836 19.8194197,9.75277397 L19.8180471,9.75277397 L19.8180471,9.95213931 L26.8644623,9.95213931 L27.1067204,7.31749719 L26.8778449,7.31749719 C26.4804868,9.34031763 25.6559172,9.71296953 24.1821235,9.71296953 C22.4245516,9.71296953 22.3205797,9.57468342 22.3205797,8.48795359" id="Fill-6"></path>
                    <path d="M47.8660396,0.237797212 C50.6787722,0.237797212 50.9838252,3.64896905 50.9838252,5.11658619 C50.9838252,6.57871306 50.6839194,9.98027693 47.910648,9.98027693 C46.7745057,9.98027693 45.9286614,9.41958336 45.3964486,8.31501017 C44.8968343,7.27632018 44.7911466,6.00189183 44.7911466,5.11658619 C44.7911466,3.64896905 45.0913956,0.237797212 47.8660396,0.237797212 M43.2960781,5.11658619 C43.2960781,8.34108894 44.9661489,10.1895934 47.8811378,10.1895934 C50.8043621,10.1895934 52.4792368,8.34108894 52.4792368,5.11658619 C52.4792368,1.88316176 50.8091661,0.0284807628 47.8958929,0.0284807628 C44.9723254,0.0284807628 43.2960781,1.88316176 43.2960781,5.11658619" id="Fill-8"></path>
                    <path d="M58.2367088,4.37292945 C57.2357644,3.94571801 56.256438,3.42174061 56.256438,2.1287826 C56.256438,0.945286811 56.9193878,0.237728584 58.0304807,0.237728584 C59.2771145,0.237728584 60.1559005,1.14465215 60.3309027,2.60369075 L60.5597783,2.60369075 L60.5597783,0.542781573 C60.1507533,0.331749415 59.2095156,0.0284121344 58.2085712,0.0284121344 C56.3274683,0.0284121344 55.1601002,1.07705323 55.1601002,2.76496735 C55.1601002,4.35954693 56.3140858,4.97308432 57.8245956,5.60961221 C58.7857356,6.02790197 59.9808982,6.54741854 59.9808982,7.88155354 C59.9808982,9.25480671 59.2489769,9.98020831 57.8674883,9.98020831 C56.675414,9.98020831 55.7139309,8.92504752 55.2922097,7.15580881 L55.0578439,7.15580881 L55.1882378,9.512163 C55.956189,9.97506118 56.803749,10.1895248 57.8527332,10.1895248 C60.2862943,10.1895248 61.1516977,8.72225076 61.1516977,7.34865445 C61.1516977,5.5667195 60.0502128,5.11480185 58.3801421,4.43057726 L58.2367088,4.37292945 Z" id="Fill-10"></path>
                    <path d="M67.7350775,9.71307248 C66.0303495,9.71307248 65.9164264,9.55797242 65.9164264,8.48805654 L65.9164264,5.04394309 L67.6609589,5.04394309 C68.9353873,5.04394309 69.2387245,5.53189062 69.3821578,6.55239409 L69.6130922,6.55239409 L69.6130922,3.38519601 L69.3821578,3.38519601 C69.2599993,4.28697245 68.9405344,4.77491998 67.6609589,4.77491998 L65.9164264,4.77491998 L65.9164264,1.06555798 C65.9164264,0.597512678 65.9956922,0.519619507 66.47712,0.519619507 L67.675714,0.519619507 C69.4662275,0.519619507 69.8882918,1.18737329 70.0928043,2.58876408 L70.3237387,2.58876408 L70.3237387,0.279077161 L63.4152664,0.279077161 L63.4152664,0.478442501 C64.5102316,0.564227931 64.6138604,0.605404937 64.6138604,1.42002338 L64.6138604,8.81301174 C64.6138604,9.63243417 64.47729,9.68184658 63.4152664,9.75424948 L63.4152664,9.95189911 L70.6236445,9.95189911 L70.910511,7.42122893 L70.6812923,7.42122893 C70.3350623,9.15409461 69.6148079,9.71307248 67.7350775,9.71307248" id="Fill-12"></path>
                    <path d="M35.5303692,4.96807445 L35.5303692,1.22714342 C35.5303692,0.593703804 35.6803222,0.489731863 36.5937654,0.489731863 C37.1064191,0.489731863 38.7799213,0.653067322 38.7799213,2.73525128 C38.7799213,4.27870274 38.0874613,4.96807445 36.5344019,4.96807445 L35.5303692,4.96807445 Z M40.4221976,9.49342746 C40.4204819,9.48313321 40.1243506,7.75815978 40.1226349,7.74752239 C40.120576,7.73379672 40.1174877,7.72384561 40.1154289,7.7097768 C39.8666511,6.30015061 39.4277729,5.46562995 37.8270168,5.09812517 L37.7940752,5.08988977 L37.7940752,4.92998572 L37.8318207,4.92689745 C39.2977222,4.74365977 40.1730767,3.87448179 40.1730767,2.60176915 C40.1730767,0.994493334 39.1837991,0.279042847 36.9629859,0.279042847 L32.9698457,0.279042847 L32.9698457,0.478408186 C34.1797634,0.565909325 34.2278033,0.60880204 34.2278033,1.41964593 L34.2278033,8.81263429 C34.2278033,9.61387021 34.1684397,9.66499832 32.9698457,9.75421517 L32.9698457,9.9518648 L36.7584734,9.9518648 L36.7584734,9.75421517 C35.5780659,9.66671403 35.5303692,9.62210561 35.5303692,8.81263429 L35.5303692,5.1773909 L36.5344019,5.1773909 C37.8534387,5.1773909 38.2971209,5.49376757 38.5126139,6.58701709 C38.5771246,6.93805107 38.6330567,7.259918 38.6893319,7.57766724 C38.6989399,7.6332562 38.7099204,7.69227657 38.7195284,7.74752239 C38.7720291,8.04365369 39.1186022,10.0513759 39.1769363,10.3725565 C39.3485071,11.2561465 39.875916,11.666544 40.8356834,11.666544 L41.8874127,11.666544 L41.8874127,11.4671786 C40.8023986,11.3364416 40.5989156,10.6312854 40.4221976,9.49342746 L40.4221976,9.49342746 Z" id="Fill-14"></path>
                </g>
            </g>
        </g>
    </g>
</svg>