<?xml version="1.0" encoding="UTF-8" standalone="no"?>
<svg width="100px" height="25px" viewBox="0 0 100 25" version="1.1" xmlns="http://www.w3.org/2000/svg" xmlns:xlink="http://www.w3.org/1999/xlink">
    <!-- Generator: Sketch 47.1 (45422) - http://www.bohemiancoding.com/sketch -->
    <title>Brand/Logo-QL-White-Cyan</title>
    <desc>Created with Sketch.</desc>
    <defs></defs>
    <g id="Symbols" stroke="none" stroke-width="1" fill="none" fill-rule="evenodd">
        <g id="Brand/Logo-QL-White-Cyan" fill-rule="nonzero">
            <g id="QuickLegal-logo">
                <path d="M25.41,4.92 L26.81,4.92 L26.81,15.84 L25.41,15.84 L25.41,14.06 C24.6997765,15.3787049 23.2844111,16.1606747 21.79,16.06 C20.6710154,16.0809486 19.5903662,15.6522911 18.79,14.87 C17.9258348,13.9449801 17.4840654,12.7029562 17.57,11.44 L17.57,4.94 L18.95,4.94 L18.95,11.18 C18.8805165,12.1707953 19.1916767,13.1507711 19.82,13.92 C21.1605201,15.1698841 23.2394799,15.1698841 24.58,13.92 C25.2083233,13.1507711 25.5194835,12.1707953 25.45,11.18 L25.41,4.92 Z" id="Shape" fill="#F8F7F3"></path>
                <path d="M30.72,2.07 C30.7269484,2.34270248 30.6221891,2.6064069 30.43,2.8 C30.2405017,2.99333616 29.9807138,3.10158111 29.71,3.1 C29.1411467,3.1 28.68,2.63885329 28.68,2.07 C28.68,1.50114671 29.1411467,1.04 29.71,1.04 C29.9807138,1.03841889 30.2405017,1.14666384 30.43,1.34 C30.6221891,1.5335931 30.7269484,1.79729752 30.72,2.07 Z M28.98,15.84 L28.98,4.92 L30.38,4.92 L30.38,15.84 L28.98,15.84 Z" id="Shape" fill="#F8F7F3"></path>
                <path d="M33.37,14.48 C31.4245526,12.0928343 31.4245526,8.66716574 33.37,6.28 C34.354721,5.23967062 35.7383494,4.67165474 37.17,4.72 C39.73,4.72 41.3566667,5.86666667 42.05,8.16 L40.55,8.16 C40.3535573,7.46865236 39.9266023,6.8652698 39.34,6.45 C38.6979979,6.02530488 37.9392526,5.81201702 37.17,5.84 C36.122381,5.80337992 35.1121365,6.23163574 34.41,7.01 C32.9963306,9.03062219 32.9963306,11.7193778 34.41,13.74 C35.1086188,14.5243767 36.12026,14.9568899 37.17,14.92 C37.9392526,14.947983 38.6979979,14.7346951 39.34,14.31 C39.9266023,13.8947302 40.3535573,13.2913476 40.55,12.6 L42.05,12.6 C41.7376224,13.590837 41.1306515,14.4629216 40.31,15.1 C38.1399713,16.5560071 35.2475732,16.2976084 33.37,14.48 L33.37,14.48 Z" id="Shape" fill="#F8F7F3"></path>
                <polygon id="Shape" fill="#F8F7F3" points="45.21 15.84 43.81 15.84 43.81 1.04 45.21 1.04 45.21 9.8 49.61 4.92 51.61 4.92 46.31 10.32 51.61 15.84 49.72 15.84 45.22 10.94"></polygon>
                <polygon id="Shape" fill="#F8F7F3" points="52.93 1 55.21 1 55.21 13.64 59.91 13.64 59.91 15.87 52.91 15.87"></polygon>
                <path d="M65.65,16.02 C64.1878166,16.075325 62.7706673,15.5084653 61.75,14.46 C60.7175761,13.335457 60.1775098,11.8448741 60.25,10.32 C60.1765042,8.79430298 60.7249789,7.30403946 61.77,6.19 C63.2979898,4.54196774 65.6881705,4.01497035 67.7675257,4.86763958 C69.846881,5.72030881 71.1789499,7.77366767 71.11,10.02 C71.1121304,10.3815558 71.0853787,10.7427042 71.03,11.1 L62.59,11.1 C62.6017835,11.9235075 62.9356241,12.7096482 63.52,13.29 C64.0958253,13.8296466 64.8610982,14.1206659 65.65,14.1 C66.7581078,14.1793199 67.8002699,13.5667513 68.27,12.56 L70.72,12.56 C70.3946211,13.5629656 69.7568602,14.4355066 68.9,15.05 C67.9505402,15.7172572 66.809864,16.0577052 65.65,16.02 L65.65,16.02 Z M67.83,7.37 C67.2516909,6.82788257 66.4823312,6.53667634 65.69,6.56 C64.9068348,6.53807063 64.1473106,6.82964156 63.58,7.37 C62.9856942,7.94187976 62.6286499,8.71666592 62.58,9.54 L68.72,9.54 C68.7546229,8.71260879 68.4301694,7.9105889 67.83,7.34 L67.83,7.37 Z" id="Shape" fill="#F8F7F3"></path>
                <path d="M73.72,14.41 C72.7001725,13.2858402 72.1616506,11.8066999 72.22,10.29 C72.1576145,8.78647844 72.6933616,7.31946624 73.71,6.21 C74.6651608,5.18007768 76.0156911,4.60855945 77.42,4.64 C78.2229902,4.62298562 79.0151994,4.82709191 79.71,5.23 C80.3488971,5.60124148 80.8770868,6.13633568 81.24,6.78 L81.24,4.78 L83.54,4.78 L83.54,15.98 C83.5940779,17.3845054 83.0783827,18.7512779 82.11,19.77 C81.1022181,20.7724249 79.7199142,21.3057547 78.3,21.24 C76.9405419,21.317268 75.5909356,20.967629 74.44,20.24 C73.454664,19.585981 72.821407,18.5182803 72.72,17.34 L74.98,17.34 C75.1627922,17.9260333 75.5589251,18.4220917 76.09,18.73 C76.7366902,19.1018231 77.4744697,19.2854021 78.22,19.26 C79.014954,19.2828201 79.7846118,18.9792931 80.35,18.42 C80.9552436,17.7572227 81.262445,16.8753738 81.2,15.98 L81.2,13.74 C80.8379393,14.4085822 80.3069631,14.9705894 79.66,15.37 C78.9734873,15.7860495 78.1825491,15.9976602 77.38,15.98 C75.9917441,16.0035065 74.6597221,15.43212 73.72,14.41 Z M80.25,13.03 C81.5701927,11.4682899 81.5701927,9.18171012 80.25,7.62 C79.6401009,6.97396014 78.7884103,6.61153863 77.9,6.62 C77.0125524,6.61634315 76.1626937,6.97798513 75.55,7.62 C74.8618586,8.3375255 74.5000845,9.30708011 74.55,10.3 C74.5060444,11.3069265 74.8660384,12.2897099 75.55,13.03 C76.1570105,13.6801762 77.0106121,14.0434109 77.9,14.03 C78.7782428,14.0313337 79.6179345,13.6693977 80.22,13.03 L80.25,13.03 Z" id="Shape" fill="#F8F7F3"></path>
                <path d="M86.05,14.41 C85.0301725,13.2858402 84.4916506,11.8066999 84.55,10.29 C84.4876145,8.78647844 85.0233616,7.31946624 86.04,6.21 C86.9881519,5.18796048 88.326072,4.61716305 89.72,4.64 C90.5229902,4.62298562 91.3151994,4.82709191 92.01,5.23 C92.6488971,5.60124148 93.1770868,6.13633568 93.54,6.78 L93.54,4.78 L95.84,4.78 L95.84,15.78 L93.54,15.78 L93.54,13.72 C93.1779393,14.3885822 92.6469631,14.9505894 92,15.35 C91.3134873,15.7660495 90.5225491,15.9776602 89.72,15.96 C88.3313796,15.9915109 86.9956336,15.4273674 86.05,14.41 L86.05,14.41 Z M92.58,13.03 C93.9001927,11.4682899 93.9001927,9.18171012 92.58,7.62 C91.9701009,6.97396014 91.1184103,6.61153863 90.23,6.62 C89.3425524,6.61634315 88.4926937,6.97798513 87.88,7.62 C87.1918586,8.3375255 86.8300845,9.30708011 86.88,10.3 C86.8360444,11.3069265 87.1960384,12.2897099 87.88,13.03 C88.4870105,13.6801762 89.3406121,14.0434109 90.23,14.03 C91.1186533,14.0396849 91.970814,13.6770633 92.58,13.03 L92.58,13.03 Z" id="Shape" fill="#F8F7F3"></path>
                <polygon id="Shape" fill="#F8F7F3" points="97.72 15.84 97.72 1.04 100 1.04 100 15.84"></polygon>
                <path d="M12.72,19.78 L8.65,15.71 L6.28,15.71 C3.35841367,15.71 0.99,13.3415863 0.99,10.42 L0.99,6.28 C0.99,3.35841367 3.35841367,0.99 6.28,0.99 L10.42,0.99 C13.3415863,0.99 15.71,3.35841367 15.71,6.28 L15.71,10.42 C15.6933491,12.4446167 14.5310138,14.284981 12.71,15.17 L12.72,19.78 Z M6.29,2.34 C4.080861,2.34 2.29,4.130861 2.29,6.34 L2.29,10.48 C2.29,12.689139 4.080861,14.48 6.29,14.48 L9.2,14.48 L11.43,16.71 L11.43,14.34 L11.85,14.18 C13.3925408,13.5895331 14.4135319,12.1116784 14.42,10.46 L14.42,6.32 C14.42,4.110861 12.629139,2.32 10.42,2.32 L6.29,2.34 Z" id="Shape" fill="#F8F7F3"></path>
                <path d="M9.24,9.07 C9.01284509,9.0753613 8.79299967,8.98955238 8.62953859,8.83172789 C8.46607751,8.6739034 8.3726099,8.45720318 8.37,8.23 L8.37,5.89 L7.42,5.89 L7.42,8.23 C7.42789125,8.71271519 7.62725088,9.17251706 7.97420763,9.50822116 C8.32116439,9.84392526 8.78728697,10.0280224 9.27,10.02 L10.18,10.02 L10.18,9.07 L9.24,9.07 Z" id="Shape" fill="#8EF0F1"></path>
                <path d="M47.11,19.24 L44.72,20.62 L44.72,23.34 L47.11,24.72 L49.5,23.34 L49.5,20.59 L47.11,19.21 L47.11,19.24 Z M44.87,20.87 L46.96,22.08 L44.87,23.29 L44.87,20.87 L44.87,20.87 Z M47.11,21.08 L47.4,21.24 L47.11,21.4 L46.82,21.24 L47.11,21.08 Z M46.67,21.16 L46.34,20.97 L47.12,20.52 L47.9,20.97 L47.57,21.16 L47.13,20.91 L46.69,21.16 L46.67,21.16 Z M47.55,21.33 L48.45,20.83 L48.45,21.23 L47.63,21.7 L47.26,21.49 L47.55,21.33 L47.55,21.33 Z M48.04,20.89 L47.11,20.36 L46.18,20.89 L45.84,20.7 L47.11,19.97 L48.38,20.7 L48.04,20.89 Z M46.11,21.01 L47.49,21.78 L47.12,22 L45.78,21.22 L45.78,20.82 L46.11,21.01 L46.11,21.01 Z M49.36,23.29 L47.12,24.58 L45.02,23.34 L49.35,20.84 L49.35,23.26 L49.36,23.29 Z M48.61,21.14 L48.61,20.66 L47.12,19.8 L45.63,20.66 L45.63,21.14 L44.88,20.71 L47.12,19.42 L49.36,20.71 L48.61,21.14 Z" id="Shape" fill="#8EF0F1"></path>
                <path d="M52.03,22.4 L52.03,20.76 C52.03,20.55 52.03,20.54 52.33,20.52 L52.33,20.52 L51.39,20.52 L51.39,20.52 C51.68,20.52 51.7,20.52 51.7,20.76 L51.7,22.5 C51.7318266,22.7251453 51.6859727,22.9544146 51.57,23.15 C51.4917445,23.238522 51.3861535,23.2983569 51.27,23.32 L51.27,23.34 C51.4011474,23.3337928 51.5300003,23.303275 51.65,23.25 L51.75,23.19 L51.75,23.19 C51.9545114,22.980372 52.0568505,22.6916297 52.03,22.4 Z" id="Shape" fill="#8EF0F1"></path>
                <path d="M54.31,22.34 L53.91,21.49 C53.74,21.14 53.56,20.77 53.41,20.44 L52.72,20.44 L52.72,20.49 C53.03,20.49 53.04,20.49 53.04,20.74 L53.04,22.12 C53.0514921,22.2864686 53.0514921,22.4535314 53.04,22.62 C53.04,22.77 52.92,22.84 52.72,22.86 L52.72,22.91 L53.53,22.91 L53.53,22.86 C53.29,22.86 53.2,22.78 53.18,22.62 C53.1706082,22.4534656 53.1706082,22.2865344 53.18,22.12 L53.18,20.72 L53.18,20.72 L53.71,21.91 L54.15,22.91 L54.15,22.91 C54.43,22.25 54.86,21.24 55.1,20.7 L55.1,20.7 L55.1,22.7 C55.1,22.9 55.1,22.92 54.78,22.94 L54.78,22.99 L55.78,22.99 L55.78,22.94 C55.48,22.94 55.46,22.94 55.46,22.7 L55.46,20.81 C55.46,20.6 55.46,20.59 55.78,20.57 L55.78,20.52 L55.12,20.52 C54.89,21.08 54.41,22.15 54.28,22.42 L54.28,22.42 L54.31,22.34 Z" id="Shape" fill="#8EF0F1"></path>
                <path d="M56.97,22.57 L56.97,20.76 C56.97,20.55 56.97,20.54 57.31,20.52 L57.31,20.47 L56.31,20.47 L56.31,20.52 C56.58,20.52 56.62,20.52 56.62,20.76 L56.62,22.65 C56.62,22.86 56.62,22.86 56.31,22.89 L56.31,22.89 L56.31,22.94 L58.11,22.94 L58.17,22.27 L58.11,22.27 C58.01,22.79 57.8,22.88 57.42,22.88 C57.04,22.88 56.97,22.85 56.97,22.57 Z" id="Shape" fill="#8EF0F1"></path>
                <path d="M62.33,21.71 C62.33,22.53 62.76,23.01 63.5,23.01 C64.24,23.01 64.68,22.54 64.68,21.71 C64.68,20.88 64.25,20.41 63.51,20.41 C62.77,20.41 62.33,20.88 62.33,21.71 Z M63.5,20.46 C64.22,20.46 64.3,21.33 64.3,21.71 C64.3,22.09 64.22,22.95 63.51,22.95 C63.2281682,22.9531529 62.9736035,22.7821172 62.87,22.52 C62.7629596,22.2602365 62.7118496,21.980835 62.72,21.7 C62.72,21.34 62.79,20.46 63.5,20.46 Z" id="Shape" fill="#8EF0F1"></path>
                <path d="M66.15,21.52 C65.89,21.41 65.64,21.28 65.64,20.95 C65.6250657,20.8240072 65.6665348,20.6978502 65.7533097,20.6052903 C65.8400846,20.5127304 65.9633067,20.4632168 66.09,20.47 C66.4174591,20.4754584 66.6800455,20.7424954 66.68,21.07 L66.72,21.07 L66.72,20.54 C66.5314741,20.4546317 66.3269532,20.4103189 66.12,20.41 C65.9202274,20.3836636 65.7189243,20.4459693 65.5689586,20.5805539 C65.418993,20.7151384 65.3353512,20.9085525 65.34,21.11 C65.34,21.52 65.63,21.67 66.02,21.84 C66.41,22.01 66.57,22.08 66.57,22.42 C66.5900794,22.5684705 66.5396818,22.7178014 66.4337416,22.8237416 C66.3278014,22.9296818 66.1784705,22.9800794 66.03,22.96 C65.73,22.96 65.48,22.69 65.37,22.24 L65.31,22.24 L65.31,22.84 C65.5162317,22.9593332 65.7518741,23.0182437 65.99,23.01 C66.61,23.01 66.83,22.63 66.83,22.28 C66.83,21.93 66.55,21.71 66.12,21.53 L66.15,21.52 Z" id="Shape" fill="#8EF0F1"></path>
                <path d="M68.58,22.88 C68.14,22.88 68.12,22.88 68.12,22.57 L68.12,21.69 L68.57,21.69 C68.9,21.69 68.97,21.81 69.01,22.08 L69.07,22.08 L69.07,21.27 L69.01,21.27 C69.01,21.5 68.9,21.63 68.57,21.63 L68.12,21.63 L68.12,20.68 C68.12,20.56 68.12,20.54 68.26,20.54 L68.57,20.54 C69.03,20.54 69.14,20.71 69.19,21.07 L69.25,21.07 L69.25,20.48 L67.48,20.48 L67.48,20.53 C67.76,20.53 67.79,20.53 67.79,20.77 L67.79,22.66 C67.79,22.87 67.79,22.88 67.48,22.9 L67.48,22.95 L69.32,22.95 L69.39,22.3 L69.33,22.3 C69.24,22.74 69.06,22.88 68.58,22.88 Z" id="Shape" fill="#8EF0F1"></path>
                <path d="M61.59,22.83 L61.51,22.38 L61.51,22.38 C61.5087117,22.0440576 61.2622927,21.7594012 60.93,21.71 L60.93,21.71 L60.93,21.71 L60.93,21.71 C61.2575046,21.7100455 61.5245416,21.4474591 61.53,21.12 C61.53,20.71 61.28,20.53 60.71,20.53 L59.71,20.53 L59.71,20.58 C60.02,20.58 60.03,20.58 60.03,20.82 L60.03,22.71 C60.03,22.91 60.03,22.93 59.71,22.95 L59.71,23 L60.71,23 L60.71,22.95 C60.41,22.95 60.4,22.95 60.4,22.71 L60.4,21.78 L60.66,21.78 C61,21.78 61.11,21.86 61.17,22.14 L61.17,22.39 L61.17,22.39 L61.29,23.06 C61.3160422,23.2664358 61.5032638,23.4135385 61.71,23.39 L61.98,23.39 L61.98,23.34 C61.72,23.34 61.64,23.12 61.59,22.83 Z M60.34,21.67 L60.34,20.67 C60.34,20.51 60.34,20.48 60.61,20.48 C60.7638377,20.4673603 60.91534,20.5237185 61.023516,20.6338263 C61.1316921,20.7439342 61.1853603,20.8964101 61.17,21.05 C61.17,21.44 60.99,21.62 60.6,21.62 L60.34,21.67 Z" id="Shape" fill="#8EF0F1"></path>
                <path d="M19.28,20.34 C19.4545259,20.4943206 19.5531123,20.7170527 19.55,20.95 C19.5560343,21.182354 19.4655229,21.4068223 19.3,21.57 C19.0839999,21.7544787 18.8029947,21.8445445 18.52,21.82 L17.99,21.82 L17.99,23 L17.51,23 L17.51,20.14 L18.51,20.14 C18.7826298,20.1082673 19.0572739,20.1796034 19.28,20.34 L19.28,20.34 Z M17.99,21.45 L18.52,21.45 C18.6683994,21.4618716 18.8155542,21.4152128 18.93,21.32 C19.1103923,21.1100996 19.1103923,20.7999004 18.93,20.59 C18.8155542,20.4947872 18.6683994,20.4481284 18.52,20.46 L17.99,20.46 L17.99,21.45 Z" id="Shape" fill="#8EF0F1"></path>
                <path d="M21.01,23.09 C20.699543,23.0998523 20.398937,22.9803343 20.18,22.76 C19.957034,22.5305159 19.837779,22.2197303 19.85,21.9 C19.8552272,21.3648888 20.2199001,20.9002891 20.7384522,20.768096 C21.2570043,20.635903 21.7995943,20.8692167 22.0603638,21.336518 C22.3211333,21.8038194 22.2347877,22.3880998 21.85,22.76 C21.624789,22.9769603 21.3226657,23.0956516 21.01,23.09 Z M21.51,22.48 C21.6557055,22.3231128 21.7314902,22.1138029 21.72,21.9 C21.7330613,21.6877703 21.6610964,21.4790719 21.52,21.32 C21.3927456,21.1852357 21.2153496,21.1092089 21.03,21.11 C20.8441537,21.1067195 20.6657943,21.1831592 20.54,21.32 C20.292822,21.6671643 20.292822,22.1328357 20.54,22.48 C20.6611107,22.6174858 20.8368304,22.6943632 21.02,22.69 C21.2066026,22.6870142 21.3837766,22.6074667 21.51,22.47 L21.51,22.48 Z" id="Shape" fill="#8EF0F1"></path>
                <polygon id="Shape" fill="#8EF0F1" points="25.32 20.74 25.79 20.74 25.07 23.05 24.57 23.05 24.11 21.34 23.64 23.05 23.14 23.05 22.42 20.74 22.91 20.74 23.39 22.6 23.88 20.74 24.38 20.74 24.85 22.59"></polygon>
                <path d="M27.11,23.09 C26.8023292,23.1007357 26.5044661,22.980864 26.29,22.76 C26.0747364,22.5229714 25.9631266,22.209744 25.98,21.89 C25.9646868,21.5686679 26.0801231,21.2548254 26.3,21.02 C26.7651369,20.5977696 27.4748631,20.5977696 27.94,21.02 C28.1545849,21.2338053 28.2705194,21.5272646 28.26,21.83 C28.2656594,21.9065622 28.2656594,21.9834378 28.26,22.06 L26.49,22.06 C26.4935319,22.2336786 26.5653943,22.3989621 26.69,22.52 C26.8110082,22.6349191 26.973234,22.6962044 27.14,22.69 C27.3720136,22.7079708 27.5909627,22.5805822 27.69,22.37 L28.21,22.37 C28.1441443,22.5804963 28.0105457,22.7633156 27.83,22.89 C27.6196257,23.0363891 27.3657362,23.1069139 27.11,23.09 L27.11,23.09 Z M27.57,21.28 C27.4483903,21.166043 27.2865811,21.1049151 27.12,21.11 C26.9564712,21.1053729 26.797937,21.1666247 26.68,21.28 C26.5602542,21.400295 26.4890491,21.5605065 26.48,21.73 L27.72,21.73 C27.7367805,21.5624096 27.6823479,21.3954833 27.57,21.27 L27.57,21.28 Z" id="Shape" fill="#8EF0F1"></path>
                <path d="M29.21,20.74 L29.21,21.14 C29.3284417,20.8660833 29.6016843,20.6918417 29.9,20.7 L29.9,21.2 L29.78,21.2 C29.6236284,21.1865657 29.4684877,21.2370766 29.35,21.34 C29.2364513,21.4805922 29.1825927,21.660121 29.2,21.84 L29.2,23.06 L28.72,23.06 L28.72,20.74 L29.21,20.74 Z" id="Shape" fill="#8EF0F1"></path>
                <path d="M31.31,23.09 C31.0023292,23.1007357 30.7044661,22.980864 30.49,22.76 C30.2747364,22.5229714 30.1631266,22.209744 30.18,21.89 C30.1646868,21.5686679 30.2801231,21.2548254 30.5,21.02 C30.9651369,20.5977696 31.6748631,20.5977696 32.14,21.02 C32.3545849,21.2338053 32.4705194,21.5272646 32.46,21.83 C32.4656594,21.9065622 32.4656594,21.9834378 32.46,22.06 L30.69,22.06 C30.6935319,22.2336786 30.7653943,22.3989621 30.89,22.52 C31.0110082,22.6349191 31.173234,22.6962044 31.34,22.69 C31.5720136,22.7079708 31.7909627,22.5805822 31.89,22.37 L32.41,22.37 C32.3441443,22.5804963 32.2105457,22.7633156 32.03,22.89 C31.8196257,23.0363891 31.5657362,23.1069139 31.31,23.09 L31.31,23.09 Z M31.77,21.28 C31.6483903,21.166043 31.4865811,21.1049151 31.32,21.11 C31.1564712,21.1053729 30.997937,21.1666247 30.88,21.28 C30.7602542,21.400295 30.6890491,21.5605065 30.68,21.73 L31.96,21.73 C31.9538593,21.5482152 31.8655885,21.3790294 31.72,21.27 L31.77,21.28 Z" id="Shape" fill="#8EF0F1"></path>
                <path d="M33.08,22.75 C32.8691108,22.5143458 32.7579665,22.20601 32.77,21.89 C32.7558169,21.5736601 32.8672451,21.2645367 33.08,21.03 C33.2782836,20.8098933 33.5639543,20.6890326 33.86,20.7 C34.0280121,20.694901 34.1941535,20.7364364 34.34,20.82 C34.4733221,20.8961855 34.5838145,21.0066779 34.66,21.14 L34.66,19.94 L35.14,19.94 L35.14,23.04 L34.66,23.04 L34.66,22.61 C34.5851002,22.7495102 34.474719,22.8667902 34.34,22.95 C34.1958263,23.0385808 34.0291709,23.0837166 33.86,23.08 C33.5639543,23.0909674 33.2782836,22.9701067 33.08,22.75 Z M34.45,22.46 C34.7237779,22.1330818 34.7237779,21.6569182 34.45,21.33 C34.3197469,21.1930356 34.1390108,21.1154997 33.95,21.1154997 C33.7609892,21.1154997 33.5802531,21.1930356 33.45,21.33 C33.3064066,21.4801209 33.2305228,21.6824777 33.24,21.89 C33.2300995,22.1005712 33.3058515,22.3061837 33.45,22.46 C33.5739795,22.6005444 33.7525885,22.6807362 33.94,22.68 C34.1338222,22.6839033 34.3198338,22.603663 34.45,22.46 Z" id="Shape" fill="#8EF0F1"></path>
                <path d="M38.31,20.7 C38.6060457,20.6890326 38.8917164,20.8098933 39.09,21.03 C39.3027549,21.2645367 39.4141831,21.5736601 39.4,21.89 C39.4120335,22.20601 39.3008892,22.5143458 39.09,22.75 C38.8958533,22.9710959 38.6141878,23.0954678 38.32,23.09 C38.1508291,23.0937166 37.9841737,23.0485808 37.84,22.96 C37.7043512,22.8747392 37.5911745,22.7581329 37.51,22.62 L37.51,23.05 L37.03,23.05 L37.03,19.95 L37.51,19.95 L37.51,21.15 C37.6774519,20.8681864 37.9822066,20.6967619 38.31,20.7 L38.31,20.7 Z M38.7,22.45 C38.8441485,22.2961837 38.9199005,22.0905712 38.91,21.88 C38.9194687,21.6821161 38.8512939,21.4883563 38.72,21.34 C38.5883377,21.2056228 38.4081281,21.1298979 38.22,21.1298979 C38.0318719,21.1298979 37.8516623,21.2056228 37.72,21.34 C37.4462221,21.6669182 37.4462221,22.1430818 37.72,22.47 C37.8487436,22.6096749 38.0300421,22.6891313 38.22,22.6891313 C38.4099579,22.6891313 38.5912564,22.6096749 38.72,22.47 L38.7,22.45 Z" id="Shape" fill="#8EF0F1"></path>
                <polygon id="Shape" fill="#8EF0F1" points="40.5 23.01 39.59 20.74 40.12 20.74 40.77 22.5 41.45 20.74 41.94 20.74 40.52 24.13 40.03 24.13"></polygon>
            </g>
        </g>
    </g>
</svg>