<?xml version="1.0" encoding="UTF-8" standalone="no"?>
<svg width="20px" height="18px" viewBox="0 0 20 18" version="1.1" xmlns="http://www.w3.org/2000/svg" xmlns:xlink="http://www.w3.org/1999/xlink">
    <!-- Generator: Sketch 47.1 (45422) - http://www.bohemiancoding.com/sketch -->
    <title>icon51</title>
    <desc>Created with Sketch.</desc>
    <defs>
        <path d="M14.9263993,17.8562064 L10.1357713,17.8562064 C9.76837632,17.8438874 9.46112685,18.1322961 9.44880788,18.4996911 C9.43648892,18.8670861 9.72417298,19.1736109 10.091568,19.1859299 C10.1060609,19.1866545 10.1212784,19.1866545 10.1357713,19.1859299 L14.9235007,19.1859299 C15.2887218,19.2272347 15.6177106,18.9641885 15.6582907,18.5989675 C15.6995955,18.2337464 15.437274,17.9047576 15.0720529,17.8641775 C15.0235017,17.8583803 14.9742258,17.8583803 14.9263993,17.8641775 L14.9263993,17.8562064 Z M19.713404,14.6467537 L10.1357713,14.6467537 C9.76837632,14.6351594 9.46112685,14.9228435 9.44880788,15.2902385 C9.43648892,15.6569088 9.72417298,15.964883 10.091568,15.9764773 C10.1060609,15.9772019 10.1212784,15.9772019 10.1357713,15.9764773 L19.7105054,15.9764773 C20.0757265,16.017782 20.4047153,15.7554606 20.4460201,15.3902395 C20.4858756,15.0250184 20.2235541,14.695305 19.858333,14.6547248 C19.8105064,14.6489277 19.7612306,14.6489277 19.713404,14.6547248 L19.713404,14.6467537 Z M6.82849164,22.0750894 L23.0083647,22.0750894 L23.0083647,11.6039695 L6.82849164,11.6039695 L6.82849164,22.0750894 Z M6.82849164,8.55973592 L9.57127288,8.55973592 L9.57127288,8.9169859 C9.57127288,9.28365626 9.86982662,9.58148534 10.2372216,9.5807607 C10.603892,9.5807607 10.9009964,9.28293161 10.9017211,8.9169859 L10.9017211,8.55973592 L19.0489046,8.55973592 L19.0489046,8.9169859 C19.0612235,9.2843809 19.368473,9.57206496 19.735868,9.56047064 C20.0873208,9.54887632 20.3684831,9.26698942 20.3800774,8.9169859 L20.3800774,8.55973592 L23.0250316,8.55973592 L23.0250316,10.2756952 L6.82921628,10.2756952 L6.82921628,8.55683734 L6.82849164,8.55973592 Z M6.16326755,23.3917694 L23.6735888,23.3917694 C24.036636,23.3953926 24.334465,23.1040853 24.3388129,22.7403135 L24.3388129,22.7272699 L24.3388129,7.89523648 C24.3431608,7.53218934 24.0511289,7.2350849 23.6888064,7.23073703 L23.6735888,7.23073703 L20.3793527,7.23073703 L20.3793527,6.66406466 C20.3670338,6.29594501 20.0590597,6.00753631 19.6916647,6.01985527 C19.3409365,6.03144959 19.0597742,6.31333649 19.0481799,6.66406466 L19.0481799,7.23146168 L10.9017211,7.23146168 L10.9017211,6.6647893 C10.9009964,6.29666965 10.6031673,5.99956521 10.2357723,6.00028986 C9.86910197,6.00028986 9.57127288,6.2973943 9.57127288,6.6647893 L9.57127288,7.23146168 L6.16544148,7.23146168 C5.80239435,7.22783845 5.50456526,7.51769644 5.50021739,7.88074358 L5.50021739,7.89596112 L5.50021739,22.7432121 C5.50891313,23.1033606 5.80311899,23.3910447 6.16326755,23.3917694 L6.16326755,23.3917694 Z" id="path-1"></path>
    </defs>
    <g id="Symbols" stroke="none" stroke-width="1" fill="none" fill-rule="evenodd">
        <g id="ðŸ¼Icons/ðŸ¼Calendar" transform="translate(-5.000000, -6.000000)">
            <mask id="mask-2" fill="white">
                <use xlink:href="#path-1"></use>
            </mask>
            <use id="icon51" fill="#35447D" xlink:href="#path-1"></use>
        </g>
    </g>
</svg>