<?xml version="1.0" encoding="UTF-8" standalone="no"?>
<svg width="18px" height="18px" viewBox="0 0 18 18" version="1.1" xmlns="http://www.w3.org/2000/svg" xmlns:xlink="http://www.w3.org/1999/xlink">
    <!-- Generator: Sketch 47.1 (45422) - http://www.bohemiancoding.com/sketch -->
    <title>icon49</title>
    <desc>Created with Sketch.</desc>
    <defs>
        <path d="M15,23.875 C10.0984728,23.875 6.125,19.9015272 6.125,15 C6.125,10.0984728 10.0984728,6.125 15,6.125 C19.9015272,6.125 23.875,10.0984728 23.875,15 C23.875,19.9015272 19.9015272,23.875 15,23.875 Z M15,22.6916667 C19.2479902,22.6916667 22.6916667,19.2479902 22.6916667,15 C22.6916667,10.7520098 19.2479902,7.30833333 15,7.30833333 C10.7520098,7.30833333 7.30833333,10.7520098 7.30833333,15 C7.30833333,19.2479902 10.7520098,22.6916667 15,22.6916667 Z M13.9902856,18.7168951 C13.8571776,18.8576093 13.6723108,18.9384254 13.4782195,18.9384254 C13.2834295,18.9384254 13.0976637,18.8569938 12.9674821,18.7173571 L9.92092399,15.5076124 C9.65506382,15.2219924 9.65506382,14.7780076 9.91943979,14.4939915 C10.051993,14.3499119 10.2385205,14.2686575 10.4341634,14.2686575 C10.6304455,14.2686575 10.8170521,14.3497243 10.9457686,14.4897015 L13.478228,17.1573112 L19.0507173,11.2877995 C19.1831681,11.1438312 19.3696504,11.0615746 19.565441,11.0615746 C19.7618652,11.0615746 19.9484321,11.1436436 20.0795712,11.2861956 C20.3454314,11.5718157 20.3454314,12.0149095 20.0770881,12.3031715 L13.9902856,18.7168951 Z" id="path-1"></path>
    </defs>
    <g id="Symbols" stroke="none" stroke-width="1" fill="none" fill-rule="evenodd">
        <g id="ðŸ¼Icons/ðŸ¼Check-3" transform="translate(-6.000000, -6.000000)">
            <mask id="mask-2" fill="white">
                <use xlink:href="#path-1"></use>
            </mask>
            <use id="icon49" fill="#35447D" fill-rule="nonzero" xlink:href="#path-1"></use>
        </g>
    </g>
</svg>