<?xml version="1.0" encoding="UTF-8" standalone="no"?>
<svg width="23px" height="17px" viewBox="0 0 23 17" version="1.1" xmlns="http://www.w3.org/2000/svg" xmlns:xlink="http://www.w3.org/1999/xlink">
    <!-- Generator: Sketch 47.1 (45422) - http://www.bohemiancoding.com/sketch -->
    <title>icon50</title>
    <desc>Created with Sketch.</desc>
    <defs>
        <path d="M11.9304298,23.7132346 C11.7173361,23.7132346 11.5146881,23.623401 11.3705365,23.4688036 L4.23189613,15.947848 C3.92270129,15.6156724 3.92270129,15.0975622 4.23189613,14.7653866 C4.37604778,14.6087001 4.57869575,14.5209556 4.79178949,14.5209556 C5.00697239,14.5209556 5.20962036,14.6087001 5.353772,14.7653866 L11.9304298,21.6930224 L25.645728,7.24652021 C25.7898796,7.08983364 25.9925276,7 26.2056214,7 C26.4208043,7 26.6234522,7.08983364 26.7676039,7.24652021 C27.0767987,7.57869575 27.0767987,8.09471687 26.7676039,8.42689241 L12.4924123,23.4688036 C12.3461715,23.623401 12.1435236,23.7132346 11.9304298,23.7132346" id="path-1"></path>
    </defs>
    <g id="Symbols" stroke="none" stroke-width="1" fill="none" fill-rule="evenodd">
        <g id="ðŸ¼Icons/ðŸ¼Check" transform="translate(-4.000000, -7.000000)">
            <mask id="mask-2" fill="white">
                <use xlink:href="#path-1"></use>
            </mask>
            <use id="icon50" fill="#35447D" xlink:href="#path-1"></use>
        </g>
    </g>
</svg>