<?xml version="1.0" encoding="UTF-8" standalone="no"?>
<svg width="22px" height="15px" viewBox="0 0 22 15" version="1.1" xmlns="http://www.w3.org/2000/svg" xmlns:xlink="http://www.w3.org/1999/xlink">
    <!-- Generator: Sketch 47.1 (45422) - http://www.bohemiancoding.com/sketch -->
    <title>icon5</title>
    <desc>Created with Sketch.</desc>
    <defs>
        <path d="M20.1190644,17.0822289 C20.1339231,17.1435213 20.1945964,17.1819064 20.2565079,17.1701432 L20.585258,17.1701432 C20.5858771,17.1707623 20.5864962,17.1707623 20.5871154,17.1707623 C20.6502651,17.1819064 20.7109384,17.1398066 20.7227016,17.0766568 L21.3040506,15.3827581 C21.3300534,15.3103216 21.3151947,15.2731747 21.2278994,15.2737938 L20.9307242,15.2737938 C20.8025674,15.2737938 20.7617058,15.3035113 20.741275,15.3858536 L20.4930099,16.3021439 C20.4645306,16.4142037 20.445338,16.52874 20.4385277,16.6445145 L20.4150014,16.6445145 C20.4038573,16.5281209 20.3846647,16.4129655 20.3568046,16.2996674 L20.1085394,15.3858536 C20.0874895,15.3035113 20.0460088,15.2737938 19.9110417,15.2737938 L19.61139,15.2737938 C19.5352389,15.2737938 19.5086169,15.3109407 19.5352389,15.3833772 L20.1190644,17.0822289 Z M18.7347231,17.2097666 C19.067807,17.2481517 19.3841748,17.0556069 19.503664,16.7423347 C19.5110934,16.7305715 19.5148081,16.716951 19.5166654,16.7033305 C19.5222375,16.6513248 19.4844715,16.604272 19.4324658,16.5980809 L19.1507684,16.496546 C19.0702835,16.4674476 19.0399469,16.4860211 19.0077529,16.5689825 C18.9699869,16.6841379 18.8554506,16.7571935 18.7347231,16.7423347 C18.7087203,16.7472876 18.6820984,16.7479067 18.6554764,16.744192 C18.5198902,16.7249995 18.4257847,16.5999382 18.4449773,16.464352 L18.4449773,15.9783467 C18.4406435,15.9523439 18.4412626,15.925722 18.4462155,15.8997191 C18.4709801,15.764752 18.5997561,15.6762186 18.7347231,15.7009832 C18.8554506,15.6855053 18.9699869,15.7579418 19.0077529,15.8737163 C19.0089911,15.8885751 19.013944,15.9034338 19.0219925,15.9158161 C19.0486145,15.9597733 19.1061922,15.9733938 19.1507684,15.9461528 L19.4324658,15.8446179 C19.4454672,15.8433797 19.4584686,15.8384267 19.4696127,15.8316165 C19.5148081,15.8049945 19.530286,15.7461786 19.503664,15.7009832 C19.3841748,15.387711 19.067807,15.1945471 18.7347231,15.2329322 C18.6895277,15.2267411 18.6443323,15.2248837 18.5991369,15.2273602 C18.2041415,15.2490292 17.9020134,15.5864469 17.9230633,15.9808232 L17.9230633,16.4618756 C17.9205868,16.507071 17.9224442,16.5522664 17.9286353,16.5968427 C17.9818792,16.9887425 18.3428233,17.2630105 18.7347231,17.2097666 L18.7347231,17.2097666 Z M24.6472718,10.0503202 L5.35193227,10.0503202 L5.35193227,9.60517643 C5.34759846,8.87338245 5.93637687,8.27593643 6.66755174,8.26974528 L23.3316524,8.26974528 C24.0634464,8.27593643 24.6516056,8.87276333 24.6472718,9.60455732 L24.6472718,10.0503202 Z M5.35193227,12.7199442 L24.6472718,12.7199442 L24.6472718,10.9399885 L5.35193227,10.9399885 L5.35193227,12.7199442 Z M24.6472718,19.3946236 C24.6516056,20.1264176 24.0634464,20.7232445 23.3316524,20.7300547 L6.66755174,20.7300547 C5.93637687,20.7232445 5.34759846,20.1264176 5.35193227,19.3946236 L5.35193227,13.6102317 L24.6472718,13.6102317 L24.6472718,19.3946236 Z M23.3316524,7.38007695 L6.66755174,7.38007695 C5.44851422,7.39060191 4.46783598,8.38613891 4.47464625,9.60517643 L4.47464625,19.3946236 C4.46783598,20.6136611 5.44851422,21.6091981 6.66755174,21.619723 L23.3316524,21.619723 C24.551309,21.6091981 25.5319872,20.6136611 25.5245579,19.3946236 L25.5245579,9.60517643 C25.5319872,8.38613891 24.551309,7.39060191 23.3316524,7.38007695 L23.3316524,7.38007695 Z M17.4760622,17.9050328 L23.6672127,17.9050328 L23.6672127,14.8094575 L17.4760622,14.8094575 L17.4760622,17.9050328 Z M16.8569472,18.5241478 L24.2863278,18.5241478 L24.2863278,14.1903425 L16.8569472,14.1903425 L16.8569472,18.5241478 Z M7.54421865,17.1701432 L11.0527436,17.1701432 C11.2985323,17.1701432 11.4978873,16.970169 11.4978873,16.7249995 C11.4978873,16.4792108 11.2985323,16.2798558 11.0527436,16.2798558 L7.54421865,16.2798558 C7.29842998,16.2798558 7.09969405,16.4792108 7.09969405,16.7256186 C7.09969405,16.9707882 7.29842998,17.1701432 7.54421865,17.1701432 L7.54421865,17.1701432 Z M7.54421865,18.950099 L13.6839826,18.950099 C13.9297713,18.950099 14.1291263,18.7501248 14.1291263,18.5049552 C14.1291263,18.2591666 13.9297713,18.0598115 13.6839826,18.0598115 L7.54421865,18.0598115 C7.29842998,18.0598115 7.09969405,18.2591666 7.09969405,18.5055744 C7.09969405,18.7507439 7.29842998,18.950099 7.54421865,18.950099 L7.54421865,18.950099 Z M21.914498,17.0822289 C21.9293568,17.1435213 21.9894109,17.1819064 22.0513224,17.1701432 L22.3806917,17.1701432 C22.3813108,17.1707623 22.3819299,17.1707623 22.382549,17.1707623 C22.4456987,17.1819064 22.506372,17.1398066 22.5175161,17.0766568 L23.0994842,15.3827581 C23.1254871,15.3103216 23.1100092,15.2731747 23.022714,15.2737938 L22.7255387,15.2737938 C22.5973819,15.2737938 22.5571394,15.3035113 22.5354704,15.3858536 L22.2878244,16.3021439 C22.258726,16.4142037 22.2407717,16.52874 22.2327232,16.6445145 L22.2091968,16.6445145 C22.1986718,16.5281209 22.1794793,16.4129655 22.1516191,16.2996674 L21.9045922,15.3858536 C21.8835423,15.3035113 21.8408233,15.2737938 21.7064754,15.2737938 L21.4062046,15.2737938 C21.3300534,15.2737938 21.3034315,15.3109407 21.3300534,15.3833772 L21.914498,17.0822289 Z" id="path-1"></path>
    </defs>
    <g id="Symbols" stroke="none" stroke-width="1" fill="none" fill-rule="evenodd">
        <g id="ðŸ¼Icons/ðŸ¼Payment-Method-Card" transform="translate(-4.000000, -7.000000)">
            <mask id="mask-2" fill="white">
                <use xlink:href="#path-1"></use>
            </mask>
            <use id="icon5" fill="#35447d" xlink:href="#path-1"></use>
        </g>
    </g>
</svg>