<?xml version="1.0" encoding="UTF-8" standalone="no"?>
<svg width="16px" height="19px" viewBox="0 0 16 19" version="1.1" xmlns="http://www.w3.org/2000/svg" xmlns:xlink="http://www.w3.org/1999/xlink">
    <!-- Generator: Sketch 47.1 (45422) - http://www.bohemiancoding.com/sketch -->
    <title>Icon61</title>
    <desc>Created with Sketch.</desc>
    <defs>
        <path d="M22.6750187,9.15091875 L22.6750187,9.86412959 C22.6750187,10.0647201 22.5191591,10.220735 22.3187683,10.220735 L21.250017,10.220735 L21.250017,20.7851705 C21.250017,22.0110016 20.4484535,23.05853 19.4687649,23.05853 L10.2062538,23.05853 C9.22656515,23.05853 8.4250017,22.0555773 8.4250017,20.8297461 L8.4250017,10.220735 L7.35625042,10.220735 C7.15585956,10.220735 7,10.0647201 7,9.86412959 L7,9.15091875 C7,8.95032821 7.15585956,8.79431334 7.35625042,8.79431334 L10.7962936,8.79431334 L11.5755914,6.93327882 C11.7982479,6.38722677 12.4662175,5.94147 13.0562572,5.94147 L16.6187615,5.94147 C17.2088012,5.94147 17.8767708,6.38722677 18.0994273,6.93327882 L18.8787251,8.79431334 L22.3187683,8.79431334 C22.5191591,8.79431334 22.6750187,8.95032821 22.6750187,9.15091875 Z M19.8250153,20.7851705 L19.8250153,10.220735 L9.8500034,10.220735 L9.8500034,20.7851705 C9.8500034,21.3200786 10.1505897,21.6321083 10.2062538,21.6321083 L19.4687649,21.6321083 C19.524429,21.6321083 19.8250153,21.3200786 19.8250153,20.7851705 Z M18.4000136,12.7169729 L18.4000136,19.1358704 C18.4000136,19.336461 18.244154,19.4924758 18.0437632,19.4924758 L17.3312623,19.4924758 C17.1308715,19.4924758 16.9750119,19.336461 16.9750119,19.1358704 L16.9750119,12.7169729 C16.9750119,12.5163824 17.1308715,12.3603675 17.3312623,12.3603675 L18.0437632,12.3603675 C18.244154,12.3603675 18.4000136,12.5163824 18.4000136,12.7169729 Z M15.5500102,12.7169729 L15.5500102,19.1358704 C15.5500102,19.336461 15.3941506,19.4924758 15.1937598,19.4924758 L14.4812589,19.4924758 C14.2808681,19.4924758 14.1250085,19.336461 14.1250085,19.1358704 L14.1250085,12.7169729 C14.1250085,12.5163824 14.2808681,12.3603675 14.4812589,12.3603675 L15.1937598,12.3603675 C15.3941506,12.3603675 15.5500102,12.5163824 15.5500102,12.7169729 Z M12.7000068,12.7169729 L12.7000068,19.1358704 C12.7000068,19.336461 12.5441472,19.4924758 12.3437564,19.4924758 L11.6312555,19.4924758 C11.4308647,19.4924758 11.2750051,19.336461 11.2750051,19.1358704 L11.2750051,12.7169729 C11.2750051,12.5163824 11.4308647,12.3603675 11.6312555,12.3603675 L12.3437564,12.3603675 C12.5441472,12.3603675 12.7000068,12.5163824 12.7000068,12.7169729 Z" id="path-1"></path>
    </defs>
    <g id="Symbols" stroke="none" stroke-width="1" fill="none" fill-rule="evenodd">
        <g id="ðŸ¼Icons/ðŸ¼Trash" transform="translate(-7.000000, -5.000000)">
            <mask id="mask-2" fill="white">
                <use xlink:href="#path-1"></use>
            </mask>
            <use id="Icon61" fill="#35447D" xlink:href="#path-1"></use>
        </g>
    </g>
</svg>