<?xml version="1.0" encoding="UTF-8" standalone="no"?>
<svg width="18px" height="19px" viewBox="0 0 18 19" version="1.1" xmlns="http://www.w3.org/2000/svg" xmlns:xlink="http://www.w3.org/1999/xlink">
    <!-- Generator: Sketch 47.1 (45422) - http://www.bohemiancoding.com/sketch -->
    <title>icon52</title>
    <desc>Created with Sketch.</desc>
    <defs>
        <path d="M10.4451137,24.7031712 C9.20653603,24.7031712 8.1744035,24.2471758 7.34868508,23.3351712 C6.474395,22.4485001 6.02511377,21.3971773 6.00082794,20.1811712 C5.9765421,18.9651651 6.486537,17.7618438 7.53082794,16.5711712 L16.5651137,7.14717119 C17.5365471,6.13383279 18.5929651,5.79183621 19.7343994,6.12117119 C20.2686878,6.27317195 20.7483258,6.57083564 21.1733279,7.01417119 C21.5983301,7.45750674 21.8836844,7.95783507 22.0293994,8.51517119 C22.3451152,9.73117727 22.0172614,10.8458328 21.0458279,11.8591712 L12.4122565,20.8651712 C11.9265398,21.3718404 11.3922594,21.6631708 10.8093994,21.7391712 C10.2265393,21.7898381 9.74082988,21.6125066 9.35225651,21.2071712 C8.98796897,20.9031697 8.82404204,20.4345077 8.8604708,19.8011712 C8.89689955,19.1678347 9.18225384,18.5851739 9.71654222,18.0531712 L15.7636851,11.7071712 C16.0551151,11.3778362 16.3586835,11.3778362 16.6743994,11.7071712 C16.9901152,12.0365062 16.9901152,12.3531697 16.6743994,12.6571712 L10.6272565,18.9651712 C10.0929681,19.5225073 9.97154077,19.9658362 10.2629708,20.2951712 C10.4086858,20.396505 10.5543986,20.4345047 10.7001137,20.4091712 C10.9915437,20.3585043 11.2708266,20.1938393 11.5379708,19.9151712 L20.1715422,10.9091712 C20.7786881,10.2758347 20.9851146,9.59184153 20.7908279,8.85717119 C20.5965413,8.09716739 20.1351173,7.61583887 19.4065422,7.41317119 C18.7508247,7.23583697 18.0951169,7.46383469 17.4393994,8.09717119 L8.44154222,17.4831712 C7.64010965,18.4458427 7.2515421,19.3515003 7.27582794,20.2001712 C7.30011377,21.0488421 7.6158249,21.7898347 8.2229708,22.4231712 C8.83011669,23.0311742 9.54046673,23.3478377 10.3540422,23.3731712 C11.1676177,23.3985047 12.0236806,23.0058419 12.9222565,22.1951712 L21.9565422,12.8091712 C22.2479723,12.5051697 22.5515406,12.5051697 22.8672565,12.8091712 C23.1829724,13.0878393 23.1829724,13.3918362 22.8672565,13.7211712 L13.8329708,23.1451712 C12.8372515,24.1838431 11.7079771,24.7031712 10.4451137,24.7031712 L10.4451137,24.7031712 Z" id="path-1"></path>
    </defs>
    <g id="Symbols" stroke="none" stroke-width="1" fill="none" fill-rule="evenodd">
        <g id="ðŸ¼Icons/ðŸ¼Attachment" transform="translate(-6.000000, -6.000000)">
            <mask id="mask-2" fill="white">
                <use xlink:href="#path-1"></use>
            </mask>
            <use id="icon52" fill="#35447d" xlink:href="#path-1"></use>
        </g>
    </g>
</svg>