<?xml version="1.0" encoding="UTF-8" standalone="no"?>
<svg width="18px" height="18px" viewBox="0 0 18 18" version="1.1" xmlns="http://www.w3.org/2000/svg" xmlns:xlink="http://www.w3.org/1999/xlink">
    <!-- Generator: Sketch 47.1 (45422) - http://www.bohemiancoding.com/sketch -->
    <title>icon41</title>
    <desc>Created with Sketch.</desc>
    <defs>
        <path d="M15.262511,10 L19.8937666,14.6358704 L10.6312555,23.9076112 L6,23.9076112 L6,19.2717408 L15.262511,10 Z M15.8636836,12.1396325 C15.8636836,11.9947615 15.7634882,11.8944663 15.6187615,11.8944663 C15.5519645,11.8944663 15.4851676,11.9167541 15.4295034,11.9724737 L9.39551186,18.012478 C9.33984773,18.0681975 9.31758208,18.1350611 9.31758208,18.2019246 C9.31758208,18.3467955 9.41777751,18.4470908 9.56250425,18.4470908 C9.6293012,18.4470908 9.69609816,18.424803 9.75176228,18.3690834 L15.7857539,12.3290791 C15.841418,12.2733595 15.8636836,12.206496 15.8636836,12.1396325 Z M10.0412158,22.4811896 L11.0543029,21.4670929 L8.43808884,18.8482719 L7.4250017,19.8623686 L7.4250017,21.0547679 L8.8500034,21.0547679 L8.8500034,22.4811896 L10.0412158,22.4811896 Z M23.449831,10.3816894 C23.449831,10.7605827 23.2939715,11.128332 23.0379165,11.3846422 L21.1898674,13.2345328 L16.5586119,8.59866235 L18.406661,6.75991567 C18.662716,6.49246161 19.0300992,6.33644674 19.4086153,6.33644674 C19.7871314,6.33644674 20.1545146,6.49246161 20.4217024,6.75991567 L23.0379165,9.36759278 C23.2939715,9.63504684 23.449831,10.0027962 23.449831,10.3816894 Z" id="path-1"></path>
    </defs>
    <g id="Symbols" stroke="none" stroke-width="1" fill="none" fill-rule="evenodd">
        <g id="ðŸ¼Icons/ðŸ¼Edit-pencil" transform="translate(-6.000000, -6.000000)">
            <mask id="mask-2" fill="white">
                <use xlink:href="#path-1"></use>
            </mask>
            <use id="icon41" fill="#35447D" xlink:href="#path-1"></use>
        </g>
    </g>
</svg>