<?xml version="1.0" encoding="UTF-8" standalone="no"?>
<svg width="22px" height="16px" viewBox="0 0 22 16" version="1.1" xmlns="http://www.w3.org/2000/svg" xmlns:xlink="http://www.w3.org/1999/xlink">
    <!-- Generator: Sketch 47.1 (45422) - http://www.bohemiancoding.com/sketch -->
    <title>icon36</title>
    <desc>Created with Sketch.</desc>
    <defs>
        <path d="M18.6748933,14.6423601 L23.7430421,9.61033705 L23.7430421,19.6724551 L18.6748933,14.6423601 Z M6.71522729,21.0201118 L12.2299945,15.5427259 L14.5465852,17.8408758 C14.6708616,17.9661944 14.8359163,18.0278897 14.9990291,18.0278897 C15.1640837,18.0278897 15.3271966,17.9661944 15.4534148,17.8408758 L17.7680636,15.5427259 L23.2847727,21.0201118 L6.71522729,21.0201118 Z M6.2569579,9.61226503 L11.3251067,14.6423601 L6.2569579,19.6724551 L6.2569579,9.61226503 Z M14.9990291,16.4912911 L7.43370049,8.97988819 L22.5682413,8.97988819 L14.9990291,16.4912911 Z M24.3819007,7.70935059 L5.61615748,7.70935059 C5.26274634,7.70935059 4.97535706,7.99469135 4.97535706,8.3436554 L4.97535706,21.6544166 C4.97535706,22.0053086 5.26274634,22.2906494 5.61615748,22.2906494 L24.3819007,22.2906494 C24.7372537,22.2906494 25.0246429,22.0053086 25.0246429,21.6544166 L25.0246429,8.3436554 C25.0246429,7.99469135 24.7372537,7.70935059 24.3819007,7.70935059 L24.3819007,7.70935059 Z" id="path-1"></path>
    </defs>
    <g id="Symbols" stroke="none" stroke-width="1" fill="none" fill-rule="evenodd">
        <g id="ðŸ¼Icons/ðŸ¼Mail" transform="translate(-4.000000, -7.000000)">
            <mask id="mask-2" fill="white">
                <use xlink:href="#path-1"></use>
            </mask>
            <use id="icon36" fill="#35447d" xlink:href="#path-1"></use>
        </g>
    </g>
</svg>