<?xml version="1.0" encoding="UTF-8" standalone="no"?>
<svg width="42px" height="42px" viewBox="0 0 42 42" version="1.1" xmlns="http://www.w3.org/2000/svg" xmlns:xlink="http://www.w3.org/1999/xlink">
    <!-- Generator: Sketch 47.1 (45422) - http://www.bohemiancoding.com/sketch -->
    <title>help-icon</title>
    <desc>Created with Sketch.</desc>
    <defs>
        <path d="M16.3972782,6.06272328 C17.0006657,6.06272328 17.4657699,6.23259256 17.7926048,6.57233622 C18.1194397,6.91207988 18.2828547,7.34619027 18.2828547,7.87468041 C18.2828547,8.50383534 18.0377322,9.05748337 17.5474799,9.53564111 C17.0572275,10.0137989 16.4601343,10.2528741 15.7561823,10.2528741 C15.1527948,10.2528741 14.6876906,10.0892963 14.3608557,9.76213575 C14.0340208,9.43497519 13.8831762,8.98199044 13.9083174,8.40316791 C13.9083174,7.82434537 14.1282991,7.28957171 14.5682691,6.79883086 C15.0082391,6.30809002 15.6179028,6.06272328 16.3972782,6.06272328 Z M12.5129908,24.9372767 C11.2559336,24.9372767 10.9165332,23.8173977 11.4947795,21.5776062 L12.6261254,16.7834696 C12.8021134,16.0788161 12.8021134,15.7264946 12.6261254,15.7264946 C12.4752785,15.7264946 12.1358782,15.8397408 11.6079141,16.0662366 C11.0799501,16.2927324 10.6274163,16.5318077 10.2502991,16.7834696 L9.76004921,15.9529893 C10.8914007,14.9715076 12.079302,14.1787843 13.3237887,13.5747955 C14.5682753,12.9708068 15.5173393,12.668817 16.1710091,12.668817 C17.1515137,12.668817 17.3777806,13.6880327 16.8498166,15.7264946 L15.5299131,20.7471259 C15.3287839,21.5524442 15.3664951,21.9550973 15.6430477,21.9550973 C16.1961529,21.9550973 16.9378055,21.57761 17.8680279,20.8226241 L18.4337008,21.5776062 C17.3777727,22.6597527 16.2778641,23.4902247 15.133942,24.0690473 C13.9900199,24.6478698 13.1163783,24.9372767 12.5129908,24.9372767 Z" id="path-1"></path>
    </defs>
    <g id="Design" stroke="none" stroke-width="1" fill="none" fill-rule="evenodd">
        <g id="Desktop---Begin" transform="translate(-919.000000, -13658.000000)">
            <g id="Group-29" transform="translate(54.000000, 13597.000000)">
                <g id="help-icon" transform="translate(866.000000, 62.000000)">
                    <circle id="Oval" stroke="#35447D" cx="20" cy="20" r="20"></circle>
                    <g id="ðŸ¼Icons/ðŸ¼Info" transform="translate(5.000000, 5.000000)">
                        <mask id="mask-2" fill="white">
                            <use xlink:href="#path-1"></use>
                        </mask>
                        <use id="icon40" fill="#C7C9CB" fill-rule="evenodd" xlink:href="#path-1"></use>
                        <g id="ðŸŽ¨colour/ðŸŽ¨blue-dark-official" mask="url(#mask-2)" fill-rule="evenodd" fill="#35447D">
                            <rect id="Rectangle-2" x="0" y="0" width="30" height="30"></rect>
                        </g>
                    </g>
                </g>
            </g>
        </g>
    </g>
</svg>