<?xml version="1.0" encoding="UTF-8" standalone="no"?>
<svg width="20px" height="21px" viewBox="0 0 20 21" version="1.1" xmlns="http://www.w3.org/2000/svg" xmlns:xlink="http://www.w3.org/1999/xlink">
    <!-- Generator: Sketch 47.1 (45422) - http://www.bohemiancoding.com/sketch -->
    <title>icon21</title>
    <desc>Created with Sketch.</desc>
    <defs>
        <path d="M14.9560285,22.991518 C10.3265074,22.991518 6.56017217,19.2251828 6.56017217,14.5956617 C6.56017217,9.96614062 10.3265074,6.19980538 14.9560285,6.19980538 C19.5855496,6.19980538 23.3518848,9.96614062 23.3518848,14.5956617 C23.3518848,19.2251828 19.5855496,22.991518 14.9560285,22.991518 M14.9560285,4.9443603 C9.63412675,4.9443603 5.30472709,9.27375996 5.30472709,14.5956617 C5.30472709,19.9175634 9.63412675,24.2469631 14.9560285,24.2469631 C20.2773914,24.2469631 24.6073299,19.9175634 24.6073299,14.5956617 C24.6073299,9.27375996 20.2773914,4.9443603 14.9560285,4.9443603 M18.8930073,16.1684165 C18.6009681,15.9814468 18.2130194,16.0671188 18.0260497,16.3591579 C17.419341,17.3069381 16.3864276,17.8732355 15.2624541,17.8732355 C13.4552597,17.8732355 11.9853652,16.4028021 11.9853652,14.5956078 C11.9853652,12.7884135 13.4552597,11.3179802 15.2624541,11.3179802 C16.353021,11.3179802 17.369231,11.8584143 17.980789,12.7636279 C18.1747634,13.0508177 18.5648673,13.1262521 18.8525959,12.9322778 C19.1397857,12.7383034 19.2152202,12.3476607 19.0212459,12.0604709 C18.175841,10.8093363 16.7706046,10.0625351 15.2624541,10.0625351 C12.7628791,10.0625351 10.7293813,12.095494 10.7293813,14.5956078 C10.7293813,17.0951828 12.7628791,19.1286805 15.2624541,19.1286805 C16.8169429,19.1286805 18.2453485,18.3463173 19.0837487,17.035374 C19.2707184,16.7433349 19.1850464,16.3553862 18.8930073,16.1684165" id="path-1"></path>
    </defs>
    <g id="Symbols" stroke="none" stroke-width="1" fill="none" fill-rule="evenodd">
        <g id="ðŸ¼Icons/ðŸ¼MatterType-Intellectual" transform="translate(-5.000000, -4.000000)">
            <mask id="mask-2" fill="white">
                <use xlink:href="#path-1"></use>
            </mask>
            <use id="icon21" fill="#35447d" xlink:href="#path-1"></use>
        </g>
    </g>
</svg>