<?xml version="1.0" encoding="UTF-8" standalone="no"?>
<svg width="24px" height="24px" viewBox="0 0 24 24" version="1.1" xmlns="http://www.w3.org/2000/svg" xmlns:xlink="http://www.w3.org/1999/xlink">
    <!-- Generator: Sketch 47.1 (45422) - http://www.bohemiancoding.com/sketch -->
    <title>icon34</title>
    <desc>Created with Sketch.</desc>
    <defs>
        <path d="M15.7682585,8.98954596 C15.7682585,9.41337826 15.4240725,9.75756422 15.0002402,9.75756422 C14.5764079,9.75756422 14.232222,9.41337826 14.232222,8.98954596 C14.232222,8.56571366 14.5764079,8.22057952 15.0002402,8.22057952 C15.4240725,8.22152769 15.7682585,8.56571366 15.7682585,8.98954596 L15.7682585,8.98954596 Z M13.4642037,8.98954596 C13.4642037,9.83815873 14.1516275,10.5255825 15.0002402,10.5255825 C15.8479048,10.5255825 16.5362768,9.83815873 16.5362768,8.98954596 C16.5362768,8.14093318 15.8479048,7.45350943 15.0002402,7.45350943 C14.1516275,7.4544576 13.4651519,8.14093318 13.4642037,8.98954596 L13.4642037,8.98954596 Z M25.7524959,25.6934691 L4.24798455,25.6934691 L4.24798455,25.3104082 C4.24798455,25.0980179 4.41960345,24.926399 4.63199368,24.926399 L12.6961855,24.926399 C12.9076275,24.926399 13.0801946,24.753832 13.0801946,24.5414417 C13.0801946,24.3299997 12.9076275,24.1574326 12.6961855,24.1574326 L5.40001195,24.1574326 L5.40001195,23.7743716 C5.4047528,23.5572405 5.58300889,23.3865698 5.79919181,23.3903625 L24.2012887,23.3903625 C24.4174716,23.3865698 24.5957277,23.5572405 24.6004685,23.7743716 L24.6004685,24.1574326 L17.304295,24.1574326 C17.0919048,24.1574326 16.9202859,24.3299997 16.9202859,24.5414417 C16.9202859,24.753832 17.0919048,24.926399 17.304295,24.926399 L25.3684868,24.926399 C25.580877,24.926399 25.7524959,25.0980179 25.7524959,25.3104082 L25.7524959,25.6934691 Z M6.16803021,22.2383351 C6.16803021,22.0259449 6.33964911,21.8533778 6.55203934,21.8533778 L8.85609413,21.8533778 C9.06848437,21.8533778 9.24010327,22.0259449 9.24010327,22.2383351 L9.24010327,22.6213961 L6.16803021,22.6213961 L6.16803021,22.2383351 Z M9.24010327,15.2541097 C9.38232887,15.2048049 9.51222826,15.1270549 9.6241124,15.0256006 C9.73599654,15.1270549 9.86589593,15.2048049 10.0081215,15.2541097 L10.0081215,21.1564723 C9.86589593,21.2067254 9.73599654,21.2844754 9.6241124,21.3849815 C9.51222826,21.2844754 9.3813807,21.2067254 9.24010327,21.1564723 L9.24010327,15.2541097 Z M6.93604847,21.0863077 L8.472085,21.0863077 L8.472085,15.3261707 L6.93604847,15.3261707 L6.93604847,21.0863077 Z M6.55203934,14.5572043 C6.33964911,14.5572043 6.16803021,14.3855854 6.16803021,14.1741433 L6.16803021,13.789186 L9.24010327,13.789186 L9.24010327,14.1741433 C9.24010327,14.3855854 9.06848437,14.5572043 8.85609413,14.5572043 L6.55203934,14.5572043 Z M12.6961855,14.5572043 L10.3921307,14.5572043 C10.1797404,14.5572043 10.0081215,14.3855854 10.0081215,14.1741433 L10.0081215,13.789186 L13.0801946,13.789186 L13.0801946,14.1741433 C13.0801946,14.3855854 12.9076275,14.5572043 12.6961855,14.5572043 L12.6961855,14.5572043 Z M10.7761398,21.0863077 L12.3121763,21.0863077 L12.3121763,15.3261707 L10.7761398,15.3261707 L10.7761398,21.0863077 Z M12.6961855,21.8533778 C12.9076275,21.8533778 13.0801946,22.0259449 13.0801946,22.2383351 L13.0801946,22.6213961 L10.0081215,22.6213961 L10.0081215,22.2383351 C10.0081215,22.0259449 10.1797404,21.8533778 10.3921307,21.8533778 L12.6961855,21.8533778 Z M6.02106375,13.0211678 L5.63705462,12.2531495 L24.3624777,12.2531495 L23.9794167,13.0211678 L6.02106375,13.0211678 Z M23.6276454,11.4860794 L6.37283508,11.4860794 L15.0002402,6.1763235 L23.6276454,11.4860794 Z M5.07289306,11.3827288 L4.48028637,10.7901221 L15.0002402,4.37195467 L25.5201941,10.7901221 L24.9275874,11.3827288 L15.2012524,5.39882353 C15.0779902,5.3220217 14.9224902,5.3220217 14.7992281,5.39882353 L5.07289306,11.3827288 Z M21.5283955,21.0863077 L23.064432,21.0863077 L23.064432,15.3261707 L21.5283955,15.3261707 L21.5283955,21.0863077 Z M20.7603772,22.2383351 L20.7603772,22.2383351 C20.7603772,22.0259449 20.9319961,21.8533778 21.1443864,21.8533778 L23.4484411,21.8533778 C23.6608314,21.8533778 23.8324503,22.0259449 23.8324503,22.2383351 L23.8324503,22.6213961 L20.7603772,22.6213961 L20.7603772,22.2383351 Z M19.992359,15.2541097 C20.1336364,15.2048049 20.264484,15.1270549 20.3763681,15.0256006 C20.4882522,15.1270549 20.6181516,15.2048049 20.7603772,15.2541097 L20.7603772,21.1564723 C20.6181516,21.2067254 20.4882522,21.2844754 20.3763681,21.3849815 C20.264484,21.2844754 20.1336364,21.2067254 19.992359,21.1564723 L19.992359,15.2541097 Z M19.6083498,14.5572043 L17.304295,14.5572043 C17.0919048,14.5572043 16.9202859,14.3855854 16.9202859,14.1741433 L16.9202859,13.789186 L19.992359,13.789186 L19.992359,14.1741433 C19.992359,14.3855854 19.8197919,14.5572043 19.6083498,14.5572043 L19.6083498,14.5572043 Z M17.6883042,21.0863077 L19.2243407,21.0863077 L19.2243407,15.3261707 L17.6883042,15.3261707 L17.6883042,21.0863077 Z M16.9202859,22.2383351 C16.9202859,22.0259449 17.0919048,21.8533778 17.304295,21.8533778 L19.6083498,21.8533778 C19.8197919,21.8533778 19.992359,22.0259449 19.992359,22.2383351 L19.992359,22.6213961 L16.9202859,22.6213961 L16.9202859,22.2383351 Z M13.0801946,21.1564723 L13.0801946,15.2541097 C13.5391092,15.0929207 13.8463165,14.6596067 13.8482129,14.1741433 L13.8482129,13.789186 L16.1522676,13.789186 L16.1522676,14.1741433 C16.154164,14.6596067 16.4613713,15.0929207 16.9202859,15.2541097 L16.9202859,21.1564723 C16.4613713,21.3186095 16.154164,21.7509754 16.1522676,22.2383351 L16.1522676,22.6213961 L13.8482129,22.6213961 L13.8482129,22.2383351 C13.8463165,21.7509754 13.5391092,21.3186095 13.0801946,21.1564723 L13.0801946,21.1564723 Z M23.8324503,14.1741433 L23.8324503,14.1741433 C23.8324503,14.3855854 23.6608314,14.5572043 23.4484411,14.5572043 L21.1443864,14.5572043 C20.9319961,14.5572043 20.7603772,14.3855854 20.7603772,14.1741433 L20.7603772,13.789186 L23.8324503,13.789186 L23.8324503,14.1741433 Z M25.3684868,24.1574326 L25.3684868,23.7743716 C25.3656423,23.2889082 25.058435,22.8574906 24.6004685,22.6953534 L24.6004685,22.2383351 C24.5985722,21.7509754 24.2913649,21.3186095 23.8324503,21.1564723 L23.8324503,15.2541097 C24.2913649,15.0929207 24.5985722,14.6596067 24.6004685,14.1741433 L24.6004685,13.4962013 L25.3002185,12.0967013 L26.4076819,10.9882898 C26.5574929,10.839427 26.5574929,10.5957471 26.4086301,10.4459361 C26.3868221,10.4250764 26.3621697,10.4051648 26.3365691,10.3899941 L15.2003043,3.59445469 C15.0770421,3.51860104 14.9224902,3.51860104 14.8001762,3.59445469 L3.6639114,10.3899941 C3.4828108,10.4999819 3.42497239,10.7360764 3.53590836,10.9162288 C3.55202726,10.9437258 3.57099067,10.96743 3.5927986,10.9882898 L4.70026197,12.0967013 L5.40001195,13.4962013 L5.40001195,14.1741433 C5.40096012,14.6596067 5.70911559,15.0929207 6.16803021,15.2541097 L6.16803021,21.1564723 C5.70911559,21.3186095 5.40096012,21.7509754 5.40001195,22.2383351 L5.40001195,22.6953534 C4.9420455,22.8574906 4.63483819,23.2879601 4.63199368,23.7743716 L4.63199368,24.1574326 C3.99577115,24.1583808 3.48091446,24.6741856 3.47996629,25.30946 L3.47996629,26.0774782 C3.47996629,26.2898685 3.65158518,26.4624355 3.86397542,26.4624355 L26.1365051,26.4624355 C26.3488953,26.4624355 26.5205142,26.2898685 26.5205142,26.0774782 L26.5205142,25.30946 C26.519566,24.6741856 26.0047093,24.1583808 25.3684868,24.1574326 L25.3684868,24.1574326 Z" id="path-1"></path>
    </defs>
    <g id="Symbols" stroke="none" stroke-width="1" fill="none" fill-rule="evenodd">
        <g id="ðŸ¼Icons/ðŸ¼MatterType-Administration" transform="translate(-3.000000, -3.000000)">
            <mask id="mask-2" fill="white">
                <use xlink:href="#path-1"></use>
            </mask>
            <use id="icon34" fill="#35447d" xlink:href="#path-1"></use>
        </g>
    </g>
</svg>