<?xml version="1.0" encoding="UTF-8" standalone="no"?>
<svg width="24px" height="25px" viewBox="0 0 24 25" version="1.1" xmlns="http://www.w3.org/2000/svg" xmlns:xlink="http://www.w3.org/1999/xlink">
    <!-- Generator: Sketch 47.1 (45422) - http://www.bohemiancoding.com/sketch -->
    <title>icon31</title>
    <desc>Created with Sketch.</desc>
    <defs>
        <path d="M3.15774651,2.55637928 L3.15774651,26.7240762 L21.2833303,26.7240762 L21.2833303,6.16744462 L17.6730205,2.55637928 L3.15774651,2.55637928 Z M4.16476536,3.56339813 L16.7521232,3.56339813 L16.7521232,7.08758638 L20.2778224,7.08758638 L20.2778224,25.7170574 L4.16476536,25.7170574 L4.16476536,3.56339813 Z M17.7591421,4.06652983 L19.7731798,6.08056753 L17.7591421,6.08056753 L17.7591421,4.06652983 Z M17.7597465,20.1793602 L14.7386899,20.1793602 C14.4606832,20.1793602 14.2348028,20.4044852 14.2348028,20.6824919 C14.2348028,20.9604986 14.4606832,21.1856236 14.7386899,21.1856236 L17.7597465,21.1856236 C18.0377532,21.1856236 18.2628782,20.9604986 18.2628782,20.6824919 C18.2628782,20.4044852 18.0377532,20.1793602 17.7597465,20.1793602 M6.17895415,12.1223784 C6.17895415,12.4003851 6.40407914,12.6262656 6.6828413,12.6262656 L17.7600486,12.6262656 C18.0380553,12.6262656 18.2624249,12.4003851 18.2624249,12.1223784 C18.2624249,11.8443717 18.0380553,11.6192467 17.7600486,11.6192467 L6.6828413,11.6192467 C6.40407914,11.6192467 6.17895415,11.8443717 6.17895415,12.1223784 M17.7597465,14.6403788 L6.68253912,14.6403788 C6.40453242,14.6403788 6.17865197,14.8655038 6.17865197,15.1435105 C6.17865197,15.4215172 6.40377696,15.6473977 6.68253912,15.6473977 L17.7597465,15.6473977 C18.0377532,15.6473977 18.2628782,15.4222727 18.2628782,15.1435105 C18.2628782,14.8655038 18.0377532,14.6403788 17.7597465,14.6403788 M6.68246358,9.60520905 L12.2206895,9.60520905 C12.4986962,9.60520905 12.7245767,9.3793286 12.7245767,9.1013219 C12.7245767,8.82331519 12.4986962,8.5981902 12.2206895,8.5981902 L6.68246358,8.5981902 C6.40445687,8.5981902 6.17857642,8.82331519 6.17857642,9.1013219 C6.17857642,9.3793286 6.40445687,9.60520905 6.68246358,9.60520905 M8.69650127,21.6895108 C7.86323661,21.6895108 7.18559527,21.0118694 7.18559527,20.1793602 C7.18559527,19.3453401 7.86323661,18.6684542 8.69650127,18.6684542 C9.52976593,18.6684542 10.2074073,19.3453401 10.2074073,20.1793602 C10.2074073,21.0118694 9.52976593,21.6895108 8.69650127,21.6895108 L8.69650127,21.6895108 Z M9.20038842,23.3129793 L9.01454699,23.2517876 L8.69650127,23.1460242 L8.37770011,23.2517876 L8.19261412,23.3129793 L8.19261412,22.6459143 C8.35579197,22.6791542 8.52350254,22.6957742 8.69650127,22.6957742 C8.86950001,22.6957742 9.03721058,22.6791542 9.20038842,22.6459143 L9.20038842,23.3129793 Z M8.69650127,17.6614354 C7.30646775,17.6614354 6.17857642,18.7878158 6.17857642,20.1793602 C6.17857642,21.002804 6.5744338,21.7340825 7.18559527,22.1926425 L7.18559527,24.7105673 L8.69650127,24.2059247 L10.2074073,24.7105673 L10.2074073,22.1926425 C10.8185688,21.7340825 11.2144261,21.002804 11.2144261,20.1793602 C11.2144261,18.7878158 10.0865348,17.6614354 8.69650127,17.6614354 L8.69650127,17.6614354 Z M25.3124634,21.1856236 L23.2984257,21.1856236 L23.2984257,8.59826574 C23.2984257,8.04300779 23.7501866,7.59124689 24.3046891,7.59124689 C24.8607025,7.59124689 25.3124634,8.04300779 25.3124634,8.59826574 L25.3124634,21.1856236 Z M24.3046891,24.506595 L23.4616035,23.9452934 L23.9632243,22.1926425 L24.6469093,22.1926425 L25.1485301,23.9452934 L24.3046891,24.506595 Z M26.3194822,8.59826574 C26.3194822,7.48548347 25.4182268,6.58347259 24.3046891,6.58347259 C23.1926623,6.58347259 22.2914068,7.48548347 22.2914068,8.59826574 L22.2914068,22.1926425 L22.9161665,22.1926425 L22.2914068,24.3743907 L24.3046891,25.7168307 L26.3194822,24.3743907 L25.6939671,22.1926425 L26.3194822,22.1926425 L26.3194822,8.59826574 Z M8.69650127,19.6747176 C8.41849457,19.6747176 8.19261412,19.9005981 8.19261412,20.1793602 C8.19261412,20.4566115 8.41849457,20.6824919 8.69650127,20.6824919 C8.97450798,20.6824919 9.20038842,20.4566115 9.20038842,20.1793602 C9.20038842,19.9005981 8.97450798,19.6747176 8.69650127,19.6747176" id="path-1"></path>
    </defs>
    <g id="Symbols" stroke="none" stroke-width="1" fill="none" fill-rule="evenodd">
        <g id="ðŸ¼Icons/ðŸ¼MatterType-Contract" transform="translate(-3.000000, -2.000000)">
            <mask id="mask-2" fill="white">
                <use xlink:href="#path-1"></use>
            </mask>
            <use id="icon31" fill="#35447d" xlink:href="#path-1"></use>
        </g>
    </g>
</svg>