<?xml version="1.0" encoding="UTF-8" standalone="no"?>
<svg width="21px" height="22px" viewBox="0 0 21 22" version="1.1" xmlns="http://www.w3.org/2000/svg" xmlns:xlink="http://www.w3.org/1999/xlink">
    <!-- Generator: Sketch 47.1 (45422) - http://www.bohemiancoding.com/sketch -->
    <title>icon13</title>
    <desc>Created with Sketch.</desc>
    <defs>
        <path d="M21.9886166,22.2060642 L15.8175401,22.2060642 C15.5383538,22.2060642 15.312061,21.9797714 15.312061,21.7005851 C15.312061,21.4213987 15.5383538,21.195106 15.8175401,21.195106 L21.9886166,21.195106 C22.267803,21.195106 22.4945556,21.4213987 22.4945556,21.7005851 C22.4945556,21.9797714 22.267803,22.2060642 21.9886166,22.2060642 L21.9886166,22.2060642 Z M24.5137124,24.4156379 L13.2929043,24.4156379 C13.013258,24.4156379 12.7869653,24.1893452 12.7869653,23.9096989 C12.7869653,23.6309725 13.013258,23.4042198 13.2929043,23.4042198 L24.5137124,23.4042198 C24.7928987,23.4042198 25.0191915,23.6309725 25.0191915,23.9096989 C25.0191915,24.1893452 24.7928987,24.4156379 24.5137124,24.4156379 L24.5137124,24.4156379 Z M12.0271368,9.47893758 L12.9106903,10.3624911 L16.4508838,6.82183771 L15.5677902,5.93828417 L12.0271368,9.47893758 Z M15.9302265,13.3815674 L18.2248901,15.6766908 L21.7655435,12.1355775 L17.1660976,7.5365916 L13.6254442,11.077245 L15.9201078,13.3714486 L15.9251672,13.3769679 C15.9270069,13.3788077 15.9288467,13.3806475 15.9302265,13.3815674 L15.9302265,13.3815674 Z M18.939644,16.3914447 L19.8231975,17.2749983 L23.3638509,13.7343449 L22.4802974,12.8507913 L18.939644,16.3914447 Z M4.76001237,25.0476018 C4.63076795,25.0476018 4.50152352,24.9979278 4.40263543,24.8990397 C4.20531921,24.7017235 4.20531921,24.381602 4.40263543,24.1842858 L14.8525764,13.7343449 L12.9106903,11.7919989 L12.6154059,12.0877433 C12.4176298,12.2855194 12.0975083,12.2855194 11.9001921,12.0877433 C11.7024159,11.890427 11.7024159,11.5703056 11.9001921,11.3725294 L12.1954765,11.077705 L10.954546,9.83631452 C10.7572298,9.63899829 10.7572298,9.31887686 10.954546,9.12156063 L15.2104133,4.8656934 C15.4077295,4.66837717 15.7278509,4.66837717 15.9251672,4.8656934 L17.1660976,6.10662389 L17.4613821,5.81133946 C17.6591582,5.61402324 17.9792797,5.61402324 18.1765959,5.81133946 C18.3739121,6.00865569 18.3739121,6.32877712 18.1765959,6.52655329 L17.8813115,6.82183771 L22.4802974,11.4208236 L22.7755818,11.1255392 C22.973358,10.927763 23.2934794,10.927763 23.4907956,11.1255392 C23.6881118,11.3228554 23.6881118,11.6429768 23.4907956,11.840753 L23.1955112,12.1355775 L24.4364417,13.3769679 C24.5311903,13.4717165 24.5845438,13.600501 24.5845438,13.7343449 C24.5845438,13.8686487 24.5311903,13.9969732 24.4364417,14.0917218 L20.1805744,18.347589 C19.9832582,18.5449053 19.6631368,18.5449053 19.4658206,18.347589 L18.2248901,17.1066586 L17.9291457,17.401943 C17.7318295,17.5992592 17.411708,17.5992592 17.2143918,17.401943 C17.0166157,17.2046268 17.0166157,16.8845053 17.2143918,16.6867292 L17.5096762,16.3914447 L15.5677902,14.4495587 L5.11784926,24.8990397 C5.01896118,24.9979278 4.88971675,25.0476018 4.76001237,25.0476018 L4.76001237,25.0476018 Z" id="path-1"></path>
    </defs>
    <g id="Symbols" stroke="none" stroke-width="1" fill="none" fill-rule="evenodd">
        <g id="ðŸ¼Icons/ðŸ¼MatterType-Professional-Discipline" transform="translate(-4.000000, -4.000000)">
            <mask id="mask-2" fill="white">
                <use xlink:href="#path-1"></use>
            </mask>
            <use id="icon13" fill="#35447d" xlink:href="#path-1"></use>
        </g>
    </g>
</svg>