<?xml version="1.0" encoding="UTF-8" standalone="no"?>
<svg width="26px" height="26px" viewBox="0 0 26 26" version="1.1" xmlns="http://www.w3.org/2000/svg" xmlns:xlink="http://www.w3.org/1999/xlink">
    <!-- Generator: Sketch 47.1 (45422) - http://www.bohemiancoding.com/sketch -->
    <title>icon25</title>
    <desc>Created with Sketch.</desc>
    <defs>
        <path d="M21.0612517,27.1225035 L21.0612517,24.6980028 C21.0612517,24.0296488 20.5173554,23.4857524 19.8490014,23.4857524 C19.1806474,23.4857524 18.636751,24.0296488 18.636751,24.6980028 L18.636751,27.1225035 L17.8285841,27.1225035 L17.8285841,22.5353482 C18.0128462,22.6234384 18.2169083,22.6775855 18.4347093,22.6775855 C18.8307111,22.6775855 19.1879209,22.5131236 19.4449179,22.2496612 C19.701915,22.5131236 20.0591248,22.6775855 20.4551266,22.6775855 C20.8511283,22.6775855 21.2083381,22.5131236 21.4653352,22.2496612 C21.7223323,22.5131236 22.079542,22.6775855 22.4755438,22.6775855 C22.8715456,22.6775855 23.2287554,22.5131236 23.4857524,22.2496612 C23.7427495,22.5131236 24.0999593,22.6775855 24.4959611,22.6775855 C24.8919628,22.6775855 25.2491726,22.5131236 25.5061697,22.2496612 C25.7631668,22.5131236 26.1203765,22.6775855 26.5163783,22.6775855 C26.7341793,22.6775855 26.9382414,22.6234384 27.1225035,22.5353482 L27.1225035,27.1225035 L21.0612517,27.1225035 Z M19.4449179,27.1225035 L19.4449179,24.6980028 C19.4449179,24.4745446 19.6263514,24.2939193 19.8490014,24.2939193 C20.0716514,24.2939193 20.2530848,24.4745446 20.2530848,24.6980028 L20.2530848,27.1225035 L19.4449179,27.1225035 Z M17.8285841,19.8490014 L19.0408345,19.8490014 L19.0408345,18.2326676 L17.8285841,18.2326676 L17.8285841,19.8490014 Z M23.8898359,20.6571683 L25.1020862,20.6571683 L25.1020862,21.2632935 C25.1020862,21.5970664 24.8301381,21.8694186 24.4959611,21.8694186 C24.161784,21.8694186 23.8898359,21.5970664 23.8898359,21.2632935 L23.8898359,20.6571683 Z M21.8694186,20.6571683 L23.081669,20.6571683 L23.081669,21.2632935 C23.081669,21.5970664 22.8097208,21.8694186 22.4755438,21.8694186 C22.1413668,21.8694186 21.8694186,21.5970664 21.8694186,21.2632935 L21.8694186,20.6571683 Z M19.8490014,20.6571683 L21.0612517,20.6571683 L21.0612517,21.2632935 C21.0612517,21.5970664 20.7893036,21.8694186 20.4551266,21.8694186 C20.1209496,21.8694186 19.8490014,21.5970664 19.8490014,21.2632935 L19.8490014,20.6571683 Z M19.8490014,19.8490014 L21.0612517,19.8490014 L21.0612517,18.2326676 L19.8490014,18.2326676 L19.8490014,19.8490014 Z M23.8898359,19.8490014 L25.1020862,19.8490014 L25.1020862,18.2326676 L23.8898359,18.2326676 L23.8898359,19.8490014 Z M21.8694186,19.8490014 L23.081669,19.8490014 L23.081669,18.2326676 L21.8694186,18.2326676 L21.8694186,19.8490014 Z M17.8285841,20.6571683 L19.0408345,20.6571683 L19.0408345,21.2632935 C19.0408345,21.5970664 18.7688863,21.8694186 18.4347093,21.8694186 C18.1005323,21.8694186 17.8285841,21.5970664 17.8285841,21.2632935 L17.8285841,20.6571683 Z M27.1225035,21.2632935 C27.1225035,21.5970664 26.8505553,21.8694186 26.5163783,21.8694186 C26.1822013,21.8694186 25.9102531,21.5970664 25.9102531,21.2632935 L25.9102531,20.6571683 L27.1225035,20.6571683 L27.1225035,21.2632935 Z M25.9102531,19.8490014 L27.1225035,19.8490014 L27.1225035,18.2326676 L25.9102531,18.2326676 L25.9102531,19.8490014 Z M11.7673324,11.7673324 L11.7673324,9.34283171 C11.7673324,9.11977764 11.9487659,8.93874826 12.1714159,8.93874826 C12.3940658,8.93874826 12.5754993,9.11977764 12.5754993,9.34283171 L12.5754993,11.7673324 L11.7673324,11.7673324 Z M10.1509986,7.18017709 C10.3352607,7.26867136 10.5393228,7.32241446 10.7571238,7.32241446 C11.1531256,7.32241446 11.5103353,7.1579525 11.7673324,6.89449009 C12.0243295,7.1579525 12.3815392,7.32241446 12.777541,7.32241446 C13.1735428,7.32241446 13.5307526,7.1579525 13.7877497,6.89449009 C14.0447467,7.1579525 14.4019565,7.32241446 14.7979583,7.32241446 C15.1939601,7.32241446 15.5511698,7.1579525 15.8081669,6.89449009 C16.065164,7.1579525 16.4223737,7.32241446 16.8183755,7.32241446 C17.2143773,7.32241446 17.5715871,7.1579525 17.8285841,6.89449009 C18.0855812,7.1579525 18.442791,7.32241446 18.8387928,7.32241446 C19.0565937,7.32241446 19.2606559,7.26867136 19.4449179,7.18017709 L19.4449179,11.7673324 L13.3836662,11.7673324 L13.3836662,9.34283171 C13.3836662,8.67447768 12.8397699,8.13058136 12.1714159,8.13058136 C11.5030618,8.13058136 10.9591655,8.67447768 10.9591655,9.34283171 L10.9591655,11.7673324 L10.1509986,11.7673324 L10.1509986,7.18017709 Z M10.1509986,4.49383032 L11.363249,4.49383032 L11.363249,2.87749652 L10.1509986,2.87749652 L10.1509986,4.49383032 Z M18.2326676,4.49383032 L19.4449179,4.49383032 L19.4449179,2.87749652 L18.2326676,2.87749652 L18.2326676,4.49383032 Z M18.2326676,5.30199721 L19.4449179,5.30199721 L19.4449179,5.90812239 C19.4449179,6.2422994 19.1729698,6.51424756 18.8387928,6.51424756 C18.5046158,6.51424756 18.2326676,6.2422994 18.2326676,5.90812239 L18.2326676,5.30199721 Z M16.2122503,5.30199721 L17.4245007,5.30199721 L17.4245007,5.90812239 C17.4245007,6.2422994 17.1525525,6.51424756 16.8183755,6.51424756 C16.4841985,6.51424756 16.2122503,6.2422994 16.2122503,5.90812239 L16.2122503,5.30199721 Z M14.1918331,5.30199721 L15.4040834,5.30199721 L15.4040834,5.90812239 C15.4040834,6.2422994 15.1321353,6.51424756 14.7979583,6.51424756 C14.4637813,6.51424756 14.1918331,6.2422994 14.1918331,5.90812239 L14.1918331,5.30199721 Z M12.1714159,5.30199721 L13.3836662,5.30199721 L13.3836662,5.90812239 C13.3836662,6.2422994 13.111718,6.51424756 12.777541,6.51424756 C12.443364,6.51424756 12.1714159,6.2422994 12.1714159,5.90812239 L12.1714159,5.30199721 Z M12.1714159,4.49383032 L13.3836662,4.49383032 L13.3836662,2.87749652 L12.1714159,2.87749652 L12.1714159,4.49383032 Z M14.1918331,4.49383032 L15.4040834,4.49383032 L15.4040834,2.87749652 L14.1918331,2.87749652 L14.1918331,4.49383032 Z M16.2122503,4.49383032 L17.4245007,4.49383032 L17.4245007,2.87749652 L16.2122503,2.87749652 L16.2122503,4.49383032 Z M10.1509986,5.30199721 L11.363249,5.30199721 L11.363249,5.90812239 C11.363249,6.2422994 11.0913008,6.51424756 10.7571238,6.51424756 C10.4229468,6.51424756 10.1509986,6.2422994 10.1509986,5.90812239 L10.1509986,5.30199721 Z M10.9591655,19.8490014 L12.1714159,19.8490014 L12.1714159,18.2326676 L10.9591655,18.2326676 L10.9591655,19.8490014 Z M6.11016411,27.1225035 L6.11016411,24.6980028 C6.11016411,24.0296488 5.56626779,23.4857524 4.89791377,23.4857524 C4.22955974,23.4857524 3.68566342,24.0296488 3.68566342,24.6980028 L3.68566342,27.1225035 L2.87749652,27.1225035 L2.87749652,22.5353482 C3.06175857,22.6234384 3.26582071,22.6775855 3.48362169,22.6775855 C3.87962347,22.6775855 4.23683324,22.5131236 4.49383032,22.2496612 C4.75082739,22.5131236 5.10803716,22.6775855 5.50403894,22.6775855 C5.90004072,22.6775855 6.25725049,22.5131236 6.51424756,22.2496612 C6.77124464,22.5131236 7.12845441,22.6775855 7.52445619,22.6775855 C7.92045797,22.6775855 8.27766774,22.5131236 8.53466481,22.2496612 C8.79166188,22.5131236 9.14887165,22.6775855 9.54487343,22.6775855 C9.94087521,22.6775855 10.298085,22.5131236 10.5550821,22.2496612 C10.8120791,22.5131236 11.1692889,22.6775855 11.5652907,22.6775855 C11.7830917,22.6775855 11.9871538,22.6234384 12.1714159,22.5353482 L12.1714159,27.1225035 L6.11016411,27.1225035 Z M4.49383032,27.1225035 L4.49383032,24.6980028 C4.49383032,24.4745446 4.67526378,24.2939193 4.89791377,24.2939193 C5.12056375,24.2939193 5.30199721,24.4745446 5.30199721,24.6980028 L5.30199721,27.1225035 L4.49383032,27.1225035 Z M2.87749652,19.8490014 L4.08974687,19.8490014 L4.08974687,18.2326676 L2.87749652,18.2326676 L2.87749652,19.8490014 Z M6.91833101,19.8490014 L8.13058136,19.8490014 L8.13058136,18.2326676 L6.91833101,18.2326676 L6.91833101,19.8490014 Z M8.93874826,19.8490014 L10.1509986,19.8490014 L10.1509986,18.2326676 L8.93874826,18.2326676 L8.93874826,19.8490014 Z M8.93874826,20.6571683 L10.1509986,20.6571683 L10.1509986,21.2632935 C10.1509986,21.5970664 9.87905045,21.8694186 9.54487343,21.8694186 C9.21069642,21.8694186 8.93874826,21.5970664 8.93874826,21.2632935 L8.93874826,20.6571683 Z M6.91833101,20.6571683 L8.13058136,20.6571683 L8.13058136,21.2632935 C8.13058136,21.5970664 7.8586332,21.8694186 7.52445619,21.8694186 C7.19027917,21.8694186 6.91833101,21.5970664 6.91833101,21.2632935 L6.91833101,20.6571683 Z M4.89791377,20.6571683 L6.11016411,20.6571683 L6.11016411,21.2632935 C6.11016411,21.5970664 5.83821595,21.8694186 5.50403894,21.8694186 C5.16986193,21.8694186 4.89791377,21.5970664 4.89791377,21.2632935 L4.89791377,20.6571683 Z M4.89791377,19.8490014 L6.11016411,19.8490014 L6.11016411,18.2326676 L4.89791377,18.2326676 L4.89791377,19.8490014 Z M2.87749652,20.6571683 L4.08974687,20.6571683 L4.08974687,21.2632935 C4.08974687,21.5970664 3.8177987,21.8694186 3.48362169,21.8694186 C3.14944468,21.8694186 2.87749652,21.5970664 2.87749652,21.2632935 L2.87749652,20.6571683 Z M12.1714159,21.2632935 C12.1714159,21.5970664 11.8994677,21.8694186 11.5652907,21.8694186 C11.2311137,21.8694186 10.9591655,21.5970664 10.9591655,21.2632935 L10.9591655,20.6571683 L12.1714159,20.6571683 L12.1714159,21.2632935 Z M27.5265869,17.4245007 C27.749641,17.4245007 27.9306704,17.6047219 27.9306704,17.8285841 L27.9306704,20.2530848 L27.9306704,21.2632935 L27.9306704,27.5265869 C27.9306704,27.7500451 27.749641,27.9306704 27.5265869,27.9306704 L20.6571683,27.9306704 L19.0408345,27.9306704 L17.4245007,27.9306704 C17.2014466,27.9306704 17.0204172,27.7500451 17.0204172,27.5265869 L17.0204172,21.2632935 L17.0204172,20.2530848 L17.0204172,17.8285841 C17.0204172,17.6047219 17.2014466,17.4245007 17.4245007,17.4245007 L21.4483637,17.4245007 L15,12.6732875 L8.55163631,17.4245007 L12.5754993,17.4245007 C12.7985534,17.4245007 12.9795828,17.6047219 12.9795828,17.8285841 L12.9795828,20.2530848 L12.9795828,21.2632935 L12.9795828,27.5265869 C12.9795828,27.7500451 12.7985534,27.9306704 12.5754993,27.9306704 L5.70608066,27.9306704 L4.08974687,27.9306704 L2.47341307,27.9306704 C2.250359,27.9306704 2.06932962,27.7500451 2.06932962,27.5265869 L2.06932962,21.2632935 L2.06932962,20.2530848 L2.06932962,17.8285841 C2.06932962,17.6047219 2.250359,17.4245007 2.47341307,17.4245007 L7.18987509,17.4245007 L13.7707781,12.5754993 L12.9795828,12.5754993 L11.363249,12.5754993 L9.74691516,12.5754993 C9.52386109,12.5754993 9.34283171,12.394874 9.34283171,12.1714159 L9.34283171,5.90812239 L9.34283171,4.89791377 L9.34283171,2.47341307 C9.34283171,2.24995492 9.52386109,2.06932962 9.74691516,2.06932962 L19.8490014,2.06932962 C20.0720555,2.06932962 20.2530848,2.24995492 20.2530848,2.47341307 L20.2530848,4.89791377 L20.2530848,5.90812239 L20.2530848,12.1714159 C20.2530848,12.394874 20.0720555,12.5754993 19.8490014,12.5754993 L16.2292219,12.5754993 L22.8101249,17.4245007 L27.5265869,17.4245007 Z M7.72649791,25.5060081 L7.72649791,24.2937577 L10.5550821,24.2937577 L10.5550821,25.5060081 L7.72649791,25.5060081 Z M10.9591655,23.4855908 L7.32241446,23.4855908 C7.0993604,23.4855908 6.91833101,23.6662161 6.91833101,23.8896743 L6.91833101,25.9100915 C6.91833101,26.1335496 7.0993604,26.3141749 7.32241446,26.3141749 L10.9591655,26.3141749 C11.1822196,26.3141749 11.363249,26.1335496 11.363249,25.9100915 L11.363249,23.8896743 C11.363249,23.6662161 11.1822196,23.4855908 10.9591655,23.4855908 Z M22.6775855,25.5060081 L22.6775855,24.2937577 L25.5061697,24.2937577 L25.5061697,25.5060081 L22.6775855,25.5060081 Z M25.9102531,23.4855908 L22.2735021,23.4855908 C22.050448,23.4855908 21.8694186,23.6662161 21.8694186,23.8896743 L21.8694186,25.9100915 C21.8694186,26.1335496 22.050448,26.3141749 22.2735021,26.3141749 L25.9102531,26.3141749 C26.1333072,26.3141749 26.3143366,26.1335496 26.3143366,25.9100915 L26.3143366,23.8896743 C26.3143366,23.6662161 26.1333072,23.4855908 25.9102531,23.4855908 Z M15,10.150837 L15,8.93858663 L17.8285841,8.93858663 L17.8285841,10.150837 L15,10.150837 Z M14.5959166,10.9590039 L18.2326676,10.9590039 C18.4557217,10.9590039 18.636751,10.7783786 18.636751,10.5549204 L18.636751,8.53450318 C18.636751,8.31104503 18.4557217,8.13041973 18.2326676,8.13041973 L14.5959166,8.13041973 C14.3728625,8.13041973 14.1918331,8.31104503 14.1918331,8.53450318 L14.1918331,10.5549204 C14.1918331,10.7783786 14.3728625,10.9590039 14.5959166,10.9590039 Z" id="path-1"></path>
    </defs>
    <g id="Symbols" stroke="none" stroke-width="1" fill="none" fill-rule="evenodd">
        <g id="ðŸ¼Icons/ðŸ¼MatterType-Franchise" transform="translate(-2.000000, -2.000000)">
            <mask id="mask-2" fill="white">
                <use xlink:href="#path-1"></use>
            </mask>
            <use id="icon25" fill="#35447d" xlink:href="#path-1"></use>
        </g>
    </g>
</svg>