<?xml version="1.0" encoding="UTF-8" standalone="no"?>
<svg width="24px" height="24px" viewBox="0 0 24 24" version="1.1" xmlns="http://www.w3.org/2000/svg" xmlns:xlink="http://www.w3.org/1999/xlink">
    <!-- Generator: Sketch 47.1 (45422) - http://www.bohemiancoding.com/sketch -->
    <title>icon32</title>
    <desc>Created with Sketch.</desc>
    <defs>
        <path d="M24.88095,13.12975 L24.52195,13.12975 C23.98395,11.73275 23.06895,10.46375 21.85095,9.43475 L21.85095,9.43075 C21.67195,8.79775 21.80395,8.11775 22.24795,7.40975 C22.49295,7.01875 22.49295,6.53275 22.24295,6.14675 C21.99295,5.75875 21.55395,5.55175 21.09595,5.60875 C19.39295,5.81975 18.37895,6.59475 17.78395,7.31175 C17.22195,7.15575 16.64195,7.04275 16.05695,6.97175 C15.74595,6.93375 15.46295,7.15575 15.42895,7.46675 C15.39195,7.77775 15.61295,8.06175 15.92495,8.09475 C16.57595,8.16975 17.21795,8.31175 17.83595,8.50475 C18.07595,8.58075 18.33595,8.49075 18.47795,8.28275 C18.88295,7.68475 19.68995,6.92475 21.24295,6.73175 C21.25695,6.73175 21.27595,6.72675 21.29495,6.75475 C21.31395,6.78275 21.29895,6.80175 21.29495,6.81175 C20.68095,7.78775 20.50195,8.79775 20.77095,9.74075 L20.77095,9.75575 C20.77595,9.92075 20.85095,10.07575 20.98295,10.18075 C22.22895,11.18575 23.12995,12.46375 23.59195,13.86975 C23.66795,14.10175 23.88495,14.26175 24.13095,14.26175 L24.13995,14.26175 L24.88995,14.26175 C25.14995,14.26175 25.35795,14.46975 25.35795,14.72975 L25.35795,17.27675 C25.35795,17.53675 25.14995,17.74375 24.88995,17.74375 L24.17295,17.74375 C23.92295,17.74375 23.70595,17.90475 23.63095,18.14575 C23.22395,19.47675 22.41795,20.69775 21.30395,21.68975 C21.29895,21.69375 21.29895,21.69375 21.29495,21.69775 L21.28995,21.70275 C21.24695,21.74075 21.20495,21.77475 21.16295,21.81175 C21.15795,21.81675 21.15295,21.82075 21.14795,21.82075 C19.94095,22.91575 19.81795,24.20375 19.80795,24.57175 L19.80795,24.58575 L19.80795,25.42175 L16.40595,25.42175 L16.40595,24.62375 C16.40595,24.46375 16.33995,24.31275 16.21695,24.20375 C16.09495,24.09575 15.93895,24.04375 15.77795,24.06275 C15.40095,24.10075 15.02395,24.12375 14.64595,24.12375 C14.16495,24.12375 13.67895,24.09075 13.20695,24.02875 C13.04695,24.00575 12.88095,24.05775 12.75795,24.16575 C12.63595,24.27575 12.56495,24.43075 12.56495,24.59075 L12.56495,25.42675 L9.16295,25.42675 L9.16295,25.17575 L9.16295,25.15175 C9.13495,24.53875 8.94095,22.97275 7.71895,21.71775 C7.13895,21.11775 6.61995,20.32975 6.17595,19.37175 C6.17195,19.36275 6.17195,19.35875 6.16695,19.35375 C5.90195,18.84375 5.70395,18.30575 5.56795,17.75375 C5.56795,17.74875 5.56295,17.74375 5.56295,17.73875 L5.56295,17.73075 C5.43095,17.18775 5.36395,16.63075 5.36395,16.07375 C5.36395,15.68275 5.39795,15.29075 5.46395,14.90775 C5.51595,14.60175 5.30795,14.30975 4.99695,14.25775 C4.68995,14.20475 4.39695,14.41275 4.34495,14.72475 C4.26995,15.16775 4.23195,15.62575 4.23195,16.07875 C4.23195,16.71575 4.30795,17.35775 4.45395,17.98075 C4.45395,17.98875 4.45895,18.00375 4.46395,18.01375 C4.46395,18.01375 4.46795,18.02275 4.46795,18.04175 C4.62395,18.66875 4.85495,19.28675 5.15195,19.86775 C5.64795,20.93875 6.23695,21.82575 6.90695,22.51475 C7.84595,23.48275 8.00695,24.70375 8.02995,25.19975 L8.02995,25.44075 L8.02995,25.48675 C8.02995,25.51075 8.02995,25.53475 8.03495,25.55375 C8.09195,26.12475 8.57795,26.56375 9.15295,26.56375 L12.56995,26.56375 C13.19295,26.56375 13.69695,26.05875 13.69695,25.43575 L13.69695,25.22375 C14.22095,25.26575 14.74495,25.27075 15.26895,25.24675 L15.26895,25.44075 C15.26895,26.06375 15.77395,26.56775 16.39695,26.56775 L19.81295,26.56775 C20.43595,26.56775 20.94095,26.06375 20.94095,25.44075 L20.94095,24.60575 C20.94495,24.41175 21.02095,23.47775 21.90295,22.67575 C21.94595,22.63775 21.98795,22.59975 22.03095,22.56275 C22.03495,22.55775 22.03495,22.55775 22.03995,22.55275 C22.04895,22.54275 22.06395,22.53375 22.07295,22.52475 C23.21995,21.49975 24.07895,20.24475 24.57395,18.88175 L24.88095,18.88175 C25.76295,18.88175 26.47995,18.16375 26.47995,17.28175 L26.47995,14.73375 C26.47995,13.84675 25.76295,13.12975 24.88095,13.12975 M9.06405,4.56525 C11.49905,4.56525 13.47605,6.54225 13.47605,8.97725 C13.47605,11.41225 11.49905,13.38825 9.06405,13.38825 C6.62905,13.38825 4.65205,11.41225 4.65205,8.97725 C4.65205,6.54225 6.62905,4.56525 9.06405,4.56525 M9.06405,14.52125 C12.12205,14.52125 14.60805,12.03525 14.60805,8.97725 C14.60805,5.91925 12.12205,3.43225 9.06405,3.43225 C6.00605,3.43225 3.52005,5.91925 3.52005,8.97725 C3.52005,12.03525 6.00605,14.52125 9.06405,14.52125 M6.44975,11.59065 C6.57275,11.71365 6.73475,11.77565 6.89575,11.77565 C7.05775,11.77565 7.21975,11.71365 7.34275,11.59065 L9.06375,9.86965 L10.78475,11.59065 C11.03175,11.83665 11.43175,11.83665 11.67775,11.59065 C11.79675,11.47165 11.86275,11.31365 11.86275,11.14465 C11.86275,10.97665 11.79675,10.81765 11.67775,10.69765 L9.95575,8.97765 L11.67775,7.25565 C11.79675,7.13665 11.86275,6.97865 11.86275,6.80965 C11.86275,6.64065 11.79675,6.48265 11.67775,6.36265 C11.55875,6.24365 11.39975,6.17865 11.23175,6.17865 C11.06275,6.17865 10.90475,6.24365 10.78475,6.36265 L9.06375,8.08465 L7.34275,6.36265 C7.22275,6.24365 7.06475,6.17865 6.89575,6.17865 C6.72775,6.17865 6.56875,6.24365 6.44975,6.36265 C6.20375,6.60965 6.20375,7.00965 6.44975,7.25565 L8.17175,8.97765 L6.44975,10.69765 C6.20375,10.94465 6.20375,11.34465 6.44975,11.59065" id="path-1"></path>
    </defs>
    <g id="Symbols" stroke="none" stroke-width="1" fill="none" fill-rule="evenodd">
        <g id="ðŸ¼Icons/ðŸ¼MatterType-Bankruptcy" transform="translate(-3.000000, -3.000000)">
            <mask id="mask-2" fill="white">
                <use xlink:href="#path-1"></use>
            </mask>
            <use id="icon32" fill="#35447d" xlink:href="#path-1"></use>
        </g>
    </g>
</svg>