<?xml version="1.0" encoding="UTF-8" standalone="no"?>
<svg width="22px" height="28px" viewBox="0 0 22 28" version="1.1" xmlns="http://www.w3.org/2000/svg" xmlns:xlink="http://www.w3.org/1999/xlink">
    <!-- Generator: Sketch 47.1 (45422) - http://www.bohemiancoding.com/sketch -->
    <title>icon33</title>
    <desc>Created with Sketch.</desc>
    <defs>
        <path d="M21.4652497,27.9785283 C21.1768139,27.8449508 20.9299574,27.6252681 20.7662595,27.3420707 C20.7656047,27.3410885 20.7646225,27.339779 20.7639677,27.3387968 C20.760039,27.3312667 20.7554554,27.3247187 20.7505445,27.3178434 C20.7485801,27.3142421 20.745961,27.3103133 20.7430144,27.306712 C20.7387582,27.3008189 20.7341747,27.2949257 20.7292638,27.28936 C20.7256624,27.2851039 20.7223885,27.2808477 20.7191145,27.276919 C20.7148584,27.2726628 20.7102748,27.2680793 20.7060187,27.2634957 C20.7011077,27.2592396 20.6965242,27.2543286 20.6919406,27.2497451 C20.6883393,27.2467985 20.6840831,27.2435246 20.6804818,27.2402506 C20.6742613,27.2353397 20.6683681,27.2304287 20.6621476,27.2258452 C20.6585463,27.223226 20.6549449,27.2209343 20.6513436,27.2186425 C20.6444682,27.2137316 20.6375929,27.2088206 20.6303902,27.2048919 C20.6290806,27.2042371 20.6280984,27.2032549 20.6267889,27.2026001 C20.6241697,27.2009631 20.6208957,27.1996535 20.6176218,27.1980166 C20.6110739,27.1940878 20.6041986,27.1908138 20.5976506,27.1875399 C20.5920849,27.1849207 20.5865192,27.1826289 20.5812808,27.1803372 L20.5639289,27.1737893 C20.5573809,27.1714975 20.550833,27.1695331 20.5442851,27.1675687 C20.5393742,27.1662592 20.5341358,27.1646222 20.5292249,27.1633126 C20.5220222,27.1616756 20.5151469,27.1600386 20.5079442,27.1587291 C20.5030332,27.1577469 20.4981223,27.1567647 20.492884,27.1561099 C20.4860086,27.1551277 20.4788059,27.1541455 20.4719306,27.1534907 C20.4663649,27.1531633 20.4611266,27.1528359 20.4555608,27.1525085 C20.4490129,27.1521811 20.4427924,27.1521811 20.4362445,27.1521811 C20.4303514,27.1521811 20.4238034,27.1521811 20.4179103,27.1525085 C20.4120172,27.1528359 20.4067789,27.1531633 20.4008857,27.1534907 C20.3943378,27.1541455 20.3871351,27.1551277 20.3805872,27.1561099 C20.3753488,27.1567647 20.3701105,27.1577469 20.3651996,27.1587291 C20.3579969,27.1600386 20.351449,27.1616756 20.3442462,27.1633126 C20.3390079,27.1649496 20.3337696,27.1662592 20.3285312,27.1675687 C20.3223107,27.1695331 20.3157628,27.1714975 20.3095423,27.1737893 C20.3036492,27.176081 20.297756,27.1783728 20.2918629,27.1806646 C20.2862972,27.1829563 20.2810588,27.1849207 20.2758205,27.1875399 C20.2689452,27.1908138 20.2620699,27.1944152 20.255522,27.1980166 C20.252248,27.1996535 20.2493014,27.2009631 20.2460275,27.2026001 C20.2450453,27.2035823 20.2440631,27.2042371 20.2430809,27.2048919 C20.2355508,27.2088206 20.2290029,27.2137316 20.2218002,27.2186425 C20.2181988,27.2212617 20.2145975,27.223226 20.2109961,27.2258452 C20.2047756,27.2304287 20.1988825,27.2353397 20.192662,27.2402506 L20.1812031,27.2497451 C20.1762922,27.2543286 20.172036,27.2592396 20.1674525,27.2634957 C20.1628689,27.2680793 20.1586128,27.2726628 20.1543566,27.276919 C20.1504279,27.2808477 20.1474813,27.2851039 20.1442074,27.28936 C20.1392964,27.2949257 20.1347129,27.3008189 20.1301294,27.306712 C20.1271828,27.3106407 20.124891,27.3145695 20.1222719,27.3178434 C20.1176883,27.3250461 20.1131048,27.3315941 20.1088486,27.3387968 C20.1081938,27.339779 20.107539,27.3410885 20.1068842,27.3420707 C19.8282704,27.8246522 19.3086932,28.1245468 18.7514654,28.1245468 C18.1942377,28.1245468 17.6749878,27.8246522 17.3960466,27.3420707 C17.3282756,27.2242082 17.2025556,27.1518537 17.0663589,27.1518537 C16.9304897,27.1518537 16.8047697,27.2242082 16.7369987,27.3420707 C16.4580574,27.8246522 15.9388076,28.1242194 15.3815799,28.1242194 C14.8243521,28.1242194 14.3051023,27.8246522 14.026161,27.3420707 C14.0255062,27.3410885 14.0248514,27.339779 14.0241967,27.3387968 C14.0199405,27.3312667 14.015357,27.3247187 14.010446,27.317516 C14.0081543,27.3139147 14.0058625,27.3103133 14.0032433,27.306712 C13.9986598,27.3008189 13.9937488,27.2945983 13.9888379,27.2890326 C13.9855639,27.2847765 13.9826174,27.2808477 13.979016,27.276919 C13.9747599,27.2723354 13.9701763,27.2677519 13.9655928,27.2631683 C13.9610093,27.2589122 13.9564257,27.2543286 13.9518422,27.2497451 C13.9482408,27.2467985 13.9439847,27.2435246 13.9403833,27.2402506 C13.9341628,27.2350123 13.9282697,27.2304287 13.9220491,27.2258452 C13.9184478,27.223226 13.9148464,27.2209343 13.9112451,27.2183151 C13.9043698,27.2137316 13.8974945,27.2088206 13.8902917,27.2048919 C13.8889822,27.2042371 13.888,27.2032549 13.8870178,27.2026001 C13.8840712,27.2009631 13.8807973,27.1996535 13.8778507,27.1976892 C13.8713028,27.1940878 13.8644275,27.1908138 13.8575522,27.1875399 C13.8519864,27.1849207 13.8467481,27.1826289 13.8415098,27.1803372 C13.8356166,27.1783728 13.8297235,27.1757536 13.823503,27.1737893 C13.8176099,27.1714975 13.811062,27.1695331 13.8048414,27.1675687 C13.7992757,27.1662592 13.7940374,27.1646222 13.788799,27.1633126 C13.7819237,27.1616756 13.7753758,27.1600386 13.7681731,27.1587291 C13.7632622,27.1577469 13.7576964,27.1567647 13.7524581,27.1557825 C13.7459102,27.1548003 13.7390349,27.1541455 13.7324869,27.1534907 C13.7265938,27.1531633 13.7210281,27.1528359 13.715135,27.1525085 C13.7092418,27.1521811 13.7030213,27.1521811 13.6971282,27.1521811 C13.6905803,27.1521811 13.683705,27.1521811 13.677157,27.1525085 C13.6719187,27.1528359 13.6670078,27.1531633 13.6617694,27.1534907 C13.6545667,27.1541455 13.6470366,27.1548003 13.6401613,27.1561099 C13.6352504,27.1567647 13.6303394,27.1574195 13.6260833,27.1584017 L13.6038204,27.1633126 C13.5992368,27.1646222 13.5943259,27.1659318 13.589415,27.1672413 C13.582867,27.1692057 13.5756643,27.1714975 13.5691164,27.1737893 C13.5635507,27.1757536 13.5583124,27.1780454 13.5527466,27.1803372 C13.5468535,27.1823016 13.5412878,27.1849207 13.5353946,27.1875399 C13.5288467,27.1908138 13.5222988,27.1940878 13.5160783,27.1973618 C13.5128043,27.1993261 13.5095304,27.2006357 13.5062564,27.2026001 C13.5052742,27.2032549 13.5039646,27.2042371 13.5026551,27.2048919 C13.4957797,27.2088206 13.4892318,27.2134042 13.4823565,27.2179877 C13.4784278,27.2206069 13.4748264,27.2228986 13.4708977,27.2258452 C13.4646771,27.2301013 13.4594388,27.2350123 13.4535457,27.2395958 C13.4496169,27.2431972 13.4453608,27.2464711 13.4411046,27.2497451 C13.4368485,27.2540012 13.4322649,27.2585848 13.4280088,27.2628409 C13.4234253,27.2677519 13.4185143,27.2723354 13.4142582,27.276919 C13.4106568,27.2808477 13.4080377,27.2847765 13.4047637,27.2887052 C13.3995254,27.2945983 13.3946144,27.3004915 13.3900309,27.306712 C13.3874117,27.3103133 13.3851199,27.3142421 13.3828282,27.317516 C13.3779172,27.3243914 13.3733337,27.3312667 13.3690775,27.3384694 C13.3684228,27.339779 13.367768,27.3407611 13.3671132,27.3420707 C13.2034152,27.6252681 12.9565588,27.8449508 12.668123,27.9785283 C11.9521083,26.6470093 11.297644,24.9062456 10.7662805,23.2817073 L11.0913846,22.9965455 C11.3212165,22.7955245 11.566436,22.5892651 11.8208225,22.3836605 C11.9845205,22.25172 12.0100574,22.0117388 11.8781168,21.8483683 C11.7458489,21.6846704 11.5061951,21.6591335 11.3424972,21.7914014 C11.0799257,22.0032265 10.8265213,22.2160338 10.5894867,22.4242576 L10.5138583,22.4903916 C10.4290628,22.2173434 10.3478686,21.9505158 10.2715854,21.6928552 C11.7910295,20.3973498 14.6852089,18.331482 16.6855976,17.3401274 L16.6855976,24.1725515 C16.6855976,24.383067 16.8564982,24.5533128 17.0663589,24.5533128 C17.2768745,24.5533128 17.4474477,24.383067 17.4474477,24.1725515 L17.4474477,17.3404548 C19.4481638,18.3318094 22.3423431,20.3973498 23.8617873,21.6928552 C23.7855041,21.9508432 23.7046373,22.2173434 23.6195144,22.4903916 L23.5438859,22.4242576 C23.0531195,21.993732 22.5148808,21.5602599 21.8993766,21.0983044 C21.7310951,20.9725844 21.4924235,21.0063061 21.3663761,21.174915 C21.2403287,21.3428691 21.2743779,21.5815407 21.4426593,21.7079155 C22.0339363,22.1512094 22.572175,22.585009 23.0416607,22.9968729 L23.3674196,23.2817073 C22.8360561,24.9059182 22.1812644,26.6470093 21.4652497,27.9785283 L21.4652497,27.9785283 Z M9.82894617,20.1337962 C10.7993475,19.18664 11.959311,18.2597823 13.174277,17.4426023 C13.1978495,17.4304886 13.2194576,17.4154284 13.2400836,17.3987312 C14.3787664,16.6378632 15.5639394,15.975214 16.685925,15.4828107 L16.685925,16.4964282 C14.6645829,17.4219763 11.7124545,19.5094523 10.0397891,20.8930272 C9.96285107,20.623253 9.89246096,20.368539 9.82894617,20.1337962 L9.82894617,20.1337962 Z M13.4738442,13.9961061 C13.4754812,13.9486337 13.5072386,13.8995243 13.5589671,13.8995243 L15.497478,13.8995243 L18.6355673,13.8995243 L18.6362221,13.8995243 L20.5744055,13.8995243 C20.6261341,13.8995243 20.6578915,13.9486337 20.6595285,13.9961061 L20.7335199,16.3883876 C19.5535853,15.6432346 18.3445124,15.0093963 17.2159788,14.5602091 C17.2149967,14.5595544 17.2136871,14.559227 17.2127049,14.5585722 C17.2107405,14.5579174 17.2091035,14.5572626 17.2071392,14.5566078 C17.2038652,14.5552982 17.2009186,14.554316 17.1976447,14.5530064 C17.1901146,14.5503873 17.1825845,14.5477681 17.1750544,14.5454763 C17.1704708,14.5441668 17.1658873,14.5431846 17.1613037,14.541875 C17.154101,14.5399106 17.1472257,14.5379462 17.1396956,14.5366366 C17.1338025,14.5353271 17.127582,14.5346723 17.1213614,14.5340175 C17.1157957,14.5333627 17.1095752,14.5320531 17.1036821,14.5313983 C17.0791274,14.5291065 17.0539179,14.5291065 17.0293632,14.5313983 C17.0234701,14.5320531 17.017577,14.5333627 17.0116838,14.5340175 C17.0054633,14.5346723 16.9992428,14.5353271 16.9933497,14.5366366 C16.9858196,14.5379462 16.9789442,14.5399106 16.9717415,14.541875 C16.967158,14.5431846 16.9625745,14.5441668 16.9579909,14.5454763 C16.9504608,14.5477681 16.9429307,14.5503873 16.935728,14.5530064 C16.932454,14.554316 16.9291801,14.5552982 16.9259061,14.5566078 C16.9242691,14.5572626 16.9223048,14.5579174 16.9206678,14.5585722 C16.9193582,14.559227 16.9180486,14.5595544 16.9170664,14.5602091 C15.7888603,15.0093963 14.5797874,15.6432346 13.3998528,16.3883876 L13.4738442,13.9961061 Z M16.0416099,11.7711239 L18.0917628,11.7711239 L18.2181376,13.1380016 L15.9152351,13.1380016 L16.0416099,11.7711239 Z M16.1915572,10.1531335 L17.9421429,10.1531335 L18.0210453,11.0096011 L16.112,11.0096011 L16.1915572,10.1531335 Z M20.9577861,17.4419475 C22.1734069,18.2591275 23.3336978,19.1863126 24.3044265,20.1337962 C24.2409117,20.368539 24.1705216,20.623253 24.0935836,20.8930272 C22.4209182,19.5094523 19.4687897,17.4219763 17.4474477,16.4964282 L17.4474477,15.4828107 C18.5694333,15.975214 19.7542789,16.6378632 20.8936165,17.3987312 C20.9132602,17.415101 20.9348684,17.4295064 20.9577861,17.4419475 L20.9577861,17.4419475 Z M25.4915639,28.1242194 C25.701752,28.1242194 25.8723253,28.2947927 25.8723253,28.5049808 C25.8723253,28.7154963 25.701752,28.8857422 25.4915639,28.8857422 C24.8492132,28.8857422 24.2405843,28.6179324 23.8064574,28.1628521 C23.3726579,28.6179324 22.764029,28.8857422 22.1216783,28.8857422 C21.9330983,28.8857422 21.7471375,28.8624971 21.5680519,28.8182986 C21.5543013,28.8160069 21.5408781,28.8127329 21.5274549,28.8081494 C21.1123169,28.697817 20.7338473,28.4742056 20.4365719,28.1625247 C20.002445,28.6179324 19.3941435,28.8857422 18.7514654,28.8857422 C18.1091147,28.8857422 17.5008132,28.6179324 17.0663589,28.1628521 C16.6325594,28.6179324 16.0242579,28.8857422 15.3815799,28.8857422 C14.7392292,28.8857422 14.1309277,28.617605 13.6964734,28.1625247 C13.397561,28.47617 13.0158174,28.7007635 12.5974055,28.8104411 C12.5885658,28.8130603 12.5797261,28.8153521 12.5708865,28.8173165 C12.3898365,28.8621697 12.2022387,28.8857422 12.0116943,28.8857422 C11.3690163,28.8857422 10.7607148,28.6179324 10.3269153,28.1628521 C9.89246096,28.6179324 9.28415946,28.8857422 8.64180879,28.8857422 C8.43129326,28.8857422 8.26104741,28.7154963 8.26104741,28.5049808 C8.26104741,28.2947927 8.43129326,28.1242194 8.64180879,28.1242194 C9.19903654,28.1242194 9.71828637,27.8246522 9.99722763,27.3420707 C10.0649986,27.2242082 10.1907186,27.1518537 10.3269153,27.1518537 C10.4631119,27.1518537 10.5885045,27.2242082 10.6562755,27.3420707 C10.9132812,27.7866743 11.3742546,28.0754374 11.8810634,28.1183263 C11.1565364,26.7154351 10.5007625,24.9373482 9.97332774,23.3049524 C9.96612503,23.2862909 9.95957711,23.2676293 9.95532097,23.2486404 C9.78081897,22.7061454 9.62039501,22.1800203 9.47699562,21.6902361 C9.47273947,21.6784498 9.46913812,21.6663362 9.46651895,21.6538951 C9.29856488,21.0809524 9.15385591,20.5584286 9.03566601,20.1174264 C9.00063465,19.9861407 9.03828517,19.8460152 9.13421216,19.7497608 C10.1344065,18.7498939 11.3457712,17.7670515 12.6222876,16.8981429 L12.7126489,13.972861 C12.7273817,13.5046849 13.0986486,13.1380016 13.5589671,13.1380016 L15.1504384,13.1380016 L15.3144637,11.3661352 C15.3147911,11.3576229 15.3157733,11.349438 15.3167555,11.3412531 L15.4342906,10.0706298 C15.4699768,9.68332049 15.7760919,9.39161078 16.1463766,9.39161078 L17.9869961,9.39161078 C18.3572808,9.39161078 18.6633959,9.68332049 18.6990821,10.0706298 L18.8166172,11.3409257 C18.8175994,11.349438 18.8185816,11.3576229 18.818909,11.3664626 L18.9829343,13.1380016 L20.5744055,13.1380016 C21.0343967,13.1380016 21.405991,13.5046849 21.4207238,13.9725336 L21.5110851,16.8981429 C22.7876015,17.7670515 23.9989662,18.7498939 24.9991605,19.7497608 C25.0950875,19.8460152 25.132738,19.9861407 25.0977067,20.1174264 C24.978862,20.5600656 24.8334982,21.0855359 24.6645619,21.6617526 C24.6625976,21.6709197 24.6599784,21.6800868 24.6567044,21.6892539 C24.5133051,22.1793655 24.3525537,22.7061454 24.1777243,23.2496225 C24.1731408,23.2679567 24.1672476,23.2862909 24.1600449,23.3042976 C23.6329376,24.9366934 22.9771637,26.7151077 22.2523093,28.1183263 C22.7591181,28.0754374 23.2200914,27.7866743 23.4770972,27.3420707 C23.5451955,27.2242082 23.6705881,27.1518537 23.8064574,27.1518537 C23.9426541,27.1518537 24.0683741,27.2242082 24.1364724,27.3420707 C24.4150863,27.8246522 24.9343361,28.1242194 25.4915639,28.1242194 Z M22.3312117,4.70317118 L11.1270707,9.92775423 C10.3956684,10.2689007 9.225883,10.5439132 8.14678626,10.6293636 C7.91302562,10.6480251 7.69530738,10.6568648 7.49395893,10.6568648 C6.51111657,10.6571922 5.91165476,10.437837 5.70899672,10.0033827 C5.55381109,9.67042109 5.72503912,9.3535019 5.91361913,9.12825356 L4.12767474,6.91080143 L6.10383612,5.9891821 L9.05530976,7.11247728 L11.8925222,5.76491594 L7.4409208,1.25209147 L10.6513646,1.11425781 L16.0419373,3.82542289 L19.1764252,2.36392779 C20.2276933,1.8734888 21.7654716,1.4547495 23.1185987,2.24311872 C23.7085661,2.58688437 23.8175889,2.98303335 23.8048204,3.25444452 C23.7809205,3.77795049 23.2989938,4.25201969 22.3312117,4.70317118 Z M8.17821626,9.81382048 C9.13846831,9.72738797 10.1615804,9.48413285 10.7846147,9.19340533 L21.989083,3.96882227 C22.9712706,3.51079547 22.9954979,3.22006795 22.9954979,3.21744879 C22.9977896,3.17521472 22.9231434,3.06717409 22.7106635,2.94341846 C21.8672918,2.45166988 20.793106,2.50372582 19.5185539,3.0979493 L16.0285141,4.7254341 L10.475553,1.93242005 L9.29987446,1.98283902 L13.2695492,6.00751626 L9.09034112,7.99284473 L6.13559352,6.86823997 L5.40713774,7.20774947 L7.01530619,9.20519158 L6.72457867,9.46154254 C6.60049564,9.57056536 6.53337949,9.64783078 6.49703855,9.69759495 C6.67186793,9.79123016 7.19701089,9.90188996 8.17821626,9.81382048 Z" id="path-1"></path>
    </defs>
    <g id="Symbols" stroke="none" stroke-width="1" fill="none" fill-rule="evenodd">
        <g id="ðŸ¼Icons/ðŸ¼MatterType-Aviation" transform="translate(-4.000000, -1.000000)">
            <mask id="mask-2" fill="white">
                <use xlink:href="#path-1"></use>
            </mask>
            <use id="icon33" fill="#35447d" xlink:href="#path-1"></use>
        </g>
    </g>
</svg>