<?xml version="1.0" encoding="UTF-8" standalone="no"?>
<svg width="26px" height="26px" viewBox="0 0 26 26" version="1.1" xmlns="http://www.w3.org/2000/svg" xmlns:xlink="http://www.w3.org/1999/xlink">
    <!-- Generator: Sketch 47.1 (45422) - http://www.bohemiancoding.com/sketch -->
    <title>icon17</title>
    <desc>Created with Sketch.</desc>
    <defs>
        <path d="M26.1886794,26.184881 L14.5897768,26.184881 L14.5897768,19.5145856 L26.1886794,19.5086565 L26.1886794,26.184881 Z M9.95466267,18.5666625 C9.69303886,18.5666625 9.48107169,18.7786297 9.48107169,19.0402535 C9.48107169,19.3026185 9.69303886,19.5145856 9.95466267,19.5145856 L11.2042313,19.5145856 L11.2042313,23.388545 L6.85742217,23.388545 L6.85742217,13.4475814 L13.5277176,7.22197234 L20.198013,13.4475814 L20.198013,18.5666625 L9.95466267,18.5666625 Z M12.1521544,23.388545 L13.6418537,23.388545 L13.6418537,19.5145856 L12.1521544,19.5145856 L12.1521544,23.388545 Z M5.0816413,13.8077773 L4.03292263,12.8324319 L13.5277176,3.98984364 L23.0225125,12.8324319 L21.9730527,13.8077773 L13.8508563,6.22661604 C13.8167637,6.19474685 13.7789654,6.16880681 13.7389436,6.14953707 C13.63296,6.09691585 13.5106713,6.08579869 13.3980174,6.11766788 C13.3839357,6.1213736 13.3705951,6.1265616 13.3565133,6.13100847 C13.3016687,6.15324279 13.2497886,6.18511198 13.2038377,6.22661604 L5.0816413,13.8077773 Z M19.1945041,6.102845 L20.7501652,6.102845 L20.7501652,9.42094639 L19.1945041,7.97275114 L19.1945041,6.102845 Z M26.6630115,18.5607334 L21.1459361,18.5666625 L21.1459361,14.3325072 L21.6491728,14.8023925 C21.8307531,14.9713733 22.1123878,14.9721145 22.2954503,14.8031336 L24.0408443,13.1800284 C24.137193,13.09035 24.1920376,12.9650967 24.1920376,12.8331731 C24.1920376,12.7019906 24.137193,12.5759961 24.0408443,12.4863177 L21.6973472,10.3036488 L21.6973472,5.62925402 C21.6973472,5.36763022 21.48538,5.15492191 21.2237562,5.15492191 L18.7209131,5.15492191 C18.4585482,5.15492191 18.246581,5.36763022 18.246581,5.62925402 L18.246581,7.08930758 L13.8508563,2.99522848 C13.6685349,2.82550652 13.3869002,2.82550652 13.2045788,2.99522848 L3.01384972,12.4863177 C2.91824216,12.5759961 2.86339751,12.7019906 2.86339751,12.8331731 C2.86339751,12.9650967 2.91824216,13.09035 3.01459087,13.1800284 L4.75998483,14.8031336 C4.85114554,14.8868829 4.96676399,14.9291281 5.08238244,14.9291281 C5.19874204,14.9291281 5.31510164,14.8868829 5.4055212,14.8023925 L5.90949907,14.3325072 L5.90949907,23.862136 C5.90949907,24.1245009 6.12146624,24.3364681 6.38309005,24.3364681 L13.6418537,24.3364681 L13.6418537,26.6592132 C13.6418537,26.9200958 13.8538209,27.132063 14.1154447,27.132063 L26.6630115,27.132063 C26.9246353,27.132063 27.1366025,26.9200958 27.1366025,26.6592132 L27.1366025,19.0350655 C27.1366025,18.7727006 26.9246353,18.5607334 26.6630115,18.5607334 L26.6630115,18.5607334 Z M24.1486807,23.1725015 C23.5290844,23.4304196 23.0680929,23.9796073 22.9220875,24.6325551 L17.847475,24.6325551 C17.7259274,24.0907789 17.3879658,23.6208936 16.9225274,23.329624 L20.6890208,23.329624 C20.9506446,23.329624 21.163353,23.1176569 21.163353,22.8552919 C21.163353,22.5944093 20.9506446,22.3817009 20.6890208,22.3817009 L16.9225274,22.3817009 C17.3879658,22.0904314 17.7259274,21.619805 17.847475,21.0787699 L22.9220875,21.0787699 C23.0680929,21.7317177 23.5290844,22.2816465 24.1486807,22.5388235 L24.1486807,23.1725015 Z M24.752713,21.7391292 L24.6304243,21.7050365 C24.1857379,21.5775598 23.861858,21.1817889 23.8248008,20.7215385 L23.8114602,20.5658983 C23.7914493,20.3198385 23.5861525,20.1308468 23.3393515,20.1308468 L17.430211,20.1308468 C17.18341,20.1308468 16.9781132,20.3198385 16.9581023,20.5658983 L16.9455028,20.7215385 C16.9077045,21.1817889 16.5838246,21.5775598 16.1391382,21.7050365 L16.0168495,21.7391292 C15.8130349,21.7984207 15.6729587,21.9837066 15.6729587,22.1956738 L15.6729587,23.5163923 C15.6729587,23.7276183 15.8130349,23.9136455 16.0168495,23.9714547 L16.1391382,24.0070296 C16.5838246,24.1337652 16.9077045,24.5287949 16.9455028,24.9890453 L16.9581023,25.1446855 C16.9781132,25.3907453 17.18341,25.5804782 17.430211,25.5804782 L23.3393515,25.5804782 C23.5861525,25.5804782 23.7914493,25.3907453 23.8114602,25.1446855 L23.8248008,24.9890453 C23.861858,24.5287949 24.1857379,24.1337652 24.6304243,24.0070296 L24.752713,23.9714547 C24.9565276,23.9136455 25.0966038,23.7276183 25.0966038,23.5163923 L25.0966038,22.1956738 C25.0966038,21.9837066 24.9565276,21.7984207 24.752713,21.7391292 L24.752713,21.7391292 Z M22.7174577,22.7628713 C22.7115285,22.7324844 22.7018937,22.7028386 22.6907765,22.6746751 C22.6789182,22.6457705 22.6640953,22.6183482 22.647049,22.5931493 C22.6292615,22.5664681 22.6092507,22.5420104 22.5877575,22.5205172 C22.5662643,22.499024 22.5418066,22.4790131 22.5158665,22.4619668 C22.4899265,22.4441794 22.4625042,22.4300976 22.4343407,22.4182393 C22.4054361,22.406381 22.3757903,22.3967462 22.3461446,22.390817 C22.2846296,22.3782176 22.2216324,22.3782176 22.1608586,22.390817 C22.1304717,22.3967462 22.1000848,22.406381 22.0719213,22.4182393 C22.0430167,22.4300976 22.0155944,22.4441794 21.9903955,22.4619668 C21.9637143,22.4790131 21.9399977,22.499024 21.9177634,22.5205172 C21.8962702,22.5420104 21.8762593,22.5664681 21.859213,22.5931493 C21.8421667,22.6183482 21.8273438,22.6457705 21.8154855,22.6746751 C21.8036272,22.7028386 21.7947335,22.7324844 21.7888043,22.7628713 C21.782134,22.7932582 21.7791695,22.8243862 21.7791695,22.8555143 C21.7791695,22.8866423 21.782134,22.9177703 21.7888043,22.9481573 C21.7947335,22.9785442 21.8036272,23.0081899 21.8154855,23.0370945 C21.8273438,23.065258 21.8421667,23.0926803 21.859213,23.1178792 C21.8762593,23.1445604 21.8962702,23.1690181 21.9177634,23.1905113 C21.9399977,23.2120045 21.9637143,23.2320154 21.9903955,23.2490617 C22.0155944,23.2668491 22.0430167,23.281672 22.0719213,23.2935303 C22.1000848,23.3046475 22.1304717,23.3142824 22.1608586,23.3202115 C22.1912455,23.3268818 22.2223735,23.3298464 22.2527604,23.3298464 C22.2838885,23.3298464 22.3150165,23.3268818 22.3461446,23.3202115 C22.3757903,23.3142824 22.4054361,23.3046475 22.4343407,23.2935303 C22.4625042,23.281672 22.4899265,23.2668491 22.5158665,23.2490617 C22.5418066,23.2320154 22.5662643,23.2120045 22.5877575,23.1905113 C22.6092507,23.1690181 22.6292615,23.1445604 22.647049,23.1178792 C22.6640953,23.0926803 22.6789182,23.065258 22.6907765,23.0370945 C22.7018937,23.0081899 22.7115285,22.9785442 22.7174577,22.9481573 C22.7233868,22.9177703 22.7270925,22.8866423 22.7270925,22.8555143 C22.7270925,22.8243862 22.7233868,22.7932582 22.7174577,22.7628713 M12.0417981,16.6201962 L9.02386,16.6268665 L9.02978915,14.4790314 L12.0417981,14.4790314 L12.0417981,16.6201962 Z M12.5153891,13.5318495 L8.55693932,13.5318495 C8.29531551,13.5318495 8.08334835,13.7430755 8.0826072,14.0046993 L8.07445462,17.0997164 C8.07371348,17.226452 8.12411126,17.3472584 8.21304854,17.4369368 C8.30198581,17.5258741 8.42279227,17.5755308 8.5480456,17.5755308 L8.54952788,17.5755308 L12.5168714,17.566637 C12.777754,17.566637 12.9897212,17.3546699 12.9897212,17.0937872 L12.9897212,14.0061816 C12.9897212,13.7438166 12.7770129,13.5318495 12.5153891,13.5318495 L12.5153891,13.5318495 Z M18.0172711,16.6274594 L15.0067444,16.6274594 L15.0119324,14.4796243 L18.0232002,14.4796243 L18.0172711,16.6274594 Z M18.8340117,13.6710363 C18.7450744,13.582099 18.624268,13.5317012 18.4982735,13.5317012 L14.5398237,13.5317012 C14.2781999,13.5317012 14.0662328,13.7429272 14.0654916,14.0045511 L14.057339,17.1003093 C14.0565979,17.2263037 14.1062545,17.3471102 14.1951918,17.4367886 C14.2841291,17.5257259 14.4049355,17.5753825 14.53093,17.5753825 L18.4901209,17.5753825 C18.7510036,17.5753825 18.9629707,17.3641565 18.9637119,17.1032738 L18.9726056,14.0067745 C18.9726056,13.88078 18.922949,13.7599736 18.8340117,13.6710363 L18.8340117,13.6710363 Z M13.527347,11.7745231 C12.9433256,11.7745231 12.4682523,11.2987087 12.4682523,10.7146872 C12.4682523,10.1306658 12.9433256,9.65559256 13.527347,9.65559256 C14.1113684,9.65559256 14.5871828,10.1306658 14.5871828,10.7146872 C14.5871828,11.2987087 14.1121096,11.7745231 13.527347,11.7745231 M13.527347,8.70766947 C12.4208191,8.70766947 11.5203292,9.60815935 11.5203292,10.7146872 C11.5203292,11.8212151 12.4208191,12.7224462 13.527347,12.7224462 C14.634616,12.7224462 15.5343648,11.8212151 15.5343648,10.7146872 C15.5343648,9.60815935 14.634616,8.70766947 13.527347,8.70766947 M8.74355936,18.9717718 C8.73763021,18.9413849 8.72799534,18.9117392 8.71613704,18.8835757 C8.70427874,18.8546711 8.690197,18.8272487 8.67315069,18.8020499 C8.65610438,18.7753687 8.63609349,18.7516521 8.61385918,18.7301589 C8.59162486,18.7079246 8.56790825,18.6879137 8.54196821,18.6708674 C8.51602818,18.6530799 8.48860585,18.6389982 8.46044238,18.6263987 C8.43153777,18.6152816 8.40189201,18.6063879 8.37150511,18.5997176 C8.31073131,18.5871181 8.24773407,18.5871181 8.18621913,18.5997176 C8.15583223,18.6063879 8.12618647,18.6152816 8.09728185,18.6263987 C8.06911838,18.6389982 8.04169606,18.6530799 8.01575602,18.6708674 C7.98981598,18.6879137 7.96609938,18.7079246 7.94386506,18.7301589 C7.92163074,18.7516521 7.902361,18.7753687 7.88457355,18.8020499 C7.86752723,18.8272487 7.85270436,18.8546711 7.8415872,18.8835757 C7.82972889,18.9124803 7.82009402,18.9413849 7.81416487,18.9717718 C7.80823572,19.0028999 7.80527114,19.0332868 7.80527114,19.0644148 C7.80527114,19.0955429 7.80823572,19.1259298 7.81416487,19.1570578 C7.82009402,19.1874447 7.82972889,19.2170905 7.8415872,19.2452539 C7.85270436,19.2741585 7.86752723,19.3015809 7.88457355,19.3275209 C7.902361,19.3534609 7.92163074,19.3779187 7.94386506,19.3994119 C7.96609938,19.420905 7.98981598,19.4416571 8.01575602,19.4579622 C8.04169606,19.4757497 8.06911838,19.4898314 8.09728185,19.5024309 C8.12618647,19.513548 8.15583223,19.5231829 8.18621913,19.5291121 C8.21734717,19.5357823 8.24773407,19.5387469 8.27886212,19.5387469 C8.30999016,19.5387469 8.34111821,19.5357823 8.37150511,19.5291121 C8.40189201,19.5231829 8.43153777,19.513548 8.46044238,19.5024309 C8.48860585,19.4898314 8.51602818,19.4757497 8.54196821,19.4579622 C8.56790825,19.4416571 8.59162486,19.420905 8.61385918,19.3994119 C8.63535235,19.3779187 8.65536324,19.3534609 8.67240955,19.3275209 C8.690197,19.3015809 8.70427874,19.2741585 8.71613704,19.2452539 C8.72799534,19.2170905 8.73763021,19.1874447 8.74355936,19.1570578 C8.74948852,19.1259298 8.75319424,19.0955429 8.75319424,19.0644148 C8.75319424,19.0332868 8.74948852,19.0028999 8.74355936,18.9717718" id="path-1"></path>
    </defs>
    <g id="Symbols" stroke="none" stroke-width="1" fill="none" fill-rule="evenodd">
        <g id="ðŸ¼Icons/ðŸ¼MatterType-Mortgage" transform="translate(-2.000000, -2.000000)">
            <mask id="mask-2" fill="white">
                <use xlink:href="#path-1"></use>
            </mask>
            <use id="icon17" fill="#35447d" xlink:href="#path-1"></use>
        </g>
    </g>
</svg>