<?xml version="1.0" encoding="UTF-8" standalone="no"?>
<svg width="26px" height="25px" viewBox="0 0 26 25" version="1.1" xmlns="http://www.w3.org/2000/svg" xmlns:xlink="http://www.w3.org/1999/xlink">
    <!-- Generator: Sketch 47.1 (45422) - http://www.bohemiancoding.com/sketch -->
    <title>icon22</title>
    <desc>Created with Sketch.</desc>
    <defs>
        <path d="M24.9845184,24.8387859 C24.6937071,25.1616551 24.3647317,25.4356741 24.0014084,25.6577898 C24.0556016,25.4562828 24.0846064,25.2456164 24.0846064,25.0326601 C24.0846064,22.558093 22.0680097,20.9506166 21.9817586,20.8834476 C21.8520003,20.7826941 21.6779715,20.7544526 21.5222616,20.8109356 C21.3673149,20.8674187 21.2512957,21.0002301 21.2169479,21.1628096 C21.0536051,21.9329633 20.6391419,23.2000149 20.2689491,23.4679277 C19.9010461,23.7350771 19.6529788,24.1869413 19.5690175,24.7418489 C19.5148243,25.1005924 19.5369596,25.4669688 19.6255005,25.8081568 C19.137762,25.5539832 18.7042166,25.215085 18.3363137,24.7945155 C18.3126518,24.7685638 18.2905166,24.7410856 18.2676181,24.7143706 C18.2554055,24.699105 18.2424297,24.6838393 18.2294539,24.6685736 C18.2065554,24.6395688 18.1828935,24.6098007 18.159995,24.5807959 C18.1561786,24.5754529 18.1523622,24.5701099 18.1477825,24.5655302 C17.2684792,23.4152611 17.0173587,21.8986155 17.4364017,20.5399698 C17.4455611,20.562105 17.4554838,20.5842403 17.4646432,20.6063755 C17.4745659,20.629274 17.4844886,20.6536991 17.4944113,20.6765976 C17.5050972,20.7002594 17.5150199,20.7223947 17.5257059,20.7460565 C17.5348653,20.7681917 17.5440247,20.7895637 17.5539474,20.8116989 C17.5646334,20.836124 17.5760827,20.8590225 17.5875319,20.8834476 C17.5959281,20.9025297 17.6050875,20.9216118 17.6134836,20.9406939 C17.6256961,20.9674089 17.6379087,20.9933605 17.6508845,21.0193122 C17.6577541,21.0345779 17.6653869,21.0490803 17.6722565,21.064346 C17.6867589,21.0948773 17.7012613,21.1246454 17.7165269,21.1544135 C17.7211067,21.1635729 17.7256864,21.1727323 17.7302661,21.1818917 C17.7470583,21.2170028 17.7646138,21.2505873 17.7814061,21.2834085 C17.7829327,21.2872249 17.7844592,21.2902781 17.7859858,21.2933312 C17.8233867,21.3658432 17.8600244,21.4345388 17.8943721,21.4978913 C18.0477923,21.7803065 18.1828935,21.999369 18.2699079,22.133707 C18.3241011,22.2176683 18.3653185,22.2779677 18.3897435,22.3123155 C18.434014,22.3749048 18.5477434,22.5351945 18.7469605,22.5672524 L18.7507769,22.5672524 C18.7614629,22.5695423 18.7721489,22.5710688 18.7835982,22.5718321 C18.7935208,22.5725954 18.8026803,22.5725954 18.8126029,22.5725954 L18.8377913,22.5725954 C18.8492406,22.5718321 18.8606898,22.5710688 18.8729024,22.5695423 C18.8782454,22.568779 18.8828251,22.5680157 18.8881681,22.5672524 C18.9049603,22.5649625 18.9217526,22.5626727 18.9393081,22.558093 C18.9553371,22.5542766 18.9706028,22.5496969 18.9858684,22.5435906 C19.1347088,22.490924 19.2438585,22.3687985 19.2850758,22.2230113 C19.2858391,22.2214847 19.2858391,22.2207214 19.2866024,22.2191948 C19.2904188,22.206219 19.2934719,22.1909533 19.2957618,22.1772142 C19.2957618,22.1764509 19.2965251,22.1756876 19.2965251,22.1749244 C19.2988149,22.1634751 19.2995782,22.1512626 19.3011048,22.1405766 C19.3011048,22.1367602 19.3018681,22.1329437 19.3026314,22.1291273 C19.3033946,22.1192046 19.3033946,22.1108085 19.3033946,22.1008858 C19.3033946,22.0947795 19.3041579,22.08791 19.3033946,22.082567 C19.3033946,22.071881 19.3026314,22.061195 19.3011048,22.0512723 L19.3011048,22.0497458 C19.3011048,22.0444028 19.3011048,22.0398231 19.3003415,22.0352434 C19.2995782,22.0276105 19.2980516,22.0215043 19.2965251,22.0138714 C19.2949985,22.004712 19.2942352,21.9963159 19.2919454,21.9879198 C19.2789695,21.9299102 19.2675203,21.8726638 19.2568343,21.8154175 C19.2537812,21.7993886 19.2499647,21.781833 19.2469116,21.7658041 C19.2392788,21.7207703 19.2308826,21.6749733 19.2240131,21.6307028 C19.2217232,21.6162004 19.2186701,21.601698 19.2163802,21.5864323 C19.2087474,21.5352923 19.2011146,21.4841522 19.1950083,21.4330122 C19.1911919,21.4047707 19.1873755,21.3772925 19.1843223,21.3498142 C19.1812692,21.3238626 19.178216,21.2979109 19.1759262,21.2727225 C19.1629504,21.1544135 19.1537909,21.0361045 19.1476847,20.9170321 L19.1469214,20.8994766 C19.1247862,20.4499022 19.148448,19.9972748 19.2179068,19.549227 C19.2186701,19.543884 19.2194334,19.538541 19.22096,19.5324347 C19.2392788,19.4156523 19.2606507,19.2981065 19.2850758,19.1820873 C19.2911821,19.1530825 19.2972884,19.124841 19.3041579,19.0958362 C19.3095009,19.0714111 19.3148439,19.0477493 19.3201869,19.0240875 C19.3331627,18.9698943 19.3469018,18.9149379 19.3606409,18.861508 C19.3621675,18.8569283 19.3629308,18.8531119 19.3644574,18.8485322 C19.379723,18.7912858 19.395752,18.7332763 19.4125443,18.6760299 C19.4140708,18.6714502 19.4155974,18.6661073 19.417124,18.6607643 C19.6781671,17.7776445 20.1185821,16.9403219 20.7238664,16.2090957 C20.7673736,16.1571923 20.8116441,16.105289 20.8559145,16.0533857 L21.5665321,15.2450678 C22.0695363,16.3045062 23.0022695,18.4577307 23.0022695,19.8331687 C23.0022695,20.065207 23.1686654,20.2644242 23.3968874,20.3056415 C23.6251093,20.3460956 23.8502782,20.2178639 23.9319496,20.0003279 C23.9456887,19.9621637 24.2067318,19.253836 24.4051857,18.2234025 L24.9371947,18.8294501 C26.4729224,20.5796605 26.4935311,23.1633773 24.9845184,24.8387859 L24.9845184,24.8387859 Z M22.8633518,25.8608234 L20.6605138,25.8608234 C20.5208328,25.5791715 20.4666396,25.2234811 20.5177797,24.8853463 C20.5620502,24.5952983 20.6788326,24.3556271 20.8322527,24.2449509 C21.3573922,23.8633088 21.727585,22.9084404 21.9435944,22.1871369 C22.4511784,22.770286 23.1251582,23.7793476 23.1251582,25.0326601 C23.1251582,25.3318675 23.0335641,25.6188623 22.8633518,25.8608234 L22.8633518,25.8608234 Z M17.0975035,18.995846 C17.058576,19.0569087 17.0211751,19.1187347 16.986064,19.181324 C16.9692718,19.2103288 16.9540061,19.2400969 16.9372139,19.269865 C16.918895,19.3026862 16.9005762,19.3362707 16.8830207,19.3698552 C16.8631753,19.4072561 16.8448565,19.4454203 16.8265377,19.4828213 C16.8135618,19.5095362 16.7998227,19.5347246 16.7876102,19.5614395 C16.7677648,19.6034202 16.749446,19.6446375 16.7311271,19.6873814 C16.7204412,19.7102799 16.7105185,19.7331785 16.6998325,19.756077 C16.6815137,19.7995842 16.6639581,19.8446179 16.6464026,19.8896517 C16.6380065,19.9110237 16.6288471,19.9316323 16.6212142,19.9530043 C16.6036587,19.9988013 16.588393,20.0445984 16.572364,20.0903954 C16.5647312,20.1117674 16.5563351,20.1323761 16.5494655,20.1529847 C16.5341998,20.1987818 16.5204607,20.2445788 16.5067216,20.2911391 C16.4998521,20.3125111 16.4929825,20.3338831 16.4868762,20.355255 C16.4731371,20.4010521 16.4616879,20.4460858 16.4494753,20.4918829 C16.4441323,20.5147814 16.4372628,20.5369166 16.4311565,20.5605784 C16.4204705,20.6040856 16.4113111,20.6491194 16.4006251,20.6933899 C16.3960454,20.7185783 16.3891759,20.7430033 16.3838329,20.7674284 C16.3754367,20.8101724 16.3678039,20.852153 16.3609343,20.8948969 C16.3555914,20.9223751 16.3494851,20.9490901 16.3456687,20.9765683 C16.3387991,21.0170223 16.3334561,21.0567131 16.3281131,21.0971672 C16.3235334,21.1276985 16.3181904,21.1582299 16.3151373,21.1887613 C16.3105576,21.2253989 16.3067412,21.2627998 16.3029248,21.3002008 C16.2998716,21.3337853 16.2952919,21.3673698 16.2922388,21.4017175 C16.2899489,21.4360653 16.2876591,21.4704131 16.2861325,21.5047609 C16.2838426,21.5421618 16.2807895,21.5787995 16.2784997,21.6162004 C16.2777364,21.647495 16.2769731,21.6787897 16.2762098,21.7100843 C16.2754465,21.7513017 16.27392,21.7917557 16.2731567,21.8322098 C16.2731567,21.8612146 16.27392,21.8894561 16.2746832,21.9176976 C16.2746832,21.9612048 16.2754465,22.0054753 16.2769731,22.0497458 C16.2777364,22.0749341 16.2792629,22.1008858 16.2807895,22.1268375 C16.2830794,22.1672915 16.2838426,22.2077456 16.2868958,22.2474364 C16.2876591,22.2550692 16.2884224,22.262702 16.2884224,22.2710982 C16.2891856,22.273388 16.2891856,22.2756779 16.2891856,22.2779677 C16.2891856,22.2825474 16.2899489,22.2886537 16.2907122,22.2939967 C16.2960552,22.3550594 16.3013982,22.4153589 16.3082677,22.4756583 C16.3097943,22.4878709 16.3113209,22.5008467 16.3128474,22.5122959 C16.3288764,22.6473972 16.3494851,22.780972 16.3754367,22.9130201 C16.3777266,22.9244694 16.3800164,22.9374452 16.3823063,22.9496577 C16.3945188,23.0084306 16.4074947,23.0656769 16.4212338,23.1236865 C16.4227604,23.1320827 16.4242869,23.1389522 16.4265768,23.1473483 C16.4426057,23.2122275 16.459398,23.2771066 16.4769535,23.3412225 C16.4800067,23.3519085 16.4830598,23.3618312 16.4868762,23.3725172 C16.5021419,23.4251838 16.5181709,23.4786136 16.5349631,23.5312802 C16.5403061,23.5465459 16.5441225,23.560285 16.5494655,23.5755507 C16.5700742,23.6373767 16.5914462,23.6992028 16.6143447,23.7595022 C16.615108,23.7617921 16.6158712,23.7640819 16.6166345,23.7663718 C16.6380065,23.8243814 16.660905,23.8808644 16.6845668,23.9381107 C16.6921997,23.9556662 16.6990692,23.9716952 16.7067021,23.9892507 C16.7265474,24.0358111 16.7471561,24.0831347 16.7685281,24.1289317 C16.7746343,24.1419075 16.7807406,24.1548834 16.7868469,24.1686225 C16.8135618,24.2251055 16.8410401,24.2815885 16.8700449,24.336545 C16.8776777,24.352574 16.8868371,24.3686029 16.8952332,24.3838686 C16.9173685,24.4258492 16.940267,24.4685931 16.9639288,24.5090472 C16.9730882,24.527366 16.9830109,24.5441583 16.9929336,24.5624771 C16.9982766,24.5701099 17.0028563,24.5792693 17.0081993,24.5884288 L15.4633122,24.5884288 L15.4633122,15.6007582 L18.8683227,15.6007582 L18.8683227,17.3876063 C18.7011635,17.7585624 18.5637723,18.1409678 18.4569125,18.5302427 L18.4523328,18.5462716 C18.4416469,18.5867257 18.4317242,18.6264165 18.4210382,18.6668705 L18.4088256,18.716484 C18.4011928,18.7470154 18.39356,18.7767835 18.3866904,18.8065515 C18.3798208,18.8355563 18.3729513,18.8645611 18.366845,18.8935659 L18.3538692,18.9492857 C18.3447098,18.9935561 18.3355504,19.0370633 18.3271542,19.0813338 C18.3256277,19.0859135 18.3248644,19.0904932 18.3241011,19.0943096 C18.2729611,19.3568794 18.2340336,19.6225023 18.2103718,19.8896517 C18.2019756,19.8675165 18.1943428,19.8453812 18.1859467,19.823246 C18.1714443,19.7843185 18.1577052,19.7461543 18.1439661,19.7072268 C18.1378598,19.6896713 18.1317535,19.6705892 18.1256472,19.6530336 C18.1103816,19.6079999 18.0951159,19.5644927 18.0813768,19.5186956 C18.0767971,19.5072464 18.0737439,19.4942705 18.0691642,19.482058 C18.0531352,19.4309179 18.0371063,19.3790146 18.0218406,19.326348 C18.0027585,19.2614689 17.985203,19.1958264 17.9676474,19.130184 C17.9195605,18.9439427 17.7653771,18.8057882 17.5760827,18.7767835 C17.3867882,18.7477787 17.198257,18.8332665 17.0975035,18.995846 L17.0975035,18.995846 Z M14.5038641,15.1221791 L14.5038641,20.9880176 L8.90899146,20.9880176 C8.64413187,20.9880176 8.42964903,21.2025004 8.42964903,21.46736 C8.42964903,21.7322196 8.64413187,21.9474657 8.90899146,21.9474657 L14.5038641,21.9474657 L14.5038641,24.5884288 L5.69480202,24.5884288 L5.69480202,12.9865101 L16.443369,12.9865101 C16.7082286,12.9865101 16.9227115,12.771264 16.9227115,12.5071677 C16.9227115,12.2415448 16.7082286,12.027062 16.443369,12.027062 L6.51533245,12.027062 L13.367334,6.4726434 L21.0658177,12.7132544 L21.0658177,14.3619481 L20.1353743,15.4206232 C20.0285146,15.5419853 19.9262345,15.6671639 19.8277708,15.7938691 L19.8277708,15.1221791 C19.8277708,14.8573195 19.6125247,14.6428366 19.3476651,14.6428366 L14.9832065,14.6428366 C14.7183469,14.6420734 14.5038641,14.8573195 14.5038641,15.1221791 L14.5038641,15.1221791 Z M4.55216569,12.3842789 L3.6385146,11.1347828 L13.367334,3.35691761 L23.0961534,11.1347828 L22.1825023,12.3842789 L13.6688312,5.48266389 C13.4932759,5.33916648 13.2413921,5.33916648 13.0650735,5.48266389 L4.55216569,12.3842789 Z M6.11079187,4.02479122 L8.6716101,4.02479122 L8.6716101,5.88262477 L6.11079187,7.92975279 L6.11079187,4.02479122 Z M27.0560715,21.8383161 C27.0408058,20.4995157 26.5439078,19.2057491 25.6584982,18.1959242 L24.4464031,16.8166698 C24.3212245,16.674699 24.1227706,16.6189792 23.9418722,16.6769888 C23.7602106,16.7334719 23.6304523,16.8929982 23.6098437,17.0815294 C23.5899983,17.2586113 23.5670997,17.4311135 23.5411481,17.5975095 C23.0091391,15.8999656 22.1565507,14.265011 22.1046474,14.1673106 C22.0832754,14.1260933 22.0557972,14.0902189 22.0252658,14.0573977 L22.0252658,13.4841713 C22.0993044,13.5292051 22.1847922,13.5536302 22.2710433,13.5536302 C22.291652,13.5536302 22.3130239,13.5521036 22.3328693,13.5490505 C22.4633909,13.5322582 22.5809367,13.4627994 22.6587916,13.3567029 L24.1418527,11.3301836 C24.2929829,11.1225703 24.2548187,10.8325223 24.054075,10.6722326 L13.6665414,2.36846467 C13.4917493,2.2280204 13.2429187,2.2280204 13.0673634,2.36846467 L9.63105824,5.11552423 L9.63105824,4.02479122 L9.64556064,4.02479122 C9.91042023,4.02479122 10.1256664,3.81030838 10.1256664,3.54621207 C10.1256664,3.28135248 9.91042023,3.06610636 9.64556064,3.06610636 L9.15171581,3.06610636 L5.63144944,3.06610636 L5.13760461,3.06610636 C4.87198174,3.06610636 4.6574989,3.28135248 4.6574989,3.54621207 C4.6574989,3.81030838 4.87198174,4.02479122 5.13760461,4.02479122 L5.15210701,4.02479122 L5.15210701,8.69685333 L2.67982974,10.6722326 C2.4798493,10.8325223 2.44092181,11.1225703 2.59281535,11.3309468 L4.0758764,13.3567029 C4.1529681,13.4627994 4.27051385,13.5322582 4.40103543,13.5490505 C4.51934447,13.5643162 4.63765351,13.5345481 4.73535388,13.4681424 L4.73535388,25.0685345 C4.73535388,25.3326308 4.94983672,25.5478769 5.21469631,25.5478769 L14.9832065,25.5478769 L17.7241598,25.5478769 C18.2073186,26.0676734 18.7767286,26.4806101 19.4186505,26.7760011 C19.4820031,26.8050058 19.5499354,26.8202715 19.6193943,26.8202715 L20.3948909,26.8202715 L23.0900472,26.8202715 L23.7403652,26.8202715 C23.8090608,26.8202715 23.8777564,26.8050058 23.9403457,26.7760011 C24.6089826,26.4683975 25.2005278,26.0325623 25.6974257,25.4807079 C26.5897049,24.4899651 27.0721004,23.1969618 27.0560715,21.8383161 L27.0560715,21.8383161 Z M8.20783867,19.3403924 L12.1082205,19.3403924 L12.1082205,15.6018268 L8.20783867,15.6018268 L8.20783867,19.3403924 Z M12.587563,14.6423787 L7.72773295,14.6423787 C7.46287336,14.6423787 7.24839052,14.8568615 7.24839052,15.1217211 L7.24839052,19.8197349 C7.24839052,20.0845945 7.46287336,20.2990773 7.72773295,20.2990773 L12.587563,20.2990773 C12.8531858,20.2990773 13.0676687,20.0845945 13.0676687,19.8197349 L13.0676687,15.1217211 C13.0676687,14.8568615 12.8531858,14.6423787 12.587563,14.6423787 L12.587563,14.6423787 Z" id="path-1"></path>
    </defs>
    <g id="Symbols" stroke="none" stroke-width="1" fill="none" fill-rule="evenodd">
        <g id="ðŸ¼Icons/ðŸ¼MatterType-Insurance" transform="translate(-2.000000, -2.000000)">
            <mask id="mask-2" fill="white">
                <use xlink:href="#path-1"></use>
            </mask>
            <use id="icon22" fill="#35447d" xlink:href="#path-1"></use>
        </g>
    </g>
</svg>