<?xml version="1.0" encoding="UTF-8" standalone="no"?>
<svg width="24px" height="24px" viewBox="0 0 24 24" version="1.1" xmlns="http://www.w3.org/2000/svg" xmlns:xlink="http://www.w3.org/1999/xlink">
    <!-- Generator: Sketch 47.1 (45422) - http://www.bohemiancoding.com/sketch -->
    <title>icon12</title>
    <desc>Created with Sketch.</desc>
    <defs>
        <path d="M10.8846697,10.3914991 L10.8791175,10.3914991 C10.6244122,10.3914991 10.4182882,10.597623 10.4182882,10.8523283 C10.4182882,11.1063396 10.6244122,11.3131576 10.8791175,11.3131576 L10.8846697,11.3131576 C11.139375,11.3131576 11.3454989,11.1063396 11.3454989,10.8523283 C11.3454989,10.597623 11.139375,10.3914991 10.8846697,10.3914991 M25.2266622,12.5115219 L24.0794471,12.5115219 C23.8247418,12.5115219 23.6186179,12.7176459 23.6186179,12.9723512 C23.6186179,13.2263625 23.8247418,13.4331805 24.0794471,13.4331805 L25.2266622,13.4331805 L25.2266622,18.4106918 L24.0794471,18.4106918 C23.8247418,18.4106918 23.6186179,18.6168158 23.6186179,18.8715211 C23.6186179,19.1255324 23.8247418,19.3323504 24.0794471,19.3323504 L25.2266622,19.3323504 L25.2266622,24.3098618 L22.8350693,24.3098618 L22.8350693,7.53401055 L25.2266622,7.53401055 L25.2266622,12.5115219 Z M21.9134107,7.07318127 L21.9134107,10.3912908 L12.4226874,10.3912908 C12.168676,10.3912908 11.9618581,10.5974148 11.9618581,10.8521201 C11.9618581,11.1068255 12.168676,11.3129494 12.4226874,11.3129494 L21.9134107,11.3129494 L21.9134107,18.6869118 L20.6419661,18.6869118 C20.3872608,18.6869118 20.1811368,18.8930357 20.1811368,19.1484351 C20.1811368,19.4024464 20.3872608,19.6092644 20.6419661,19.6092644 L21.9134107,19.6092644 L21.9134107,24.770691 L21.9134107,25.8769589 L8.08714448,25.8769589 L8.08714448,24.770691 L8.08714448,19.6092644 L17.5771738,19.6092644 C17.8318792,19.6092644 18.0380031,19.4024464 18.0380031,19.1484351 C18.0380031,18.8930357 17.8318792,18.6869118 17.5771738,18.6869118 L8.08714448,18.6869118 L8.08714448,11.3129494 L9.35789508,11.3129494 C9.61260042,11.3129494 9.81872436,11.1068255 9.81872436,10.8521201 C9.81872436,10.5974148 9.61260042,10.3912908 9.35789508,10.3912908 L8.08714448,10.3912908 L8.08714448,7.07318127 L8.08714448,4.12359631 L14.5394483,4.12359631 L14.5394483,7.00377927 C14.5394483,7.7789996 15.1696185,8.40986378 15.9448388,8.40986378 C16.7200591,8.40986378 17.3502293,7.7789996 17.3502293,7.00377927 L17.3502293,6.15152273 C17.3502293,5.89751141 17.5570473,5.69069345 17.8110586,5.69069345 C18.0657639,5.69069345 18.2718878,5.89751141 18.2718878,6.15152273 L18.2718878,8.43137839 C18.2718878,9.18091999 18.8819314,9.79096356 19.631473,9.79096356 C20.3817086,9.79096356 20.9910582,9.18091999 20.9910582,8.43137839 L20.9910582,4.12359631 L21.9134107,4.12359631 L21.9134107,7.07318127 Z M15.4611069,4.12359631 L20.0693996,4.12359631 L20.0693996,8.43137839 C20.0693996,8.67289735 19.872992,8.86930501 19.631473,8.86930501 C19.3906481,8.86930501 19.1942404,8.67289735 19.1942404,8.43137839 L19.1942404,6.15152273 C19.1942404,5.38879476 18.5737865,4.7690349 17.8110586,4.7690349 C17.0490246,4.7690349 16.4285707,5.38879476 16.4285707,6.15152273 L16.4285707,7.00377927 C16.4285707,7.27028295 16.2113425,7.48820523 15.9448388,7.48820523 C15.6783351,7.48820523 15.4611069,7.27028295 15.4611069,7.00377927 L15.4611069,4.12359631 Z M7.16548593,24.3098618 L4.76417676,24.3098618 L4.76417676,19.3323504 L5.69069345,19.3323504 C5.94470477,19.3323504 6.15152273,19.1255324 6.15152273,18.8715211 C6.15152273,18.6168158 5.94470477,18.4106918 5.69069345,18.4106918 L4.76417676,18.4106918 L4.76417676,13.4331805 L5.69069345,13.4331805 C5.94470477,13.4331805 6.15152273,13.2263625 6.15152273,12.9723512 C6.15152273,12.7176459 5.94470477,12.5115219 5.69069345,12.5115219 L4.76417676,12.5115219 L4.76417676,7.53401055 L7.16548593,7.53401055 L7.16548593,24.3098618 Z M26.3377882,24.3098618 L26.1483207,24.3098618 L26.1483207,7.53401055 L26.3377882,7.53401055 C26.5917995,7.53401055 26.7986175,7.32719259 26.7986175,7.07318127 C26.7986175,6.81847594 26.5917995,6.612352 26.3377882,6.612352 L22.8350693,6.612352 L22.8350693,4.12359631 L23.2958986,4.12359631 C23.5499099,4.12359631 23.7567278,3.91677835 23.7567278,3.66276704 C23.7567278,3.4080617 23.5499099,3.20193776 23.2958986,3.20193776 L6.70465666,3.20193776 C6.44995132,3.20193776 6.24313336,3.4080617 6.24313336,3.66276704 C6.24313336,3.91677835 6.44995132,4.12359631 6.70465666,4.12359631 L7.16548593,4.12359631 L7.16548593,6.612352 L3.66276704,6.612352 C3.4080617,6.612352 3.20193776,6.81847594 3.20193776,7.07318127 C3.20193776,7.32719259 3.4080617,7.53401055 3.66276704,7.53401055 L3.84251822,7.53401055 L3.84251822,24.3098618 L3.66276704,24.3098618 C3.4080617,24.3098618 3.20193776,24.5159857 3.20193776,24.770691 C3.20193776,25.0247024 3.4080617,25.2315203 3.66276704,25.2315203 L7.16548593,25.2315203 L7.16548593,25.8769589 L6.70465666,25.8769589 C6.44995132,25.8769589 6.24313336,26.0830828 6.24313336,26.3377882 C6.24313336,26.5917995 6.44995132,26.7986175 6.70465666,26.7986175 L23.2958986,26.7986175 C23.5499099,26.7986175 23.7567278,26.5917995 23.7567278,26.3377882 C23.7567278,26.0830828 23.5499099,25.8769589 23.2958986,25.8769589 L22.8350693,25.8769589 L22.8350693,25.2315203 L26.3377882,25.2315203 C26.5917995,25.2315203 26.7986175,25.0247024 26.7986175,24.770691 C26.7986175,24.5159857 26.5917995,24.3098618 26.3377882,24.3098618 L26.3377882,24.3098618 Z M19.1153303,19.6089868 L19.1208825,19.6089868 C19.3755878,19.6089868 19.5817118,19.4021688 19.5817118,19.1481575 C19.5817118,18.8934521 19.3755878,18.6873282 19.1208825,18.6873282 L19.1153303,18.6873282 C18.860625,18.6873282 18.6545011,18.8934521 18.6545011,19.1481575 C18.6545011,19.4021688 18.860625,19.6089868 19.1153303,19.6089868 M14.1358757,17.0795615 L14.6369581,16.2113425 C14.8874994,16.2821325 15.1595552,16.2821325 15.4087084,16.2120365 L15.9097908,17.0788675 C15.3413884,17.3030359 14.7049721,17.3030359 14.1358757,17.0795615 L14.1358757,17.0795615 Z M15.8653735,15.5915826 C15.8188742,15.5110763 15.7411439,15.4513906 15.6509213,15.4277939 C15.5606988,15.4035032 15.46423,15.4166896 15.3830296,15.463883 C15.2747625,15.5263448 15.1505329,15.5603517 15.0228333,15.5603517 C14.8958276,15.5603517 14.771598,15.5263448 14.6626369,15.4631889 C14.5814365,15.4166896 14.4849678,15.4035032 14.3947452,15.4277939 C14.3045226,15.4513906 14.2267923,15.5103823 14.180293,15.5915826 L13.3356707,17.0552708 C13.2891713,17.1357771 13.2759849,17.2322459 13.3002756,17.3231625 C13.3245663,17.4126911 13.3842521,17.4904213 13.4647584,17.5362267 C13.9457142,17.8138347 14.4842737,17.9519446 15.0228333,17.9519446 C15.5620868,17.9519446 16.1006463,17.8131406 16.5809081,17.5355326 C16.749555,17.4390639 16.8071587,17.2225296 16.7093018,17.0545768 L15.8653735,15.5915826 Z M13.5252075,12.9486851 L14.02629,13.8169041 C13.8395986,14.0001254 13.7056527,14.2319281 13.6404148,14.4852454 L12.63825,14.4852454 C12.7284726,13.880754 13.0463337,13.3290081 13.5252075,12.9486851 M12.2593151,15.1896757 L13.9485597,15.1896757 C14.1435793,15.1896757 14.3011219,15.0321331 14.3011219,14.8378075 C14.3011219,14.5810201 14.4392318,14.3408892 14.6620123,14.2118015 C14.8306591,14.1153327 14.8882628,13.8994925 14.7911,13.7308456 L13.9457836,12.2678515 C13.8992843,12.1866512 13.8222481,12.1269654 13.7320255,12.1033688 C13.6418029,12.0790781 13.5453341,12.0922644 13.4648278,12.1387638 C12.5036101,12.6946738 11.9067529,13.7287636 11.9067529,14.8378075 C11.9067529,15.0321331 12.0649895,15.1896757 12.2593151,15.1896757 M16.5205284,12.9486851 C16.9987082,13.328314 17.3172633,13.8800599 17.4074859,14.4852454 L16.4053211,14.4852454 C16.3400832,14.2319281 16.2061373,13.9994314 16.019446,13.8162101 L16.5205284,12.9486851 Z M15.3837237,14.2118015 C15.6065041,14.3408892 15.744614,14.5810201 15.744614,14.8378075 C15.744614,15.0321331 15.9028506,15.1896757 16.0978702,15.1896757 L17.7864209,15.1896757 C17.8801136,15.1896757 17.9696421,15.1528926 18.0362681,15.0869607 C18.1022,15.0203348 18.139677,14.9308062 18.138983,14.8378075 C18.138289,13.7273755 17.5414318,12.6932858 16.5809081,12.1387638 C16.4122613,12.041601 16.1964211,12.0992046 16.0992583,12.2685455 L15.2546359,13.7308456 C15.1574731,13.8987985 15.2150768,14.1146387 15.3837237,14.2118015 L15.3837237,14.2118015 Z M14.5815059,14.8375993 C14.5815059,15.0818944 14.7793016,15.278996 15.0229027,15.278996 C15.2671977,15.278996 15.4642994,15.0818944 15.4642994,14.8375993 C15.4642994,14.5933043 15.2671977,14.3962026 15.0229027,14.3962026 C14.7793016,14.3962026 14.5815059,14.5933043 14.5815059,14.8375993" id="path-1"></path>
    </defs>
    <g id="Symbols" stroke="none" stroke-width="1" fill="none" fill-rule="evenodd">
        <g id="ðŸ¼Icons/ðŸ¼MatterType-Professional-Negligence" transform="translate(-3.000000, -3.000000)">
            <mask id="mask-2" fill="white">
                <use xlink:href="#path-1"></use>
            </mask>
            <use id="icon12" fill="#35447d" xlink:href="#path-1"></use>
        </g>
    </g>
</svg>