<?xml version="1.0" encoding="UTF-8" standalone="no"?>
<svg width="22px" height="21px" viewBox="0 0 22 21" version="1.1" xmlns="http://www.w3.org/2000/svg" xmlns:xlink="http://www.w3.org/1999/xlink">
    <!-- Generator: Sketch 47.1 (45422) - http://www.bohemiancoding.com/sketch -->
    <title>icon19</title>
    <desc>Created with Sketch.</desc>
    <defs>
        <path d="M9.09442601,18.7614987 C9.42345945,18.7614987 9.68984882,18.4951093 9.68984882,18.1660759 L9.68984882,17.1327527 C9.68984882,16.8043275 9.42345945,16.5379381 9.09442601,16.5379381 C8.76539256,16.5379381 8.49900319,16.8043275 8.49900319,17.1327527 L8.49900319,18.1660759 C8.49900319,18.4951093 8.76539256,18.7614987 9.09442601,18.7614987 M11.4758132,18.7614987 C11.8048466,18.7614987 12.071236,18.4951093 12.071236,18.1660759 L12.071236,17.1327527 C12.071236,16.8043275 11.8048466,16.5379381 11.4758132,16.5379381 C11.1467797,16.5379381 10.8803904,16.8043275 10.8803904,17.1327527 L10.8803904,18.1660759 C10.8803904,18.4951093 11.1467797,18.7614987 11.4758132,18.7614987 M13.8569571,18.7614987 C14.1859905,18.7614987 14.4523799,18.4951093 14.4523799,18.1660759 L14.4523799,17.1327527 C14.4523799,16.8043275 14.1859905,16.5379381 13.8569571,16.5379381 C13.5279236,16.5379381 13.2615343,16.8043275 13.2615343,17.1327527 L13.2615343,18.1660759 C13.2615343,18.4951093 13.5279236,18.7614987 13.8569571,18.7614987 M16.002243,18.7614987 C16.3312764,18.7614987 16.5976658,18.4951093 16.5976658,18.1660759 L16.5976658,17.1327527 C16.5976658,16.8043275 16.3312764,16.5379381 16.002243,16.5379381 C15.6732096,16.5379381 15.4068202,16.8043275 15.4068202,17.1327527 L15.4068202,18.1660759 C15.4068202,18.4951093 15.6732096,18.7614987 16.002243,18.7614987 M18.3836302,18.7614987 C18.7126636,18.7614987 18.979053,18.4951093 18.979053,18.1660759 L18.979053,17.1327527 C18.979053,16.8043275 18.7126636,16.5379381 18.3836302,16.5379381 C18.0545967,16.5379381 17.7882074,16.8043275 17.7882074,17.1327527 L17.7882074,18.1660759 C17.7882074,18.4951093 18.0545967,18.7614987 18.3836302,18.7614987 M20.7647741,18.7614987 C21.0938075,18.7614987 21.3601969,18.4951093 21.3601969,18.1660759 L21.3601969,17.1327527 C21.3601969,16.8043275 21.0938075,16.5379381 20.7647741,16.5379381 C20.4357406,16.5379381 20.1693513,16.8043275 20.1693513,17.1327527 L20.1693513,18.1660759 C20.1693513,18.4951093 20.4357406,18.7614987 20.7647741,18.7614987 M9.09442601,15.4383825 C9.42345945,15.4383825 9.68984882,15.1726014 9.68984882,14.8429597 L9.68984882,13.8096366 C9.68984882,13.4812113 9.42345945,13.2148219 9.09442601,13.2148219 C8.76539256,13.2148219 8.49900319,13.4812113 8.49900319,13.8096366 L8.49900319,14.8429597 C8.49900319,15.1726014 8.76539256,15.4383825 9.09442601,15.4383825 M11.4758132,15.4383825 C11.8048466,15.4383825 12.071236,15.1726014 12.071236,14.8429597 L12.071236,13.8096366 C12.071236,13.4812113 11.8048466,13.2148219 11.4758132,13.2148219 C11.1467797,13.2148219 10.8803904,13.4812113 10.8803904,13.8096366 L10.8803904,14.8429597 C10.8803904,15.1726014 11.1467797,15.4383825 11.4758132,15.4383825 M13.8569571,15.4383825 C14.1859905,15.4383825 14.4523799,15.1726014 14.4523799,14.8429597 L14.4523799,13.8096366 C14.4523799,13.4812113 14.1859905,13.2148219 13.8569571,13.2148219 C13.5279236,13.2148219 13.2615343,13.4812113 13.2615343,13.8096366 L13.2615343,14.8429597 C13.2615343,15.1726014 13.5279236,15.4383825 13.8569571,15.4383825 M16.002243,15.4383825 C16.3312764,15.4383825 16.5976658,15.1726014 16.5976658,14.8429597 L16.5976658,13.8096366 C16.5976658,13.4812113 16.3312764,13.2148219 16.002243,13.2148219 C15.6732096,13.2148219 15.4068202,13.4812113 15.4068202,13.8096366 L15.4068202,14.8429597 C15.4068202,15.1726014 15.6732096,15.4383825 16.002243,15.4383825 M18.3836302,15.4383825 C18.7126636,15.4383825 18.979053,15.1726014 18.979053,14.8429597 L18.979053,13.8096366 C18.979053,13.4812113 18.7126636,13.2148219 18.3836302,13.2148219 C18.0545967,13.2148219 17.7882074,13.4812113 17.7882074,13.8096366 L17.7882074,14.8429597 C17.7882074,15.1726014 18.0545967,15.4383825 18.3836302,15.4383825 M20.7647741,15.4383825 C21.0938075,15.4383825 21.3601969,15.1726014 21.3601969,14.8429597 L21.3601969,13.8096366 C21.3601969,13.4812113 21.0938075,13.2148219 20.7647741,13.2148219 C20.4357406,13.2148219 20.1693513,13.4812113 20.1693513,13.8096366 L20.1693513,14.8429597 C20.1693513,15.1726014 20.4357406,15.4383825 20.7647741,15.4383825 M12.5484866,7.13451494 C12.2194531,7.13451494 11.9530637,7.40029612 11.9530637,7.72993776 L11.9530637,8.76326091 C11.9530637,9.09168617 12.2194531,9.35807554 12.5484866,9.35807554 C12.87752,9.35807554 13.1439094,9.09168617 13.1439094,8.76326091 L13.1439094,7.72993776 C13.1439094,7.40029612 12.87752,7.13451494 12.5484866,7.13451494 M14.9295696,7.13451494 C14.6005362,7.13451494 14.3341468,7.40029612 14.3341468,7.72993776 L14.3341468,8.76326091 C14.3341468,9.09168617 14.6005362,9.35807554 14.9295696,9.35807554 C15.2586031,9.35807554 15.5249925,9.09168617 15.5249925,8.76326091 L15.5249925,7.72993776 C15.5249925,7.40029612 15.2586031,7.13451494 14.9295696,7.13451494 M17.3110176,7.13451494 C16.9819842,7.13451494 16.7155948,7.40029612 16.7155948,7.72993776 L16.7155948,8.76326091 C16.7155948,9.09168617 16.9819842,9.35807554 17.3110176,9.35807554 C17.6400511,9.35807554 17.9064404,9.09168617 17.9064404,8.76326091 L17.9064404,7.72993776 C17.9064404,7.40029612 17.6400511,7.13451494 17.3110176,7.13451494 M23.0140005,23.0681877 L19.0534352,23.0681877 L19.0534352,21.5106005 C19.0534352,21.1815671 18.7870459,20.9157859 18.4586206,20.9157859 L11.4011268,20.9157859 C11.0720934,20.9157859 10.805704,21.1815671 10.805704,21.5106005 L10.805704,23.0681877 L6.84574696,23.0681877 L6.84574696,11.5106598 L23.0140005,11.5106598 L23.0140005,23.0681877 Z M17.8631978,23.0681877 L15.5210392,23.0681877 C15.523472,23.0456845 15.5252965,23.0231813 15.5252965,23.0006781 L15.5252965,22.1060234 L17.8631978,22.1060234 L17.8631978,23.0681877 Z M11.9959415,23.0681877 L11.9959415,22.1060234 L14.3344509,22.1060234 L14.3344509,23.0006781 C14.3344509,23.0231813 14.3356673,23.0456845 14.3381001,23.0681877 L11.9959415,23.0681877 Z M10.6937962,10.3204223 L19.1653431,10.3204223 L19.1653431,5.79849317 L10.6937962,5.79849317 L10.6937962,10.3204223 Z M24.7637773,10.3204223 L20.3555805,10.3204223 L20.3555805,5.20367855 C20.3555805,4.8746451 20.0891912,4.60764754 19.7607659,4.60764754 L10.0989815,4.60764754 C9.76994809,4.60764754 9.50355872,4.8746451 9.50355872,5.20367855 L9.50355872,10.3204223 L5.095362,10.3204223 C4.76632855,10.3204223 4.49993918,10.5868117 4.49993918,10.9158452 C4.49993918,11.2442704 4.76632855,11.5106598 5.095362,11.5106598 L5.65490132,11.5106598 L5.65490132,23.6636105 C5.65490132,23.9920358 5.92129069,24.2584251 6.25032414,24.2584251 L23.6094233,24.2584251 C23.9378486,24.2584251 24.2048461,23.9920358 24.2048461,23.6636105 L24.2048461,11.5106598 L24.7637773,11.5106598 C25.0928107,11.5106598 25.3592001,11.2442704 25.3592001,10.9158452 C25.3592001,10.5868117 25.0928107,10.3204223 24.7637773,10.3204223 L24.7637773,10.3204223 Z" id="path-1"></path>
    </defs>
    <g id="Symbols" stroke="none" stroke-width="1" fill="none" fill-rule="evenodd">
        <g id="ðŸ¼Icons/ðŸ¼MatterType-Leasing" transform="translate(-4.000000, -4.000000)">
            <mask id="mask-2" fill="white">
                <use xlink:href="#path-1"></use>
            </mask>
            <use id="icon19" fill="#35447d" xlink:href="#path-1"></use>
        </g>
    </g>
</svg>