<?xml version="1.0" encoding="UTF-8" standalone="no"?>
<svg width="20px" height="26px" viewBox="0 0 20 26" version="1.1" xmlns="http://www.w3.org/2000/svg" xmlns:xlink="http://www.w3.org/1999/xlink">
    <!-- Generator: Sketch 47.1 (45422) - http://www.bohemiancoding.com/sketch -->
    <title>icon23</title>
    <desc>Created with Sketch.</desc>
    <defs>
        <path d="M20.0745045,21.2597261 L9.68714891,21.2588498 C9.40060722,21.2588498 9.16839453,21.4910625 9.16839453,21.7784805 C9.16839453,22.0641459 9.40060722,22.2972349 9.68714891,22.2972349 L20.0745045,22.2989874 C20.3610462,22.2989874 20.5941351,22.0667747 20.5941351,21.7793568 C20.5941351,21.4928151 20.3619224,21.2597261 20.0745045,21.2597261 M17.9959818,23.3374601 L11.7647953,23.3374601 C11.4782536,23.3374601 11.2451646,23.5696728 11.2451646,23.8570908 C11.2451646,24.1436325 11.4782536,24.3767214 11.7647953,24.3767214 L17.9959818,24.3767214 C18.2833998,24.3767214 18.5156125,24.1436325 18.5156125,23.8570908 C18.5156125,23.5696728 18.2833998,23.3374601 17.9959818,23.3374601 M17.5860607,13.9611498 C17.5282266,12.5468431 17.2364273,11.1395466 16.7290645,10.1467278 C18.2949666,10.7741402 19.4262367,12.2252504 19.6207696,13.9611498 L17.5860607,13.9611498 Z M16.7290645,18.8139569 C17.2364273,17.8211381 17.5282266,16.4147179 17.5860607,15.0004111 L19.6207696,15.0004111 C19.4262367,16.7363105 18.2949666,18.1865445 16.7290645,18.8139569 L16.7290645,18.8139569 Z M13.4631901,13.9611498 C13.568343,11.415573 14.405185,9.80673336 15.0001753,9.80673336 C15.5951655,9.80673336 16.4320075,11.415573 16.5371604,13.9611498 L13.4631901,13.9611498 Z M15.0001753,19.1539513 C14.405185,19.1539513 13.568343,17.5451117 13.4631901,15.0004111 L16.5371604,15.0004111 C16.4320075,17.5451117 15.5951655,19.1539513 15.0001753,19.1539513 L15.0001753,19.1539513 Z M12.4142898,13.9611498 L10.3787046,13.9611498 C10.5741138,12.2252504 11.7053839,10.7741402 13.2712861,10.1467278 C12.7639232,11.1395466 12.4721239,12.5468431 12.4142898,13.9611498 L12.4142898,13.9611498 Z M10.3787046,15.0004111 L12.4142898,15.0004111 C12.4721239,16.4147179 12.7639232,17.8211381 13.2712861,18.8139569 C11.7053839,18.1865445 10.5741138,16.7363105 10.3787046,15.0004111 L10.3787046,15.0004111 Z M15.0001753,8.76834832 C11.8508454,8.76834832 9.28774309,11.3305744 9.28774309,14.4807805 C9.28774309,17.6301103 11.8508454,20.1923364 15.0001753,20.1923364 C18.1495051,20.1923364 20.7117311,17.6301103 20.7117311,14.4807805 C20.7117311,11.3305744 18.1495051,8.76834832 15.0001753,8.76834832 L15.0001753,8.76834832 Z M23.3088329,25.3852255 C23.3088329,25.9574326 22.842655,26.4244868 22.2695716,26.4244868 L7.7304284,26.4244868 C7.15734501,26.4244868 6.69204335,25.9574326 6.69204335,25.3852255 L6.69204335,7.7300509 C6.69204335,7.1569675 7.15734501,6.69078958 7.7304284,6.69078958 L22.2695716,6.69078958 C22.842655,6.69078958 23.3088329,7.1569675 23.3088329,7.7300509 L23.3088329,25.3852255 Z M18.9572547,3.60630404 C19.5636366,3.45120348 20.1928015,3.94191709 20.1928015,4.57984478 L20.1928015,5.65240453 L11.556242,5.65240453 L18.9572547,3.60630404 Z M22.2695716,5.65240453 L21.2311866,5.65240453 L21.2311866,4.57984478 C21.2311866,3.44506956 20.2716662,2.52498155 19.1544165,2.53724939 C18.9949345,2.53900194 18.8547307,2.56003252 18.6899911,2.60209369 L7.61914156,5.66379609 C6.52555124,5.72338275 5.65278203,6.62244018 5.65278203,7.7300509 L5.65278203,25.3852255 C5.65278203,26.5313923 6.58426161,27.4628719 7.7304284,27.4628719 L22.2695716,27.4628719 C23.4157384,27.4628719 24.347218,26.5313923 24.347218,25.3852255 L24.347218,7.7300509 C24.347218,6.58388411 23.4157384,5.65240453 22.2695716,5.65240453 L22.2695716,5.65240453 Z" id="path-1"></path>
    </defs>
    <g id="Symbols" stroke="none" stroke-width="1" fill="none" fill-rule="evenodd">
        <g id="ðŸ¼Icons/ðŸ¼MatterType-Immigration" transform="translate(-5.000000, -2.000000)">
            <mask id="mask-2" fill="white">
                <use xlink:href="#path-1"></use>
            </mask>
            <use id="icon23" fill="#35447d" xlink:href="#path-1"></use>
        </g>
    </g>
</svg>