<?xml version="1.0" encoding="UTF-8" standalone="no"?>
<svg width="21px" height="25px" viewBox="0 0 21 25" version="1.1" xmlns="http://www.w3.org/2000/svg" xmlns:xlink="http://www.w3.org/1999/xlink">
    <!-- Generator: Sketch 47.1 (45422) - http://www.bohemiancoding.com/sketch -->
    <title>icon29</title>
    <desc>Created with Sketch.</desc>
    <defs>
        <path d="M19.0632813,26.6074043 C16.5889243,26.6074043 14.4884995,24.9722754 13.7867881,22.7249151 C13.778311,22.698542 13.7707759,22.6702852 13.7622988,22.6429703 C13.7491123,22.5968174 13.7359258,22.5506646 13.7236812,22.5045118 C13.7152041,22.4734292 13.7067271,22.4423467 13.6991919,22.4112642 C13.6925986,22.3848912 13.6869473,22.35946 13.680354,22.333087 C13.6681094,22.2803409 13.6568066,22.2275948 13.6464458,22.1739068 C13.6417363,22.1531851 13.6379688,22.1305796 13.6332593,22.1089161 C13.6247822,22.0627632 13.6163052,22.0166104 13.60877,21.9695157 C13.6068862,21.9563292 13.6040605,21.9412588 13.6021768,21.9261885 C13.5927578,21.8677911 13.5852227,21.8075098 13.5776875,21.7491124 C13.5758037,21.7312164 13.5739199,21.7142623 13.5720361,21.6963663 C13.5654429,21.6398526 13.5597915,21.5814551 13.555082,21.5239996 C13.5541401,21.5192901 13.5541401,21.5136387 13.5531982,21.5089292 C13.5494307,21.4467642 13.5456631,21.3827154 13.5428374,21.3205503 C13.5418955,21.3045381 13.5418955,21.2894678 13.5409536,21.2734556 C13.5390698,21.2094068 13.537186,21.145358 13.537186,21.082251 C13.537186,21.0050157 13.5390698,20.9287222 13.5428374,20.8533707 C13.5428374,20.841126 13.5437793,20.8279395 13.5437793,20.8156949 C13.5475469,20.7469366 13.5513145,20.6791202 13.5579077,20.6113038 L13.5635591,20.5472549 C13.5692104,20.4869737 13.5758037,20.4266924 13.5833389,20.368295 C13.5880483,20.3353287 13.5918159,20.3042461 13.5965254,20.2712798 L13.6106538,20.1836836 C13.6228984,20.1120997 13.6351431,20.0414576 13.6492715,19.9708155 C13.6492715,19.9698736 13.6502134,19.9689317 13.6502134,19.9679898 C14.064647,17.9523355 15.5810972,16.3322769 17.5392959,15.7699659 C17.5477729,15.7671402 17.5553081,15.7652564 17.5637852,15.7624307 C17.6089961,15.7501861 17.654207,15.7379415 17.7003599,15.7256968 C17.7521641,15.7134522 17.8049102,15.7002657 17.8585981,15.688021 C17.8783779,15.6842535 17.8990996,15.679544 17.9188794,15.6757764 C17.9885796,15.6607061 18.0582798,15.6475196 18.12798,15.6362168 C18.4322119,15.5834708 18.7449209,15.5561558 19.0632813,15.5561558 C22.1103101,15.5561558 24.5893765,18.0342803 24.5893765,21.0813091 C24.5884346,24.1283379 22.1103101,26.6074043 19.0632813,26.6074043 L19.0632813,26.6074043 Z M13.1114497,18.3950259 L13.1105078,18.3969097 C13.0926118,18.4364693 13.0756577,18.475087 13.0587036,18.5155884 C13.0539941,18.5268912 13.0483428,18.5381939 13.0436333,18.5485547 C13.0360981,18.5673926 13.028563,18.5862305 13.0210278,18.6050684 C12.8486611,19.0232696 12.7186797,19.4640762 12.635793,19.9199532 C12.4351694,19.9265464 12.2326621,19.930314 12.0301548,19.930314 C10.4694355,19.930314 9.00949902,19.742877 7.91784326,19.4019112 C6.76402246,19.0411656 6.50500146,18.6559307 6.50500146,18.5485547 L6.50500146,14.8299551 C6.7922793,14.9938448 7.15679248,15.1511412 7.6183208,15.295251 C8.80322412,15.6663575 10.3705366,15.8707486 12.0301548,15.8707486 C13.3535166,15.8707486 14.6156553,15.7398252 15.6743447,15.4996421 C15.0847188,15.858504 14.5506646,16.3096714 14.0957295,16.8427837 C13.9638643,16.9963125 13.8404761,17.1564346 13.724623,17.3203243 C13.1783242,17.3711866 12.608478,17.3985015 12.0301548,17.3985015 C11.3058379,17.3985015 10.599417,17.3570582 9.92878809,17.2769971 C9.65281299,17.2440308 9.40321094,17.4408868 9.36930273,17.71592 C9.33727832,17.9918951 9.53319238,18.2414971 9.80916748,18.2735215 C10.5184141,18.3592339 11.2662783,18.4025611 12.0301548,18.4025611 C12.3984355,18.4025611 12.7638906,18.3912583 13.1218105,18.3714786 C13.118043,18.3799556 13.1152173,18.3874908 13.1114497,18.3950259 L13.1114497,18.3950259 Z M12.0301548,22.4630684 C10.4694355,22.4630684 9.00949902,22.2746895 7.91784326,21.9337237 C6.76402246,21.57392 6.50500146,21.1877432 6.50500146,21.082251 L6.50500146,19.8954639 C6.7922793,20.0593536 7.15679248,20.21665 7.6183208,20.3607598 C8.80322412,20.7309244 10.3705366,20.9353155 12.0301548,20.9353155 C12.197812,20.9353155 12.367353,20.9334317 12.5340684,20.9287222 C12.5331265,20.9795845 12.5321846,21.0304468 12.5321846,21.082251 C12.5321846,21.1387647 12.5331265,21.1962203 12.5350103,21.251792 C12.5350103,21.2706299 12.5359521,21.2885259 12.536894,21.30548 C12.5378359,21.3450396 12.5397197,21.3836573 12.5416035,21.422275 C12.5425454,21.4448804 12.5444292,21.4656021 12.5453711,21.4863238 L12.5519644,21.591816 C12.5538481,21.6153633 12.5566738,21.6398526 12.5585576,21.6624581 C12.5613833,21.6954244 12.564209,21.7274488 12.5679766,21.7604151 C12.5708022,21.7858462 12.5736279,21.8112774 12.5764536,21.8367085 C12.5802212,21.8668492 12.5839888,21.8969898 12.5877563,21.9261885 C12.590582,21.9553873 12.5952915,21.9827022 12.5990591,22.0100171 C12.6028267,22.0363902 12.6065942,22.064647 12.6103618,22.0910201 L12.626374,22.1823838 L12.6386187,22.2539678 C12.64427,22.2869341 12.6508633,22.3199004 12.6574565,22.3528667 C12.6612241,22.3735884 12.6659336,22.3943101 12.6697012,22.4150318 C12.671585,22.4272764 12.6744106,22.439521 12.6772363,22.4517657 C12.4624844,22.4593008 12.2467905,22.4630684 12.0301548,22.4630684 L12.0301548,22.4630684 Z M6.50500146,7.23263384 L6.50500146,7.23263384 C6.7922793,7.39652349 7.15679248,7.55381987 7.6183208,7.69792974 C8.80416602,8.06809429 10.3705366,8.27154351 12.0301548,8.27154351 C13.6897729,8.27154351 15.2570854,8.06809429 16.4429307,7.69792974 C16.904459,7.55381987 17.2680303,7.39652349 17.55625,7.23263384 L17.55625,8.41847905 C17.55625,8.52585503 17.2962871,8.91108989 16.1424663,9.2718355 C15.0517524,9.61185942 13.590874,9.80023833 12.0301548,9.80023833 C11.3058379,9.80023833 10.599417,9.75879497 9.92878809,9.67873394 C9.65281299,9.64576763 9.40321094,9.84262358 9.37024463,10.1176568 C9.33727832,10.3936319 9.53319238,10.6441758 9.80916748,10.6762002 C10.519356,10.7619126 11.2662783,10.8052398 12.0301548,10.8052398 C13.6897729,10.8052398 15.2570854,10.6008487 16.4429307,10.2297422 C16.904459,10.0865743 17.2680303,9.92833599 17.55625,9.76538823 L17.55625,13.4830459 C17.55625,13.5904219 17.2962871,13.9765987 16.1424663,14.3364024 C15.0517524,14.6773682 13.590874,14.8648052 12.0301548,14.8648052 C10.4694355,14.8648052 9.00949902,14.6773682 7.91784326,14.3364024 C6.76402246,13.9765987 6.50500146,13.5904219 6.50500146,13.4830459 L6.50500146,12.2981426 C6.7922793,12.4610904 7.15679248,12.6183868 7.6183208,12.7634385 C8.80322412,13.1326612 10.3705366,13.3370523 12.0301548,13.3370523 C13.019144,13.3370523 13.965748,13.2664102 14.8445356,13.1260679 C15.118627,13.0836827 15.3051221,12.8256036 15.2617949,12.5515123 C15.2175259,12.2774209 14.9603887,12.0909258 14.6862974,12.134253 C13.8715586,12.2632925 12.9532114,12.3329927 12.0301548,12.3329927 C10.4694355,12.3329927 9.00949902,12.1455557 7.91784326,11.803648 C6.76402246,11.4429024 6.50500146,11.0576675 6.50500146,10.9512334 L6.50500146,7.23263384 Z M7.91784326,5.03331011 C9.00949902,4.69234429 10.4694355,4.50396538 12.0301548,4.50396538 C13.590874,4.50396538 15.0517524,4.69234429 16.1424663,5.03331011 C17.2962871,5.39405571 17.55625,5.77929058 17.55625,5.88572466 C17.55625,5.99215874 17.2962871,6.3773936 16.1424663,6.73813921 C15.0517524,7.08004692 13.590874,7.26748394 12.0301548,7.26748394 C10.4694355,7.26748394 9.00949902,7.08004692 7.91784326,6.73813921 C6.76402246,6.3773936 6.50500146,5.99215874 6.50500146,5.88572466 C6.50500146,5.77929058 6.76402246,5.39405571 7.91784326,5.03331011 L7.91784326,5.03331011 Z M19.0632813,14.5511543 C18.8937402,14.5511543 18.7270249,14.5577476 18.5603096,14.5709341 L18.5603096,5.88572466 C18.5603096,5.3610894 18.1929707,4.6217022 16.4429307,4.07446147 C15.2570854,3.70429692 13.6897729,3.49990581 12.0301548,3.49990581 C10.3705366,3.49990581 8.80416602,3.70429692 7.6183208,4.07446147 C5.86733887,4.6217022 5.5,5.3610894 5.5,5.88572466 L5.5,21.082251 C5.5,21.6059444 5.86733887,22.3462735 7.6183208,22.8935142 C8.80416602,23.2636788 10.3705366,23.4680699 12.0301548,23.4680699 C12.3466313,23.4680699 12.6631079,23.4595928 12.9758169,23.4454644 C13.9243047,25.8812037 16.2950532,27.6114639 19.0632813,27.6114639 C22.664144,27.6114639 25.593436,24.6821719 25.593436,21.082251 C25.593436,17.4813882 22.664144,14.5511543 19.0632813,14.5511543 L19.0632813,14.5511543 Z M8.49899219,17.0273951 C8.42646631,17.010441 8.35394043,16.992545 8.28329834,16.9737071 C8.01580029,16.903065 7.74076709,17.064129 7.670125,17.331627 C7.6004248,17.6000669 7.76054688,17.8751001 8.02898682,17.9457422 C8.10622217,17.965522 8.1862832,17.9862437 8.26728613,18.0050816 C8.30590381,18.0145005 8.34546338,18.01921 8.38313916,18.01921 C8.61107764,18.01921 8.81735254,17.8637974 8.87198242,17.6330333 C8.93603125,17.3627095 8.76931592,17.0914439 8.49899219,17.0273951 L8.49899219,17.0273951 Z M8.02804492,10.3474791 C8.10622217,10.3682007 8.18534131,10.3879805 8.26728613,10.4077603 C8.30590381,10.4171792 8.34546338,10.4209468 8.38313916,10.4209468 C8.61107764,10.4209468 8.81735254,10.2655342 8.87198242,10.0347701 C8.93603125,9.76444634 8.76931592,9.49412261 8.49899219,9.43007378 C8.42646631,9.41217778 8.35394043,9.39522368 8.28424023,9.37638579 C8.01580029,9.3057437 7.74076709,9.46586577 7.670125,9.73336382 C7.59948291,10.0018038 7.75960498,10.276837 8.02804492,10.3474791 L8.02804492,10.3474791 Z M20.3678052,22.6260162 C20.3037563,23.0602295 19.9901055,23.4266265 19.5671948,23.5603755 C19.5662529,23.5603755 19.5662529,23.5613174 19.565311,23.5613174 L19.565311,21.5550821 C19.7348521,21.6163052 19.887439,21.6869473 20.011769,21.7707759 C20.4064229,22.0392159 20.3922944,22.4593008 20.3678052,22.6260162 L20.3678052,22.6260162 Z M20.5759639,20.9390831 C20.1558789,20.6546309 19.6359531,20.5114629 19.1348652,20.3730044 C19.0246636,20.3428638 18.9163457,20.3127232 18.8089697,20.2806988 C18.1957964,20.1007969 17.8020845,19.7447608 17.7559316,19.3284434 C17.7191978,18.9921871 17.922647,18.6672334 18.2984629,18.4600167 C18.377582,18.4166895 18.4661201,18.3837232 18.5612515,18.3601758 L18.5612515,19.1070982 C18.5612515,19.3849571 18.7863643,19.6100699 19.0632813,19.6100699 C19.3401982,19.6100699 19.565311,19.3849571 19.565311,19.1070982 L19.565311,18.3969097 C19.8591821,18.4694356 20.1445762,18.5852886 20.378166,18.7275147 C20.6155234,18.8706827 20.9244648,18.7953311 21.0685747,18.5579737 C21.2117427,18.3206163 21.1363911,18.0116749 20.8990337,17.8685069 C20.5269854,17.6424522 20.0560381,17.4578409 19.565311,17.3683609 L19.565311,17.0085572 C19.565311,16.7306983 19.3401982,16.5055855 19.0632813,16.5055855 C18.7863643,16.5055855 18.5612515,16.7306983 18.5612515,17.0085572 L18.5612515,17.3382203 C18.297521,17.375896 18.0441514,17.4531314 17.8133872,17.5802872 C17.0815352,17.983418 16.6765205,18.6954903 16.7575234,19.4377032 C16.8488872,20.2703379 17.5100972,20.9466182 18.5264014,21.2451988 C18.5377041,21.2489664 18.5499487,21.251792 18.5612515,21.2546177 L18.5612515,23.6206568 C18.1449341,23.5509566 17.8011426,23.3748223 17.6909409,23.162896 C17.5628433,22.9161197 17.2595532,22.8200464 17.0137188,22.9481441 C16.7669424,23.0762417 16.671811,23.3785899 16.7989668,23.6253663 C17.1050825,24.2140503 17.8133872,24.5465391 18.5612515,24.6303677 L18.5612515,25.155003 C18.5612515,25.4328619 18.7863643,25.6570328 19.0632813,25.6570328 C19.3401982,25.6570328 19.565311,25.4328619 19.565311,25.155003 L19.565311,24.5945757 C19.6698613,24.5747959 19.7715859,24.5484229 19.8686011,24.5182823 C20.6569668,24.270564 21.2428252,23.5848648 21.3615039,22.7720098 C21.4698218,22.0326226 21.1768926,21.3469234 20.5759639,20.9390831 L20.5759639,20.9390831 Z M16.189561,12.8171265 C16.2375977,12.8171265 16.2856343,12.8105333 16.3336709,12.7964048 C16.4325698,12.7672061 16.5314688,12.7342398 16.6294258,12.7012735 C16.8922144,12.6136773 17.0325566,12.3282833 16.9440186,12.0654947 C16.8545386,11.8017642 16.5691445,11.6614219 16.306356,11.7509019 C16.2206436,11.7801006 16.1330474,11.8074156 16.0463931,11.8328467 C15.7807788,11.9119659 15.6291338,12.1917085 15.7082529,12.4582647 C15.7732437,12.6767842 15.9729253,12.8171265 16.189561,12.8171265 L16.189561,12.8171265 Z" id="path-1"></path>
    </defs>
    <g id="Symbols" stroke="none" stroke-width="1" fill="none" fill-rule="evenodd">
        <g id="ðŸ¼Icons/ðŸ¼MatterType-Debt-Collection" transform="translate(-5.000000, -3.000000)">
            <mask id="mask-2" fill="white">
                <use xlink:href="#path-1"></use>
            </mask>
            <use id="icon29" fill="#35447d" xlink:href="#path-1"></use>
        </g>
    </g>
</svg>