<?xml version="1.0" encoding="UTF-8" standalone="no"?>
<svg width="22px" height="26px" viewBox="0 0 22 26" version="1.1" xmlns="http://www.w3.org/2000/svg" xmlns:xlink="http://www.w3.org/1999/xlink">
    <!-- Generator: Sketch 47.1 (45422) - http://www.bohemiancoding.com/sketch -->
    <title>icon8</title>
    <desc>Created with Sketch.</desc>
    <defs>
        <path d="M7.70852014,9.45025793 L15.3224191,9.45025793 C15.5469576,9.45025793 15.72897,9.26824561 15.72897,9.04200598 C15.72897,8.81746741 15.5469576,8.63545508 15.3224191,8.63545508 L7.70852014,8.63545508 C7.48398157,8.63545508 7.30026819,8.81746741 7.30026819,9.04200598 C7.30026819,9.26824561 7.48398157,9.45025793 7.70852014,9.45025793 L7.70852014,9.45025793 Z M9.33132166,7.28482153 C9.45209619,7.28482153 9.57287073,7.22868689 9.65452112,7.1266239 L10.6003048,5.90867224 L11.5477896,7.1266239 C11.6243368,7.22528479 11.7434103,7.28482153 11.869288,7.28482153 C11.9951656,7.28482153 12.1142391,7.22528479 12.1907864,7.1266239 L13.1382711,5.90867224 L14.0857559,7.1266239 C14.1623031,7.22528479 14.2813766,7.28482153 14.4072543,7.28482153 C14.533132,7.28482153 14.6522054,7.22528479 14.7287527,7.1266239 L15.6762374,5.90867224 L16.6237222,7.1266239 C16.7615072,7.30353308 17.0183657,7.33585303 17.1952749,7.19806799 C17.3738851,7.06028296 17.404504,6.80342444 17.266719,6.62651526 L15.9977358,4.9952085 C15.9211886,4.89484656 15.8021151,4.83701086 15.6762374,4.83701086 C15.5503597,4.83701086 15.4312863,4.89484656 15.354739,4.9952085 L14.4072543,6.21145911 L13.4597695,4.9952085 C13.3832223,4.89484656 13.2641488,4.83701086 13.1382711,4.83701086 C13.0123934,4.83701086 12.8933199,4.89484656 12.8167727,4.9952085 L11.869288,6.21316016 L10.9235043,4.9952085 C10.845256,4.89484656 10.7261825,4.83701086 10.6003048,4.83701086 C10.4744271,4.83701086 10.3570547,4.89484656 10.2788064,4.9952085 L9.00982324,6.62651526 C8.87203821,6.80342444 8.90435815,7.06028296 9.08126733,7.19806799 C9.15611353,7.25590369 9.24456812,7.28482153 9.33132166,7.28482153 L9.33132166,7.28482153 Z M18.5850326,10.2650608 L7.70852014,10.2650608 C7.48398157,10.2650608 7.30026819,10.4487742 7.30026819,10.6733127 C7.30026819,10.8995524 7.48398157,11.0815647 7.70852014,11.0815647 L18.5850326,11.0815647 C18.8095712,11.0815647 18.9915835,10.8995524 18.9915835,10.6733127 C18.9915835,10.4487742 18.8095712,10.2650608 18.5850326,10.2650608 L18.5850326,10.2650608 Z M18.5850326,8.63545508 L16.9537258,8.63545508 C16.7274862,8.63545508 16.5454739,8.81746741 16.5454739,9.04200598 C16.5454739,9.26824561 16.7274862,9.45025793 16.9537258,9.45025793 L18.5850326,9.45025793 C18.8095712,9.45025793 18.9915835,9.26824561 18.9915835,9.04200598 C18.9915835,8.81746741 18.8095712,8.63545508 18.5850326,8.63545508 L18.5850326,8.63545508 Z M24.2410232,19.7824344 L24.2410232,22.2336472 C24.2410232,22.9004587 23.6762747,23.4652073 23.0077621,23.4669083 C22.3375485,23.4635062 21.7932125,22.910665 21.7932125,22.2336472 L21.7932125,19.7824344 L24.2410232,19.7824344 Z M15.7442794,23.4788157 L15.72897,23.4788157 L15.7017532,23.4788157 L15.7017532,21.065026 C16.4076888,20.3761008 16.8091366,19.4303171 16.8091366,18.4420072 C16.8091366,16.4177579 15.1625204,14.7711417 13.1382711,14.7711417 C11.1140219,14.7711417 9.46740564,16.4177579 9.46740564,18.4420072 C9.46740564,19.4099045 9.855245,20.3420798 10.5356649,21.029304 L10.5356649,23.4805167 L6.53479578,23.4805167 C5.8628811,23.4805167 5.31514307,22.9208713 5.31514307,22.2336472 L5.31514307,4.01030066 C5.31514307,3.34008704 5.85097375,2.8161637 6.53479578,2.8161637 L21.3866616,2.8161637 C21.1298031,3.15637366 20.9767086,3.57993506 20.9767086,4.03581641 L20.9767086,22.2336472 C20.9767086,22.6963328 21.1315042,23.1249973 21.3917648,23.4686094 L15.7442794,23.4788157 Z M15.1029836,20.5104838 C15.0451479,20.5411027 14.9958175,20.58533 14.9600955,20.6363615 C14.4480795,21.063325 13.8050826,21.2963688 13.1382711,21.2963688 C12.4306344,21.2963688 11.7502145,21.0361082 11.2245901,20.5598142 C10.6258206,20.0171793 10.2839095,19.2466038 10.2839095,18.4420072 C10.2839095,16.8668351 11.5648,15.5859446 13.1382711,15.5859446 C14.7134432,15.5859446 15.9943337,16.8668351 15.9943337,18.4420072 C15.9943337,19.2244901 15.6694332,19.972952 15.1029836,20.5104838 L15.1029836,20.5104838 Z M14.8869503,26.4641581 L13.3015719,25.6714689 C13.1876016,25.6136332 13.0515176,25.6136332 12.9375472,25.6714689 L11.3521688,26.4641581 L11.3521688,21.6484861 C11.8931027,21.9512729 12.5071816,22.1128727 13.1382711,22.1128727 C13.7540511,22.1128727 14.3528207,21.9580771 14.8869503,21.6688987 L14.8869503,26.4641581 Z M21.7932125,4.03581641 C21.7932125,3.36560278 22.3375485,2.8195658 23.0077621,2.8161637 C23.688182,2.8161637 24.2410232,3.35199438 24.2410232,4.01030066 L24.2410232,6.45811133 L21.7932125,6.45811133 L21.7932125,4.03581641 Z M24.6475741,7.27461523 C24.8738137,7.27461523 25.055826,7.09260291 25.055826,6.86636328 L25.055826,4.01030066 C25.055826,2.90121619 24.1372592,1.99965979 23.0077621,1.99965979 L6.53479578,1.99965979 C5.39339136,1.99965979 4.50034021,2.88250464 4.50034021,4.01030066 L4.50034021,22.2336472 C4.50034021,23.3716495 5.41210291,24.2970206 6.53479578,24.2970206 L10.5356649,24.2970206 L10.5356649,27.1241654 C10.5356649,27.2653525 10.6105111,27.3963334 10.7295846,27.4711796 C10.8503591,27.5460258 11.0000515,27.55283 11.1259292,27.4881901 L13.1195596,26.4930759 L15.1131899,27.4881901 C15.1693246,27.5171079 15.2322634,27.5324174 15.2935012,27.5324174 C15.3683474,27.5324174 15.4431936,27.5103037 15.5078335,27.4711796 C15.628608,27.3963334 15.7017532,27.2653525 15.7017532,27.1241654 L15.7017532,24.2953196 L17.7617245,24.2919175 L17.7685287,24.2919175 L23.0077621,24.2834122 C24.1372592,24.2834122 25.055826,23.3631443 25.055826,22.2336472 L25.055826,19.3741825 C25.055826,19.1496439 24.8738137,18.9676316 24.6475741,18.9676316 L21.7932125,18.9676316 L21.7932125,7.27461523 L24.6475741,7.27461523 Z M16.9537258,11.8963676 L9.3398269,11.8963676 C9.11528833,11.8963676 8.93157495,12.0800809 8.93157495,12.3063206 C8.93157495,12.5308591 9.11528833,12.7128715 9.3398269,12.7128715 L16.9537258,12.7128715 C17.1782644,12.7128715 17.3602767,12.5308591 17.3602767,12.3063206 C17.3602767,12.0800809 17.1782644,11.8963676 16.9537258,11.8963676 L16.9537258,11.8963676 Z M13.1382711,19.665062 C12.4629543,19.665062 11.9152163,19.117324 11.9152163,18.4420072 C11.9152163,17.7683915 12.4629543,17.2172513 13.1382711,17.2172513 C13.8135879,17.2172513 14.3613259,17.7683915 14.3613259,18.4420072 C14.3613259,19.117324 13.8135879,19.665062 13.1382711,19.665062 L13.1382711,19.665062 Z M13.1382711,16.4024485 C12.0138772,16.4024485 11.0987124,17.3176133 11.0987124,18.4420072 C11.0987124,19.5664011 12.0138772,20.4798649 13.1382711,20.4798649 C14.262665,20.4798649 15.1778298,19.5664011 15.1778298,18.4420072 C15.1778298,17.3176133 14.262665,16.4024485 13.1382711,16.4024485 L13.1382711,16.4024485 Z" id="path-1"></path>
    </defs>
    <g id="Symbols" stroke="none" stroke-width="1" fill="none" fill-rule="evenodd">
        <g id="ðŸ¼Icons/ðŸ¼MatterType-Wills" transform="translate(-4.000000, -2.000000)">
            <mask id="mask-2" fill="white">
                <use xlink:href="#path-1"></use>
            </mask>
            <use id="icon8" fill="#35447d" xlink:href="#path-1"></use>
        </g>
    </g>
</svg>