<?xml version="1.0" encoding="UTF-8" standalone="no"?>
<svg width="26px" height="25px" viewBox="0 0 26 25" version="1.1" xmlns="http://www.w3.org/2000/svg" xmlns:xlink="http://www.w3.org/1999/xlink">
    <!-- Generator: Sketch 47.1 (45422) - http://www.bohemiancoding.com/sketch -->
    <title>icon14</title>
    <desc>Created with Sketch.</desc>
    <defs>
        <path d="M10.6311098,22.8870172 L24.1883471,22.8870172 C24.4568339,22.8870172 24.6768314,22.6679176 24.6768314,22.3985328 C24.6768314,22.129148 24.4568339,21.9100484 24.1883471,21.9100484 L10.6311098,21.9100484 C10.361725,21.9100484 10.1435233,22.129148 10.1435233,22.3985328 C10.1435233,22.6679176 10.361725,22.8870172 10.6311098,22.8870172 M10.6311098,10.7778128 L11.8190966,10.7778128 C12.0884813,10.7778128 12.307581,10.5596111 12.307581,10.2902264 C12.307581,10.0208416 12.0884813,9.80174199 11.8190966,9.80174199 L10.6311098,9.80174199 C10.361725,9.80174199 10.1435233,10.0208416 10.1435233,10.2902264 C10.1435233,10.5596111 10.361725,10.7778128 10.6311098,10.7778128 M10.6311098,13.8048894 L11.8190966,13.8048894 C12.0884813,13.8048894 12.307581,13.5866877 12.307581,13.317303 C12.307581,13.0479182 12.0884813,12.8288186 11.8190966,12.8288186 L10.6311098,12.8288186 C10.361725,12.8288186 10.1435233,13.0479182 10.1435233,13.317303 C10.1435233,13.5866877 10.361725,13.8048894 10.6311098,13.8048894 M10.6311098,16.832864 L11.8190966,16.832864 C12.0884813,16.832864 12.307581,16.6137644 12.307581,16.3443796 C12.307581,16.0749948 12.0884813,15.8558952 11.8190966,15.8558952 L10.6311098,15.8558952 C10.361725,15.8558952 10.1435233,16.0749948 10.1435233,16.3443796 C10.1435233,16.6137644 10.361725,16.832864 10.6311098,16.832864 M10.6311098,19.8599406 L11.8190966,19.8599406 C12.0884813,19.8599406 12.307581,19.640841 12.307581,19.3714562 C12.307581,19.1020714 12.0884813,18.8829718 11.8190966,18.8829718 L10.6311098,18.8829718 C10.361725,18.8829718 10.1435233,19.1020714 10.1435233,19.3714562 C10.1435233,19.640841 10.361725,19.8599406 10.6311098,19.8599406 M14.9958613,12.5500054 L18.680147,9.99713574 L22.3635347,12.5500054 L14.9958613,12.5500054 Z M19.6185039,15.1091606 L17.7408921,15.1091606 C17.3044888,15.1091606 16.9497988,15.4638506 16.9497988,15.899356 L16.9497988,18.8832412 L15.072187,18.8832412 L15.072187,13.5260762 L22.287209,13.5260762 L22.287209,18.8832412 L20.4095972,18.8832412 L20.4095972,15.899356 C20.4095972,15.4638506 20.0549072,15.1091606 19.6185039,15.1091606 L19.6185039,15.1091606 Z M17.9267676,18.8832412 L19.4335264,18.8832412 L19.4335264,16.0861294 L17.9267676,16.0861294 L17.9267676,18.8832412 Z M13.7728545,13.5260762 L14.0961162,13.5260762 L14.0961162,19.0520557 C14.0961162,19.4974385 14.4579897,19.86021 14.9033726,19.86021 L22.4569214,19.86021 C22.9014063,19.86021 23.2632798,19.4974385 23.2632798,19.0520557 L23.2632798,13.5260762 L23.5874395,13.5260762 C23.8487427,13.5260762 24.0759238,13.3581597 24.1540454,13.1094277 C24.232167,12.8597979 24.1405762,12.592209 23.9250684,12.4440474 L19.0177759,9.04261572 C18.9190015,8.97526953 18.8022681,8.93935156 18.680147,8.93935156 C18.5571279,8.93935156 18.4403945,8.97526953 18.3425181,9.04351367 L13.4343276,12.4440474 C13.2197178,12.592209 13.127229,12.8597979 13.2053506,13.1094277 C13.2834722,13.3581597 13.5115513,13.5260762 13.7728545,13.5260762 L13.7728545,13.5260762 Z M3.35107627,23.1851363 L3.48217686,23.1159942 L3.35736191,23.0827701 L3.4920543,23.0163219 L3.37083115,22.9561593 L3.50642148,22.9157516 L3.38430039,22.8744459 L3.52527842,22.8205689 L3.40585117,22.7729776 L3.54952305,22.7226925 L3.58364512,22.6131427 C3.7749083,22.0510265 4.20143418,21.6038478 4.76265244,21.3811563 L4.76893809,21.2437701 L4.85603916,21.3479322 L4.88297764,21.2060562 L4.95032383,21.3191979 L4.9772623,21.1809137 L5.04909824,21.2949532 L5.04011875,21.1665465 L5.15146445,21.2743004 L5.17570908,21.1423019 L5.25203477,21.2599332 L5.25921836,21.1315265 L5.34991123,21.2518517 L5.3858292,21.121649 L5.47293027,21.2473619 L5.49627695,21.1189552 L5.49627695,21.1189552 L5.59505137,21.2500558 L5.60223496,21.122547 L5.69382578,21.2572394 L5.7890084,21.2689127 C6.69144736,21.4080948 7.38735801,22.1417193 7.48074473,23.0522398 C7.48703037,23.120484 7.49062217,23.190524 7.49780576,23.3413795 L7.53641758,23.4652965 L7.65674277,23.4221949 L7.58131504,23.5434181 L7.66931406,23.6359068 L7.74743564,23.6888858 L7.79861875,23.5721524 L7.84800596,23.7301915 L7.93420908,23.7445587 L8.04465684,23.7409669 L8.13983945,23.721212 L8.28081748,23.6430904 L8.19820615,23.5461119 L8.36073496,23.5631729 L8.40742832,23.492235 L8.45322373,23.3728077 L8.46579502,23.2740333 L8.46759092,6.75266562 L25.9704171,6.75266562 C26.220047,6.75266562 26.4229835,6.95739805 26.4229835,7.20792588 L26.4229835,24.817608 C26.4229835,25.0690338 26.220047,25.2728683 25.9704171,25.2728683 L5.48370566,25.2728683 C4.93416074,25.2728683 4.42143174,25.0546666 4.03980332,24.658671 C3.6635626,24.2680631 3.46331992,23.7526402 3.47768711,23.2075851 L3.35107627,23.1851363 Z M5.48370566,3.87384043 C6.5899791,3.87384043 7.49062217,4.77717734 7.49062217,5.88794053 L7.49062217,21.0480172 C6.98507676,20.5864713 6.33496152,20.3134947 5.61301035,20.273985 L5.34093174,20.273985 L5.12721982,20.291046 L4.89644688,20.3287599 L4.76265244,20.3592901 C4.28045371,20.4796153 3.84045859,20.7166739 3.47678916,21.0489151 L3.47678916,5.88794053 C3.47678916,4.77717734 4.37743223,3.87384043 5.48370566,3.87384043 L5.48370566,3.87384043 Z M25.9704171,5.77659482 L8.46579502,5.77659482 C8.40653037,4.17914316 7.09193271,2.89776963 5.48370566,2.89776963 C3.8386627,2.89776963 2.49982041,4.23930576 2.49982041,5.88794053 L2.50071836,23.2740333 C2.50341221,24.0462696 2.8006334,24.7789962 3.33670908,25.3366227 C3.90331504,25.9256773 4.66567393,26.249837 5.48370566,26.249837 L25.9704171,26.249837 C26.7579186,26.249837 27.3990543,25.6078033 27.3990543,24.817608 L27.3990543,7.20792588 C27.3990543,6.41862852 26.7579186,5.77659482 25.9704171,5.77659482 L25.9704171,5.77659482 Z" id="path-1"></path>
    </defs>
    <g id="Symbols" stroke="none" stroke-width="1" fill="none" fill-rule="evenodd">
        <g id="ðŸ¼Icons/ðŸ¼MatterType-Planning" transform="translate(-2.000000, -2.000000)">
            <mask id="mask-2" fill="white">
                <use xlink:href="#path-1"></use>
            </mask>
            <use id="icon14" fill="#35447d" xlink:href="#path-1"></use>
        </g>
    </g>
</svg>