<?xml version="1.0" encoding="UTF-8" standalone="no"?>
<svg width="22px" height="26px" viewBox="0 0 22 26" version="1.1" xmlns="http://www.w3.org/2000/svg" xmlns:xlink="http://www.w3.org/1999/xlink">
    <!-- Generator: Sketch 47.1 (45422) - http://www.bohemiancoding.com/sketch -->
    <title>icon10</title>
    <desc>Created with Sketch.</desc>
    <defs>
        <path d="M5.01609838,26.4101372 L24.9839016,26.4101372 L24.9839016,3.58986277 L5.01609838,3.58986277 L5.01609838,26.4101372 Z M25.4593135,2.63903903 L4.54068651,2.63903903 C4.27825109,2.63903903 4.06527464,2.85201548 4.06527464,3.1144509 L4.06527464,26.8855491 C4.06527464,27.1479845 4.27825109,27.360961 4.54068651,27.360961 L25.4593135,27.360961 C25.7217489,27.360961 25.9347254,27.1479845 25.9347254,26.8855491 L25.9347254,3.1144509 C25.9347254,2.85201548 25.7217489,2.63903903 25.4593135,2.63903903 L25.4593135,2.63903903 Z M23.0821027,22.6065899 L18.327984,22.6065899 L18.327984,19.1161987 C19.4498955,18.7190128 20.2296315,17.6440369 20.2296315,16.4262356 C20.2296315,15.4350372 19.7209105,14.5609253 18.9512682,14.0491763 C19.7209105,13.5374272 20.2296315,12.6633153 20.2296315,11.6721169 C20.2296315,10.4543156 19.4498955,9.3793397 18.327984,8.98215378 L18.327984,5.4917626 L23.0821027,5.4917626 L23.0821027,22.6065899 Z M17.3771603,18.7558547 L17.3771603,22.6065899 L12.6225369,22.6065899 L12.6225369,18.7558547 C12.6225369,18.5297565 12.4635616,18.3349487 12.2420055,18.2895271 C11.3608281,18.1108692 10.7208894,17.3270957 10.7208894,16.4262356 C10.7208894,15.378008 11.5743092,14.5245881 12.6225369,14.5245881 C13.6717739,14.5245881 14.5241844,15.378008 14.5241844,16.4262356 C14.5241844,16.688671 14.7371608,16.9016475 15.0001009,16.9016475 C15.2625364,16.9016475 15.4755128,16.688671 15.4755128,16.4262356 C15.4755128,15.378008 16.3284279,14.5245881 17.3771603,14.5245881 C18.4253879,14.5245881 19.2788078,15.378008 19.2788078,16.4262356 C19.2788078,17.3270957 18.6393738,18.1108692 17.7581963,18.2895271 C17.5361356,18.3349487 17.3771603,18.5297565 17.3771603,18.7558547 L17.3771603,18.7558547 Z M11.6722178,22.6065899 L6.91759446,22.6065899 L6.91759446,5.4917626 L11.6722178,5.4917626 L11.6722178,8.98215378 C10.5498017,9.3793397 9.77057036,10.4543156 9.77057036,11.6721169 C9.77057036,12.6633153 10.2787867,13.5374272 11.048429,14.0491763 C10.2787867,14.5609253 9.77057036,15.4350372 9.77057036,16.4262356 C9.77057036,17.6440369 10.5498017,18.7190128 11.6722178,19.1161987 L11.6722178,22.6065899 Z M15.802043,14.0491763 C15.4845971,14.2606387 15.2110586,14.5331677 15.0001009,14.8511184 C14.7886385,14.5336724 14.5156048,14.2606387 14.1976541,14.0491763 C14.5156048,13.8382186 14.7886385,13.5651848 15.0001009,13.2472342 C15.2110586,13.5651848 15.4845971,13.8382186 15.802043,14.0491763 L15.802043,14.0491763 Z M12.6225369,9.34300249 L12.6225369,7.39290539 L14.0492772,7.39290539 C14.3117126,7.39290539 14.5241844,7.18043363 14.5241844,6.91799821 C14.5241844,6.65556278 14.3117126,6.44258634 14.0492772,6.44258634 L12.6225369,6.44258634 L12.6225369,5.4917626 L17.3771603,5.4917626 L17.3771603,9.34249781 C17.3771603,9.56859602 17.5361356,9.76390854 17.7581963,9.80882537 C18.6393738,9.98748334 19.2788078,10.7712568 19.2788078,11.6721169 C19.2788078,12.7208493 18.4253879,13.5737644 17.3771603,13.5737644 C16.3284279,13.5737644 15.4755128,12.7208493 15.4755128,11.6721169 C15.4755128,11.4091768 15.2625364,11.196705 15.0001009,11.196705 C14.7371608,11.196705 14.5241844,11.4091768 14.5241844,11.6721169 C14.5241844,12.7208493 13.6717739,13.5737644 12.6225369,13.5737644 C11.5743092,13.5737644 10.7208894,12.7208493 10.7208894,11.6721169 C10.7208894,10.7712568 11.3608281,9.98748334 12.2420055,9.80882537 C12.4635616,9.76390854 12.6225369,9.56859602 12.6225369,9.34300249 L12.6225369,9.34300249 Z M23.5575146,4.54093886 L6.44218259,4.54093886 C6.17974716,4.54093886 5.96677072,4.75341061 5.96677072,5.01635073 L5.96677072,23.0820018 C5.96677072,23.3449419 6.17974716,23.5579183 6.44218259,23.5579183 L23.5575146,23.5579183 C23.81995,23.5579183 24.0329265,23.3449419 24.0329265,23.0820018 L24.0329265,5.01635073 C24.0329265,4.75341061 23.81995,4.54093886 23.5575146,4.54093886 L23.5575146,4.54093886 Z M22.6067413,24.5203498 L20.7050938,24.5203498 C20.4421537,24.5203498 20.229682,24.7333263 20.229682,24.9957617 C20.229682,25.2581971 20.4421537,25.4711735 20.7050938,25.4711735 L22.6067413,25.4711735 C22.8691768,25.4711735 23.0821532,25.2581971 23.0821532,24.9957617 C23.0821532,24.7333263 22.8691768,24.5203498 22.6067413,24.5203498 M19.2787573,24.5203498 L17.3771098,24.5203498 C17.1141697,24.5203498 16.9016979,24.7333263 16.9016979,24.9957617 C16.9016979,25.2581971 17.1141697,25.4711735 17.3771098,25.4711735 L19.2787573,25.4711735 C19.5411927,25.4711735 19.7541692,25.2581971 19.7541692,24.9957617 C19.7541692,24.7333263 19.5411927,24.5203498 19.2787573,24.5203498 M15.9507733,24.5203498 L14.0491258,24.5203498 C13.7866904,24.5203498 13.5737139,24.7333263 13.5737139,24.9957617 C13.5737139,25.2581971 13.7866904,25.4711735 14.0491258,25.4711735 L15.9507733,25.4711735 C16.2132087,25.4711735 16.4261851,25.2581971 16.4261851,24.9957617 C16.4261851,24.7333263 16.2132087,24.5203498 15.9507733,24.5203498 M15.8115311,6.58187899 C15.7232115,6.49305469 15.6005734,6.44258634 15.4754119,6.44258634 C15.3502504,6.44258634 15.2276123,6.49305469 15.1392926,6.58187899 C15.050973,6.6701986 15,6.79283669 15,6.91799821 C15,7.04265503 15.050973,7.16529313 15.1392926,7.25411743 C15.2276123,7.34243704 15.3502504,7.39290539 15.4754119,7.39290539 C15.6005734,7.39290539 15.7232115,7.34243704 15.8115311,7.25411743 C15.8998507,7.16529313 15.9508237,7.04265503 15.9508237,6.91799821 C15.9508237,6.79283669 15.8998507,6.6701986 15.8115311,6.58187899" id="path-1"></path>
    </defs>
    <g id="Symbols" stroke="none" stroke-width="1" fill="none" fill-rule="evenodd">
        <g id="ðŸ¼Icons/ðŸ¼MatterType-Radiography" transform="translate(-4.000000, -2.000000)">
            <mask id="mask-2" fill="white">
                <use xlink:href="#path-1"></use>
            </mask>
            <use id="icon10" fill="#35447d" xlink:href="#path-1"></use>
        </g>
    </g>
</svg>