<?xml version="1.0" encoding="UTF-8" standalone="no"?>
<svg width="26px" height="12px" viewBox="0 0 26 12" version="1.1" xmlns="http://www.w3.org/2000/svg" xmlns:xlink="http://www.w3.org/1999/xlink">
    <!-- Generator: Sketch 47.1 (45422) - http://www.bohemiancoding.com/sketch -->
    <title>icon16</title>
    <desc>Created with Sketch.</desc>
    <defs>
        <path d="M26.8732478,14.5070483 L26.6306954,14.5070483 C26.246108,14.5070483 25.9319918,14.1934785 25.9319918,13.8077984 L25.9319918,13.1172891 L26.554215,13.1172891 C26.7568882,13.4046372 26.8732478,13.7526232 26.8732478,14.1235535 L26.8732478,14.5070483 Z M26.8732478,17.1505407 L25.0093097,17.1505407 C24.7875164,15.8645765 23.6648925,14.8828952 22.3166513,14.8828952 C20.9684101,14.8828952 19.8463325,15.8645765 19.6239929,17.1505407 L10.1671842,17.1505407 C9.94539091,15.8645765 8.82222076,14.8828952 7.47397954,14.8828952 C6.12573832,14.8828952 5.00311445,15.8645765 4.78132112,17.1505407 L3.06051081,17.1505407 L3.06051081,16.043213 C4.56335181,16.0295557 5.80342781,14.8987375 5.98861978,13.4423311 L8.21857143,13.1172891 L21.5141528,13.1172891 L21.5146991,13.1172891 L21.5152454,13.1172891 L24.8710986,13.1172891 L24.8710986,13.8077984 C24.8710986,14.7780077 25.6610325,15.5679415 26.6306954,15.5679415 L26.8732478,15.5679415 L26.8732478,17.1505407 Z M22.3171976,19.2892621 C21.3934229,19.2892621 20.6439144,18.5408462 20.6439144,17.6165252 C20.6439144,16.6927506 21.3934229,15.9443347 22.3171976,15.9443347 C23.2409723,15.9443347 23.9899345,16.6927506 23.9899345,17.6165252 C23.9899345,18.5408462 23.2409723,19.2892621 22.3171976,19.2892621 L22.3171976,19.2892621 Z M7.47343325,19.2892621 C6.54965857,19.2892621 5.80124266,18.5408462 5.80124266,17.6165252 C5.80124266,16.6927506 6.54965857,15.9443347 7.47343325,15.9443347 C8.39775421,15.9443347 9.14617013,16.6927506 9.14617013,17.6165252 C9.14617013,18.5408462 8.39775421,19.2892621 7.47343325,19.2892621 L7.47343325,19.2892621 Z M4.87364396,13.6073104 C4.65622094,14.3448005 4.00559076,14.8987375 3.21729575,14.9735791 C3.49371798,14.2808847 4.11211711,13.7477066 4.87364396,13.6073104 L4.87364396,13.6073104 Z M12.9723782,10.7436635 C13.624101,10.4126124 14.3386469,10.2055688 15.0663039,10.1350976 L15.0663039,12.0569422 L10.3911627,12.0569422 L12.9723782,10.7436635 Z M16.1266508,10.1066905 L18.658154,10.1066905 C18.7548471,10.1066905 18.8504477,10.1088757 18.9460483,10.1137923 L20.4379635,12.0569422 L16.1266508,12.0569422 L16.1266508,10.1066905 Z M20.8394859,10.5278793 L24.6536756,12.0569422 L21.7752789,12.0569422 L20.5084348,10.4066032 C20.6193314,10.4442971 20.7296818,10.4841762 20.8394859,10.5278793 L20.8394859,10.5278793 Z M26.1750904,11.5237642 L21.2339065,9.54346659 C20.4111953,9.21350805 19.544781,9.04634362 18.658154,9.04634362 L15.6295278,9.04634362 C14.5445979,9.04634362 13.4591217,9.30583088 12.4916439,9.79858355 L8.01480563,12.0749698 L4.80317268,12.5431394 C4.02416458,12.6567675 3.31289632,13.0473642 2.79774581,13.6428192 C2.28314158,14.2377279 2.00016389,14.9987084 2.00016389,15.7853646 L2.00016389,17.6809873 C2.00016389,17.9737982 2.2377996,18.2108877 2.5300642,18.2108877 L4.80535783,18.2108877 C4.91953223,18.727677 5.18120466,19.1991244 5.56743097,19.5755176 C6.08039633,20.0748257 6.75779467,20.3501553 7.47397954,20.3501553 C8.1901644,20.3501553 8.86756274,20.0748257 9.3805281,19.5755176 C9.76784699,19.1985782 10.0295194,18.7260382 10.1431475,18.2108877 L19.6480296,18.2108877 C19.762204,18.727677 20.0238764,19.1991244 20.4101027,19.5749713 C20.9230681,20.0748257 21.6004665,20.3501553 22.3166513,20.3501553 C23.0328362,20.3501553 23.7102345,20.0748257 24.2231999,19.5755176 C24.6094262,19.1991244 24.8710986,18.727677 24.985273,18.2108877 L27.4036944,18.2108877 C27.6965053,18.2108877 27.9335947,17.9737982 27.9335947,17.6809873 L27.9335947,14.1235535 C27.9335947,12.9719763 27.2436317,11.9520547 26.1750904,11.5237642 L26.1750904,11.5237642 Z M16.699107,14.6036322 L13.1815522,14.6036322 C12.8887413,14.6036322 12.6511056,14.8412679 12.6511056,15.1340788 C12.6511056,15.4268897 12.8887413,15.6639791 13.1815522,15.6639791 L16.699107,15.6639791 C16.9919179,15.6639791 17.2295536,15.4268897 17.2295536,15.1340788 C17.2295536,14.8412679 16.9919179,14.6036322 16.699107,14.6036322 M7.47354251,16.9136152 C7.08567732,16.9136152 6.77101487,17.2282777 6.77101487,17.6166891 C6.77101487,18.0051006 7.08567732,18.3197631 7.47354251,18.3197631 C7.86250026,18.3197631 8.17716272,18.0051006 8.17716272,17.6166891 C8.17716272,17.2282777 7.86250026,16.9136152 7.47354251,16.9136152 M22.3169791,16.9136152 C21.9285676,16.9136152 21.6139052,17.2282777 21.6139052,17.6166891 C21.6139052,18.0051006 21.9285676,18.3197631 22.3169791,18.3197631 C22.7048443,18.3197631 23.020053,18.0051006 23.020053,17.6166891 C23.020053,17.2282777 22.7048443,16.9136152 22.3169791,16.9136152" id="path-1"></path>
    </defs>
    <g id="Symbols" stroke="none" stroke-width="1" fill="none" fill-rule="evenodd">
        <g id="ðŸ¼Icons/ðŸ¼MatterType-Motor" transform="translate(-2.000000, -9.000000)">
            <mask id="mask-2" fill="white">
                <use xlink:href="#path-1"></use>
            </mask>
            <use id="icon16" fill="#35447d" xlink:href="#path-1"></use>
        </g>
    </g>
</svg>