<?xml version="1.0" encoding="UTF-8" standalone="no"?>
<svg width="24px" height="24px" viewBox="0 0 24 24" version="1.1" xmlns="http://www.w3.org/2000/svg" xmlns:xlink="http://www.w3.org/1999/xlink">
    <!-- Generator: Sketch 47.1 (45422) - http://www.bohemiancoding.com/sketch -->
    <title>icon9</title>
    <desc>Created with Sketch.</desc>
    <defs>
        <path d="M3,21.2990945 L12.7040653,21.2990945 L12.7040653,5.62310702 L3,5.62310702 L3,21.2990945 Z M3.74642861,20.5526659 L11.95813,20.5526659 L11.95813,6.36953563 L3.74642861,6.36953563 L3.74642861,20.5526659 Z M8.7845504,3.00024667 L8.7845504,5.2622263 L9.52259217,5.2622263 L9.52259217,3.7377951 L22.6080333,3.7377951 L22.6080333,26.1701209 L9.52259217,26.1701209 L9.52259217,21.6935226 L8.7845504,21.6935226 L8.7845504,26.9076693 L23.3460751,26.9076693 L23.3460751,3.00024667 L8.7845504,3.00024667 Z M18.4751967,5.60682669 L21.4762048,5.60682669 L21.4762048,4.86927826 L18.4751967,4.86927826 L18.4751967,5.60682669 Z M13.9985985,9.00152284 L14.7366402,9.00152284 L14.7366402,8.26348107 L13.9985985,8.26348107 L13.9985985,9.00152284 Z M15.5240163,9.00152284 L21.4762048,9.00152284 L21.4762048,8.26348107 L15.5240163,8.26348107 L15.5240163,9.00152284 Z M13.9985985,10.4776064 L14.7366402,10.4776064 L14.7366402,9.73956461 L13.9985985,9.73956461 L13.9985985,10.4776064 Z M15.5240163,10.4776064 L21.4762048,10.4776064 L21.4762048,9.73956461 L15.5240163,9.73956461 L15.5240163,10.4776064 Z M13.9985985,11.9531966 L14.7366402,11.9531966 L14.7366402,11.2151548 L13.9985985,11.2151548 L13.9985985,11.9531966 Z M15.5240163,11.9531966 L21.4762048,11.9531966 L21.4762048,11.2151548 L15.5240163,11.2151548 L15.5240163,11.9531966 Z M13.9985985,13.4781211 L14.7366402,13.4781211 L14.7366402,12.7405727 L13.9985985,12.7405727 L13.9985985,13.4781211 Z M15.5240163,13.4781211 L21.4762048,13.4781211 L21.4762048,12.7405727 L15.5240163,12.7405727 L15.5240163,13.4781211 Z M13.9985985,14.9542047 L14.7366402,14.9542047 L14.7366402,14.2161629 L13.9985985,14.2161629 L13.9985985,14.9542047 Z M15.5240163,14.9542047 L21.4762048,14.9542047 L21.4762048,14.2161629 L15.5240163,14.2161629 L15.5240163,14.9542047 Z M13.9985985,16.4297949 L14.7366402,16.4297949 L14.7366402,15.6917531 L13.9985985,15.6917531 L13.9985985,16.4297949 Z M15.5240163,16.4297949 L21.4762048,16.4297949 L21.4762048,15.6917531 L15.5240163,15.6917531 L15.5240163,16.4297949 Z M13.9985985,17.9547194 L14.7366402,17.9547194 L14.7366402,17.217171 L13.9985985,17.217171 L13.9985985,17.9547194 Z M15.5240163,17.9547194 L21.4762048,17.9547194 L21.4762048,17.217171 L15.5240163,17.217171 L15.5240163,17.9547194 Z M13.9985985,19.4303096 L14.7366402,19.4303096 L14.7366402,18.6927612 L13.9985985,18.6927612 L13.9985985,19.4303096 Z M15.5240163,19.4303096 L21.4762048,19.4303096 L21.4762048,18.6927612 L15.5240163,18.6927612 L15.5240163,19.4303096 Z M16.6059185,21.2995879 L17.737155,21.2995879 L17.737155,20.5620395 L16.6059185,20.5620395 L16.6059185,21.2995879 Z M18.4751967,21.2995879 L21.4762048,21.2995879 L21.4762048,20.5620395 L18.4751967,20.5620395 L18.4751967,21.2995879 Z M16.6059185,22.4313177 L17.737155,22.4313177 L17.737155,21.6932759 L16.6059185,21.6932759 L16.6059185,22.4313177 Z M18.4751967,22.4313177 L21.4762048,22.4313177 L21.4762048,21.6932759 L18.4751967,21.6932759 L18.4751967,22.4313177 Z M18.4751967,23.5132199 L21.4762048,23.5132199 L21.4762048,22.7756714 L18.4751967,22.7756714 L18.4751967,23.5132199 Z M10.65373,25.3824981 L14.7366402,25.3824981 L14.7366402,24.6449497 L10.65373,24.6449497 L10.65373,25.3824981 Z M23.7392205,13.0850251 L24.4772623,13.0850251 L24.4772623,10.0859904 L25.0214201,10.0894438 L25.0214201,21.2991932 L26.8877383,21.2991932 L26.8877383,9.35534875 L23.7392205,9.34400185 L23.7392205,13.0850251 Z M25.7678487,20.5522713 L26.1408163,20.5522713 L26.1408163,10.1017774 L25.7678487,10.1017774 L25.7678487,20.5522713 Z M25.0184107,7.13263925 L25.0184107,9.00191751 L25.7564524,9.00191751 L25.7564524,7.87018768 L26.1496472,7.87018768 L26.1496472,9.00191751 L26.8876889,9.00191751 L26.8876889,7.13263925 L25.0184107,7.13263925 Z M26.1497458,22.7759674 L26.1497458,23.4858886 L25.9820091,24.0645805 L25.7565511,23.470595 L25.7565511,22.7759674 L25.0185093,22.7759674 L25.0185093,23.6062644 L25.5626671,25.0384404 L26.467459,25.0384404 L26.8877876,23.5909708 L26.8877876,22.7759674 L26.1497458,22.7759674 Z M25.0179173,22.4313177 L26.8876889,22.4313177 L26.8876889,21.6932759 L25.0179173,21.6932759 L25.0179173,22.4313177 Z M4.8663182,14.2072827 L10.8382404,14.2072827 L10.8382404,7.48893188 L4.8663182,7.48893188 L4.8663182,14.2072827 Z M4.11988959,14.9542047 L11.584669,14.9542047 L11.584669,6.74250327 L4.11988959,6.74250327 L4.11988959,14.9542047 Z M4.30785344,16.4297949 L5.04589521,16.4297949 L5.04589521,15.6917531 L4.30785344,15.6917531 L4.30785344,16.4297949 Z M5.78344364,16.4297949 L6.52148541,16.4297949 L6.52148541,15.6917531 L5.78344364,15.6917531 L5.78344364,16.4297949 Z M7.30836818,16.4297949 L8.04640996,16.4297949 L8.04640996,15.6917531 L7.30836818,15.6917531 L7.30836818,16.4297949 Z M8.78445173,16.4297949 L9.5224935,16.4297949 L9.5224935,15.6917531 L8.78445173,15.6917531 L8.78445173,16.4297949 Z M4.30785344,17.5610314 L5.04589521,17.5610314 L5.04589521,16.8234829 L4.30785344,16.8234829 L4.30785344,17.5610314 Z M5.78344364,17.5610314 L6.52148541,17.5610314 L6.52148541,16.8234829 L5.78344364,16.8234829 L5.78344364,17.5610314 Z M7.30836818,17.5610314 L8.04640996,17.5610314 L8.04640996,16.8234829 L7.30836818,16.8234829 L7.30836818,17.5610314 Z M8.78445173,17.5610314 L9.5224935,17.5610314 L9.5224935,16.8234829 L8.78445173,16.8234829 L8.78445173,17.5610314 Z M4.30785344,18.6927612 L5.04589521,18.6927612 L5.04589521,17.9547194 L4.30785344,17.9547194 L4.30785344,18.6927612 Z M5.78344364,18.6927612 L6.52148541,18.6927612 L6.52148541,17.9547194 L5.78344364,17.9547194 L5.78344364,18.6927612 Z M7.30836818,18.6927612 L8.04640996,18.6927612 L8.04640996,17.9547194 L7.30836818,17.9547194 L7.30836818,18.6927612 Z M8.78445173,18.6927612 L9.5224935,18.6927612 L9.5224935,17.9547194 L8.78445173,17.9547194 L8.78445173,18.6927612 Z M4.30785344,19.8239977 L5.04589521,19.8239977 L5.04589521,19.0864493 L4.30785344,19.0864493 L4.30785344,19.8239977 Z M5.78344364,19.8239977 L6.52148541,19.8239977 L6.52148541,19.0864493 L5.78344364,19.0864493 L5.78344364,19.8239977 Z M7.30836818,19.8239977 L8.04640996,19.8239977 L8.04640996,19.0864493 L7.30836818,19.0864493 L7.30836818,19.8239977 Z M8.78445173,19.8239977 L9.5224935,19.8239977 L9.5224935,19.0864493 L8.78445173,19.0864493 L8.78445173,19.8239977 Z M10.2600419,17.5610314 L10.9980837,17.5610314 L10.9980837,15.6917531 L10.2600419,15.6917531 L10.2600419,17.5610314 Z M10.2600419,19.8239977 L10.9980837,19.8239977 L10.9980837,17.9547194 L10.2600419,17.9547194 L10.2600419,19.8239977 Z M7.30836818,8.60832812 L8.04640996,8.60832812 L8.04640996,7.87028635 L7.30836818,7.87028635 L7.30836818,8.60832812 Z M8.39076367,8.60832812 L9.17813979,8.60832812 L9.17813979,7.87028635 L8.39076367,7.87028635 L8.39076367,8.60832812 Z M9.5224935,8.60832812 L10.2605353,8.60832812 L10.2605353,7.87028635 L9.5224935,7.87028635 L9.5224935,8.60832812 Z" id="path-1"></path>
    </defs>
    <g id="Symbols" stroke="none" stroke-width="1" fill="none" fill-rule="evenodd">
        <g id="ðŸ¼Icons/ðŸ¼MatterType-Taxation" transform="translate(-3.000000, -3.000000)">
            <mask id="mask-2" fill="white">
                <use xlink:href="#path-1"></use>
            </mask>
            <use id="icon9" fill="#35447d" xlink:href="#path-1"></use>
        </g>
    </g>
</svg>