<?xml version="1.0" encoding="UTF-8" standalone="no"?>
<svg width="20px" height="18px" viewBox="0 0 20 18" version="1.1" xmlns="http://www.w3.org/2000/svg" xmlns:xlink="http://www.w3.org/1999/xlink">
    <!-- Generator: Sketch 47.1 (45422) - http://www.bohemiancoding.com/sketch -->
    <title>icon28</title>
    <desc>Created with Sketch.</desc>
    <defs>
        <path d="M6.2911197,15.7539632 C6.51421756,15.8554325 6.74672316,15.907847 6.98594858,15.907847 L13.291151,15.907847 L13.291151,17.0031769 C13.291151,17.2827212 13.5182808,17.5105229 13.7978251,17.5105229 L16.2021749,17.5105229 C16.4817192,17.5105229 16.7095209,17.2827212 16.7095209,17.0031769 L16.7095209,15.907847 L23.0140514,15.907847 C23.2532768,15.907847 23.4857824,15.8554325 23.7088803,15.7539632 L23.7088803,21.4107036 C23.7088803,21.793733 23.3970809,22.1055324 23.0140514,22.1055324 L6.98594858,22.1055324 C6.60291912,22.1055324 6.2911197,21.793733 6.2911197,21.4107036 L6.2911197,15.7539632 Z M23.7088803,14.198998 C23.7088803,14.5820275 23.3970809,14.8938269 23.0140514,14.8938269 L16.708849,14.8938269 L16.708849,14.598827 C16.708849,14.3192827 16.4817192,14.091481 16.2021749,14.091481 L13.7978251,14.091481 C13.5182808,14.091481 13.291151,14.3192827 13.291151,14.598827 L13.291151,14.8938269 L6.98594858,14.8938269 C6.60291912,14.8938269 6.2911197,14.5820275 6.2911197,14.198998 L6.2911197,10.9929743 C6.2911197,10.6099448 6.60291912,10.2981454 6.98594858,10.2981454 L23.0140514,10.2981454 C23.3970809,10.2981454 23.7088803,10.6099448 23.7088803,10.9929743 L23.7088803,14.198998 Z M14.3051711,16.4958308 L15.6948289,16.4958308 L15.6948289,15.1061731 L14.3051711,15.1061731 L14.3051711,16.4958308 Z M12.5956502,7.89379559 L17.4043498,7.89379559 C17.7873793,7.89379559 18.0991787,8.20559501 18.0991787,8.58862446 L18.0991787,9.28345334 L11.9008213,9.28345334 L11.9008213,8.58862446 C11.9008213,8.20559501 12.2126207,7.89379559 12.5956502,7.89379559 L12.5956502,7.89379559 Z M23.0140514,9.28345334 L19.1131988,9.28345334 L19.1131988,8.58862446 C19.1131988,7.64650639 18.3464679,6.8797755 17.4043498,6.8797755 L12.5956502,6.8797755 C11.6528601,6.8797755 10.8868012,7.64650639 10.8868012,8.58862446 L10.8868012,9.28345334 L6.98594858,9.28345334 C6.04383051,9.28345334 5.27709961,10.0508562 5.27709961,10.9929743 L5.27709961,21.4107036 C5.27709961,22.3534936 6.04383051,23.1202245 6.98594858,23.1202245 L23.0140514,23.1202245 C23.9561695,23.1202245 24.7229004,22.3534936 24.7229004,21.4107036 L24.7229004,10.9929743 C24.7229004,10.0508562 23.9561695,9.28345334 23.0140514,9.28345334 L23.0140514,9.28345334 Z" id="path-1"></path>
    </defs>
    <g id="Symbols" stroke="none" stroke-width="1" fill="none" fill-rule="evenodd">
        <g id="ðŸ¼Icons/ðŸ¼MatterType-Employment" transform="translate(-5.000000, -6.000000)">
            <mask id="mask-2" fill="white">
                <use xlink:href="#path-1"></use>
            </mask>
            <use id="icon28" fill="#35447d" xlink:href="#path-1"></use>
        </g>
    </g>
</svg>