<?xml version="1.0" encoding="UTF-8" standalone="no"?>
<svg width="12px" height="26px" viewBox="0 0 12 26" version="1.1" xmlns="http://www.w3.org/2000/svg" xmlns:xlink="http://www.w3.org/1999/xlink">
    <!-- Generator: Sketch 47.1 (45422) - http://www.bohemiancoding.com/sketch -->
    <title>icon30</title>
    <desc>Created with Sketch.</desc>
    <defs>
        <path d="M15.0126292,20.934377 C17.1377266,22.8586224 19.1450329,24.6755199 19.1450329,26.9169512 C19.1450329,27.2032929 18.9133365,27.4352321 18.6269948,27.4352321 C18.3404103,27.4352321 18.1087139,27.2032929 18.1087139,26.9169512 C18.1087139,26.3862841 17.9309343,25.866546 17.6499358,25.3506937 C17.6295348,25.3531224 17.6118054,25.3625943 17.5906759,25.3625943 L14.4817191,25.3625943 C14.1953774,25.3625943 13.9636811,25.1306551 13.9636811,24.8445563 C13.9636811,24.5579717 14.1953774,24.3262754 14.4817191,24.3262754 L16.9609185,24.3262754 C16.4205365,23.6620306 15.7346765,22.9990002 15.0012143,22.3255265 C13.2712636,23.9172852 11.8910432,25.3817809 11.8910432,26.9169512 C11.8910432,27.2032929 11.6593469,27.4352321 11.3730052,27.4352321 C11.0864206,27.4352321 10.8547243,27.2032929 10.8547243,26.9169512 C10.8547243,24.9973204 12.3503071,23.364517 14.2325362,21.6260659 C12.0479361,19.647418 9.81864821,17.5966383 9.81864821,14.9998907 C9.81864821,12.8223338 11.4002064,11.0248656 13.1090276,9.40736293 C13.3164371,9.21136823 13.644795,9.21962575 13.8417612,9.427521 C14.0379988,9.63565911 14.0294984,9.96328841 13.8213603,10.1602546 C12.9028324,11.029723 12.0323925,11.9492223 11.4733098,12.9274957 L17.072395,12.9274957 C17.3589796,12.9274957 17.5906759,13.159192 17.5906759,13.4455337 C17.5906759,13.7321183 17.3589796,13.9638146 17.072395,13.9638146 L11.0254607,13.9638146 C10.9241846,14.3026159 10.8549671,14.6465174 10.8549671,14.9998907 C10.8549671,17.1701616 12.9684069,19.0839636 15.0126292,20.934377 Z M14.9873708,9.06586585 C12.8622734,7.1416205 10.8549671,5.32472294 10.8549671,3.08304875 C10.8549671,2.79670706 11.0866635,2.56476785 11.3730052,2.56476785 C11.6593469,2.56476785 11.8910432,2.79670706 11.8910432,3.08304875 C11.8910432,4.65392076 13.3234803,6.13614584 14.9987857,7.6744735 C15.7431769,6.98934209 16.4188365,6.32728318 16.9504751,5.67372465 L14.4817191,5.67372465 C14.1953774,5.67372465 13.9636811,5.44202831 13.9636811,5.15544375 C13.9636811,4.86934492 14.1953774,4.63764858 14.4817191,4.63764858 L17.5906759,4.63764858 C17.6113197,4.63764858 17.6288062,4.64687758 17.6489643,4.64906339 C17.9326344,4.13029676 18.1087139,3.61104438 18.1087139,3.08304875 C18.1087139,2.79670706 18.3404103,2.56476785 18.6269948,2.56476785 C18.9133365,2.56476785 19.1450329,2.79670706 19.1450329,3.08304875 C19.1450329,5.0026796 17.64945,6.63548302 15.7674638,8.374177 C17.9520639,10.352582 20.1813518,12.4033617 20.1813518,15.0001093 C20.1813518,17.1776662 18.5995507,18.9751344 16.8907295,20.5926371 C16.7906678,20.6873557 16.6626762,20.7344721 16.5346846,20.7344721 C16.3974641,20.7344721 16.2604863,20.6803125 16.1582388,20.572479 C15.9620012,20.3643409 15.9705016,20.0367116 16.1783969,19.8397454 C17.0969247,18.970277 17.9676075,18.0507777 18.5266902,17.0727472 L12.9273621,17.0727472 C12.6410204,17.0727472 12.4093241,16.840808 12.4093241,16.5544663 C12.4093241,16.2678817 12.6410204,16.0361854 12.9273621,16.0361854 L18.9742965,16.0361854 C19.0758154,15.697627 19.1450329,15.3534826 19.1450329,15.0001093 C19.1450329,12.8298384 17.0315931,10.9162792 14.9873708,9.06586585 Z" id="path-1"></path>
    </defs>
    <g id="Symbols" stroke="none" stroke-width="1" fill="none" fill-rule="evenodd">
        <g id="ðŸ¼Icons/ðŸ¼MatterType-Corporate-Structure" transform="translate(-9.000000, -2.000000)">
            <mask id="mask-2" fill="white">
                <use xlink:href="#path-1"></use>
            </mask>
            <use id="icon30" fill="#35447d" xlink:href="#path-1"></use>
        </g>
    </g>
</svg>