<?xml version="1.0" encoding="UTF-8" standalone="no"?>
<svg width="20px" height="28px" viewBox="0 0 20 28" version="1.1" xmlns="http://www.w3.org/2000/svg" xmlns:xlink="http://www.w3.org/1999/xlink">
    <!-- Generator: Sketch 47.1 (45422) - http://www.bohemiancoding.com/sketch -->
    <title>icon24</title>
    <desc>Created with Sketch.</desc>
    <defs>
        <path d="M23.7105,26.836 C23.7105,26.975 23.5935,27.092 23.4545,27.092 L6.5455,27.092 C6.4065,27.092 6.2895,26.975 6.2895,26.836 L6.2895,26.58 L6.8015,26.58 L23.1985,26.58 L23.7105,26.58 L23.7105,26.836 Z M6.2895,15.819 C6.2895,15.537 6.5195,15.308 6.8015,15.308 L23.1985,15.308 C23.4805,15.308 23.7105,15.537 23.7105,15.819 L23.7105,25.043 C23.7105,25.325 23.4805,25.555 23.1985,25.555 L6.8015,25.555 C6.5195,25.555 6.2895,25.325 6.2895,25.043 L6.2895,15.819 Z M7.8715,12.787 C8.1695,12.475 8.6935,12.19 9.5215,11.893 L11.3055,11.25 C12.1295,12.402 13.4785,13.155 15.0005,13.155 C16.5215,13.155 17.8705,12.402 18.6945,11.25 L20.4785,11.893 C22.3005,12.549 22.5285,13.021 22.6085,14.282 L7.3935,14.282 C7.4465,13.541 7.5465,13.128 7.8715,12.787 L7.8715,12.787 Z M12.5115,7.517 C13.0765,7.517 13.5365,7.977 13.5365,8.541 C13.5365,9.107 13.0765,9.566 12.5115,9.566 C11.9465,9.566 11.4865,9.107 11.4865,8.541 C11.4865,7.977 11.9465,7.517 12.5115,7.517 L12.5115,7.517 Z M11.4885,6.327 C11.5065,5.952 11.6295,5.68 11.8565,5.518 C12.1415,5.315 12.5425,5.313 12.7245,5.375 C12.8435,5.416 12.9685,5.497 13.1145,5.591 C13.4975,5.838 14.0215,6.176 15.0005,6.176 C15.9795,6.176 16.5025,5.838 16.8855,5.591 C17.0315,5.497 17.1565,5.416 17.2755,5.375 C17.4575,5.313 17.8585,5.315 18.1435,5.518 C18.3705,5.68 18.4935,5.952 18.5115,6.327 C18.5125,6.358 18.5135,6.39 18.5135,6.421 L18.5135,6.768 C18.2115,6.593 17.8615,6.492 17.4885,6.492 C16.5355,6.492 15.7325,7.147 15.5035,8.029 L14.4965,8.029 C14.2685,7.147 13.4645,6.492 12.5115,6.492 C12.1385,6.492 11.7885,6.593 11.4865,6.768 L11.4865,6.421 C11.4865,6.39 11.4875,6.358 11.4885,6.327 L11.4885,6.327 Z M15.0005,2.907 C16.1565,2.907 17.1845,3.47 17.8245,4.335 C17.4945,4.291 17.1785,4.324 16.9425,4.405 C16.7055,4.487 16.5145,4.61 16.3305,4.73 C15.9945,4.946 15.6765,5.15 15.0005,5.15 C14.3225,5.15 14.0055,4.946 13.6695,4.73 C13.4845,4.61 13.2935,4.487 13.0575,4.405 C12.8215,4.324 12.5055,4.291 12.1755,4.335 C12.8155,3.47 13.8435,2.907 15.0005,2.907 L15.0005,2.907 Z M17.9375,10.541 C17.3095,11.497 16.2275,12.13 15.0005,12.13 C13.7725,12.13 12.6905,11.497 12.0625,10.541 C12.2075,10.573 12.3565,10.591 12.5115,10.591 C13.4645,10.591 14.2685,9.937 14.4965,9.054 L15.5035,9.054 C15.7315,9.937 16.5355,10.591 17.4885,10.591 C17.6435,10.591 17.7935,10.573 17.9375,10.541 L17.9375,10.541 Z M17.4885,9.566 C16.9235,9.566 16.4635,9.107 16.4635,8.541 C16.4635,7.977 16.9235,7.517 17.4885,7.517 C18.0535,7.517 18.5135,7.977 18.5135,8.541 C18.5135,9.107 18.0535,9.566 17.4885,9.566 L17.4885,9.566 Z M24.7355,15.819 L24.7355,25.043 C24.7355,25.279 24.6815,25.504 24.5855,25.705 C24.6775,25.798 24.7355,25.926 24.7355,26.067 L24.7355,26.836 C24.7355,27.542 24.1605,28.117 23.4545,28.117 L6.5455,28.117 C5.8395,28.117 5.2645,27.542 5.2645,26.836 L5.2645,26.067 C5.2645,25.926 5.3225,25.798 5.4155,25.705 C5.3185,25.504 5.2645,25.279 5.2645,25.043 L5.2645,15.819 C5.2645,15.125 5.7275,14.537 6.3605,14.348 C6.4115,13.477 6.5245,12.715 7.1305,12.08 C7.5475,11.643 8.1785,11.287 9.1745,10.929 L10.8025,10.342 C10.5835,9.81 10.4615,9.228 10.4615,8.617 L10.4615,6.421 C10.4615,3.919 12.4975,1.883 15.0005,1.883 C17.5025,1.883 19.5385,3.919 19.5385,6.421 L19.5385,8.617 C19.5385,9.228 19.4175,9.81 19.1975,10.342 L20.8255,10.929 C23.2195,11.791 23.5355,12.687 23.6375,14.347 C24.2725,14.536 24.7355,15.125 24.7355,15.819 Z M16.025,21.9679 C16.307,21.9679 16.537,21.7389 16.537,21.4559 C16.537,21.1739 16.307,20.9439 16.025,20.9439 L15.512,20.9439 L15.512,21.9679 L16.025,21.9679 Z M14.487,19.9189 L14.487,18.8939 L13.975,18.8939 C13.692,18.8939 13.463,19.1239 13.463,19.4059 C13.463,19.6889 13.692,19.9189 13.975,19.9189 L14.487,19.9189 Z M16.025,19.9189 C16.873,19.9189 17.562,20.6089 17.562,21.4559 C17.562,22.3039 16.872,22.9929 16.025,22.9929 L15.512,22.9929 L15.512,23.4889 C15.512,23.7729 15.283,24.0019 15,24.0019 C14.717,24.0019 14.487,23.7729 14.487,23.4889 L14.487,22.9929 L12.951,22.9929 C12.668,22.9929 12.438,22.7639 12.438,22.4809 C12.438,22.1969 12.668,21.9689 12.951,21.9689 L14.487,21.9689 L14.487,20.9439 L13.975,20.9439 C13.128,20.9439 12.438,20.2539 12.438,19.4059 C12.438,18.5589 13.128,17.8689 13.975,17.8689 L14.488,17.8689 L14.488,17.3729 C14.488,17.0899 14.717,16.8609 15,16.8609 C15.283,16.8609 15.512,17.0899 15.512,17.3729 L15.512,17.8689 L17.049,17.8689 C17.333,17.8689 17.562,18.0989 17.562,18.3819 C17.562,18.6649 17.333,18.8939 17.049,18.8939 L15.512,18.8939 L15.512,19.9189 L16.025,19.9189 Z M19.1109,23.506 C19.3939,23.506 19.6239,23.735 19.6239,24.018 C19.6239,24.301 19.3939,24.53 19.1109,24.53 L19.0989,24.53 C18.8159,24.53 18.5869,24.301 18.5869,24.018 C18.5869,23.735 18.8159,23.506 19.0989,23.506 L19.1109,23.506 Z M22.1734,23.506 C22.4564,23.506 22.6854,23.735 22.6854,24.018 C22.6854,24.301 22.4564,24.53 22.1734,24.53 L20.5834,24.53 C20.3004,24.53 20.0704,24.301 20.0704,24.018 C20.0704,23.735 20.2994,23.506 20.5834,23.506 L22.1734,23.506 Z M9.4166,16.3321 C9.6996,16.3321 9.9296,16.5611 9.9296,16.8451 C9.9296,17.1271 9.6996,17.3561 9.4166,17.3561 L7.8266,17.3561 C7.5436,17.3561 7.3146,17.1271 7.3146,16.8451 C7.3146,16.5611 7.5436,16.3321 7.8266,16.3321 L9.4166,16.3321 Z M10.901,16.3321 C11.184,16.3321 11.413,16.5611 11.413,16.8451 C11.413,17.1271 11.184,17.3561 10.901,17.3561 L10.889,17.3561 C10.606,17.3561 10.377,17.1271 10.377,16.8451 C10.377,16.5611 10.606,16.3321 10.889,16.3321 L10.901,16.3321 Z" id="path-1"></path>
    </defs>
    <g id="Symbols" stroke="none" stroke-width="1" fill="none" fill-rule="evenodd">
        <g id="ðŸ¼Icons/ðŸ¼MatterType-Fraud" transform="translate(-5.000000, -1.000000)">
            <mask id="mask-2" fill="white">
                <use xlink:href="#path-1"></use>
            </mask>
            <use id="icon24" fill="#35447d" xlink:href="#path-1"></use>
        </g>
    </g>
</svg>