<?xml version="1.0" encoding="UTF-8" standalone="no"?>
<svg width="20px" height="24px" viewBox="0 0 20 24" version="1.1" xmlns="http://www.w3.org/2000/svg" xmlns:xlink="http://www.w3.org/1999/xlink">
    <!-- Generator: Sketch 47.1 (45422) - http://www.bohemiancoding.com/sketch -->
    <title>icon26</title>
    <desc>Created with Sketch.</desc>
    <defs>
        <path d="M24.0801302,20.1650532 C24.0801302,20.8620096 23.5134743,21.4316957 22.8134876,21.4316957 L20.7014066,21.4316957 L20.7014066,20.5892875 L21.9710794,20.5892875 C22.6680358,20.5892875 23.2377219,20.0196014 23.2377219,19.322645 L23.2377219,15.0954527 C23.2377219,14.3984963 22.6680358,13.8288102 21.9710794,13.8288102 L20.7014066,13.8288102 L20.7014066,12.986402 L22.8134876,12.986402 C23.5134743,12.986402 24.0801302,13.5530579 24.0801302,14.2530445 L24.0801302,20.1650532 Z M18.1681215,25.5588899 L9.7197975,25.5588899 C8.78951218,25.5588899 8.0289206,24.8013285 8.0289206,23.8710432 L10.1410016,23.8710432 L12.6773169,23.8710432 L15.2106021,23.8710432 L17.7438872,23.8710432 L19.8559682,23.8710432 C19.8559682,24.8013285 19.0984068,25.5588899 18.1681215,25.5588899 L18.1681215,25.5588899 Z M6.76227805,12.0409654 L6.34107395,12.0409654 C6.10774506,12.0409654 5.91986985,11.8530902 5.91986985,11.6227916 L5.91986985,8.24103778 C5.91986985,7.31075246 6.67743118,6.55319112 7.6077165,6.55319112 C7.72892632,6.55319112 7.85619662,6.56834235 7.99255766,6.60167505 C8.10770698,6.62591701 8.22285631,6.60773554 8.31679391,6.54713063 C8.41376176,6.48349548 8.4834574,6.38955788 8.50466912,6.2774388 C8.73193752,5.21079244 9.6864648,4.44111013 10.7743229,4.44111013 C11.492491,4.44111013 12.1561148,4.76534638 12.6045911,5.33200225 C12.7227706,5.48351452 12.9257971,5.53805894 13.1045815,5.45927256 C13.3712431,5.34109299 13.6560862,5.28654857 13.9439595,5.28654857 C14.7378838,5.28654857 15.4560519,5.7229039 15.8196814,6.43198131 C15.877256,6.54410039 15.9802844,6.62288677 16.1045244,6.65015898 C16.2257342,6.67743118 16.3560348,6.65015898 16.4530026,6.57440284 C16.8287531,6.28349929 17.2772294,6.12895678 17.7438872,6.12895678 C18.9105316,6.12895678 19.8559682,7.07742357 19.8559682,8.24103778 C19.8559682,8.38042906 19.8438472,8.52285059 19.8135447,8.66224188 L15.2378743,8.66224188 C15.0075756,8.66224188 14.8166702,8.85314734 14.8166702,9.08647623 C14.8166702,10.2531207 13.8712336,11.1985572 12.7045892,11.1985572 C12.022784,11.1985572 11.3803719,10.8622 10.9834098,10.2985744 C10.9046234,10.1894855 10.7803834,10.1258504 10.6470526,10.1228201 C10.5076613,10.1197899 10.3864515,10.1773645 10.3046349,10.2803929 C10.059185,10.5955384 9.69858578,10.7743229 9.31374463,10.7743229 L8.4834574,10.7743229 C8.25315876,10.7743229 8.03498109,10.713718 7.82892441,10.5864477 C7.69862386,10.504631 7.53499061,10.504631 7.40165982,10.5773569 C7.26832902,10.6531131 7.1865124,10.7925044 7.1865124,10.9470469 L7.1865124,11.6227916 C7.1865124,11.8530902 6.99560694,12.0409654 6.76227805,12.0409654 L6.76227805,12.0409654 Z M20.7014066,14.6742486 L21.9710794,14.6742486 C22.201378,14.6742486 22.3892533,14.8651541 22.3892533,15.0954527 L22.3892533,19.322645 C22.3892533,19.5529436 22.201378,19.7408188 21.9710794,19.7408188 L20.7014066,19.7408188 L20.7014066,14.6742486 Z M18.1681215,14.5772808 C18.1681215,14.110623 18.5469022,13.7318423 19.0105297,13.7318423 C19.4771875,13.7318423 19.8559682,14.110623 19.8559682,14.5772808 L19.8559682,20.1650532 L19.8559682,21.8559301 L19.8559682,23.0225745 L18.1681215,23.0225745 L18.1681215,14.5772808 Z M9.7197975,23.0225745 L8.0289206,23.0225745 L8.0289206,14.5772808 C8.0289206,14.110623 8.41073152,13.7318423 8.87435905,13.7318423 C9.34101683,13.7318423 9.7197975,14.110623 9.7197975,14.5772808 L9.7197975,23.0225745 Z M12.2561128,23.0225745 L10.565236,23.0225745 L10.565236,14.5772808 C10.565236,14.110623 10.9440166,13.7318423 11.4076442,13.7318423 C11.8773322,13.7318423 12.2561128,14.110623 12.2561128,14.5772808 L12.2561128,23.0225745 Z M14.7893979,23.0225745 L13.0985211,23.0225745 L13.0985211,14.5772808 C13.0985211,14.110623 13.4773017,13.7318423 13.9439595,13.7318423 C14.4106173,13.7318423 14.7893979,14.110623 14.7893979,14.5772808 L14.7893979,23.0225745 Z M16.4772446,12.8894341 C15.9711936,12.8894341 15.5227173,13.1167025 15.2106021,13.4712412 C14.901517,13.1167025 14.4500105,12.8894341 13.9439595,12.8894341 C13.4348783,12.8894341 12.986402,13.1167025 12.6773169,13.4712412 C12.3682319,13.1167025 11.9167254,12.8894341 11.4076442,12.8894341 C10.9015932,12.8894341 10.4531169,13.1167025 10.1410016,13.4712412 C9.83191658,13.1167025 9.38041002,12.8894341 8.87435905,12.8894341 C8.56527403,12.8894341 8.28043097,12.9773112 8.0289206,13.122763 L8.0289206,11.6227916 L8.0289206,11.5682472 C8.18043287,11.6046101 8.33194514,11.6227916 8.4834574,11.6227916 L9.31374463,11.6227916 C9.78949314,11.6227916 10.2440299,11.4591583 10.6106896,11.1652245 C11.1621943,11.7227897 11.9136951,12.0409654 12.7045892,12.0409654 C14.1924396,12.0409654 15.4287797,10.9409864 15.6318062,9.50768033 L19.8559682,9.50768033 L19.8559682,12.5621676 L19.8559682,13.122763 C19.607488,12.9773112 19.322645,12.8894341 19.0105297,12.8894341 C18.5044787,12.8894341 18.0560024,13.1167025 17.7438872,13.4712412 C17.4378324,13.1167025 16.9832956,12.8894341 16.4772446,12.8894341 L16.4772446,12.8894341 Z M17.3257133,23.0225745 L15.6348364,23.0225745 L15.6348364,14.5772808 C15.6348364,14.110623 16.0136171,13.7318423 16.4772446,13.7318423 C16.9469326,13.7318423 17.3257133,14.110623 17.3257133,14.5772808 L17.3257133,23.0225745 Z M22.8134876,12.1409635 L20.7014066,12.1409635 L20.7014066,9.08647623 C20.7014066,8.99859911 20.6711041,8.92587322 20.6256505,8.86223807 C20.6711041,8.65315114 20.7014066,8.45012471 20.7014066,8.24103778 C20.7014066,6.61076579 19.3741591,5.28654857 17.7438872,5.28654857 C17.2438967,5.28654857 16.7590574,5.41078863 16.3257323,5.65017801 C15.7742277,4.89261668 14.8984868,4.44111013 13.9439595,4.44111013 C13.6439652,4.44111013 13.3470012,4.48353356 13.0621581,4.57444092 C12.4651998,3.94718014 11.6470335,3.59567168 10.7743229,3.59567168 C9.4258637,3.59567168 8.2289168,4.46535209 7.78650098,5.71381317 C7.72892632,5.70775268 7.66832141,5.70775268 7.6077165,5.70775268 C6.2107734,5.70775268 5.0744314,6.84409468 5.0744314,8.24103778 L5.0744314,11.6227916 C5.0744314,12.319748 5.64108728,12.8894341 6.34107395,12.8894341 L6.76227805,12.8894341 C6.91379032,12.8894341 7.05318161,12.8591317 7.1865124,12.8106477 L7.1865124,14.5772808 L7.1865124,23.4468089 L7.1865124,23.8710432 C7.1865124,25.2679863 8.3228544,26.4043283 9.7197975,26.4043283 L18.1681215,26.4043283 C19.5650646,26.4043283 20.7014066,25.2679863 20.7014066,23.8710432 L20.7014066,23.4468089 L20.7014066,22.2771342 L22.8134876,22.2771342 C23.9801321,22.2771342 24.9255686,21.3316976 24.9255686,20.1650532 L24.9255686,14.2530445 C24.9255686,13.0894303 23.9801321,12.1409635 22.8134876,12.1409635 L22.8134876,12.1409635 Z" id="path-1"></path>
    </defs>
    <g id="Symbols" stroke="none" stroke-width="1" fill="none" fill-rule="evenodd">
        <g id="ðŸ¼Icons/ðŸ¼MatterType-Food" transform="translate(-5.000000, -3.000000)">
            <mask id="mask-2" fill="white">
                <use xlink:href="#path-1"></use>
            </mask>
            <use id="icon26" fill="#35447d" xlink:href="#path-1"></use>
        </g>
    </g>
</svg>