<?xml version="1.0" encoding="UTF-8" standalone="no"?>
<svg width="26px" height="22px" viewBox="0 0 26 22" version="1.1" xmlns="http://www.w3.org/2000/svg" xmlns:xlink="http://www.w3.org/1999/xlink">
    <!-- Generator: Sketch 47.1 (45422) - http://www.bohemiancoding.com/sketch -->
    <title>icon11</title>
    <desc>Created with Sketch.</desc>
    <defs>
        <path d="M3.29702351,24.7780005 L9.32221902,24.7780005 L9.32221902,9.52309557 L3.29702351,9.52309557 L3.29702351,24.7780005 Z M9.67973797,8.80805765 L2.93950455,8.80805765 C2.74215408,8.80805765 2.58198559,8.96822614 2.58198559,9.16557661 L2.58198559,25.1355195 C2.58198559,25.3328699 2.74215408,25.4930384 2.93950455,25.4930384 L9.67973797,25.4930384 C9.87708844,25.4930384 10.0372569,25.3328699 10.0372569,25.1355195 L10.0372569,9.16557661 C10.0372569,8.96822614 9.87708844,8.80805765 9.67973797,8.80805765 L9.67973797,8.80805765 Z M22.3365956,25.0920452 L18.9570403,10.9171335 L23.249556,9.89434325 L26.6291112,24.0681109 L22.3365956,25.0920452 Z M11.6001582,24.7780005 L17.6253537,24.7780005 L17.6253537,4.83416292 L11.6001582,4.83416292 L11.6001582,24.7780005 Z M23.8627725,9.38008798 C23.8187261,9.19360609 23.6145113,9.07233566 23.4326057,9.11466591 L18.4433571,10.305061 C18.4056031,10.3142135 18.3718533,10.3330905 18.3409637,10.3525396 L18.3409637,4.47664396 C18.3409637,4.27929349 18.1802231,4.119125 17.9834447,4.119125 L11.2426393,4.119125 C11.0452888,4.119125 10.8851203,4.27929349 10.8851203,4.47664396 L10.8851203,25.1355195 C10.8851203,25.3328699 11.0452888,25.4930384 11.2426393,25.4930384 L17.9828727,25.4930384 C18.1796511,25.4930384 18.3403916,25.3328699 18.3403916,25.1355195 L18.3403916,11.4130838 L21.7239511,25.6057284 C21.7462602,25.6978253 21.8023192,25.7767655 21.8846916,25.8276762 C21.9407506,25.86257 22.00539,25.880875 22.0717455,25.880875 C22.0986309,25.880875 22.1255164,25.8768708 22.1546899,25.8711505 L27.1439385,24.6807554 C27.3349966,24.6349929 27.4539789,24.4416467 27.4082165,24.2494445 L23.8627725,9.38008798 Z M6.30939245,15.7730418 C7.18974713,15.7730418 7.90535708,16.4892238 7.90535708,17.3695785 C7.90535708,18.2493611 7.1891751,18.9649711 6.30939245,18.9649711 C5.4296098,18.9649711 4.71399985,18.2493611 4.71399985,17.3695785 C4.71399985,16.4892238 5.4296098,15.7730418 6.30939245,15.7730418 M6.30939245,19.680009 C7.58387603,19.680009 8.620395,18.64349 8.620395,17.3695785 C8.620395,16.0945228 7.58387603,15.0580039 6.30939245,15.0580039 C5.0354809,15.0580039 3.99896193,16.0945228 3.99896193,17.3695785 C3.99896193,18.64349 5.0354809,19.680009 6.30939245,19.680009 M4.71394264,23.7517781 L7.90587191,23.7517781 L7.90587191,23.0012743 L4.71394264,23.0012743 L4.71394264,23.7517781 Z M4.35642369,24.467388 L8.26339087,24.467388 C8.46074133,24.467388 8.62090983,24.3072196 8.62090983,24.1098691 L8.62090983,22.6443274 C8.62090983,22.4469769 8.46074133,22.2868084 8.26339087,22.2868084 L4.35642369,22.2868084 C4.15907322,22.2868084 3.99890473,22.4469769 3.99890473,22.6443274 L3.99890473,24.1098691 C3.99890473,24.3072196 4.15907322,24.467388 4.35642369,24.467388 L4.35642369,24.467388 Z M4.71394264,12.1773163 L7.90587191,12.1773163 L7.90587191,11.4279566 L4.71394264,11.4279566 L4.71394264,12.1773163 Z M4.35642369,12.8923542 L8.26339087,12.8923542 C8.46074133,12.8923542 8.62090983,12.7321857 8.62090983,12.5348353 L8.62090983,11.0704376 C8.62090983,10.8730872 8.46074133,10.7129187 8.26339087,10.7129187 L4.35642369,10.7129187 C4.15907322,10.7129187 3.99890473,10.8730872 3.99890473,11.0704376 L3.99890473,12.5348353 C3.99890473,12.7321857 4.15907322,12.8923542 4.35642369,12.8923542 L4.35642369,12.8923542 Z M14.613042,14.1628336 C15.4928246,14.1628336 16.2090066,14.8784436 16.2090066,15.7582262 C16.2090066,16.6380089 15.4928246,17.3536188 14.613042,17.3536188 C13.7332593,17.3536188 13.0170774,16.6380089 13.0170774,15.7582262 C13.0170774,14.8784436 13.7326873,14.1628336 14.613042,14.1628336 M14.613042,18.0686567 C15.8869535,18.0686567 16.9240445,17.0321378 16.9240445,15.7582262 C16.9240445,14.4843147 15.8875256,13.4477957 14.613042,13.4477957 C13.3385584,13.4477957 12.3020394,14.4843147 12.3020394,15.7582262 C12.3020394,17.0321378 13.3385584,18.0686567 14.613042,18.0686567 M13.0169629,23.7517781 L16.2083202,23.7517781 L16.2083202,23.0012743 L13.0169629,23.0012743 L13.0169629,23.7517781 Z M12.659444,24.467388 L16.5658391,24.467388 C16.7631896,24.467388 16.9233581,24.3072196 16.9233581,24.1098691 L16.9233581,22.6443274 C16.9233581,22.4469769 16.7631896,22.2868084 16.5658391,22.2868084 L12.659444,22.2868084 C12.4620935,22.2868084 12.301925,22.4469769 12.301925,22.6443274 L12.301925,24.1098691 C12.301925,24.3072196 12.4620935,24.467388 12.659444,24.467388 L12.659444,24.467388 Z M13.0169629,7.0496364 L16.2083202,7.0496364 L16.2083202,6.29970463 L13.0169629,6.29970463 L13.0169629,7.0496364 Z M12.659444,7.76467432 L16.5658391,7.76467432 C16.7631896,7.76467432 16.9233581,7.60450583 16.9233581,7.40715536 L16.9233581,5.94218567 C16.9233581,5.74483521 16.7631896,5.58466672 16.5658391,5.58466672 L12.659444,5.58466672 C12.4620935,5.58466672 12.301925,5.74483521 12.301925,5.94218567 L12.301925,7.40715536 C12.301925,7.6039338 12.4620935,7.76467432 12.659444,7.76467432 L12.659444,7.76467432 Z M23.680066,17.2818862 C23.737269,17.5175627 23.6972269,17.7623917 23.5702362,17.9688946 C23.4415293,18.1765416 23.2413187,18.3218374 23.0039261,18.3790404 C22.9352825,18.3956293 22.8643507,18.4042097 22.793991,18.4042097 C22.3764089,18.4042097 22.0028731,18.1090421 21.9056279,17.7029005 C21.8489969,17.466652 21.888467,17.221823 22.0166018,17.013604 C22.1447366,16.806529 22.3449472,16.6612333 22.5811957,16.6051743 C22.6509834,16.5885854 22.7224872,16.580005 22.793419,16.580005 C23.2167214,16.580577 23.5811047,16.8688803 23.680066,17.2818862 M22.415879,15.9101575 C21.9937206,16.0108348 21.6356296,16.2699645 21.4073895,16.6400682 C21.1797214,17.0101718 21.1093617,17.447203 21.210611,17.8693614 C21.3856523,18.6055644 22.0354788,19.1198197 22.7905588,19.1198197 C22.9186936,19.1198197 23.0474004,19.1055189 23.170959,19.0746293 C24.0433053,18.8658382 24.5838739,17.9866276 24.3750829,17.1154254 C24.2023297,16.391235 23.5336262,15.8655391 22.7859826,15.8655391 C22.66128,15.8661111 22.5365774,15.8809839 22.415879,15.9101575 M25.200065,22.5648152 L25.3745343,23.2947259 L23.1727895,23.8204217 L22.9983202,23.090511 L25.200065,22.5648152 Z M22.2632613,22.638035 C22.2134946,22.7181193 22.1980498,22.8165085 22.219787,22.9091774 L22.560145,24.334677 C22.5824542,24.4267739 22.6390852,24.5057141 22.7208855,24.5566248 C22.7769445,24.5909466 22.8415839,24.6098236 22.9079395,24.6098236 C22.9348249,24.6098236 22.9617103,24.6058194 22.9914559,24.5995271 L25.8882175,23.9067983 C26.0798477,23.8610359 26.1982579,23.6682617 26.1524955,23.4766315 L25.8121375,22.0511319 C25.7675191,21.8623619 25.5690246,21.7416635 25.3813986,21.7868539 L22.484065,22.4778665 C22.3913961,22.4996037 22.3124559,22.5568067 22.2632613,22.638035 L22.2632613,22.638035 Z M20.4880795,12.7036986 L20.3136103,11.9737879 L22.515355,11.4492361 L22.6903963,12.1791468 L20.4880795,12.7036986 Z M22.6978327,10.6701308 L19.8004991,11.3611434 C19.7078302,11.3834526 19.6283179,11.4406557 19.5791233,11.5213119 C19.5299287,11.6013962 19.5139119,11.6997854 19.535649,11.7924543 L19.8765791,13.2179539 C19.9143331,13.3792665 20.0573407,13.4925285 20.2232295,13.4925285 C20.252403,13.4925285 20.2815766,13.4890963 20.3073179,13.4822319 L23.2040796,12.7906472 C23.3957097,12.7448848 23.51412,12.5521106 23.4683576,12.3604804 L23.1285716,10.9349808 C23.0833812,10.7467829 22.8877468,10.6266565 22.6978327,10.6701308 L22.6978327,10.6701308 Z" id="path-1"></path>
    </defs>
    <g id="Symbols" stroke="none" stroke-width="1" fill="none" fill-rule="evenodd">
        <g id="ðŸ¼Icons/ðŸ¼MatterType-Property" transform="translate(-2.000000, -4.000000)">
            <mask id="mask-2" fill="white">
                <use xlink:href="#path-1"></use>
            </mask>
            <use id="icon11" fill="#35447d" xlink:href="#path-1"></use>
        </g>
    </g>
</svg>