<?xml version="1.0" encoding="UTF-8" standalone="no"?>
<svg width="24px" height="20px" viewBox="0 0 24 20" version="1.1" xmlns="http://www.w3.org/2000/svg" xmlns:xlink="http://www.w3.org/1999/xlink">
    <!-- Generator: Sketch 47.1 (45422) - http://www.bohemiancoding.com/sketch -->
    <title>icon20</title>
    <desc>Created with Sketch.</desc>
    <defs>
        <path d="M11.1476379,16.5173368 C11.1476379,16.5173368 10.1151219,16.5179733 10.1043002,16.5192465 C9.97634967,16.5281584 9.85030887,16.5809937 9.75291371,16.6783889 L6.64963653,19.7816661 C6.64963653,19.7816661 6.64899996,17.0329582 6.64709025,17.0183171 C6.62226404,16.7375899 6.38673326,16.5173368 6.09964033,16.5173368 L4.53622521,16.5173368 C4.41909638,16.5173368 4.32361093,16.4224879 4.32361093,16.3047225 L4.32361093,6.92550486 C4.32361093,6.80773947 4.41909638,6.71289059 4.53622521,6.71289059 L20.1703765,6.71289059 C20.2875053,6.71289059 20.3829907,6.80773947 20.3829907,6.92550486 L20.3829907,10.5240332 C20.3829907,10.827677 20.6293432,11.0733929 20.9329869,11.0733929 C21.2359941,11.0733929 21.4823466,10.827677 21.4823466,10.5240332 L21.4823466,6.92550486 C21.4823466,6.20172514 20.8941562,5.61289819 20.1703765,5.61289819 L4.53622521,5.61289819 C3.81308205,5.61289819 3.2242551,6.20172514 3.2242551,6.92550486 L3.2242551,16.3047225 C3.2242551,17.0285022 3.81308205,17.6173292 4.53622521,17.6173292 L5.5502807,17.6173292 L5.5502807,21.1089138 C5.5502807,21.3310767 5.68396033,21.5315961 5.88957234,21.6168964 C5.95768529,21.6449055 6.0289811,21.6582735 6.09964033,21.6582735 C6.24286851,21.6582735 6.38355041,21.6022553 6.4885844,21.4972213 L10.3691132,17.6173292 L11.1476379,17.6173292 C11.4512816,17.6173292 11.6976341,17.3709767 11.6976341,17.067333 C11.6976341,16.7636892 11.4512816,16.5173368 11.1476379,16.5173368 M25.4300334,20.0483251 C25.4300334,20.1660905 25.334548,20.2609394 25.2174192,20.2609394 L24.2893006,20.2609394 C24.0002979,20.2609394 23.763494,20.4850119 23.7418506,20.768922 C23.7405775,20.7803802 23.7399409,22.4208203 23.7399409,22.4208203 L21.7436584,20.4245378 C21.7417487,20.4219915 21.7392024,20.4200818 21.7372927,20.4181721 C21.7296539,20.4105332 21.7220151,20.4041675 21.7150128,20.3978019 C21.6182542,20.3131381 21.4915768,20.2609394 21.3528046,20.2609394 L14.2741498,20.2609394 C14.1563845,20.2609394 14.060899,20.1660905 14.060899,20.0483251 L14.060899,13.6495267 C14.060899,13.5330345 14.1563845,13.4369124 14.2741498,13.4369124 L25.2174192,13.4369124 C25.334548,13.4369124 25.4300334,13.5330345 25.4300334,13.6495267 L25.4300334,20.0483251 Z M25.2174192,12.3375566 L14.2741498,12.3375566 C13.5503701,12.3375566 12.9615432,12.9263836 12.9615432,13.6495267 L12.9615432,20.0483251 C12.9615432,20.7721048 13.5503701,21.3609318 14.2741498,21.3609318 L21.1249127,21.3609318 L23.9009931,24.1363756 C24.0060271,24.2420461 24.146709,24.2974277 24.2893006,24.2974277 C24.3605964,24.2974277 24.4318922,24.2834232 24.5000051,24.2554141 C24.7049806,24.1707503 24.8392968,23.9702309 24.8392968,23.7480681 L24.8392968,21.3609318 L25.2174192,21.3609318 C25.9405623,21.3609318 26.5293893,20.7721048 26.5293893,20.0483251 L26.5293893,13.6495267 C26.5293893,12.9263836 25.9405623,12.3375566 25.2174192,12.3375566 L25.2174192,12.3375566 Z M19.7456572,16.2991207 C19.4420134,16.2991207 19.195661,16.5461097 19.195661,16.8491169 C19.195661,17.1527606 19.4420134,17.3991131 19.7456572,17.3991131 C20.0493009,17.3991131 20.2956534,17.1527606 20.2956534,16.8491169 C20.2956534,16.5461097 20.0493009,16.2991207 19.7456572,16.2991207 M17.9059072,9.79732531 C17.9059072,9.49368157 17.6595547,9.24796567 17.3565475,9.24796567 L7.35030878,9.24796567 C7.04666504,9.24796567 6.80031258,9.49368157 6.80031258,9.79732531 C6.80031258,10.1016056 7.04666504,10.3473215 7.35030878,10.3473215 L17.3565475,10.3473215 C17.6595547,10.3473215 17.9059072,10.1016056 17.9059072,9.79732531 M7.35024512,12.8825239 C7.04660138,12.8825239 6.80024892,13.1288764 6.80024892,13.4318835 C6.80024892,13.7361638 7.04660138,13.9825163 7.35024512,13.9825163 L11.1473832,13.9825163 C11.451027,13.9825163 11.6973794,13.7361638 11.6973794,13.4318835 C11.6973794,13.1288764 11.451027,12.8825239 11.1473832,12.8825239 L7.35024512,12.8825239 Z M17.1906575,16.2991207 C16.8870137,16.2991207 16.6412978,16.5461097 16.6412978,16.8491169 C16.6412978,17.1527606 16.8870137,17.3991131 17.1906575,17.3991131 C17.4943012,17.3991131 17.7406537,17.1527606 17.7406537,16.8491169 C17.7406537,16.5461097 17.4943012,16.2991207 17.1906575,16.2991207 M22.3000203,16.2991207 C21.9963766,16.2991207 21.7500241,16.5461097 21.7500241,16.8491169 C21.7500241,17.1527606 21.9963766,17.3991131 22.3000203,17.3991131 C22.6036641,17.3991131 22.84938,17.1527606 22.84938,16.8491169 C22.84938,16.5461097 22.6036641,16.2991207 22.3000203,16.2991207" id="path-1"></path>
    </defs>
    <g id="Symbols" stroke="none" stroke-width="1" fill="none" fill-rule="evenodd">
        <g id="ðŸ¼Icons/ðŸ¼MatterType-Internal-Dispute" transform="translate(-3.000000, -5.000000)">
            <mask id="mask-2" fill="white">
                <use xlink:href="#path-1"></use>
            </mask>
            <use id="icon20" fill="#35447d" xlink:href="#path-1"></use>
        </g>
    </g>
</svg>