<?xml version="1.0" encoding="UTF-8" standalone="no"?>
<svg width="22px" height="24px" viewBox="0 0 22 24" version="1.1" xmlns="http://www.w3.org/2000/svg" xmlns:xlink="http://www.w3.org/1999/xlink">
    <!-- Generator: Sketch 47.1 (45422) - http://www.bohemiancoding.com/sketch -->
    <title>icon18</title>
    <desc>Created with Sketch.</desc>
    <defs>
        <path d="M17.6248585,24.0054875 C17.9174988,24.0054875 18.1546571,23.7683292 18.1546571,23.4756889 C18.1546571,23.1830487 17.9174988,22.9458904 17.6248585,22.9458904 C17.3322183,22.9458904 17.09506,23.1830487 17.09506,23.4756889 C17.09506,23.7683292 17.3322183,24.0054875 17.6248585,24.0054875 L17.6248585,24.0054875 Z M12.3801793,22.9458904 C12.0886269,22.9458904 11.8503807,23.1830487 11.8503807,23.4756889 C11.8503807,23.7683292 12.0886269,24.0054875 12.3801793,24.0054875 C12.6728195,24.0054875 12.9110657,23.7683292 12.9110657,23.4756889 C12.9110657,23.1830487 12.6728195,22.9458904 12.3801793,22.9458904 L12.3801793,22.9458904 Z M14.9758658,9.48661386 L14.9236474,9.48661386 C14.6310072,9.48661386 14.3938489,9.72377214 14.3938489,10.0164124 C14.3938489,10.3090527 14.6310072,10.546211 14.9236474,10.546211 L14.9758658,10.546211 C15.2685061,10.546211 15.5056643,10.3090527 15.5056643,10.0164124 C15.5056643,9.72377214 15.2685061,9.48661386 14.9758658,9.48661386 L14.9758658,9.48661386 Z M8.30932469,12.6436475 L21.6902737,12.6436475 C22.2396541,13.1288429 23.6604281,14.1112004 23.8301376,14.2319553 L6.17054861,14.2319553 C6.33917033,14.1112004 7.76103214,13.1288429 8.30932469,12.6436475 L8.30932469,12.6436475 Z M9.09368763,10.546211 L12.8044532,10.546211 C13.0970935,10.546211 13.3342518,10.3090527 13.3342518,10.0164124 C13.3342518,9.72377214 13.0970935,9.48661386 12.8044532,9.48661386 L9.37762484,9.48661386 C9.50925857,8.9938033 10.4100249,5.56588701 10.7331259,4.4159957 C11.8101291,4.96428825 13.360361,5.28086192 15.0367872,5.28086192 C16.6784012,5.28086192 18.201436,4.97625495 19.2762635,4.44754428 C19.5961008,5.58873253 20.4914277,8.99489118 20.6219735,9.48661386 L17.09506,9.48661386 C16.8024197,9.48661386 16.5652614,9.72377214 16.5652614,10.0164124 C16.5652614,10.3090527 16.8024197,10.546211 17.09506,10.546211 L20.9069986,10.546211 C21.0016444,10.896509 21.097378,11.2446312 21.1920237,11.5829625 L8.80757466,11.5829625 C8.90330828,11.2446312 8.99795401,10.896509 9.09368763,10.546211 L9.09368763,10.546211 Z M20.6709282,17.9405451 L17.5389159,17.9405451 C17.1614208,17.9405451 16.8546381,17.6326745 16.8546381,17.2551795 L16.8546381,15.2915524 L21.3562939,15.2915524 L21.3562939,17.2551795 C21.3562939,17.6326745 21.0484233,17.9405451 20.6709282,17.9405451 L20.6709282,17.9405451 Z M13.1460482,17.2551795 C13.1460482,17.6326745 12.8381776,17.9405451 12.4606825,17.9405451 L9.32867015,17.9405451 C8.95117509,17.9405451 8.64330447,17.6326745 8.64330447,17.2551795 L8.64330447,15.2915524 L13.1460482,15.2915524 L13.1460482,17.2551795 Z M4.65948047,15.2915524 L7.58479525,15.2915524 L7.58479525,17.2551795 C7.58479525,18.2168672 8.36698243,18.9990544 9.32867015,18.9990544 L12.4606825,18.9990544 C13.4223702,18.9990544 14.2056453,18.2168672 14.2056453,17.2551795 L14.2056453,15.2915524 L15.7939531,15.2915524 L15.7939531,17.2551795 C15.7939531,18.2168672 16.5772281,18.9990544 17.5389159,18.9990544 L20.6709282,18.9990544 C21.6337038,18.9990544 22.415891,18.2168672 22.415891,17.2551795 L22.415891,15.2915524 L25.3412058,15.2915524 C25.5587822,15.2915524 25.754601,15.1577429 25.8340164,14.9553968 C25.9134317,14.750875 25.8601255,14.520244 25.699119,14.3733799 C25.0986081,13.8174722 22.8717136,12.2781192 22.3614969,11.8222966 C21.9937928,10.5418594 20.4914277,4.82721511 20.1063175,3.49782327 C20.0584506,3.3324652 19.9344321,3.20083147 19.7712498,3.14426161 C19.6091554,3.08769174 19.4285669,3.11488879 19.289318,3.21497394 C18.4233639,3.83615458 16.7937167,4.22126482 15.0367872,4.22126482 C13.2733304,4.22126482 11.6404195,3.83397882 10.7766411,3.20844665 C10.6863469,3.14317372 10.5775587,3.1083615 10.4655069,3.1083615 L10.4045855,3.1083615 C10.1685151,3.1083615 9.96072961,3.26501651 9.89545669,3.49129597 C9.51034645,4.82068782 8.00689348,10.5407715 7.63918935,11.8222966 C7.1278848,12.2781192 4.90207816,13.8174722 4.3004794,14.3733799 C4.13947286,14.520244 4.08616664,14.750875 4.16558202,14.9553968 C4.24499741,15.1577429 4.44081618,15.2915524 4.65948047,15.2915524 L4.65948047,15.2915524 Z M23.3482059,25.8331293 L15.6492648,25.8331293 L15.5622342,25.3642521 L16.3422456,21.1182486 L24.6460492,21.1182486 L23.3482059,25.8331293 Z M6.65248035,25.8331293 L5.35463709,21.1182486 L13.7063075,21.1182486 L14.5722616,25.8331293 L6.65248035,25.8331293 Z M25.3412058,20.0586515 L15.9005655,20.0586515 C15.6449132,20.0586515 15.4262489,20.2414156 15.37947,20.4927164 L15.0237326,22.4291464 L14.6690831,20.4927164 C14.623392,20.2414156 14.4036398,20.0586515 14.1479876,20.0586515 L4.65948047,20.0586515 C4.4941224,20.0586515 4.33855527,20.1358911 4.23738224,20.2675248 C4.13838497,20.3991585 4.10466063,20.569956 4.14817591,20.7287868 L5.73757156,26.5032646 C5.80066872,26.7328077 6.00954207,26.8916385 6.24778823,26.8916385 L23.7518101,26.8916385 C23.9900563,26.8916385 24.1989297,26.7328077 24.2631147,26.5032646 L25.8514225,20.7287868 C25.8960256,20.569956 25.8623013,20.3991585 25.7622161,20.2675248 C25.662131,20.1358911 25.5065639,20.0586515 25.3412058,20.0586515 L25.3412058,20.0586515 Z" id="path-1"></path>
    </defs>
    <g id="Symbols" stroke="none" stroke-width="1" fill="none" fill-rule="evenodd">
        <g id="ðŸ¼Icons/ðŸ¼MatterType-Misleading" transform="translate(-4.000000, -3.000000)">
            <mask id="mask-2" fill="white">
                <use xlink:href="#path-1"></use>
            </mask>
            <use id="icon18" fill="#35447d" xlink:href="#path-1"></use>
        </g>
    </g>
</svg>