<?xml version="1.0" encoding="UTF-8" standalone="no"?>
<svg width="28px" height="22px" viewBox="0 0 28 22" version="1.1" xmlns="http://www.w3.org/2000/svg" xmlns:xlink="http://www.w3.org/1999/xlink">
    <!-- Generator: Sketch 47.1 (45422) - http://www.bohemiancoding.com/sketch -->
    <title>icon15</title>
    <desc>Created with Sketch.</desc>
    <defs>
        <path d="M27.2419264,20.9219339 C27.2419264,21.0251305 27.158431,21.108626 27.0542962,21.108626 L18.1981504,21.108626 L18.1990885,21.1105023 L18.1981504,21.1105023 C18.0855723,21.1180075 17.9748704,21.164915 17.8885605,21.2512249 L15.158541,23.9812445 C15.158541,23.9812445 15.1576029,21.5626911 15.1566647,21.549557 C15.1341491,21.3028232 14.9277559,21.108626 14.6744551,21.108626 L13.2991257,21.108626 C13.195929,21.108626 13.1124336,21.0241924 13.1124336,20.9219339 L13.1124336,12.6690192 C13.1124336,12.5667607 13.195929,12.4823271 13.2991257,12.4823271 L27.0542962,12.4823271 C27.158431,12.4823271 27.2419264,12.5667607 27.2419264,12.6690192 L27.2419264,15.835279 L27.2419264,20.9219339 Z M10.2688978,17.6187041 L10.2688978,13.6034176 C10.2688978,13.3351064 10.0512467,13.1174554 9.78293555,13.1174554 L7.2161543,13.1174554 C6.9478431,13.1174554 6.72925391,13.3351064 6.72925391,13.6034176 L6.72925391,17.6187041 L5.1465931,17.6187041 L2.47286263,17.6187041 L2.47286263,10.077846 L8.49954492,5.53438053 L14.5252891,10.077846 L14.5252891,11.5150934 L13.2991257,11.5150934 C12.6621211,11.5150934 12.1451999,12.0320146 12.1451999,12.6690192 L12.1451999,17.6187041 L10.2688978,17.6187041 Z M9.29603516,17.6187041 L7.87379818,17.6187041 L7.70211654,17.6187041 L7.70211654,14.090318 L9.29603516,14.090318 L9.29603516,17.6187041 Z M11.1732754,5.53438053 L17.1990195,10.077846 L17.1990195,11.5150934 L15.4981517,11.5150934 L15.4981517,9.83674121 C15.4981517,9.68382259 15.4268522,9.53934733 15.3048926,9.44834668 L10.6441582,5.93215658 L11.1732754,5.53438053 Z M13.9004805,5.53438053 L19.9262246,10.077846 L19.9262246,11.5150934 L18.1728203,11.5150934 L18.1728203,9.83674121 C18.1728203,9.68382259 18.1005827,9.53934733 17.978623,9.44834668 L13.3450951,5.9527959 L13.9004805,5.53438053 Z M27.729765,11.7364971 C27.618125,11.6558161 27.4914746,11.5967126 27.3545046,11.5591865 C27.2588132,11.5329183 27.1593691,11.5150934 27.0542962,11.5150934 L20.9000254,11.5150934 L20.9000254,9.83674121 C20.9000254,9.68382259 20.8277878,9.53934733 20.7058281,9.44834668 L14.1931836,4.53618783 C14.0196257,4.40578483 13.7803971,4.40578483 13.6068392,4.53618783 L12.5364089,5.34393587 L11.4659785,4.53618783 C11.2924206,4.40578483 11.0541302,4.40578483 10.8805723,4.53618783 L9.83641016,5.32329655 L8.79224805,4.53618783 C8.6186901,4.40578483 8.38039974,4.40578483 8.20590365,4.53618783 L1.69325911,9.44834668 C1.57129948,9.53934733 1.5,9.68382259 1.5,9.83674121 L1.5,18.1046663 C1.5,18.3729775 1.71765104,18.5915667 1.98690039,18.5915667 L4.66063086,18.5915667 L7.38689779,18.5915667 L12.1451999,18.5915667 L12.1451999,20.9219339 C12.1451999,21.5589385 12.6621211,22.0758597 13.2991257,22.0758597 L14.1913073,22.0758597 L14.1913073,25.1483044 C14.1913073,25.3443779 14.3095143,25.5207503 14.4896393,25.5948643 C14.549681,25.6201943 14.6125371,25.6323903 14.6744551,25.6323903 C14.8011055,25.6323903 14.9249414,25.5836064 15.0168802,25.4907295 L18.4308118,22.0758597 L19.1166003,22.0758597 L27.0542962,22.0758597 C27.6913008,22.0758597 28.2091602,21.5589385 28.2091602,20.9219339 L28.2091602,12.6690192 C28.2091602,12.2853154 28.0187155,11.9475811 27.729765,11.7364971 L27.729765,11.7364971 Z M24.5790785,14.7131565 L15.7754691,14.7131565 C15.5080961,14.7131565 15.2913832,14.9289312 15.2913832,15.1972424 C15.2913832,15.4636773 15.5080961,15.6803902 15.7754691,15.6803902 L24.5790785,15.6803902 C24.8464516,15.6803902 25.0631645,15.4636773 25.0631645,15.1972424 C25.0631645,14.9289312 24.8464516,14.7131565 24.5790785,14.7131565 M24.5790785,17.9105629 L15.7754691,17.9105629 C15.5080961,17.9105629 15.2913832,18.1272758 15.2913832,18.3946488 C15.2913832,18.6620219 15.5080961,18.8777966 15.7754691,18.8777966 L24.5790785,18.8777966 C24.8464516,18.8777966 25.0631645,18.6620219 25.0631645,18.3946488 C25.0631645,18.1272758 24.8464516,17.9105629 24.5790785,17.9105629" id="path-1"></path>
    </defs>
    <g id="Symbols" stroke="none" stroke-width="1" fill="none" fill-rule="evenodd">
        <g id="ðŸ¼Icons/ðŸ¼MatterType-Neighbourhood-Dispute" transform="translate(-1.000000, -4.000000)">
            <mask id="mask-2" fill="white">
                <use xlink:href="#path-1"></use>
            </mask>
            <use id="icon15" fill="#35447d" xlink:href="#path-1"></use>
        </g>
    </g>
</svg>