<?xml version="1.0" encoding="UTF-8" standalone="no"?>
<svg width="21px" height="19px" viewBox="0 0 21 19" version="1.1" xmlns="http://www.w3.org/2000/svg" xmlns:xlink="http://www.w3.org/1999/xlink">
    <!-- Generator: Sketch 47.1 (45422) - http://www.bohemiancoding.com/sketch -->
    <title>icon27</title>
    <desc>Created with Sketch.</desc>
    <defs>
        <path d="M12.127025,7.88501267 C13.4812927,7.88501267 14.5825605,8.986729 14.5825605,10.3405482 C14.5825605,11.6943673 13.4812927,12.7960837 12.127025,12.7960837 C10.7727572,12.7960837 9.67148945,11.6943673 9.67148945,10.3405482 C9.67148945,8.986729 10.7727572,7.88501267 12.127025,7.88501267 M12.127025,13.9260607 C14.1039239,13.9260607 15.7125374,12.3174471 15.7125374,10.3405482 C15.7125374,8.3636492 14.1039239,6.7550357 12.127025,6.7550357 C10.150126,6.7550357 8.54151248,8.3636492 8.54151248,10.3405482 C8.54151248,12.3174471 10.150126,13.9260607 12.127025,13.9260607 M24.0081115,23.1770686 L17.2690706,23.1770686 L16.3719075,23.1770686 L16.3719075,19.3825171 C16.3719075,18.4481217 17.1318047,17.687776 18.0662001,17.687776 L22.3133704,17.687776 C23.2477658,17.687776 24.0081115,18.4481217 24.0081115,19.3825171 L24.0081115,23.1770686 Z M15.2419305,19.3825171 L15.2419305,23.1770686 L6.98488958,23.1770686 L6.98488958,18.9711678 C6.98488958,17.1611412 8.45758287,15.6888965 10.2676095,15.6888965 L13.9863507,15.6888965 C15.0459004,15.6888965 15.989716,16.1935508 16.5903667,16.9754284 C15.7820227,17.4724568 15.2419305,18.3655827 15.2419305,19.3825171 L15.2419305,19.3825171 Z M22.3133704,16.557799 L18.0662001,16.557799 C17.9405972,16.557799 17.8167887,16.5672192 17.6952231,16.5829196 C16.908411,15.3659178 15.5402373,14.5589195 13.9863507,14.5589195 L10.2676095,14.5589195 C7.83450307,14.5589195 5.85536119,16.5380614 5.85536119,18.9711678 L5.85536119,23.7418328 C5.85536119,24.0540456 6.1083612,24.3070456 6.42012539,24.3070456 L15.8066947,24.3070456 L17.8338348,24.3070456 L24.5733243,24.3070456 C24.8850885,24.3070456 25.1380885,24.0540456 25.1380885,23.7418328 L25.1380885,19.3825171 C25.1380885,17.8245933 23.8708456,16.557799 22.3133704,16.557799 L22.3133704,16.557799 Z M20.1899198,11.1477258 C21.1575102,11.1477258 21.9447709,11.9354351 21.9447709,12.9030255 C21.9447709,13.870616 21.1575102,14.6578766 20.1899198,14.6578766 C19.2223293,14.6578766 18.4350687,13.870616 18.4350687,12.9030255 C18.4350687,11.9354351 19.2223293,11.1477258 20.1899198,11.1477258 M20.1899198,15.7878536 C21.78059,15.7878536 23.0747479,14.4936958 23.0747479,12.9030255 C23.0747479,11.3119067 21.78059,10.0177489 20.1899198,10.0177489 C18.5992495,10.0177489 17.3050917,11.3119067 17.3050917,12.9030255 C17.3050917,14.4936958 18.5992495,15.7878536 20.1899198,15.7878536" id="path-1"></path>
    </defs>
    <g id="Symbols" stroke="none" stroke-width="1" fill="none" fill-rule="evenodd">
        <g id="ðŸ¼Icons/ðŸ¼MatterType-Family" transform="translate(-5.000000, -6.000000)">
            <mask id="mask-2" fill="white">
                <use xlink:href="#path-1"></use>
            </mask>
            <use id="icon27" fill="#35447d" xlink:href="#path-1"></use>
        </g>
    </g>
</svg>