<?xml version="1.0" encoding="UTF-8" standalone="no"?>
<svg width="21px" height="21px" viewBox="0 0 21 21" version="1.1" xmlns="http://www.w3.org/2000/svg" xmlns:xlink="http://www.w3.org/1999/xlink">
    <!-- Generator: Sketch 47.1 (45422) - http://www.bohemiancoding.com/sketch -->
    <title>icon4</title>
    <desc>Created with Sketch.</desc>
    <defs>
        <path d="M9.94027517,10.7573274 C9.66216373,11.0293929 9.52310801,11.3740093 9.52310801,11.7730387 C9.52310801,12.855255 10.5569571,14.3909138 12.7697568,16.6037135 C13.9184779,17.7524347 14.9100057,18.6049067 15.7262023,19.136946 C17.0079333,19.9712803 17.9813233,20.0619688 18.6161429,19.439241 L18.8337953,19.2155427 C19.8978739,18.1393723 20.3936378,17.6677921 22.5036572,19.3606443 C23.1989358,19.928959 23.5858734,20.4670442 23.6040111,20.9325785 C23.6342406,21.6097194 22.9147784,22.2929062 22.2739129,22.8914504 C22.1409031,23.0244602 22.0018474,23.1514242 21.8869753,23.2783881 C21.4577163,23.6895093 20.1094804,23.8043814 18.1264249,23.0486438 C15.8592121,22.1961718 13.368301,20.4912278 11.1252717,18.2481986 C8.88224252,16.0051693 7.18334438,13.5203041 6.32482646,11.2530913 C5.56908885,9.26398988 5.67791506,7.90970809 6.09508222,7.49254093 C6.22809204,7.36557701 6.34901006,7.23256719 6.48201988,7.09955737 C7.06847226,6.47682958 7.73956726,5.76945918 8.40461635,5.76945918 L8.40461635,5.46716414 L8.44693766,5.76945918 C8.90642612,5.79364278 9.4505572,6.17453454 10.012826,6.86981314 C11.7238159,8.99797024 11.234098,9.48768821 10.1518817,10.5457209 L9.94027517,10.7573274 Z M23.2956702,18.3751625 C20.2787656,15.9447103 19.0877232,17.1538905 17.9148184,18.3328412 L17.7153037,18.5444477 C17.6246152,18.6290903 17.1953562,18.5807231 16.4214809,18.0728674 C15.6778351,17.5891954 14.7528123,16.7971824 13.6645501,15.7089202 C10.3695341,12.4139042 10.8229767,11.6642125 10.8290226,11.6581666 L11.0406291,11.452606 C12.2195798,10.2978389 13.4348059,9.10075056 11.0043537,6.07780012 C10.1760653,5.05604288 9.35382279,4.54214131 8.49530486,4.5058659 C8.46507536,4.49982 8.43484586,4.49982 8.40461635,4.49982 C7.19543618,4.49982 6.28855105,5.46111824 5.55699705,6.22290175 C5.43607903,6.34986566 5.31516101,6.47682958 5.2002889,6.5977476 C4.28131196,7.51672453 4.26317426,9.37281609 5.13378399,11.7004879 C6.04671502,14.1309401 7.86048527,16.7729987 10.2304784,19.1429919 C12.5944256,21.512985 15.2425302,23.3267553 17.6729824,24.2396863 C18.8035658,24.6568535 19.8192772,24.86846 20.6898869,24.86846 C21.6028179,24.86846 22.3222801,24.626624 22.7757227,24.1731814 C22.8905948,24.0643552 23.0054669,23.955529 23.1445227,23.8225192 C23.9304898,23.0728274 24.9220175,22.1357128 24.8736503,20.8781654 C24.831329,20.0136016 24.3174274,19.197405 23.2956702,18.3751625 L23.2956702,18.3751625 Z" id="path-1"></path>
    </defs>
    <g id="Symbols" stroke="none" stroke-width="1" fill="none" fill-rule="evenodd">
        <g id="ðŸ¼Icons/ðŸ¼Phone" transform="translate(-4.000000, -4.000000)">
            <mask id="mask-2" fill="white">
                <use xlink:href="#path-1"></use>
            </mask>
            <use id="icon4" fill="#35447d" xlink:href="#path-1"></use>
        </g>
    </g>
</svg>