<?xml version="1.0" encoding="UTF-8" standalone="no"?>
<svg width="24px" height="24px" viewBox="0 0 24 24" version="1.1" xmlns="http://www.w3.org/2000/svg" xmlns:xlink="http://www.w3.org/1999/xlink">
    <!-- Generator: Sketch 47.1 (45422) - http://www.bohemiancoding.com/sketch -->
    <title>icon3</title>
    <desc>Created with Sketch.</desc>
    <defs>
        <path d="M16.2018806,15.0001062 L23.2508165,7.95117027 C23.5831612,7.61882565 23.5831612,7.08163434 23.2508165,6.74928972 C22.9184719,6.41694509 22.3812806,6.41694509 22.048936,6.74928972 L15,13.7982257 L7.95106403,6.74928972 C7.6187194,6.41694509 7.08152809,6.41694509 6.74918347,6.74928972 C6.41683884,7.08163434 6.41683884,7.61882565 6.74918347,7.95117027 L13.7981194,15.0001062 L6.74918347,22.0490422 C6.41683884,22.3813868 6.41683884,22.9185782 6.74918347,23.2509228 C6.91493079,23.4166701 7.13252727,23.4999688 7.35012375,23.4999688 C7.56772023,23.4999688 7.78531671,23.4166701 7.95106403,23.2509228 L15,16.2019868 L22.048936,23.2509228 C22.2146833,23.4166701 22.4322798,23.4999688 22.6498763,23.4999688 C22.8674727,23.4999688 23.0850692,23.4166701 23.2508165,23.2509228 C23.5831612,22.9185782 23.5831612,22.3813868 23.2508165,22.0490422 L16.2018806,15.0001062 Z" id="path-1"></path>
    </defs>
    <g id="Symbols" stroke="none" stroke-width="1" fill="none" fill-rule="evenodd">
        <g id="ðŸ¼Icons/ðŸ¼Plus" transform="translate(-3.000000, -3.000000)">
            <mask id="mask-2" fill="white">
                <use xlink:href="#path-1"></use>
            </mask>
            <use id="icon3" fill="#231F20" transform="translate(15.000000, 15.000000) rotate(-45.000000) translate(-15.000000, -15.000000) " xlink:href="#path-1"></use>
        </g>
    </g>
</svg>