<?xml version="1.0" encoding="UTF-8" standalone="no"?>
<svg width="30px" height="30px" viewBox="0 0 30 30" version="1.1" xmlns="http://www.w3.org/2000/svg" xmlns:xlink="http://www.w3.org/1999/xlink">
    <!-- Generator: Sketch 47.1 (45422) - http://www.bohemiancoding.com/sketch -->
    <title>🐼Icons/🐼QL-Time-Two-Tone</title>
    <desc>Created with Sketch.</desc>
    <defs>
        <path d="M8.0218,7.8456 L8.0298,6.6036 L8.0298,5.5046 L7.0798,5.5046 L7.0418,7.8456 C7.0418,8.8296 7.8698,9.6306 8.8868,9.6306 L9.7928,9.6306 L9.7928,8.6826 L8.8868,8.6826 C8.4108,8.6826 8.0218,8.3076 8.0218,7.8456" id="path-1"></path>
    </defs>
    <g id="Symbols" stroke="none" stroke-width="1" fill="none" fill-rule="evenodd">
        <g id="🐼Icons/🐼QL-Time-Two-Tone">
            <g id="Group" transform="translate(7.000000, 5.000000)">
                <path d="M14.056,10.037 C14.056,11.673 13.024,13.169 11.488,13.761 L11.071,13.921 L11.071,16.254 L8.842,14.023 L5.93,14.023 C3.732,14.023 1.944,12.235 1.944,10.037 L1.944,5.897 C1.944,3.698 3.732,1.91 5.93,1.91 L10.07,1.91 C12.268,1.91 14.056,3.698 14.056,5.897 L14.056,10.037 Z M10.07,0.609 L5.93,0.609 C3.015,0.609 0.643,2.981 0.643,5.897 L0.643,10.037 C0.643,12.952 3.015,15.324 5.93,15.324 L8.303,15.324 L12.371,19.391 L12.371,14.792 C14.173,13.913 15.357,12.056 15.357,10.037 L15.357,5.897 C15.357,2.981 12.985,0.609 10.07,0.609 L10.07,0.609 Z" id="Mask" fill="#F8F7F3"></path>
                <mask id="mask-2" fill="white">
                    <use xlink:href="#path-1"></use>
                </mask>
                <use id="Mask" fill="#8AEBF1" xlink:href="#path-1"></use>
                <g id="🎨colour/🎨cyan" mask="url(#mask-2)" fill="#8AEBF1">
                    <g transform="translate(5.000000, 4.000000)" id="Rectangle-2">
                        <rect x="0" y="0" width="7" height="7"></rect>
                    </g>
                </g>
            </g>
        </g>
    </g>
</svg>