<?xml version="1.0" encoding="UTF-8" standalone="no"?>
<svg width="13px" height="22px" viewBox="0 0 13 22" version="1.1" xmlns="http://www.w3.org/2000/svg" xmlns:xlink="http://www.w3.org/1999/xlink">
    <!-- Generator: Sketch 47.1 (45422) - http://www.bohemiancoding.com/sketch -->
    <title>Icon64</title>
    <desc>Created with Sketch.</desc>
    <defs>
        <path d="M19.9234542,5.55619477 C21.0384903,6.59366314 21.596,8.01410087 21.596,9.81755056 C21.596,11.9312712 20.9560758,13.4922983 19.6762083,14.5006788 C18.3963408,15.5090592 16.6220056,16.0326335 14.3531496,16.0714174 L14.3531496,19.7364743 L12.4042701,19.7364743 L12.4042701,14.6461175 L13.364166,14.6461175 C15.2257914,14.6461175 16.7286436,14.3067638 17.8727676,13.6280462 C19.0168916,12.9493285 19.5889451,11.679176 19.5889451,9.81755056 C19.5889451,8.53768303 19.2108081,7.5341656 18.4545227,6.80696814 C17.6982373,6.07977069 16.6801762,5.71617741 15.4003087,5.71617741 C14.0622653,5.71617741 12.9860292,6.08946651 12.1715681,6.8360559 C11.3571069,7.58264528 10.9498825,8.55707526 10.9498825,9.75937505 L9.00100304,9.75937505 C8.98161111,8.61525105 9.24339827,7.60688571 9.78637237,6.73424876 C10.3293465,5.86161181 11.0953163,5.18775228 12.0843048,4.71264994 C13.0732934,4.23754761 14.1980086,4 15.4584842,4 C17.3201096,4 18.8084181,4.5187264 19.9234542,5.55619477 Z M14.7312903,22.5288985 L14.7312903,25.1467963 L12.0552171,25.1467963 L12.0552171,22.5288985 L14.7312903,22.5288985 Z" id="path-1"></path>
    </defs>
    <g id="Symbols" stroke="none" stroke-width="1" fill="none" fill-rule="evenodd">
        <g id="ðŸ¼Icons/ðŸ¼Question-Mark" transform="translate(-9.000000, -4.000000)">
            <mask id="mask-2" fill="white">
                <use xlink:href="#path-1"></use>
            </mask>
            <use id="Icon64" fill="#35447D" xlink:href="#path-1"></use>
        </g>
    </g>
</svg>