<?xml version="1.0" encoding="UTF-8" standalone="no"?>
<svg width="100px" height="60px" viewBox="0 0 100 60" version="1.1" xmlns="http://www.w3.org/2000/svg" xmlns:xlink="http://www.w3.org/1999/xlink">
    <!-- Generator: Sketch 47.1 (45422) - http://www.bohemiancoding.com/sketch -->
    <title>Payment-Methods/Visa-Light</title>
    <desc>Created with Sketch.</desc>
    <defs>
        <rect id="path-1" x="0" y="0" width="100" height="60" rx="4"></rect>
    </defs>
    <g id="Symbols" stroke="none" stroke-width="1" fill="none" fill-rule="evenodd">
        <g id="Payment-Methods/Visa-Light">
            <rect id="Rectangle" fill="#FFFFFF" x="0" y="0" width="100" height="60" rx="4"></rect>
            <polyline id="Fill-1" fill="#26337A" points="42.1566575 39.5467606 45.2313948 20.4726761 50.1462519 20.4726761 47.0717957 39.5467606 42.1566575 39.5467606"></polyline>
            <path d="M64.8995376,20.9408451 C63.9277542,20.5580282 62.399381,20.1405634 60.4954501,20.1405634 C55.6362519,20.1405634 52.2157542,22.7290141 52.1873625,26.435493 C52.1564409,29.1771831 54.6282058,30.7061972 56.4916575,31.6174648 C58.4068326,32.5515493 59.0502842,33.1492958 59.0426943,33.984507 C59.0294823,35.2619718 57.5140399,35.8473239 56.1009201,35.8473239 C54.1331782,35.8473239 53.087745,35.5591549 51.4713856,34.8470423 L50.8391782,34.5433803 L50.151874,38.8129577 C51.2979432,39.3442254 53.4225422,39.8053521 55.6275376,39.8295775 C60.7917358,39.8295775 64.147298,37.2723944 64.1866528,33.3143662 C64.2043625,31.1402817 62.8946897,29.4923944 60.0583303,28.131831 C58.3407727,27.2473239 57.2866252,26.6614085 57.2987127,25.7661972 C57.2998372,24.9735211 58.1892565,24.1247887 60.1142704,24.1247887 C61.7219155,24.0988732 62.8856943,24.4701408 63.7925422,24.8577465 L64.2338786,25.0757746 L64.8995376,20.9408451" id="Fill-2" fill="#26337A"></path>
            <path d="M71.4439662,32.7842254 C71.8512888,31.6878873 73.4018694,27.4526761 73.4018694,27.4526761 C73.3731966,27.5030986 73.8069432,26.3478873 74.0551598,25.6329577 L74.3868648,27.2780282 C74.3868648,27.2780282 75.3299754,31.8307042 75.5242197,32.7842254 L71.4439662,32.7842254 L71.4439662,32.7842254 Z M77.5074224,20.4921127 L73.7091183,20.4921127 C72.5310031,20.4921127 71.6491736,20.8295775 71.133063,22.0732394 L63.8341459,39.5535211 L68.9963763,39.5535211 C68.9963763,39.5535211 69.8385699,37.2019718 70.029722,36.6859155 C70.5927773,36.6859155 75.6088326,36.6957746 76.3248095,36.6957746 C76.4721091,37.3614085 76.9232842,39.5535211 76.9232842,39.5535211 L81.4850722,39.5535211 L77.5074224,20.4921127 L77.5074224,20.4921127 Z" id="Fill-3" fill="#26337A"></path>
            <path d="M38.0333948,20.4887324 L33.222828,33.4926761 L32.7075607,30.8492958 C31.8111137,27.803662 29.0205745,24.5025352 25.8991736,22.8484507 L30.300169,39.5301408 L35.5017542,39.5270423 L43.2417266,20.4887324 L38.0333948,20.4887324" id="Fill-4" fill="#26337A"></path>
            <path d="M28.7571782,20.4757746 L20.8313948,20.4757746 L20.7661782,20.8709859 C26.9333625,22.4509859 31.0138971,26.2647887 32.7075607,30.8492958 L30.9852243,22.0850704 C30.6880952,20.876338 29.8245376,20.5180282 28.7571782,20.4757746" id="Fill-5" fill="#EC982D"></path>
            <g id="Rectangle">
                <use fill="#D9D9D9" fill-rule="evenodd" style="mix-blend-mode: color;" xlink:href="#path-1"></use>
                <use fill-opacity="0.800000012" fill="#D8D8D8" fill-rule="evenodd" style="mix-blend-mode: screen;" xlink:href="#path-1"></use>
                <rect stroke="#D9D9D9" stroke-width="1" x="0.5" y="0.5" width="99" height="59" rx="4"></rect>
            </g>
        </g>
    </g>
</svg>